solid CATIA STL
  facet normal -2.327157e-001  0.000000e+000 -9.725448e-001
    outer loop
      vertex  2.280952e+001 -1.026549e+002  6.326504e+001
      vertex  1.900321e+001 -1.026549e+002  6.417583e+001
      vertex  1.900321e+001 -1.001970e+002  6.417583e+001
    endloop
  endfacet
  facet normal -2.327157e-001  0.000000e+000 -9.725447e-001
    outer loop
      vertex  2.280952e+001 -1.026549e+002  6.326504e+001
      vertex  1.900321e+001 -1.001970e+002  6.417583e+001
      vertex  1.900321e+001 -9.319703e+001  6.417583e+001
    endloop
  endfacet
  facet normal -2.327154e-001  1.390722e-007 -9.725449e-001
    outer loop
      vertex  2.280952e+001 -1.026549e+002  6.326504e+001
      vertex  1.900321e+001 -9.319703e+001  6.417583e+001
      vertex  4.162802e+001 -9.334699e+001  5.876206e+001
    endloop
  endfacet
  facet normal -2.327153e-001  -0.000000e+000 -9.725450e-001
    outer loop
      vertex  2.280952e+001 -1.026549e+002  6.326504e+001
      vertex  4.162802e+001 -9.334699e+001  5.876206e+001
      vertex  4.162802e+001 -1.026549e+002  5.876206e+001
    endloop
  endfacet
  facet normal -2.327155e-001  -0.000000e+000 -9.725448e-001
    outer loop
      vertex  4.162802e+001 -1.113762e+002  5.876206e+001
      vertex  4.979423e+001 -8.607365e+001  5.680801e+001
      vertex  4.979423e+001 -9.340112e+001  5.680801e+001
    endloop
  endfacet
  facet normal -2.327155e-001  -0.000000e+000 -9.725448e-001
    outer loop
      vertex  4.162802e+001 -1.113762e+002  5.876206e+001
      vertex  4.979423e+001 -9.340112e+001  5.680801e+001
      vertex  4.979423e+001 -1.025775e+002  5.680801e+001
    endloop
  endfacet
  facet normal -2.327156e-001  -0.000000e+000 -9.725448e-001
    outer loop
      vertex  4.162802e+001 -1.113762e+002  5.876206e+001
      vertex  4.979423e+001 -1.025775e+002  5.680801e+001
      vertex  4.979423e+001 -1.113762e+002  5.680801e+001
    endloop
  endfacet
  facet normal -2.327155e-001  0.000000e+000 -9.725448e-001
    outer loop
      vertex  4.979423e+001 -8.607365e+001  5.680801e+001
      vertex  4.162802e+001 -1.113762e+002  5.876206e+001
      vertex  4.162802e+001 -1.026549e+002  5.876206e+001
    endloop
  endfacet
  facet normal -2.327156e-001  0.000000e+000 -9.725448e-001
    outer loop
      vertex  4.979423e+001 -8.607365e+001  5.680801e+001
      vertex  4.162802e+001 -1.026549e+002  5.876206e+001
      vertex  4.162802e+001 -9.334699e+001  5.876206e+001
    endloop
  endfacet
  facet normal -2.327155e-001  0.000000e+000 -9.725448e-001
    outer loop
      vertex  4.979423e+001 -8.607365e+001  5.680801e+001
      vertex  4.162802e+001 -9.334699e+001  5.876206e+001
      vertex  4.162802e+001 -8.607365e+001  5.876206e+001
    endloop
  endfacet
  facet normal -2.327142e-001  0.000000e+000 -9.725451e-001
    outer loop
      vertex  1.900321e+001 -9.319703e+001  6.417583e+001
      vertex  1.900321e+001 -1.001970e+002  6.417583e+001
      vertex  1.616385e+001 -9.319703e+001  6.485525e+001
    endloop
  endfacet
  facet normal -2.327142e-001  -0.000000e+000 -9.725451e-001
    outer loop
      vertex  1.616385e+001 -9.319703e+001  6.485525e+001
      vertex  1.900321e+001 -1.001970e+002  6.417583e+001
      vertex  1.616385e+001 -1.001970e+002  6.485525e+001
    endloop
  endfacet
  facet normal -2.327153e-001  0.000000e+000 -9.725449e-001
    outer loop
      vertex  6.855663e+001 -1.023997e+002  5.231845e+001
      vertex  4.979423e+001 -1.025775e+002  5.680801e+001
      vertex  6.855663e+001 -1.005255e+002  5.231845e+001
    endloop
  endfacet
  facet normal -2.327152e-001  0.000000e+000 -9.725448e-001
    outer loop
      vertex  6.855663e+001 -1.005255e+002  5.231845e+001
      vertex  4.979423e+001 -1.025775e+002  5.680801e+001
      vertex  4.979423e+001 -9.340112e+001  5.680801e+001
    endloop
  endfacet
  facet normal -2.327152e-001  0.000000e+000 -9.725449e-001
    outer loop
      vertex  6.855663e+001 -1.005255e+002  5.231845e+001
      vertex  4.979423e+001 -9.340112e+001  5.680801e+001
      vertex  6.855663e+001 -9.352548e+001  5.231845e+001
    endloop
  endfacet
  facet normal -2.327144e-001  5.299951e-007 -9.725452e-001
    outer loop
      vertex  7.141477e+001 -9.352548e+001  5.163454e+001
      vertex  7.141477e+001 -1.005255e+002  5.163454e+001
      vertex  6.855663e+001 -9.352548e+001  5.231845e+001
    endloop
  endfacet
  facet normal -2.327156e-001  -0.000000e+000 -9.725448e-001
    outer loop
      vertex  6.855663e+001 -9.352548e+001  5.231845e+001
      vertex  7.141477e+001 -1.005255e+002  5.163454e+001
      vertex  6.855663e+001 -1.005255e+002  5.231845e+001
    endloop
  endfacet
  facet normal -2.327168e-001  0.000000e+000 -9.725446e-001
    outer loop
      vertex  1.946864e+001 -1.001970e+002  6.612092e+001
      vertex  1.946864e+001 -1.026549e+002  6.612092e+001
      vertex  1.702244e+001 -1.001970e+002  6.670626e+001
    endloop
  endfacet
  facet normal -2.327152e-001  2.811220e-008 -9.725449e-001
    outer loop
      vertex  4.209345e+001 -9.334699e+001  6.070715e+001
      vertex  1.946864e+001 -9.319703e+001  6.612092e+001
      vertex  1.604990e+001 -7.567545e+001  6.693897e+001
    endloop
  endfacet
  facet normal -2.327152e-001  5.167872e-008 -9.725450e-001
    outer loop
      vertex  4.209345e+001 -9.334699e+001  6.070715e+001
      vertex  1.604990e+001 -7.567545e+001  6.693897e+001
      vertex  2.524642e+001 -2.402917e+001  6.473839e+001
    endloop
  endfacet
  facet normal -2.327152e-001  3.301919e-008 -9.725448e-001
    outer loop
      vertex  4.209345e+001 -9.334699e+001  6.070715e+001
      vertex  2.524642e+001 -2.402917e+001  6.473839e+001
      vertex  3.497187e+001 -2.402917e+001  6.241124e+001
    endloop
  endfacet
  facet normal -2.327156e-001  0.000000e+000 -9.725448e-001
    outer loop
      vertex  4.209345e+001 -9.334699e+001  6.070715e+001
      vertex  3.497187e+001 -2.402917e+001  6.241124e+001
      vertex  4.209345e+001 -8.607365e+001  6.070715e+001
    endloop
  endfacet
  facet normal -2.327138e-001  1.401302e-006 -9.725453e-001
    outer loop
      vertex  3.355571e+001 -1.196735e+002  6.275010e+001
      vertex  1.604990e+001 -1.016735e+002  6.693897e+001
      vertex  1.702244e+001 -1.001970e+002  6.670626e+001
    endloop
  endfacet
  facet normal -2.327246e-001 -8.339788e-006 -9.725427e-001
    outer loop
      vertex  3.355571e+001 -1.196735e+002  6.275010e+001
      vertex  1.702244e+001 -1.001970e+002  6.670626e+001
      vertex  1.946864e+001 -1.026549e+002  6.612092e+001
    endloop
  endfacet
  facet normal -2.327148e-001  2.434060e-007 -9.725450e-001
    outer loop
      vertex  3.355571e+001 -1.196735e+002  6.275010e+001
      vertex  1.946864e+001 -1.026549e+002  6.612092e+001
      vertex  2.327495e+001 -1.026549e+002  6.521013e+001
    endloop
  endfacet
  facet normal -2.327153e-001  0.000000e+000 -9.725450e-001
    outer loop
      vertex  3.355571e+001 -1.196735e+002  6.275010e+001
      vertex  2.327495e+001 -1.026549e+002  6.521013e+001
      vertex  4.209345e+001 -1.026549e+002  6.070715e+001
    endloop
  endfacet
  facet normal -2.327152e-001  1.907348e-007 -9.725450e-001
    outer loop
      vertex  6.736225e+001 -2.102917e+001  5.466071e+001
      vertex  6.420521e+001 -2.202917e+001  5.541614e+001
      vertex  5.447976e+001 -2.202917e+001  5.774329e+001
    endloop
  endfacet
  facet normal -2.327154e-001  3.993730e-006 -9.725448e-001
    outer loop
      vertex  6.736225e+001 -2.102917e+001  5.466071e+001
      vertex  5.447976e+001 -2.202917e+001  5.774329e+001
      vertex  3.497187e+001 -2.202917e+001  6.241124e+001
    endloop
  endfacet
  facet normal -2.327152e-001 -2.288818e-006 -9.725450e-001
    outer loop
      vertex  6.736225e+001 -2.102917e+001  5.466071e+001
      vertex  3.497187e+001 -2.202917e+001  6.241124e+001
      vertex  2.524642e+001 -2.202917e+001  6.473839e+001
    endloop
  endfacet
  facet normal -2.327153e-001 -1.525178e-006 -9.725449e-001
    outer loop
      vertex  6.736225e+001 -2.102917e+001  5.466071e+001
      vertex  2.524642e+001 -2.202917e+001  6.473839e+001
      vertex  2.114515e+001 -2.102917e+001  6.571976e+001
    endloop
  endfacet
  facet normal -2.327168e-001  0.000000e+000 -9.725446e-001
    outer loop
      vertex  5.495169e+001 -1.196735e+002  5.763036e+001
      vertex  5.495169e+001 -1.330670e+002  5.763036e+001
      vertex  5.480927e+001 -1.334206e+002  5.766444e+001
    endloop
  endfacet
  facet normal -2.327212e-001  4.869416e-008 -9.725435e-001
    outer loop
      vertex  5.495169e+001 -1.196735e+002  5.763036e+001
      vertex  5.480927e+001 -1.334206e+002  5.766444e+001
      vertex  5.446542e+001 -1.335670e+002  5.774672e+001
    endloop
  endfacet
  facet normal -2.327158e-001 -1.514226e-007 -9.725448e-001
    outer loop
      vertex  5.495169e+001 -1.196735e+002  5.763036e+001
      vertex  5.446542e+001 -1.335670e+002  5.774672e+001
      vertex  5.025965e+001 -1.025775e+002  5.875310e+001
    endloop
  endfacet
  facet normal -2.327152e-001  2.307219e-008 -9.725450e-001
    outer loop
      vertex  5.495169e+001 -1.196735e+002  5.763036e+001
      vertex  5.025965e+001 -1.025775e+002  5.875310e+001
      vertex  6.902206e+001 -1.023997e+002  5.426354e+001
    endloop
  endfacet
  facet normal -2.327151e-001 -7.552070e-008 -9.725448e-001
    outer loop
      vertex  5.495169e+001 -1.196735e+002  5.763036e+001
      vertex  6.902206e+001 -1.023997e+002  5.426354e+001
      vertex  7.245750e+001 -1.016735e+002  5.344149e+001
    endloop
  endfacet
  facet normal -2.327152e-001  0.000000e+000 -9.725450e-001
    outer loop
      vertex  6.902206e+001 -9.352548e+001  5.426354e+001
      vertex  5.025965e+001 -9.340112e+001  5.875310e+001
      vertex  5.025965e+001 -8.607365e+001  5.875310e+001
    endloop
  endfacet
  facet normal -2.327152e-001 -2.637670e-008 -9.725449e-001
    outer loop
      vertex  6.902206e+001 -9.352548e+001  5.426354e+001
      vertex  5.025965e+001 -8.607365e+001  5.875310e+001
      vertex  5.447976e+001 -2.402917e+001  5.774329e+001
    endloop
  endfacet
  facet normal -2.327151e-001 -1.097813e-008 -9.725449e-001
    outer loop
      vertex  6.902206e+001 -9.352548e+001  5.426354e+001
      vertex  5.447976e+001 -2.402917e+001  5.774329e+001
      vertex  6.420521e+001 -2.402917e+001  5.541614e+001
    endloop
  endfacet
  facet normal -2.327156e-001  0.000000e+000 -9.725448e-001
    outer loop
      vertex  4.209345e+001 -1.026549e+002  6.070715e+001
      vertex  4.209345e+001 -1.113762e+002  6.070715e+001
      vertex  3.404198e+001 -1.335670e+002  6.263374e+001
    endloop
  endfacet
  facet normal -2.327092e-001 -1.732939e-006 -9.725463e-001
    outer loop
      vertex  4.209345e+001 -1.026549e+002  6.070715e+001
      vertex  3.404198e+001 -1.335670e+002  6.263374e+001
      vertex  3.369813e+001 -1.334206e+002  6.271602e+001
    endloop
  endfacet
  facet normal -2.327162e-001  2.602625e-007 -9.725448e-001
    outer loop
      vertex  4.209345e+001 -1.026549e+002  6.070715e+001
      vertex  3.369813e+001 -1.334206e+002  6.271602e+001
      vertex  3.355571e+001 -1.330670e+002  6.275010e+001
    endloop
  endfacet
  facet normal -2.327153e-001  0.000000e+000 -9.725450e-001
    outer loop
      vertex  4.209345e+001 -1.026549e+002  6.070715e+001
      vertex  3.355571e+001 -1.330670e+002  6.275010e+001
      vertex  3.355571e+001 -1.196735e+002  6.275010e+001
    endloop
  endfacet
  facet normal -2.327219e-001 -9.864822e-006 -9.725434e-001
    outer loop
      vertex  6.784667e+001 -2.148559e+001  5.454479e+001
      vertex  6.736225e+001 -2.102917e+001  5.466071e+001
      vertex  6.769077e+001 -2.116053e+001  5.458210e+001
    endloop
  endfacet
  facet normal -2.327146e-001 -1.716134e-006 -9.725451e-001
    outer loop
      vertex  6.736225e+001 -2.102917e+001  5.466071e+001
      vertex  6.784667e+001 -2.148559e+001  5.454479e+001
      vertex  6.420521e+001 -2.202917e+001  5.541614e+001
    endloop
  endfacet
  facet normal -2.327148e-001  3.480933e-008 -9.725450e-001
    outer loop
      vertex  6.420521e+001 -2.202917e+001  5.541614e+001
      vertex  6.784667e+001 -2.148559e+001  5.454479e+001
      vertex  7.245750e+001 -7.567545e+001  5.344149e+001
    endloop
  endfacet
  facet normal -2.327152e-001  0.000000e+000 -9.725449e-001
    outer loop
      vertex  6.420521e+001 -2.202917e+001  5.541614e+001
      vertex  7.245750e+001 -7.567545e+001  5.344149e+001
      vertex  6.420521e+001 -2.402917e+001  5.541614e+001
    endloop
  endfacet
  facet normal -2.327143e-001  1.268487e-007 -9.725451e-001
    outer loop
      vertex  6.420521e+001 -2.402917e+001  5.541614e+001
      vertex  7.245750e+001 -7.567545e+001  5.344149e+001
      vertex  7.148716e+001 -9.352548e+001  5.367368e+001
    endloop
  endfacet
  facet normal -2.327163e-001 -9.745109e-008 -9.725447e-001
    outer loop
      vertex  6.420521e+001 -2.402917e+001  5.541614e+001
      vertex  7.148716e+001 -9.352548e+001  5.367368e+001
      vertex  6.902206e+001 -9.352548e+001  5.426354e+001
    endloop
  endfacet
  facet normal -2.327154e-001  0.000000e+000 -9.725448e-001
    outer loop
      vertex  5.447976e+001 -2.202917e+001  5.774329e+001
      vertex  5.447976e+001 -2.402917e+001  5.774329e+001
      vertex  3.497187e+001 -2.202917e+001  6.241124e+001
    endloop
  endfacet
  facet normal -2.327154e-001  -0.000000e+000 -9.725448e-001
    outer loop
      vertex  3.497187e+001 -2.202917e+001  6.241124e+001
      vertex  5.447976e+001 -2.402917e+001  5.774329e+001
      vertex  3.497187e+001 -2.402917e+001  6.241124e+001
    endloop
  endfacet
  facet normal -2.327154e-001 -1.149443e-008 -9.725448e-001
    outer loop
      vertex  5.447976e+001 -2.402917e+001  5.774329e+001
      vertex  5.025965e+001 -8.607365e+001  5.875310e+001
      vertex  3.497187e+001 -2.402917e+001  6.241124e+001
    endloop
  endfacet
  facet normal -2.327152e-001  4.393370e-008 -9.725449e-001
    outer loop
      vertex  3.497187e+001 -2.402917e+001  6.241124e+001
      vertex  5.025965e+001 -8.607365e+001  5.875310e+001
      vertex  4.209345e+001 -8.607365e+001  6.070715e+001
    endloop
  endfacet
  facet normal -2.327187e-001 -1.657634e-005 -9.725441e-001
    outer loop
      vertex  2.114515e+001 -2.102917e+001  6.571976e+001
      vertex  2.524642e+001 -2.202917e+001  6.473839e+001
      vertex  2.081663e+001 -2.116053e+001  6.579837e+001
    endloop
  endfacet
  facet normal -2.327133e-001  1.284196e-005 -9.725454e-001
    outer loop
      vertex  2.081663e+001 -2.116053e+001  6.579837e+001
      vertex  2.524642e+001 -2.202917e+001  6.473839e+001
      vertex  2.066073e+001 -2.148559e+001  6.583567e+001
    endloop
  endfacet
  facet normal -2.327147e-001  0.000000e+000 -9.725450e-001
    outer loop
      vertex  2.524642e+001 -2.202917e+001  6.473839e+001
      vertex  2.524642e+001 -2.402917e+001  6.473839e+001
      vertex  2.066073e+001 -2.148559e+001  6.583567e+001
    endloop
  endfacet
  facet normal -2.327148e-001 -3.385972e-008 -9.725451e-001
    outer loop
      vertex  2.066073e+001 -2.148559e+001  6.583567e+001
      vertex  2.524642e+001 -2.402917e+001  6.473839e+001
      vertex  1.604990e+001 -7.567545e+001  6.693897e+001
    endloop
  endfacet
  facet normal -2.327121e-001  0.000000e+000 -9.725457e-001
    outer loop
      vertex  7.245750e+001 -7.567545e+001  5.344149e+001
      vertex  7.245750e+001 -1.016735e+002  5.344149e+001
      vertex  7.148716e+001 -9.352548e+001  5.367368e+001
    endloop
  endfacet
  facet normal -2.327121e-001  -0.000000e+000 -9.725457e-001
    outer loop
      vertex  7.148716e+001 -9.352548e+001  5.367368e+001
      vertex  7.245750e+001 -1.016735e+002  5.344149e+001
      vertex  7.148716e+001 -1.005255e+002  5.367368e+001
    endloop
  endfacet
  facet normal -2.327147e-001 -2.344319e-006 -9.725450e-001
    outer loop
      vertex  7.245750e+001 -1.016735e+002  5.344149e+001
      vertex  6.902206e+001 -1.023997e+002  5.426354e+001
      vertex  7.148716e+001 -1.005255e+002  5.367368e+001
    endloop
  endfacet
  facet normal -2.327163e-001  0.000000e+000 -9.725447e-001
    outer loop
      vertex  7.148716e+001 -1.005255e+002  5.367368e+001
      vertex  6.902206e+001 -1.023997e+002  5.426354e+001
      vertex  6.902206e+001 -1.005255e+002  5.426354e+001
    endloop
  endfacet
  facet normal -2.327168e-001 -2.894265e-007 -9.725446e-001
    outer loop
      vertex  1.946864e+001 -9.319703e+001  6.612092e+001
      vertex  1.702244e+001 -9.319703e+001  6.670626e+001
      vertex  1.604990e+001 -7.567545e+001  6.693897e+001
    endloop
  endfacet
  facet normal -2.327118e-001  0.000000e+000 -9.725457e-001
    outer loop
      vertex  1.604990e+001 -7.567545e+001  6.693897e+001
      vertex  1.702244e+001 -9.319703e+001  6.670626e+001
      vertex  1.702244e+001 -1.001970e+002  6.670626e+001
    endloop
  endfacet
  facet normal -2.327118e-001  0.000000e+000 -9.725457e-001
    outer loop
      vertex  1.604990e+001 -7.567545e+001  6.693897e+001
      vertex  1.702244e+001 -1.001970e+002  6.670626e+001
      vertex  1.604990e+001 -1.016735e+002  6.693897e+001
    endloop
  endfacet
  facet normal -2.327147e-001  0.000000e+000 -9.725450e-001
    outer loop
      vertex  5.025965e+001 -1.025775e+002  5.875310e+001
      vertex  5.446542e+001 -1.335670e+002  5.774672e+001
      vertex  5.025965e+001 -1.113762e+002  5.875310e+001
    endloop
  endfacet
  facet normal -2.327152e-001 -1.023240e-007 -9.725449e-001
    outer loop
      vertex  5.025965e+001 -1.113762e+002  5.875310e+001
      vertex  5.446542e+001 -1.335670e+002  5.774672e+001
      vertex  3.404198e+001 -1.335670e+002  6.263374e+001
    endloop
  endfacet
  facet normal -2.327152e-001 -1.228366e-007 -9.725449e-001
    outer loop
      vertex  5.025965e+001 -1.113762e+002  5.875310e+001
      vertex  3.404198e+001 -1.335670e+002  6.263374e+001
      vertex  4.209345e+001 -1.113762e+002  6.070715e+001
    endloop
  endfacet
  facet normal -9.725447e-001  0.000000e+000  2.327163e-001
    outer loop
      vertex  1.900321e+001 -1.026549e+002  6.417583e+001
      vertex  1.946864e+001 -1.026549e+002  6.612092e+001
      vertex  1.900321e+001 -1.001970e+002  6.417583e+001
    endloop
  endfacet
  facet normal -9.725447e-001  0.000000e+000  2.327163e-001
    outer loop
      vertex  1.900321e+001 -1.001970e+002  6.417583e+001
      vertex  1.946864e+001 -1.026549e+002  6.612092e+001
      vertex  1.946864e+001 -1.001970e+002  6.612092e+001
    endloop
  endfacet
  facet normal  6.269176e-003  9.999792e-001 -1.500126e-003
    outer loop
      vertex  1.900321e+001 -9.319703e+001  6.417583e+001
      vertex  1.946864e+001 -9.319703e+001  6.612092e+001
      vertex  4.162802e+001 -9.334699e+001  5.876206e+001
    endloop
  endfacet
  facet normal  6.269176e-003  9.999791e-001 -1.500123e-003
    outer loop
      vertex  4.162802e+001 -9.334699e+001  5.876206e+001
      vertex  1.946864e+001 -9.319703e+001  6.612092e+001
      vertex  4.209345e+001 -9.334699e+001  6.070715e+001
    endloop
  endfacet
  facet normal  -0.000000e+000  1.000000e+000  0.000000e+000
    outer loop
      vertex  1.900321e+001 -9.319703e+001  6.417583e+001
      vertex  1.616385e+001 -9.319703e+001  6.485525e+001
      vertex  1.946864e+001 -9.319703e+001  6.612092e+001
    endloop
  endfacet
  facet normal  0.000000e+000  1.000000e+000  0.000000e+000
    outer loop
      vertex  1.946864e+001 -9.319703e+001  6.612092e+001
      vertex  1.616385e+001 -9.319703e+001  6.485525e+001
      vertex  1.702244e+001 -9.319703e+001  6.670626e+001
    endloop
  endfacet
  facet normal  0.000000e+000 -1.000000e+000  0.000000e+000
    outer loop
      vertex  1.946864e+001 -1.001970e+002  6.612092e+001
      vertex  1.702244e+001 -1.001970e+002  6.670626e+001
      vertex  1.900321e+001 -1.001970e+002  6.417583e+001
    endloop
  endfacet
  facet normal  0.000000e+000 -1.000000e+000  0.000000e+000
    outer loop
      vertex  1.900321e+001 -1.001970e+002  6.417583e+001
      vertex  1.702244e+001 -1.001970e+002  6.670626e+001
      vertex  1.616385e+001 -1.001970e+002  6.485525e+001
    endloop
  endfacet
  facet normal -9.071597e-001  0.000000e+000  4.207863e-001
    outer loop
      vertex  1.616385e+001 -1.001970e+002  6.485525e+001
      vertex  1.702244e+001 -1.001970e+002  6.670626e+001
      vertex  1.616385e+001 -9.319703e+001  6.485525e+001
    endloop
  endfacet
  facet normal -9.071597e-001  0.000000e+000  4.207863e-001
    outer loop
      vertex  1.616385e+001 -9.319703e+001  6.485525e+001
      vertex  1.702244e+001 -1.001970e+002  6.670626e+001
      vertex  1.702244e+001 -9.319703e+001  6.670626e+001
    endloop
  endfacet
  facet normal  9.725448e-001  0.000000e+000 -2.327154e-001
    outer loop
      vertex  6.855663e+001 -1.005255e+002  5.231845e+001
      vertex  6.902206e+001 -1.005255e+002  5.426354e+001
      vertex  6.855663e+001 -1.023997e+002  5.231845e+001
    endloop
  endfacet
  facet normal  9.725448e-001  0.000000e+000 -2.327154e-001
    outer loop
      vertex  6.855663e+001 -1.023997e+002  5.231845e+001
      vertex  6.902206e+001 -1.005255e+002  5.426354e+001
      vertex  6.902206e+001 -1.023997e+002  5.426354e+001
    endloop
  endfacet
  facet normal  6.269020e-003  9.999793e-001 -1.500070e-003
    outer loop
      vertex  4.979423e+001 -9.340112e+001  5.680801e+001
      vertex  5.025965e+001 -9.340112e+001  5.875310e+001
      vertex  6.855663e+001 -9.352548e+001  5.231845e+001
    endloop
  endfacet
  facet normal  6.269016e-003  9.999793e-001 -1.500082e-003
    outer loop
      vertex  6.855663e+001 -9.352548e+001  5.231845e+001
      vertex  5.025965e+001 -9.340112e+001  5.875310e+001
      vertex  6.902206e+001 -9.352548e+001  5.426354e+001
    endloop
  endfacet
  facet normal  0.000000e+000 -9.999999e-001  0.000000e+000
    outer loop
      vertex  6.902206e+001 -1.005255e+002  5.426354e+001
      vertex  6.855663e+001 -1.005255e+002  5.231845e+001
      vertex  7.148716e+001 -1.005255e+002  5.367368e+001
    endloop
  endfacet
  facet normal  0.000000e+000 -1.000000e+000  0.000000e+000
    outer loop
      vertex  7.148716e+001 -1.005255e+002  5.367368e+001
      vertex  6.855663e+001 -1.005255e+002  5.231845e+001
      vertex  7.141477e+001 -1.005255e+002  5.163454e+001
    endloop
  endfacet
  facet normal  0.000000e+000  1.000000e+000  0.000000e+000
    outer loop
      vertex  6.855663e+001 -9.352548e+001  5.231845e+001
      vertex  6.902206e+001 -9.352548e+001  5.426354e+001
      vertex  7.141477e+001 -9.352548e+001  5.163454e+001
    endloop
  endfacet
  facet normal  0.000000e+000  1.000000e+000  -0.000000e+000
    outer loop
      vertex  7.141477e+001 -9.352548e+001  5.163454e+001
      vertex  6.902206e+001 -9.352548e+001  5.426354e+001
      vertex  7.148716e+001 -9.352548e+001  5.367368e+001
    endloop
  endfacet
  facet normal  9.993705e-001  1.933332e-008 -3.547680e-002
    outer loop
      vertex  7.141477e+001 -1.005255e+002  5.163454e+001
      vertex  7.141477e+001 -9.352548e+001  5.163454e+001
      vertex  7.148716e+001 -1.005255e+002  5.367368e+001
    endloop
  endfacet
  facet normal  9.993705e-001  0.000000e+000 -3.547687e-002
    outer loop
      vertex  7.148716e+001 -1.005255e+002  5.367368e+001
      vertex  7.141477e+001 -9.352548e+001  5.163454e+001
      vertex  7.148716e+001 -9.352548e+001  5.367368e+001
    endloop
  endfacet
  facet normal -9.725448e-001  0.000000e+000  2.327159e-001
    outer loop
      vertex  4.162802e+001 -1.026549e+002  5.876206e+001
      vertex  4.162802e+001 -1.113762e+002  5.876206e+001
      vertex  4.209345e+001 -1.026549e+002  6.070715e+001
    endloop
  endfacet
  facet normal -9.725448e-001  0.000000e+000  2.327159e-001
    outer loop
      vertex  4.209345e+001 -1.026549e+002  6.070715e+001
      vertex  4.162802e+001 -1.113762e+002  5.876206e+001
      vertex  4.209345e+001 -1.113762e+002  6.070715e+001
    endloop
  endfacet
  facet normal  -0.000000e+000 -1.000000e+000  0.000000e+000
    outer loop
      vertex  4.979423e+001 -1.113762e+002  5.680801e+001
      vertex  5.025965e+001 -1.113762e+002  5.875310e+001
      vertex  4.162802e+001 -1.113762e+002  5.876206e+001
    endloop
  endfacet
  facet normal  0.000000e+000 -1.000000e+000  0.000000e+000
    outer loop
      vertex  4.162802e+001 -1.113762e+002  5.876206e+001
      vertex  5.025965e+001 -1.113762e+002  5.875310e+001
      vertex  4.209345e+001 -1.113762e+002  6.070715e+001
    endloop
  endfacet
  facet normal  9.725453e-001  0.000000e+000 -2.327136e-001
    outer loop
      vertex  4.979423e+001 -1.113762e+002  5.680801e+001
      vertex  4.979423e+001 -1.025775e+002  5.680801e+001
      vertex  5.025965e+001 -1.113762e+002  5.875310e+001
    endloop
  endfacet
  facet normal  9.725453e-001  0.000000e+000 -2.327136e-001
    outer loop
      vertex  5.025965e+001 -1.113762e+002  5.875310e+001
      vertex  4.979423e+001 -1.025775e+002  5.680801e+001
      vertex  5.025965e+001 -1.025775e+002  5.875310e+001
    endloop
  endfacet
  facet normal  8.962961e-003 -9.999576e-001 -2.144702e-003
    outer loop
      vertex  6.855663e+001 -1.023997e+002  5.231845e+001
      vertex  6.902206e+001 -1.023997e+002  5.426354e+001
      vertex  4.979423e+001 -1.025775e+002  5.680801e+001
    endloop
  endfacet
  facet normal  8.962963e-003 -9.999575e-001 -2.144685e-003
    outer loop
      vertex  4.979423e+001 -1.025775e+002  5.680801e+001
      vertex  6.902206e+001 -1.023997e+002  5.426354e+001
      vertex  5.025965e+001 -1.025775e+002  5.875310e+001
    endloop
  endfacet
  facet normal  9.725453e-001  0.000000e+000 -2.327136e-001
    outer loop
      vertex  4.979423e+001 -9.340112e+001  5.680801e+001
      vertex  4.979423e+001 -8.607365e+001  5.680801e+001
      vertex  5.025965e+001 -9.340112e+001  5.875310e+001
    endloop
  endfacet
  facet normal  9.725453e-001  0.000000e+000 -2.327136e-001
    outer loop
      vertex  5.025965e+001 -9.340112e+001  5.875310e+001
      vertex  4.979423e+001 -8.607365e+001  5.680801e+001
      vertex  5.025965e+001 -8.607365e+001  5.875310e+001
    endloop
  endfacet
  facet normal  0.000000e+000  1.000000e+000  0.000000e+000
    outer loop
      vertex  4.979423e+001 -8.607365e+001  5.680801e+001
      vertex  4.162802e+001 -8.607365e+001  5.876206e+001
      vertex  5.025965e+001 -8.607365e+001  5.875310e+001
    endloop
  endfacet
  facet normal  0.000000e+000  1.000000e+000  0.000000e+000
    outer loop
      vertex  5.025965e+001 -8.607365e+001  5.875310e+001
      vertex  4.162802e+001 -8.607365e+001  5.876206e+001
      vertex  4.209345e+001 -8.607365e+001  6.070715e+001
    endloop
  endfacet
  facet normal -9.725448e-001  0.000000e+000  2.327159e-001
    outer loop
      vertex  4.162802e+001 -8.607365e+001  5.876206e+001
      vertex  4.162802e+001 -9.334699e+001  5.876206e+001
      vertex  4.209345e+001 -8.607365e+001  6.070715e+001
    endloop
  endfacet
  facet normal -9.725448e-001  0.000000e+000  2.327159e-001
    outer loop
      vertex  4.209345e+001 -8.607365e+001  6.070715e+001
      vertex  4.162802e+001 -9.334699e+001  5.876206e+001
      vertex  4.209345e+001 -9.334699e+001  6.070715e+001
    endloop
  endfacet
  facet normal  0.000000e+000 -1.000000e+000  0.000000e+000
    outer loop
      vertex  2.280952e+001 -1.026549e+002  6.326504e+001
      vertex  2.327495e+001 -1.026549e+002  6.521013e+001
      vertex  1.900321e+001 -1.026549e+002  6.417583e+001
    endloop
  endfacet
  facet normal  0.000000e+000 -1.000000e+000  0.000000e+000
    outer loop
      vertex  1.900321e+001 -1.026549e+002  6.417583e+001
      vertex  2.327495e+001 -1.026549e+002  6.521013e+001
      vertex  1.946864e+001 -1.026549e+002  6.612092e+001
    endloop
  endfacet
  facet normal  -0.000000e+000 -1.000000e+000  0.000000e+000
    outer loop
      vertex  4.162802e+001 -1.026549e+002  5.876206e+001
      vertex  4.209345e+001 -1.026549e+002  6.070715e+001
      vertex  2.280952e+001 -1.026549e+002  6.326504e+001
    endloop
  endfacet
  facet normal  0.000000e+000 -1.000000e+000  0.000000e+000
    outer loop
      vertex  2.280952e+001 -1.026549e+002  6.326504e+001
      vertex  4.209345e+001 -1.026549e+002  6.070715e+001
      vertex  2.327495e+001 -1.026549e+002  6.521013e+001
    endloop
  endfacet
  facet normal  0.000000e+000 -1.000000e+000  0.000000e+000
    outer loop
      vertex  5.469814e+001 -1.335670e+002  5.871926e+001
      vertex  3.427470e+001 -1.335670e+002  6.360629e+001
      vertex  5.446542e+001 -1.335670e+002  5.774672e+001
    endloop
  endfacet
  facet normal  0.000000e+000 -9.999999e-001  0.000000e+000
    outer loop
      vertex  5.446542e+001 -1.335670e+002  5.774672e+001
      vertex  3.427470e+001 -1.335670e+002  6.360629e+001
      vertex  3.404198e+001 -1.335670e+002  6.263374e+001
    endloop
  endfacet
  facet normal  9.725449e-001  0.000000e+000 -2.327154e-001
    outer loop
      vertex  5.518441e+001 -1.196735e+002  5.860291e+001
      vertex  5.518441e+001 -1.330670e+002  5.860291e+001
      vertex  5.495169e+001 -1.196735e+002  5.763036e+001
    endloop
  endfacet
  facet normal  9.725449e-001  0.000000e+000 -2.327154e-001
    outer loop
      vertex  5.495169e+001 -1.196735e+002  5.763036e+001
      vertex  5.518441e+001 -1.330670e+002  5.860291e+001
      vertex  5.495169e+001 -1.330670e+002  5.763036e+001
    endloop
  endfacet
  facet normal  2.307640e-001 -1.292189e-001  9.643912e-001
    outer loop
      vertex  5.444458e+001 -1.325670e+002  5.980817e+001
      vertex  3.499368e+001 -1.325670e+002  6.446247e+001
      vertex  5.456142e+001 -1.328233e+002  5.974588e+001
    endloop
  endfacet
  facet normal  2.307646e-001 -1.292051e-001  9.643930e-001
    outer loop
      vertex  5.456142e+001 -1.328233e+002  5.974588e+001
      vertex  3.499368e+001 -1.325670e+002  6.446247e+001
      vertex  3.486130e+001 -1.328233e+002  6.445982e+001
    endloop
  endfacet
  facet normal  1.938662e-001 -5.531799e-001  8.101901e-001
    outer loop
      vertex  5.456142e+001 -1.328233e+002  5.974588e+001
      vertex  3.486130e+001 -1.328233e+002  6.445982e+001
      vertex  5.473897e+001 -1.333585e+002  5.933797e+001
    endloop
  endfacet
  facet normal  1.938668e-001 -5.531763e-001  8.101923e-001
    outer loop
      vertex  5.473897e+001 -1.333585e+002  5.933797e+001
      vertex  3.486130e+001 -1.328233e+002  6.445982e+001
      vertex  3.451834e+001 -1.333585e+002  6.417646e+001
    endloop
  endfacet
  facet normal  7.514675e-002 -9.464288e-001  3.140471e-001
    outer loop
      vertex  5.473897e+001 -1.333585e+002  5.933797e+001
      vertex  3.451834e+001 -1.333585e+002  6.417646e+001
      vertex  5.469814e+001 -1.335670e+002  5.871926e+001
    endloop
  endfacet
  facet normal  7.514682e-002 -9.464287e-001  3.140474e-001
    outer loop
      vertex  5.469814e+001 -1.335670e+002  5.871926e+001
      vertex  3.451834e+001 -1.333585e+002  6.417646e+001
      vertex  3.427470e+001 -1.335670e+002  6.360629e+001
    endloop
  endfacet
  facet normal  5.253507e-001  -0.000000e+000  8.508857e-001
    outer loop
      vertex  5.444458e+001 -1.192593e+002  5.980817e+001
      vertex  5.444458e+001 -1.325670e+002  5.980817e+001
      vertex  5.497709e+001 -1.195055e+002  5.947939e+001
    endloop
  endfacet
  facet normal  3.604845e-001  8.781420e-003  9.327239e-001
    outer loop
      vertex  5.497709e+001 -1.195055e+002  5.947939e+001
      vertex  5.444458e+001 -1.325670e+002  5.980817e+001
      vertex  5.468603e+001 -1.326952e+002  5.971606e+001
    endloop
  endfacet
  facet normal  7.307474e-001 -3.876640e-003  6.826370e-001
    outer loop
      vertex  5.497709e+001 -1.195055e+002  5.947939e+001
      vertex  5.468603e+001 -1.326952e+002  5.971606e+001
      vertex  5.512384e+001 -1.329628e+002  5.924588e+001
    endloop
  endfacet
  facet normal  9.955917e-001  0.000000e+000  9.379413e-002
    outer loop
      vertex  5.518441e+001 -1.330670e+002  5.860291e+001
      vertex  5.518441e+001 -1.196735e+002  5.860291e+001
      vertex  5.512384e+001 -1.329628e+002  5.924588e+001
    endloop
  endfacet
  facet normal  9.999871e-001 -4.438076e-003  2.479296e-003
    outer loop
      vertex  5.512384e+001 -1.329628e+002  5.924588e+001
      vertex  5.518441e+001 -1.196735e+002  5.860291e+001
      vertex  5.518345e+001 -1.196279e+002  5.907232e+001
    endloop
  endfacet
  facet normal  8.921636e-001  1.890786e-003  4.517085e-001
    outer loop
      vertex  5.512384e+001 -1.329628e+002  5.924588e+001
      vertex  5.518345e+001 -1.196279e+002  5.907232e+001
      vertex  5.497709e+001 -1.195055e+002  5.947939e+001
    endloop
  endfacet
  facet normal  2.327151e-001  0.000000e+000  9.725450e-001
    outer loop
      vertex  5.444458e+001 -1.192593e+002  5.980817e+001
      vertex  3.499368e+001 -1.325670e+002  6.446247e+001
      vertex  5.444458e+001 -1.325670e+002  5.980817e+001
    endloop
  endfacet
  facet normal  2.327152e-001  -0.000000e+000  9.725450e-001
    outer loop
      vertex  3.499368e+001 -1.192593e+002  6.446247e+001
      vertex  3.499368e+001 -1.325670e+002  6.446247e+001
      vertex  6.738210e+001 -2.202917e+001  5.671242e+001
    endloop
  endfacet
  facet normal  2.327150e-001  4.747940e-008  9.725450e-001
    outer loop
      vertex  6.738210e+001 -2.202917e+001  5.671242e+001
      vertex  3.499368e+001 -1.325670e+002  6.446247e+001
      vertex  5.444458e+001 -1.192593e+002  5.980817e+001
    endloop
  endfacet
  facet normal  2.327154e-001 -1.303125e-008  9.725448e-001
    outer loop
      vertex  6.738210e+001 -2.202917e+001  5.671242e+001
      vertex  5.444458e+001 -1.192593e+002  5.980817e+001
      vertex  7.195039e+001 -7.571911e+001  5.561929e+001
    endloop
  endfacet
  facet normal  2.327154e-001  0.000000e+000  9.725449e-001
    outer loop
      vertex  7.195039e+001 -7.571911e+001  5.561929e+001
      vertex  5.444458e+001 -1.192593e+002  5.980817e+001
      vertex  7.195039e+001 -1.012593e+002  5.561929e+001
    endloop
  endfacet
  facet normal  2.327153e-001  -0.000000e+000  9.725450e-001
    outer loop
      vertex  1.748787e+001 -7.571911e+001  6.865135e+001
      vertex  1.748787e+001 -1.012593e+002  6.865135e+001
      vertex  2.205617e+001 -2.202917e+001  6.755823e+001
    endloop
  endfacet
  facet normal  2.327156e-001 -1.641335e-008  9.725448e-001
    outer loop
      vertex  2.205617e+001 -2.202917e+001  6.755823e+001
      vertex  1.748787e+001 -1.012593e+002  6.865135e+001
      vertex  3.499368e+001 -1.192593e+002  6.446247e+001
    endloop
  endfacet
  facet normal  2.327153e-001 -5.219318e-008  9.725448e-001
    outer loop
      vertex  2.205617e+001 -2.202917e+001  6.755823e+001
      vertex  3.499368e+001 -1.192593e+002  6.446247e+001
      vertex  6.738210e+001 -2.202917e+001  5.671242e+001
    endloop
  endfacet
  facet normal  8.985175e-001 -3.826753e-001 -2.150018e-001
    outer loop
      vertex  5.495169e+001 -1.330670e+002  5.763036e+001
      vertex  5.518441e+001 -1.330670e+002  5.860291e+001
      vertex  5.480927e+001 -1.334206e+002  5.766444e+001
    endloop
  endfacet
  facet normal  8.985175e-001 -3.826753e-001 -2.150018e-001
    outer loop
      vertex  5.480927e+001 -1.334206e+002  5.766444e+001
      vertex  5.518441e+001 -1.330670e+002  5.860291e+001
      vertex  5.504198e+001 -1.334206e+002  5.863699e+001
    endloop
  endfacet
  facet normal  3.721601e-001 -9.238867e-001 -8.905233e-002
    outer loop
      vertex  5.480927e+001 -1.334206e+002  5.766444e+001
      vertex  5.504198e+001 -1.334206e+002  5.863699e+001
      vertex  5.446542e+001 -1.335670e+002  5.774672e+001
    endloop
  endfacet
  facet normal  3.721608e-001 -9.238864e-001 -8.905284e-002
    outer loop
      vertex  5.446542e+001 -1.335670e+002  5.774672e+001
      vertex  5.504198e+001 -1.334206e+002  5.863699e+001
      vertex  5.469814e+001 -1.335670e+002  5.871926e+001
    endloop
  endfacet
  facet normal  6.952697e-001 -1.103845e-001  7.102219e-001
    outer loop
      vertex  5.512384e+001 -1.329628e+002  5.924588e+001
      vertex  5.468603e+001 -1.326952e+002  5.971606e+001
      vertex  5.498587e+001 -1.332015e+002  5.934383e+001
    endloop
  endfacet
  facet normal  8.698688e-001  4.472171e-001 -2.081472e-001
    outer loop
      vertex  5.444458e+001 -1.325670e+002  5.980817e+001
      vertex  5.456142e+001 -1.328233e+002  5.974588e+001
      vertex  5.473897e+001 -1.333585e+002  5.933797e+001
    endloop
  endfacet
  facet normal  2.491838e-001 -4.244642e-001  8.704813e-001
    outer loop
      vertex  5.444458e+001 -1.325670e+002  5.980817e+001
      vertex  5.473897e+001 -1.333585e+002  5.933797e+001
      vertex  5.498587e+001 -1.332015e+002  5.934383e+001
    endloop
  endfacet
  facet normal -1.007576e-002 -5.961285e-001  8.028259e-001
    outer loop
      vertex  5.444458e+001 -1.325670e+002  5.980817e+001
      vertex  5.498587e+001 -1.332015e+002  5.934383e+001
      vertex  5.468603e+001 -1.326952e+002  5.971606e+001
    endloop
  endfacet
  facet normal  4.305906e-001 -8.634903e-001  2.626334e-001
    outer loop
      vertex  5.469814e+001 -1.335670e+002  5.871926e+001
      vertex  5.504198e+001 -1.334206e+002  5.863699e+001
      vertex  5.473897e+001 -1.333585e+002  5.933797e+001
    endloop
  endfacet
  facet normal  5.082697e-001 -8.103622e-001  2.915050e-001
    outer loop
      vertex  5.473897e+001 -1.333585e+002  5.933797e+001
      vertex  5.504198e+001 -1.334206e+002  5.863699e+001
      vertex  5.498587e+001 -1.332015e+002  5.934383e+001
    endloop
  endfacet
  facet normal  9.180243e-001 -3.522601e-001  1.820552e-001
    outer loop
      vertex  5.504198e+001 -1.334206e+002  5.863699e+001
      vertex  5.518441e+001 -1.330670e+002  5.860291e+001
      vertex  5.498587e+001 -1.332015e+002  5.934383e+001
    endloop
  endfacet
  facet normal  8.815975e-001 -4.457107e-001  1.553311e-001
    outer loop
      vertex  5.498587e+001 -1.332015e+002  5.934383e+001
      vertex  5.518441e+001 -1.330670e+002  5.860291e+001
      vertex  5.512384e+001 -1.329628e+002  5.924588e+001
    endloop
  endfacet
  facet normal  0.000000e+000  1.000000e+000  0.000000e+000
    outer loop
      vertex  2.137787e+001 -2.102917e+001  6.669231e+001
      vertex  6.759496e+001 -2.102917e+001  5.563325e+001
      vertex  2.114515e+001 -2.102917e+001  6.571976e+001
    endloop
  endfacet
  facet normal  0.000000e+000  1.000000e+000  0.000000e+000
    outer loop
      vertex  2.114515e+001 -2.102917e+001  6.571976e+001
      vertex  6.759496e+001 -2.102917e+001  5.563325e+001
      vertex  6.736225e+001 -2.102917e+001  5.466071e+001
    endloop
  endfacet
  facet normal  2.261403e-001  2.360275e-001  9.450670e-001
    outer loop
      vertex  2.205617e+001 -2.202917e+001  6.755823e+001
      vertex  6.738210e+001 -2.202917e+001  5.671242e+001
      vertex  2.182585e+001 -2.157046e+001  6.749878e+001
    endloop
  endfacet
  facet normal  2.261404e-001  2.360254e-001  9.450675e-001
    outer loop
      vertex  2.182585e+001 -2.157046e+001  6.749878e+001
      vertex  6.738210e+001 -2.202917e+001  5.671242e+001
      vertex  6.756056e+001 -2.157046e+001  5.655515e+001
    endloop
  endfacet
  facet normal  1.787827e-001  6.401543e-001  7.471541e-001
    outer loop
      vertex  2.182585e+001 -2.157046e+001  6.749878e+001
      vertex  6.756056e+001 -2.157046e+001  5.655515e+001
      vertex  2.161318e+001 -2.123791e+001  6.726474e+001
    endloop
  endfacet
  facet normal  1.787822e-001  6.401570e-001  7.471518e-001
    outer loop
      vertex  2.161318e+001 -2.123791e+001  6.726474e+001
      vertex  6.756056e+001 -2.157046e+001  5.655515e+001
      vertex  6.764425e+001 -2.123791e+001  5.625020e+001
    endloop
  endfacet
  facet normal  7.518147e-002  9.463779e-001  3.141922e-001
    outer loop
      vertex  2.161318e+001 -2.123791e+001  6.726474e+001
      vertex  6.764425e+001 -2.123791e+001  5.625020e+001
      vertex  2.137787e+001 -2.102917e+001  6.669231e+001
    endloop
  endfacet
  facet normal  7.518152e-002  9.463778e-001  3.141924e-001
    outer loop
      vertex  2.137787e+001 -2.102917e+001  6.669231e+001
      vertex  6.764425e+001 -2.123791e+001  5.625020e+001
      vertex  6.759496e+001 -2.102917e+001  5.563325e+001
    endloop
  endfacet
  facet normal  9.688450e-001  8.715575e-002 -2.318262e-001
    outer loop
      vertex  6.807938e+001 -2.148559e+001  5.551734e+001
      vertex  7.269022e+001 -7.567545e+001  5.441403e+001
      vertex  6.784667e+001 -2.148559e+001  5.454479e+001
    endloop
  endfacet
  facet normal  9.688447e-001  8.715572e-002 -2.318270e-001
    outer loop
      vertex  6.784667e+001 -2.148559e+001  5.454479e+001
      vertex  7.269022e+001 -7.567545e+001  5.441403e+001
      vertex  7.245750e+001 -7.567545e+001  5.344149e+001
    endloop
  endfacet
  facet normal  4.548115e-001  2.057086e-002  8.903502e-001
    outer loop
      vertex  6.738210e+001 -2.202917e+001  5.671242e+001
      vertex  7.195039e+001 -7.571911e+001  5.561929e+001
      vertex  6.778277e+001 -2.177983e+001  5.650198e+001
    endloop
  endfacet
  facet normal  2.602631e-001  4.308735e-003  9.655281e-001
    outer loop
      vertex  6.778277e+001 -2.177983e+001  5.650198e+001
      vertex  7.195039e+001 -7.571911e+001  5.561929e+001
      vertex  7.200571e+001 -7.571661e+001  5.560437e+001
    endloop
  endfacet
  facet normal  6.198361e-001  3.548348e-002  7.839286e-001
    outer loop
      vertex  6.778277e+001 -2.177983e+001  5.650198e+001
      vertex  7.200571e+001 -7.571661e+001  5.560437e+001
      vertex  7.258445e+001 -7.568737e+001  5.514545e+001
    endloop
  endfacet
  facet normal  9.862669e-001  8.098754e-002  1.439395e-001
    outer loop
      vertex  7.269022e+001 -7.567545e+001  5.441403e+001
      vertex  6.807938e+001 -2.148559e+001  5.551734e+001
      vertex  7.258445e+001 -7.568737e+001  5.514545e+001
    endloop
  endfacet
  facet normal  9.921404e-001  8.181369e-002  9.467836e-002
    outer loop
      vertex  7.258445e+001 -7.568737e+001  5.514545e+001
      vertex  6.807938e+001 -2.148559e+001  5.551734e+001
      vertex  6.802756e+001 -2.159906e+001  5.615848e+001
    endloop
  endfacet
  facet normal  7.989063e-001  5.609147e-002  5.988343e-001
    outer loop
      vertex  7.258445e+001 -7.568737e+001  5.514545e+001
      vertex  6.802756e+001 -2.159906e+001  5.615848e+001
      vertex  6.778277e+001 -2.177983e+001  5.650198e+001
    endloop
  endfacet
  facet normal  3.524930e-001  9.320058e-001 -8.434491e-002
    outer loop
      vertex  6.736225e+001 -2.102917e+001  5.466071e+001
      vertex  6.759496e+001 -2.102917e+001  5.563325e+001
      vertex  6.769077e+001 -2.116053e+001  5.458210e+001
    endloop
  endfacet
  facet normal  3.524856e-001  9.320084e-001 -8.434590e-002
    outer loop
      vertex  6.769077e+001 -2.116053e+001  5.458210e+001
      vertex  6.759496e+001 -2.102917e+001  5.563325e+001
      vertex  6.792348e+001 -2.116053e+001  5.555464e+001
    endloop
  endfacet
  facet normal  8.722432e-001  4.422991e-001 -2.087182e-001
    outer loop
      vertex  6.769077e+001 -2.116053e+001  5.458210e+001
      vertex  6.792348e+001 -2.116053e+001  5.555464e+001
      vertex  6.784667e+001 -2.148559e+001  5.454479e+001
    endloop
  endfacet
  facet normal  8.722526e-001  4.422826e-001 -2.087136e-001
    outer loop
      vertex  6.784667e+001 -2.148559e+001  5.454479e+001
      vertex  6.792348e+001 -2.116053e+001  5.555464e+001
      vertex  6.807938e+001 -2.148559e+001  5.551734e+001
    endloop
  endfacet
  facet normal  3.442665e-001  5.860192e-001  7.335271e-001
    outer loop
      vertex  6.764425e+001 -2.123791e+001  5.625020e+001
      vertex  6.756056e+001 -2.157046e+001  5.655515e+001
      vertex  6.788406e+001 -2.137907e+001  5.625042e+001
    endloop
  endfacet
  facet normal -4.806171e-001  8.693580e-001  1.149950e-001
    outer loop
      vertex  6.738210e+001 -2.202917e+001  5.671242e+001
      vertex  6.778277e+001 -2.177983e+001  5.650198e+001
      vertex  6.802756e+001 -2.159906e+001  5.615848e+001
    endloop
  endfacet
  facet normal  6.191657e-001  7.725644e-002  7.814509e-001
    outer loop
      vertex  6.738210e+001 -2.202917e+001  5.671242e+001
      vertex  6.802756e+001 -2.159906e+001  5.615848e+001
      vertex  6.788406e+001 -2.137907e+001  5.625042e+001
    endloop
  endfacet
  facet normal  6.924156e-001 -2.214992e-002  7.211587e-001
    outer loop
      vertex  6.738210e+001 -2.202917e+001  5.671242e+001
      vertex  6.788406e+001 -2.137907e+001  5.625042e+001
      vertex  6.756056e+001 -2.157046e+001  5.655515e+001
    endloop
  endfacet
  facet normal  8.984389e-001  4.141441e-001  1.459187e-001
    outer loop
      vertex  6.807938e+001 -2.148559e+001  5.551734e+001
      vertex  6.792348e+001 -2.116053e+001  5.555464e+001
      vertex  6.802756e+001 -2.159906e+001  5.615848e+001
    endloop
  endfacet
  facet normal  8.567991e-001  4.760874e-001  1.980809e-001
    outer loop
      vertex  6.802756e+001 -2.159906e+001  5.615848e+001
      vertex  6.792348e+001 -2.116053e+001  5.555464e+001
      vertex  6.788406e+001 -2.137907e+001  5.625042e+001
    endloop
  endfacet
  facet normal  4.146869e-001  8.611668e-001  2.939839e-001
    outer loop
      vertex  6.792348e+001 -2.116053e+001  5.555464e+001
      vertex  6.759496e+001 -2.102917e+001  5.563325e+001
      vertex  6.788406e+001 -2.137907e+001  5.625042e+001
    endloop
  endfacet
  facet normal  4.918364e-001  8.359340e-001  2.435393e-001
    outer loop
      vertex  6.788406e+001 -2.137907e+001  5.625042e+001
      vertex  6.759496e+001 -2.102917e+001  5.563325e+001
      vertex  6.764425e+001 -2.123791e+001  5.625020e+001
    endloop
  endfacet
  facet normal -9.725449e-001  0.000000e+000  2.327154e-001
    outer loop
      vertex  3.378842e+001 -1.330670e+002  6.372264e+001
      vertex  3.378842e+001 -1.196735e+002  6.372264e+001
      vertex  3.355571e+001 -1.330670e+002  6.275010e+001
    endloop
  endfacet
  facet normal -9.725449e-001  0.000000e+000  2.327154e-001
    outer loop
      vertex  3.355571e+001 -1.330670e+002  6.275010e+001
      vertex  3.378842e+001 -1.196735e+002  6.372264e+001
      vertex  3.355571e+001 -1.196735e+002  6.275010e+001
    endloop
  endfacet
  facet normal  1.051028e-001  0.000000e+000  9.944614e-001
    outer loop
      vertex  3.499368e+001 -1.325670e+002  6.446247e+001
      vertex  3.499368e+001 -1.192593e+002  6.446247e+001
      vertex  3.473669e+001 -1.326952e+002  6.448963e+001
    endloop
  endfacet
  facet normal -8.471285e-002  3.634536e-003  9.963987e-001
    outer loop
      vertex  3.473669e+001 -1.326952e+002  6.448963e+001
      vertex  3.499368e+001 -1.192593e+002  6.446247e+001
      vertex  3.437003e+001 -1.195055e+002  6.441035e+001
    endloop
  endfacet
  facet normal -3.425923e-001 -3.876465e-003  9.394762e-001
    outer loop
      vertex  3.473669e+001 -1.326952e+002  6.448963e+001
      vertex  3.437003e+001 -1.195055e+002  6.441035e+001
      vertex  3.413347e+001 -1.329628e+002  6.426855e+001
    endloop
  endfacet
  facet normal -8.907585e-001  0.000000e+000  4.544769e-001
    outer loop
      vertex  3.378842e+001 -1.196735e+002  6.372264e+001
      vertex  3.378842e+001 -1.330670e+002  6.372264e+001
      vertex  3.400176e+001 -1.196279e+002  6.414078e+001
    endloop
  endfacet
  facet normal -8.450207e-001 -3.222787e-003  5.347239e-001
    outer loop
      vertex  3.400176e+001 -1.196279e+002  6.414078e+001
      vertex  3.378842e+001 -1.330670e+002  6.372264e+001
      vertex  3.413347e+001 -1.329628e+002  6.426855e+001
    endloop
  endfacet
  facet normal -5.910609e-001  1.891075e-003  8.066247e-001
    outer loop
      vertex  3.400176e+001 -1.196279e+002  6.414078e+001
      vertex  3.413347e+001 -1.329628e+002  6.426855e+001
      vertex  3.437003e+001 -1.195055e+002  6.441035e+001
    endloop
  endfacet
  facet normal -3.721575e-001 -9.238877e-001  8.905172e-002
    outer loop
      vertex  3.404198e+001 -1.335670e+002  6.263374e+001
      vertex  3.427470e+001 -1.335670e+002  6.360629e+001
      vertex  3.369813e+001 -1.334206e+002  6.271602e+001
    endloop
  endfacet
  facet normal -3.721575e-001 -9.238877e-001  8.905172e-002
    outer loop
      vertex  3.369813e+001 -1.334206e+002  6.271602e+001
      vertex  3.427470e+001 -1.335670e+002  6.360629e+001
      vertex  3.393085e+001 -1.334206e+002  6.368856e+001
    endloop
  endfacet
  facet normal -8.985175e-001 -3.826753e-001  2.150018e-001
    outer loop
      vertex  3.369813e+001 -1.334206e+002  6.271602e+001
      vertex  3.393085e+001 -1.334206e+002  6.368856e+001
      vertex  3.355571e+001 -1.330670e+002  6.275010e+001
    endloop
  endfacet
  facet normal -8.985175e-001 -3.826753e-001  2.150018e-001
    outer loop
      vertex  3.355571e+001 -1.330670e+002  6.275010e+001
      vertex  3.393085e+001 -1.334206e+002  6.368856e+001
      vertex  3.378842e+001 -1.330670e+002  6.372264e+001
    endloop
  endfacet
  facet normal  9.105778e-002 -5.109115e-001  8.547971e-001
    outer loop
      vertex  3.451834e+001 -1.333585e+002  6.417646e+001
      vertex  3.486130e+001 -1.328233e+002  6.445982e+001
      vertex  3.430083e+001 -1.332015e+002  6.429345e+001
    endloop
  endfacet
  facet normal  4.349386e-001 -8.944255e-001 -1.040749e-001
    outer loop
      vertex  3.499368e+001 -1.325670e+002  6.446247e+001
      vertex  3.473669e+001 -1.326952e+002  6.448963e+001
      vertex  3.413347e+001 -1.329628e+002  6.426855e+001
    endloop
  endfacet
  facet normal -2.022894e-001 -3.977175e-002  9.785178e-001
    outer loop
      vertex  3.499368e+001 -1.325670e+002  6.446247e+001
      vertex  3.413347e+001 -1.329628e+002  6.426855e+001
      vertex  3.430083e+001 -1.332015e+002  6.429345e+001
    endloop
  endfacet
  facet normal -3.986063e-001  1.966381e-001  8.957938e-001
    outer loop
      vertex  3.499368e+001 -1.325670e+002  6.446247e+001
      vertex  3.430083e+001 -1.332015e+002  6.429345e+001
      vertex  3.486130e+001 -1.328233e+002  6.445982e+001
    endloop
  endfacet
  facet normal -7.570262e-001 -3.576609e-001  5.467998e-001
    outer loop
      vertex  3.378842e+001 -1.330670e+002  6.372264e+001
      vertex  3.393085e+001 -1.334206e+002  6.368856e+001
      vertex  3.413347e+001 -1.329628e+002  6.426855e+001
    endloop
  endfacet
  facet normal -6.946046e-001 -4.264984e-001  5.793302e-001
    outer loop
      vertex  3.413347e+001 -1.329628e+002  6.426855e+001
      vertex  3.393085e+001 -1.334206e+002  6.368856e+001
      vertex  3.430083e+001 -1.332015e+002  6.429345e+001
    endloop
  endfacet
  facet normal -2.516607e-001 -8.504570e-001  4.619412e-001
    outer loop
      vertex  3.393085e+001 -1.334206e+002  6.368856e+001
      vertex  3.427470e+001 -1.335670e+002  6.360629e+001
      vertex  3.430083e+001 -1.332015e+002  6.429345e+001
    endloop
  endfacet
  facet normal -3.505433e-001 -8.212582e-001  4.501713e-001
    outer loop
      vertex  3.430083e+001 -1.332015e+002  6.429345e+001
      vertex  3.427470e+001 -1.335670e+002  6.360629e+001
      vertex  3.451834e+001 -1.333585e+002  6.417646e+001
    endloop
  endfacet
  facet normal -9.688443e-001  8.715577e-002  2.318288e-001
    outer loop
      vertex  1.628261e+001 -7.567545e+001  6.791152e+001
      vertex  2.089345e+001 -2.148559e+001  6.680822e+001
      vertex  1.604990e+001 -7.567545e+001  6.693897e+001
    endloop
  endfacet
  facet normal -9.688443e-001  8.715577e-002  2.318288e-001
    outer loop
      vertex  1.604990e+001 -7.567545e+001  6.693897e+001
      vertex  2.089345e+001 -2.148559e+001  6.680822e+001
      vertex  2.066073e+001 -2.148559e+001  6.583567e+001
    endloop
  endfacet
  facet normal  2.048882e-001  2.494599e-003  9.787822e-001
    outer loop
      vertex  1.748787e+001 -7.571911e+001  6.865135e+001
      vertex  2.205617e+001 -2.202917e+001  6.755823e+001
      vertex  1.743179e+001 -7.571661e+001  6.866309e+001
    endloop
  endfacet
  facet normal -2.420650e-003  2.078344e-002  9.997811e-001
    outer loop
      vertex  1.743179e+001 -7.571661e+001  6.866309e+001
      vertex  2.205617e+001 -2.202917e+001  6.755823e+001
      vertex  2.160364e+001 -2.177983e+001  6.755195e+001
    endloop
  endfacet
  facet normal -1.978549e-001  3.548375e-002  9.795889e-001
    outer loop
      vertex  1.743179e+001 -7.571661e+001  6.866309e+001
      vertex  2.160364e+001 -2.177983e+001  6.755195e+001
      vertex  1.670800e+001 -7.568737e+001  6.851584e+001
    endloop
  endfacet
  facet normal -8.417100e-001  8.248222e-002  5.335926e-001
    outer loop
      vertex  2.089345e+001 -2.148559e+001  6.680822e+001
      vertex  1.628261e+001 -7.567545e+001  6.791152e+001
      vertex  2.122988e+001 -2.159906e+001  6.735645e+001
    endloop
  endfacet
  facet normal -8.143289e-001  8.040028e-002  5.748080e-001
    outer loop
      vertex  2.122988e+001 -2.159906e+001  6.735645e+001
      vertex  1.628261e+001 -7.567545e+001  6.791152e+001
      vertex  1.670800e+001 -7.568737e+001  6.851584e+001
    endloop
  endfacet
  facet normal -4.413111e-001  5.609155e-002  8.955995e-001
    outer loop
      vertex  2.122988e+001 -2.159906e+001  6.735645e+001
      vertex  1.670800e+001 -7.568737e+001  6.851584e+001
      vertex  2.160364e+001 -2.177983e+001  6.755195e+001
    endloop
  endfacet
  facet normal -8.722511e-001  4.422848e-001  2.087158e-001
    outer loop
      vertex  2.066073e+001 -2.148559e+001  6.583567e+001
      vertex  2.089345e+001 -2.148559e+001  6.680822e+001
      vertex  2.081663e+001 -2.116053e+001  6.579837e+001
    endloop
  endfacet
  facet normal -8.722488e-001  4.422887e-001  2.087169e-001
    outer loop
      vertex  2.081663e+001 -2.116053e+001  6.579837e+001
      vertex  2.089345e+001 -2.148559e+001  6.680822e+001
      vertex  2.104935e+001 -2.116053e+001  6.677091e+001
    endloop
  endfacet
  facet normal -3.524867e-001  9.320081e-001  8.434512e-002
    outer loop
      vertex  2.081663e+001 -2.116053e+001  6.579837e+001
      vertex  2.104935e+001 -2.116053e+001  6.677091e+001
      vertex  2.114515e+001 -2.102917e+001  6.571976e+001
    endloop
  endfacet
  facet normal -3.524885e-001  9.320074e-001  8.434488e-002
    outer loop
      vertex  2.114515e+001 -2.102917e+001  6.571976e+001
      vertex  2.104935e+001 -2.116053e+001  6.677091e+001
      vertex  2.137787e+001 -2.102917e+001  6.669231e+001
    endloop
  endfacet
  facet normal -3.691939e-001  2.145565e-001  9.042463e-001
    outer loop
      vertex  2.122988e+001 -2.159906e+001  6.735645e+001
      vertex  2.160364e+001 -2.177983e+001  6.755195e+001
      vertex  2.139945e+001 -2.137907e+001  6.737349e+001
    endloop
  endfacet
  facet normal -8.841622e-001 -4.165301e-001  2.115655e-001
    outer loop
      vertex  2.205617e+001 -2.202917e+001  6.755823e+001
      vertex  2.182585e+001 -2.157046e+001  6.749878e+001
      vertex  2.161318e+001 -2.123791e+001  6.726474e+001
    endloop
  endfacet
  facet normal  1.711644e-001  4.254383e-001  8.886534e-001
    outer loop
      vertex  2.205617e+001 -2.202917e+001  6.755823e+001
      vertex  2.161318e+001 -2.123791e+001  6.726474e+001
      vertex  2.139945e+001 -2.137907e+001  6.737349e+001
    endloop
  endfacet
  facet normal  2.650194e-001  5.017170e-001  8.234347e-001
    outer loop
      vertex  2.205617e+001 -2.202917e+001  6.755823e+001
      vertex  2.139945e+001 -2.137907e+001  6.737349e+001
      vertex  2.160364e+001 -2.177983e+001  6.755195e+001
    endloop
  endfacet
  facet normal -2.483839e-001  8.727093e-001  4.203379e-001
    outer loop
      vertex  2.137787e+001 -2.102917e+001  6.669231e+001
      vertex  2.104935e+001 -2.116053e+001  6.677091e+001
      vertex  2.161318e+001 -2.123791e+001  6.726474e+001
    endloop
  endfacet
  facet normal -3.033060e-001  8.256744e-001  4.756757e-001
    outer loop
      vertex  2.161318e+001 -2.123791e+001  6.726474e+001
      vertex  2.104935e+001 -2.116053e+001  6.677091e+001
      vertex  2.139945e+001 -2.137907e+001  6.737349e+001
    endloop
  endfacet
  facet normal -7.169542e-001  4.086732e-001  5.647680e-001
    outer loop
      vertex  2.104935e+001 -2.116053e+001  6.677091e+001
      vertex  2.089345e+001 -2.148559e+001  6.680822e+001
      vertex  2.139945e+001 -2.137907e+001  6.737349e+001
    endloop
  endfacet
  facet normal -6.923929e-001  4.929090e-001  5.269086e-001
    outer loop
      vertex  2.139945e+001 -2.137907e+001  6.737349e+001
      vertex  2.089345e+001 -2.148559e+001  6.680822e+001
      vertex  2.122988e+001 -2.159906e+001  6.735645e+001
    endloop
  endfacet
  facet normal  6.876937e-001 -7.071069e-001 -1.645515e-001
    outer loop
      vertex  7.269022e+001 -1.016735e+002  5.441403e+001
      vertex  5.518441e+001 -1.196735e+002  5.860291e+001
      vertex  7.245750e+001 -1.016735e+002  5.344149e+001
    endloop
  endfacet
  facet normal  6.876931e-001 -7.071068e-001 -1.645543e-001
    outer loop
      vertex  7.245750e+001 -1.016735e+002  5.344149e+001
      vertex  5.518441e+001 -1.196735e+002  5.860291e+001
      vertex  5.495169e+001 -1.196735e+002  5.763036e+001
    endloop
  endfacet
  facet normal  9.725456e-001  0.000000e+000 -2.327127e-001
    outer loop
      vertex  7.269022e+001 -7.567545e+001  5.441403e+001
      vertex  7.269022e+001 -1.016735e+002  5.441403e+001
      vertex  7.245750e+001 -7.567545e+001  5.344149e+001
    endloop
  endfacet
  facet normal  9.725456e-001  0.000000e+000 -2.327127e-001
    outer loop
      vertex  7.245750e+001 -7.567545e+001  5.344149e+001
      vertex  7.269022e+001 -1.016735e+002  5.441403e+001
      vertex  7.245750e+001 -1.016735e+002  5.344149e+001
    endloop
  endfacet
  facet normal -9.725450e-001  0.000000e+000  2.327145e-001
    outer loop
      vertex  1.628261e+001 -1.016735e+002  6.791152e+001
      vertex  1.628261e+001 -7.567545e+001  6.791152e+001
      vertex  1.604990e+001 -1.016735e+002  6.693897e+001
    endloop
  endfacet
  facet normal -9.725450e-001  0.000000e+000  2.327145e-001
    outer loop
      vertex  1.604990e+001 -1.016735e+002  6.693897e+001
      vertex  1.628261e+001 -7.567545e+001  6.791152e+001
      vertex  1.604990e+001 -7.567545e+001  6.693897e+001
    endloop
  endfacet
  facet normal -6.876929e-001 -7.071066e-001  1.645555e-001
    outer loop
      vertex  3.378842e+001 -1.196735e+002  6.372264e+001
      vertex  1.628261e+001 -1.016735e+002  6.791152e+001
      vertex  3.355571e+001 -1.196735e+002  6.275010e+001
    endloop
  endfacet
  facet normal -6.876932e-001 -7.071066e-001  1.645549e-001
    outer loop
      vertex  3.355571e+001 -1.196735e+002  6.275010e+001
      vertex  1.628261e+001 -1.016735e+002  6.791152e+001
      vertex  1.604990e+001 -1.016735e+002  6.693897e+001
    endloop
  endfacet
  facet normal  2.604462e-001  -0.000000e+000  9.654883e-001
    outer loop
      vertex  7.195039e+001 -7.571911e+001  5.561929e+001
      vertex  7.195039e+001 -1.012593e+002  5.561929e+001
      vertex  7.200571e+001 -7.571661e+001  5.560437e+001
    endloop
  endfacet
  facet normal  5.251337e-001 -6.401410e-004  8.510195e-001
    outer loop
      vertex  7.200571e+001 -7.571661e+001  5.560437e+001
      vertex  7.195039e+001 -1.012593e+002  5.561929e+001
      vertex  7.248289e+001 -1.015055e+002  5.529052e+001
    endloop
  endfacet
  facet normal  6.212665e-001  1.959206e-003  7.835969e-001
    outer loop
      vertex  7.200571e+001 -7.571661e+001  5.560437e+001
      vertex  7.248289e+001 -1.015055e+002  5.529052e+001
      vertex  7.258445e+001 -7.568737e+001  5.514545e+001
    endloop
  endfacet
  facet normal  9.999979e-001  0.000000e+000  2.047877e-003
    outer loop
      vertex  7.269022e+001 -1.016735e+002  5.441403e+001
      vertex  7.269022e+001 -7.567545e+001  5.441403e+001
      vertex  7.268925e+001 -1.016279e+002  5.488345e+001
    endloop
  endfacet
  facet normal  9.896968e-001  2.552683e-003  1.431568e-001
    outer loop
      vertex  7.268925e+001 -1.016279e+002  5.488345e+001
      vertex  7.269022e+001 -7.567545e+001  5.441403e+001
      vertex  7.258445e+001 -7.568737e+001  5.514545e+001
    endloop
  endfacet
  facet normal  8.918201e-001 -9.660256e-004  4.523891e-001
    outer loop
      vertex  7.268925e+001 -1.016279e+002  5.488345e+001
      vertex  7.258445e+001 -7.568737e+001  5.514545e+001
      vertex  7.248289e+001 -1.015055e+002  5.529052e+001
    endloop
  endfacet
  facet normal  4.362165e-001 -2.212623e-001  8.722146e-001
    outer loop
      vertex  7.195039e+001 -1.012593e+002  5.561929e+001
      vertex  5.444458e+001 -1.192593e+002  5.980817e+001
      vertex  7.248289e+001 -1.015055e+002  5.529052e+001
    endloop
  endfacet
  facet normal  4.362186e-001 -2.212643e-001  8.722129e-001
    outer loop
      vertex  7.248289e+001 -1.015055e+002  5.529052e+001
      vertex  5.444458e+001 -1.192593e+002  5.980817e+001
      vertex  5.497709e+001 -1.195055e+002  5.947939e+001
    endloop
  endfacet
  facet normal  6.748139e-001 -5.389710e-001  5.041195e-001
    outer loop
      vertex  7.248289e+001 -1.015055e+002  5.529052e+001
      vertex  5.497709e+001 -1.195055e+002  5.947939e+001
      vertex  7.268925e+001 -1.016279e+002  5.488345e+001
    endloop
  endfacet
  facet normal  6.748137e-001 -5.389707e-001  5.041202e-001
    outer loop
      vertex  7.268925e+001 -1.016279e+002  5.488345e+001
      vertex  5.497709e+001 -1.195055e+002  5.947939e+001
      vertex  5.518345e+001 -1.196279e+002  5.907232e+001
    endloop
  endfacet
  facet normal  7.231030e-001 -6.873552e-001  6.829938e-002
    outer loop
      vertex  7.268925e+001 -1.016279e+002  5.488345e+001
      vertex  5.518345e+001 -1.196279e+002  5.907232e+001
      vertex  7.269022e+001 -1.016735e+002  5.441403e+001
    endloop
  endfacet
  facet normal  7.231029e-001 -6.873554e-001  6.829990e-002
    outer loop
      vertex  7.269022e+001 -1.016735e+002  5.441403e+001
      vertex  5.518345e+001 -1.196279e+002  5.907232e+001
      vertex  5.518441e+001 -1.196735e+002  5.860291e+001
    endloop
  endfacet
  facet normal  5.842214e-003 -2.212613e-001  9.751971e-001
    outer loop
      vertex  3.499368e+001 -1.192593e+002  6.446247e+001
      vertex  1.748787e+001 -1.012593e+002  6.865135e+001
      vertex  3.437003e+001 -1.195055e+002  6.441035e+001
    endloop
  endfacet
  facet normal  5.833583e-003 -2.212691e-001  9.751953e-001
    outer loop
      vertex  3.437003e+001 -1.195055e+002  6.441035e+001
      vertex  1.748787e+001 -1.012593e+002  6.865135e+001
      vertex  1.686423e+001 -1.015055e+002  6.859922e+001
    endloop
  endfacet
  facet normal -3.735295e-001 -5.389682e-001  7.549762e-001
    outer loop
      vertex  3.437003e+001 -1.195055e+002  6.441035e+001
      vertex  1.686423e+001 -1.015055e+002  6.859922e+001
      vertex  3.400176e+001 -1.196279e+002  6.414078e+001
    endloop
  endfacet
  facet normal -3.735295e-001 -5.389682e-001  7.549762e-001
    outer loop
      vertex  3.400176e+001 -1.196279e+002  6.414078e+001
      vertex  1.686423e+001 -1.015055e+002  6.859922e+001
      vertex  1.649595e+001 -1.016279e+002  6.832965e+001
    endloop
  endfacet
  facet normal -6.138657e-001 -6.873556e-001  3.882152e-001
    outer loop
      vertex  3.400176e+001 -1.196279e+002  6.414078e+001
      vertex  1.649595e+001 -1.016279e+002  6.832965e+001
      vertex  3.378842e+001 -1.196735e+002  6.372264e+001
    endloop
  endfacet
  facet normal -6.138646e-001 -6.873551e-001  3.882181e-001
    outer loop
      vertex  3.378842e+001 -1.196735e+002  6.372264e+001
      vertex  1.649595e+001 -1.016279e+002  6.832965e+001
      vertex  1.628261e+001 -1.016735e+002  6.791152e+001
    endloop
  endfacet
  facet normal -8.330073e-002  0.000000e+000  9.965245e-001
    outer loop
      vertex  1.748787e+001 -1.012593e+002  6.865135e+001
      vertex  1.748787e+001 -7.571911e+001  6.865135e+001
      vertex  1.686423e+001 -1.015055e+002  6.859922e+001
    endloop
  endfacet
  facet normal  2.044815e-001 -6.924335e-003  9.788459e-001
    outer loop
      vertex  1.686423e+001 -1.015055e+002  6.859922e+001
      vertex  1.748787e+001 -7.571911e+001  6.865135e+001
      vertex  1.743179e+001 -7.571661e+001  6.866309e+001
    endloop
  endfacet
  facet normal -1.992805e-001  1.958978e-003  9.799405e-001
    outer loop
      vertex  1.686423e+001 -1.015055e+002  6.859922e+001
      vertex  1.743179e+001 -7.571661e+001  6.866309e+001
      vertex  1.670800e+001 -7.568737e+001  6.851584e+001
    endloop
  endfacet
  facet normal -8.177235e-001  0.000000e+000  5.756114e-001
    outer loop
      vertex  1.628261e+001 -7.567545e+001  6.791152e+001
      vertex  1.628261e+001 -1.016735e+002  6.791152e+001
      vertex  1.670800e+001 -7.568737e+001  6.851584e+001
    endloop
  endfacet
  facet normal -8.909273e-001  4.023473e-003  4.541281e-001
    outer loop
      vertex  1.670800e+001 -7.568737e+001  6.851584e+001
      vertex  1.628261e+001 -1.016735e+002  6.791152e+001
      vertex  1.649595e+001 -1.016279e+002  6.832965e+001
    endloop
  endfacet
  facet normal -5.904436e-001 -9.661573e-004  8.070784e-001
    outer loop
      vertex  1.670800e+001 -7.568737e+001  6.851584e+001
      vertex  1.649595e+001 -1.016279e+002  6.832965e+001
      vertex  1.686423e+001 -1.015055e+002  6.859922e+001
    endloop
  endfacet
  facet normal  0.000000e+000  1.000000e+000  0.000000e+000
    outer loop
      vertex  5.215260e+001 -2.202917e+001  4.801784e+001
      vertex  5.447976e+001 -2.202917e+001  5.774329e+001
      vertex  6.187805e+001 -2.202917e+001  4.569069e+001
    endloop
  endfacet
  facet normal  0.000000e+000  1.000000e+000  -0.000000e+000
    outer loop
      vertex  6.187805e+001 -2.202917e+001  4.569069e+001
      vertex  5.447976e+001 -2.202917e+001  5.774329e+001
      vertex  6.420521e+001 -2.202917e+001  5.541614e+001
    endloop
  endfacet
  facet normal -9.725450e-001  0.000000e+000  2.327152e-001
    outer loop
      vertex  5.447976e+001 -2.402917e+001  5.774329e+001
      vertex  5.447976e+001 -2.202917e+001  5.774329e+001
      vertex  5.215260e+001 -2.402917e+001  4.801784e+001
    endloop
  endfacet
  facet normal -9.725450e-001  0.000000e+000  2.327152e-001
    outer loop
      vertex  5.215260e+001 -2.402917e+001  4.801784e+001
      vertex  5.447976e+001 -2.202917e+001  5.774329e+001
      vertex  5.215260e+001 -2.202917e+001  4.801784e+001
    endloop
  endfacet
  facet normal  0.000000e+000 -1.000000e+000  0.000000e+000
    outer loop
      vertex  6.187805e+001 -2.402917e+001  4.569069e+001
      vertex  6.420521e+001 -2.402917e+001  5.541614e+001
      vertex  5.215260e+001 -2.402917e+001  4.801784e+001
    endloop
  endfacet
  facet normal  0.000000e+000 -1.000000e+000  0.000000e+000
    outer loop
      vertex  5.215260e+001 -2.402917e+001  4.801784e+001
      vertex  6.420521e+001 -2.402917e+001  5.541614e+001
      vertex  5.447976e+001 -2.402917e+001  5.774329e+001
    endloop
  endfacet
  facet normal  9.725448e-001  0.000000e+000 -2.327156e-001
    outer loop
      vertex  6.420521e+001 -2.202917e+001  5.541614e+001
      vertex  6.420521e+001 -2.402917e+001  5.541614e+001
      vertex  6.187805e+001 -2.202917e+001  4.569069e+001
    endloop
  endfacet
  facet normal  9.725448e-001  0.000000e+000 -2.327156e-001
    outer loop
      vertex  6.187805e+001 -2.202917e+001  4.569069e+001
      vertex  6.420521e+001 -2.402917e+001  5.541614e+001
      vertex  6.187805e+001 -2.402917e+001  4.569069e+001
    endloop
  endfacet
  facet normal -9.725450e-001  0.000000e+000  2.327152e-001
    outer loop
      vertex  2.524642e+001 -2.202917e+001  6.473839e+001
      vertex  2.291927e+001 -2.202917e+001  5.501294e+001
      vertex  2.524642e+001 -2.402917e+001  6.473839e+001
    endloop
  endfacet
  facet normal -9.725450e-001  0.000000e+000  2.327152e-001
    outer loop
      vertex  2.524642e+001 -2.402917e+001  6.473839e+001
      vertex  2.291927e+001 -2.202917e+001  5.501294e+001
      vertex  2.291927e+001 -2.402917e+001  5.501294e+001
    endloop
  endfacet
  facet normal  0.000000e+000 -1.000000e+000  0.000000e+000
    outer loop
      vertex  3.264471e+001 -2.402917e+001  5.268579e+001
      vertex  3.497187e+001 -2.402917e+001  6.241124e+001
      vertex  2.291927e+001 -2.402917e+001  5.501294e+001
    endloop
  endfacet
  facet normal  0.000000e+000 -1.000000e+000  0.000000e+000
    outer loop
      vertex  2.291927e+001 -2.402917e+001  5.501294e+001
      vertex  3.497187e+001 -2.402917e+001  6.241124e+001
      vertex  2.524642e+001 -2.402917e+001  6.473839e+001
    endloop
  endfacet
  facet normal  9.725450e-001  0.000000e+000 -2.327152e-001
    outer loop
      vertex  3.497187e+001 -2.402917e+001  6.241124e+001
      vertex  3.264471e+001 -2.402917e+001  5.268579e+001
      vertex  3.497187e+001 -2.202917e+001  6.241124e+001
    endloop
  endfacet
  facet normal  9.725450e-001  0.000000e+000 -2.327152e-001
    outer loop
      vertex  3.497187e+001 -2.202917e+001  6.241124e+001
      vertex  3.264471e+001 -2.402917e+001  5.268579e+001
      vertex  3.264471e+001 -2.202917e+001  5.268579e+001
    endloop
  endfacet
  facet normal  0.000000e+000  1.000000e+000  0.000000e+000
    outer loop
      vertex  2.291927e+001 -2.202917e+001  5.501294e+001
      vertex  2.524642e+001 -2.202917e+001  6.473839e+001
      vertex  3.264471e+001 -2.202917e+001  5.268579e+001
    endloop
  endfacet
  facet normal  0.000000e+000  1.000000e+000  -0.000000e+000
    outer loop
      vertex  3.264471e+001 -2.202917e+001  5.268579e+001
      vertex  2.524642e+001 -2.202917e+001  6.473839e+001
      vertex  3.497187e+001 -2.202917e+001  6.241124e+001
    endloop
  endfacet
  facet normal -2.327152e-001  0.000000e+000 -9.725450e-001
    outer loop
      vertex  6.187805e+001 -2.202917e+001  4.569069e+001
      vertex  6.187805e+001 -2.402917e+001  4.569069e+001
      vertex  5.215260e+001 -2.202917e+001  4.801784e+001
    endloop
  endfacet
  facet normal -2.327152e-001  -0.000000e+000 -9.725450e-001
    outer loop
      vertex  5.215260e+001 -2.202917e+001  4.801784e+001
      vertex  6.187805e+001 -2.402917e+001  4.569069e+001
      vertex  5.215260e+001 -2.402917e+001  4.801784e+001
    endloop
  endfacet
  facet normal -2.327152e-001  0.000000e+000 -9.725450e-001
    outer loop
      vertex  3.264471e+001 -2.202917e+001  5.268579e+001
      vertex  3.264471e+001 -2.402917e+001  5.268579e+001
      vertex  2.291927e+001 -2.202917e+001  5.501294e+001
    endloop
  endfacet
  facet normal -2.327152e-001  -0.000000e+000 -9.725450e-001
    outer loop
      vertex  2.291927e+001 -2.202917e+001  5.501294e+001
      vertex  3.264471e+001 -2.402917e+001  5.268579e+001
      vertex  2.291927e+001 -2.402917e+001  5.501294e+001
    endloop
  endfacet
endsolid CATIA STL
