solid CATIA STL
  facet normal -9.389876e-001 -1.826901e-001 -2.914216e-001
    outer loop
      vertex  4.750130e+001 -1.331891e+002  5.897771e+001
      vertex  4.117363e+001 -5.848351e+001  3.253362e+001
      vertex  4.822511e+001 -1.338145e+002  5.703760e+001
    endloop
  endfacet
  facet normal -9.389880e-001 -1.826898e-001 -2.914204e-001
    outer loop
      vertex  4.822511e+001 -1.338145e+002  5.703760e+001
      vertex  4.117363e+001 -5.848351e+001  3.253362e+001
      vertex  4.189744e+001 -5.910896e+001  3.059352e+001
    endloop
  endfacet
  facet normal -5.629756e-001 -3.177518e-001 -7.629496e-001
    outer loop
      vertex  4.822511e+001 -1.338145e+002  5.703760e+001
      vertex  4.189744e+001 -5.910896e+001  3.059352e+001
      vertex  5.000456e+001 -1.340882e+002  5.583855e+001
    endloop
  endfacet
  facet normal -5.629763e-001 -3.177517e-001 -7.629492e-001
    outer loop
      vertex  5.000456e+001 -1.340882e+002  5.583855e+001
      vertex  4.189744e+001 -5.910896e+001  3.059352e+001
      vertex  4.367689e+001 -5.938267e+001  2.939447e+001
    endloop
  endfacet
  facet normal  2.807222e-002 -3.314433e-001 -9.430574e-001
    outer loop
      vertex  5.000456e+001 -1.340882e+002  5.583855e+001
      vertex  4.367689e+001 -5.938267e+001  2.939447e+001
      vertex  5.215996e+001 -1.339057e+002  5.583855e+001
    endloop
  endfacet
  facet normal  2.807498e-002 -3.314430e-001 -9.430575e-001
    outer loop
      vertex  5.215996e+001 -1.339057e+002  5.583855e+001
      vertex  4.367689e+001 -5.938267e+001  2.939447e+001
      vertex  4.583229e+001 -5.920010e+001  2.939447e+001
    endloop
  endfacet
  facet normal  6.084004e-001 -2.185344e-001 -7.629493e-001
    outer loop
      vertex  5.215996e+001 -1.339057e+002  5.583855e+001
      vertex  4.583229e+001 -5.920010e+001  2.939447e+001
      vertex  5.386802e+001 -1.333366e+002  5.703760e+001
    endloop
  endfacet
  facet normal  6.084000e-001 -2.185346e-001 -7.629496e-001
    outer loop
      vertex  5.386802e+001 -1.333366e+002  5.703760e+001
      vertex  4.583229e+001 -5.920010e+001  2.939447e+001
      vertex  4.754035e+001 -5.863099e+001  3.059352e+001
    endloop
  endfacet
  facet normal  9.563383e-001 -2.215336e-002 -2.914210e-001
    outer loop
      vertex  5.386802e+001 -1.333366e+002  5.703760e+001
      vertex  4.754035e+001 -5.863099e+001  3.059352e+001
      vertex  5.447632e+001 -1.325983e+002  5.897771e+001
    endloop
  endfacet
  facet normal  9.563382e-001 -2.215356e-002 -2.914214e-001
    outer loop
      vertex  5.447632e+001 -1.325983e+002  5.897771e+001
      vertex  4.754035e+001 -5.863099e+001  3.059352e+001
      vertex  4.814865e+001 -5.789272e+001  3.253362e+001
    endloop
  endfacet
  facet normal  9.389876e-001  1.826903e-001  2.914219e-001
    outer loop
      vertex  5.447632e+001 -1.325983e+002  5.897771e+001
      vertex  4.814865e+001 -5.789272e+001  3.253362e+001
      vertex  5.375251e+001 -1.319728e+002  6.091781e+001
    endloop
  endfacet
  facet normal  9.389877e-001  1.826900e-001  2.914213e-001
    outer loop
      vertex  5.375251e+001 -1.319728e+002  6.091781e+001
      vertex  4.814865e+001 -5.789272e+001  3.253362e+001
      vertex  4.742484e+001 -5.726727e+001  3.447373e+001
    endloop
  endfacet
  facet normal  5.629756e-001  3.177518e-001  7.629496e-001
    outer loop
      vertex  5.375251e+001 -1.319728e+002  6.091781e+001
      vertex  4.742484e+001 -5.726727e+001  3.447373e+001
      vertex  5.197306e+001 -1.316991e+002  6.211686e+001
    endloop
  endfacet
  facet normal  5.629756e-001  3.177518e-001  7.629496e-001
    outer loop
      vertex  5.197306e+001 -1.316991e+002  6.211686e+001
      vertex  4.742484e+001 -5.726727e+001  3.447373e+001
      vertex  4.564539e+001 -5.699356e+001  3.567278e+001
    endloop
  endfacet
  facet normal -2.807221e-002  3.314433e-001  9.430575e-001
    outer loop
      vertex  5.197306e+001 -1.316991e+002  6.211686e+001
      vertex  4.564539e+001 -5.699356e+001  3.567278e+001
      vertex  4.981766e+001 -1.318817e+002  6.211686e+001
    endloop
  endfacet
  facet normal -2.807216e-002  3.314433e-001  9.430575e-001
    outer loop
      vertex  4.981766e+001 -1.318817e+002  6.211686e+001
      vertex  4.564539e+001 -5.699356e+001  3.567278e+001
      vertex  4.348999e+001 -5.717612e+001  3.567278e+001
    endloop
  endfacet
  facet normal -6.084000e-001  2.185345e-001  7.629496e-001
    outer loop
      vertex  4.981766e+001 -1.318817e+002  6.211686e+001
      vertex  4.348999e+001 -5.717612e+001  3.567278e+001
      vertex  4.810960e+001 -1.324508e+002  6.091781e+001
    endloop
  endfacet
  facet normal -6.084011e-001  2.185342e-001  7.629488e-001
    outer loop
      vertex  4.810960e+001 -1.324508e+002  6.091781e+001
      vertex  4.348999e+001 -5.717612e+001  3.567278e+001
      vertex  4.178193e+001 -5.774524e+001  3.447373e+001
    endloop
  endfacet
  facet normal -9.563381e-001  2.215351e-002  2.914220e-001
    outer loop
      vertex  4.810960e+001 -1.324508e+002  6.091781e+001
      vertex  4.178193e+001 -5.774524e+001  3.447373e+001
      vertex  4.750130e+001 -1.331891e+002  5.897771e+001
    endloop
  endfacet
  facet normal -9.563388e-001  2.215278e-002  2.914197e-001
    outer loop
      vertex  4.750130e+001 -1.331891e+002  5.897771e+001
      vertex  4.178193e+001 -5.774524e+001  3.447373e+001
      vertex  4.117363e+001 -5.848351e+001  3.253362e+001
    endloop
  endfacet
  facet normal -8.444681e-001 -5.143985e-001 -1.492236e-001
    outer loop
      vertex  4.750130e+001 -1.331891e+002  5.897771e+001
      vertex  4.822511e+001 -1.338145e+002  5.703760e+001
      vertex  4.767536e+001 -1.335089e+002  5.909531e+001
    endloop
  endfacet
  facet normal -8.444715e-001 -5.143926e-001 -1.492254e-001
    outer loop
      vertex  4.767536e+001 -1.335089e+002  5.909531e+001
      vertex  4.822511e+001 -1.338145e+002  5.703760e+001
      vertex  4.836889e+001 -1.341082e+002  5.723638e+001
    endloop
  endfacet
  facet normal -3.019619e-001 -9.344782e-001  1.885986e-001
    outer loop
      vertex  4.767536e+001 -1.335089e+002  5.909531e+001
      vertex  4.836889e+001 -1.341082e+002  5.723638e+001
      vertex  4.803931e+001 -1.336167e+002  5.914402e+001
    endloop
  endfacet
  facet normal -3.019830e-001 -9.344724e-001  1.885934e-001
    outer loop
      vertex  4.803931e+001 -1.336167e+002  5.914402e+001
      vertex  4.836889e+001 -1.341082e+002  5.723638e+001
      vertex  4.865972e+001 -1.341528e+002  5.748108e+001
    endloop
  endfacet
  facet normal  9.189553e-001 -3.650409e-001 -1.492189e-001
    outer loop
      vertex  5.386802e+001 -1.333366e+002  5.703760e+001
      vertex  5.447632e+001 -1.325983e+002  5.897771e+001
      vertex  5.377569e+001 -1.336503e+002  5.723638e+001
    endloop
  endfacet
  facet normal  9.189578e-001 -3.650319e-001 -1.492254e-001
    outer loop
      vertex  5.377569e+001 -1.336503e+002  5.723638e+001
      vertex  5.447632e+001 -1.325983e+002  5.897771e+001
      vertex  5.435854e+001 -1.329429e+002  5.909531e+001
    endloop
  endfacet
  facet normal  4.548481e-001 -8.703715e-001  1.885909e-001
    outer loop
      vertex  5.377569e+001 -1.336503e+002  5.723638e+001
      vertex  5.435854e+001 -1.329429e+002  5.909531e+001
      vertex  5.349650e+001 -1.337431e+002  5.748108e+001
    endloop
  endfacet
  facet normal  4.548309e-001 -8.703778e-001  1.886034e-001
    outer loop
      vertex  5.349650e+001 -1.337431e+002  5.748108e+001
      vertex  5.435854e+001 -1.329429e+002  5.909531e+001
      vertex  5.401790e+001 -1.331103e+002  5.914402e+001
    endloop
  endfacet
  facet normal  5.952323e-001 -5.477499e-001 -5.879358e-001
    outer loop
      vertex  5.215996e+001 -1.339057e+002  5.583855e+001
      vertex  5.386802e+001 -1.333366e+002  5.703760e+001
      vertex  5.213910e+001 -1.341956e+002  5.608750e+001
    endloop
  endfacet
  facet normal  5.952323e-001 -5.477591e-001 -5.879274e-001
    outer loop
      vertex  5.213910e+001 -1.341956e+002  5.608750e+001
      vertex  5.386802e+001 -1.333366e+002  5.703760e+001
      vertex  5.377569e+001 -1.336503e+002  5.723638e+001
    endloop
  endfacet
  facet normal  3.159060e-001 -9.487904e-001  3.211783e-004
    outer loop
      vertex  5.213910e+001 -1.341956e+002  5.608750e+001
      vertex  5.377569e+001 -1.336503e+002  5.723638e+001
      vertex  5.203245e+001 -1.342309e+002  5.645332e+001
    endloop
  endfacet
  facet normal  3.159125e-001 -9.487884e-001  3.053837e-004
    outer loop
      vertex  5.203245e+001 -1.342309e+002  5.645332e+001
      vertex  5.377569e+001 -1.336503e+002  5.723638e+001
      vertex  5.349650e+001 -1.337431e+002  5.748108e+001
    endloop
  endfacet
  facet normal  5.528937e-002 -6.527891e-001 -7.555193e-001
    outer loop
      vertex  5.000456e+001 -1.340882e+002  5.583855e+001
      vertex  5.215996e+001 -1.339057e+002  5.583855e+001
      vertex  5.007388e+001 -1.343705e+002  5.608750e+001
    endloop
  endfacet
  facet normal  5.529329e-002 -6.528010e-001 -7.555088e-001
    outer loop
      vertex  5.007388e+001 -1.343705e+002  5.608750e+001
      vertex  5.215996e+001 -1.339057e+002  5.583855e+001
      vertex  5.213910e+001 -1.341956e+002  5.608750e+001
    endloop
  endfacet
  facet normal  8.418263e-002 -9.938731e-001 -7.162017e-002
    outer loop
      vertex  5.007388e+001 -1.343705e+002  5.608750e+001
      vertex  5.213910e+001 -1.341956e+002  5.608750e+001
      vertex  5.018496e+001 -1.343874e+002  5.645332e+001
    endloop
  endfacet
  facet normal  8.418774e-002 -9.938745e-001 -7.159366e-002
    outer loop
      vertex  5.018496e+001 -1.343874e+002  5.645332e+001
      vertex  5.213910e+001 -1.341956e+002  5.608750e+001
      vertex  5.203245e+001 -1.342309e+002  5.645332e+001
    endloop
  endfacet
  facet normal -4.946250e-001 -6.400578e-001 -5.879389e-001
    outer loop
      vertex  4.822511e+001 -1.338145e+002  5.703760e+001
      vertex  5.000456e+001 -1.340882e+002  5.583855e+001
      vertex  4.836889e+001 -1.341082e+002  5.723638e+001
    endloop
  endfacet
  facet normal -4.946287e-001 -6.400509e-001 -5.879431e-001
    outer loop
      vertex  4.836889e+001 -1.341082e+002  5.723638e+001
      vertex  5.000456e+001 -1.340882e+002  5.583855e+001
      vertex  5.007388e+001 -1.343705e+002  5.608750e+001
    endloop
  endfacet
  facet normal -1.518351e-001 -9.884058e-001  3.035328e-004
    outer loop
      vertex  4.836889e+001 -1.341082e+002  5.723638e+001
      vertex  5.007388e+001 -1.343705e+002  5.608750e+001
      vertex  4.865972e+001 -1.341528e+002  5.748108e+001
    endloop
  endfacet
  facet normal -1.518374e-001 -9.884055e-001  3.011329e-004
    outer loop
      vertex  4.865972e+001 -1.341528e+002  5.748108e+001
      vertex  5.007388e+001 -1.343705e+002  5.608750e+001
      vertex  5.018496e+001 -1.343874e+002  5.645332e+001
    endloop
  endfacet
  facet normal  9.028141e-001 -1.744462e-001  3.930587e-001
    outer loop
      vertex  5.447632e+001 -1.325983e+002  5.897771e+001
      vertex  5.375251e+001 -1.319728e+002  6.091781e+001
      vertex  5.435854e+001 -1.329429e+002  5.909531e+001
    endloop
  endfacet
  facet normal  9.028150e-001 -1.744439e-001  3.930578e-001
    outer loop
      vertex  5.435854e+001 -1.329429e+002  5.909531e+001
      vertex  5.375251e+001 -1.319728e+002  6.091781e+001
      vertex  5.366501e+001 -1.323436e+002  6.095424e+001
    endloop
  endfacet
  facet normal  4.479044e-001 -7.885855e-001  4.213247e-001
    outer loop
      vertex  5.435854e+001 -1.329429e+002  5.909531e+001
      vertex  5.366501e+001 -1.323436e+002  6.095424e+001
      vertex  5.401790e+001 -1.331103e+002  5.914402e+001
    endloop
  endfacet
  facet normal  4.479199e-001 -7.885770e-001  4.213241e-001
    outer loop
      vertex  5.401790e+001 -1.331103e+002  5.914402e+001
      vertex  5.366501e+001 -1.323436e+002  6.095424e+001
      vertex  5.339750e+001 -1.325742e+002  6.080696e+001
    endloop
  endfacet
  facet normal -8.606174e-001 -3.237969e-001  3.930565e-001
    outer loop
      vertex  4.810960e+001 -1.324508e+002  6.091781e+001
      vertex  4.750130e+001 -1.331891e+002  5.897771e+001
      vertex  4.825821e+001 -1.328016e+002  6.095424e+001
    endloop
  endfacet
  facet normal -8.606104e-001 -3.238144e-001  3.930572e-001
    outer loop
      vertex  4.825821e+001 -1.328016e+002  6.095424e+001
      vertex  4.750130e+001 -1.331891e+002  5.897771e+001
      vertex  4.767536e+001 -1.335089e+002  5.909531e+001
    endloop
  endfacet
  facet normal -3.089042e-001 -8.526797e-001  4.213258e-001
    outer loop
      vertex  4.825821e+001 -1.328016e+002  6.095424e+001
      vertex  4.767536e+001 -1.335089e+002  5.909531e+001
      vertex  4.856071e+001 -1.329839e+002  6.080696e+001
    endloop
  endfacet
  facet normal -3.088911e-001 -8.526868e-001  4.213212e-001
    outer loop
      vertex  4.856071e+001 -1.329839e+002  6.080696e+001
      vertex  4.767536e+001 -1.335089e+002  5.909531e+001
      vertex  4.803931e+001 -1.336167e+002  5.914402e+001
    endloop
  endfacet
  facet normal -5.368874e-001 -1.410972e-001  8.317713e-001
    outer loop
      vertex  4.981766e+001 -1.318817e+002  6.211686e+001
      vertex  4.810960e+001 -1.324508e+002  6.091781e+001
      vertex  4.989480e+001 -1.322563e+002  6.210311e+001
    endloop
  endfacet
  facet normal -5.368894e-001 -1.410845e-001  8.317721e-001
    outer loop
      vertex  4.989480e+001 -1.322563e+002  6.210311e+001
      vertex  4.810960e+001 -1.324508e+002  6.091781e+001
      vertex  4.825821e+001 -1.328016e+002  6.095424e+001
    endloop
  endfacet
  facet normal -1.699771e-001 -7.742507e-001  6.096258e-001
    outer loop
      vertex  4.989480e+001 -1.322563e+002  6.210311e+001
      vertex  4.825821e+001 -1.328016e+002  6.095424e+001
      vertex  5.002477e+001 -1.324961e+002  6.183472e+001
    endloop
  endfacet
  facet normal -1.699675e-001 -7.742640e-001  6.096116e-001
    outer loop
      vertex  5.002477e+001 -1.324961e+002  6.183472e+001
      vertex  4.825821e+001 -1.328016e+002  6.095424e+001
      vertex  4.856071e+001 -1.329839e+002  6.080696e+001
    endloop
  endfacet
  facet normal  3.053466e-003 -3.605158e-002  9.993452e-001
    outer loop
      vertex  5.197306e+001 -1.316991e+002  6.211686e+001
      vertex  4.981766e+001 -1.318817e+002  6.211686e+001
      vertex  5.196002e+001 -1.320813e+002  6.210311e+001
    endloop
  endfacet
  facet normal  3.053547e-003 -3.605071e-002  9.993453e-001
    outer loop
      vertex  5.196002e+001 -1.320813e+002  6.210311e+001
      vertex  4.981766e+001 -1.318817e+002  6.211686e+001
      vertex  4.989480e+001 -1.322563e+002  6.210311e+001
    endloop
  endfacet
  facet normal  6.176221e-002 -7.291756e-001  6.815338e-001
    outer loop
      vertex  5.196002e+001 -1.320813e+002  6.210311e+001
      vertex  4.989480e+001 -1.322563e+002  6.210311e+001
      vertex  5.187225e+001 -1.323396e+002  6.183472e+001
    endloop
  endfacet
  facet normal  6.176480e-002 -7.291616e-001  6.815485e-001
    outer loop
      vertex  5.187225e+001 -1.323396e+002  6.183472e+001
      vertex  4.989480e+001 -1.322563e+002  6.210311e+001
      vertex  5.002477e+001 -1.324961e+002  6.183472e+001
    endloop
  endfacet
  facet normal  5.529714e-001 -4.877873e-002  8.317712e-001
    outer loop
      vertex  5.375251e+001 -1.319728e+002  6.091781e+001
      vertex  5.197306e+001 -1.316991e+002  6.211686e+001
      vertex  5.366501e+001 -1.323436e+002  6.095424e+001
    endloop
  endfacet
  facet normal  5.529683e-001 -4.878927e-002  8.317726e-001
    outer loop
      vertex  5.366501e+001 -1.323436e+002  6.095424e+001
      vertex  5.197306e+001 -1.316991e+002  6.211686e+001
      vertex  5.196002e+001 -1.320813e+002  6.210311e+001
    endloop
  endfacet
  facet normal  2.977697e-001 -7.346464e-001  6.096130e-001
    outer loop
      vertex  5.366501e+001 -1.323436e+002  6.095424e+001
      vertex  5.196002e+001 -1.320813e+002  6.210311e+001
      vertex  5.339750e+001 -1.325742e+002  6.080696e+001
    endloop
  endfacet
  facet normal  2.977726e-001 -7.346433e-001  6.096151e-001
    outer loop
      vertex  5.339750e+001 -1.325742e+002  6.080696e+001
      vertex  5.196002e+001 -1.320813e+002  6.210311e+001
      vertex  5.187225e+001 -1.323396e+002  6.183472e+001
    endloop
  endfacet
  facet normal -3.553835e-001 -3.385116e-001 -8.712706e-001
    outer loop
      vertex  5.091862e+001 -1.320651e+002  6.133535e+001
      vertex  4.637297e+001 -5.745300e+001  3.420073e+001
      vertex  5.270064e+001 -1.321586e+002  6.064481e+001
    endloop
  endfacet
  facet normal -9.098400e-001 -2.048123e-001 -3.608920e-001
    outer loop
      vertex  5.270064e+001 -1.321586e+002  6.064481e+001
      vertex  4.637297e+001 -5.745300e+001  3.420073e+001
      vertex  4.715222e+001 -5.797712e+001  3.253362e+001
    endloop
  endfacet
  facet normal -9.098396e-001 -2.048126e-001 -3.608928e-001
    outer loop
      vertex  5.270064e+001 -1.321586e+002  6.064481e+001
      vertex  4.715222e+001 -5.797712e+001  3.253362e+001
      vertex  5.347989e+001 -1.326827e+002  5.897771e+001
    endloop
  endfacet
  facet normal -3.553828e-001 -3.385116e-001 -8.712708e-001
    outer loop
      vertex  4.637297e+001 -5.745300e+001  3.420073e+001
      vertex  5.091862e+001 -1.320651e+002  6.133535e+001
      vertex  4.459096e+001 -5.735950e+001  3.489127e+001
    endloop
  endfacet
  facet normal  4.072561e-001 -2.739151e-001 -8.712709e-001
    outer loop
      vertex  4.459096e+001 -5.735950e+001  3.489127e+001
      vertex  5.091862e+001 -1.320651e+002  6.133535e+001
      vertex  4.917772e+001 -1.324570e+002  6.064481e+001
    endloop
  endfacet
  facet normal  4.072554e-001 -2.739152e-001 -8.712712e-001
    outer loop
      vertex  4.459096e+001 -5.735950e+001  3.489127e+001
      vertex  4.917772e+001 -1.324570e+002  6.064481e+001
      vertex  4.285005e+001 -5.775140e+001  3.420073e+001
    endloop
  endfacet
  facet normal  9.313264e-001 -4.886319e-002 -3.608927e-001
    outer loop
      vertex  4.285005e+001 -5.775140e+001  3.420073e+001
      vertex  4.917772e+001 -1.324570e+002  6.064481e+001
      vertex  4.849773e+001 -1.331047e+002  5.897771e+001
    endloop
  endfacet
  facet normal  9.313265e-001 -4.886300e-002 -3.608923e-001
    outer loop
      vertex  4.285005e+001 -5.775140e+001  3.420073e+001
      vertex  4.849773e+001 -1.331047e+002  5.897771e+001
      vertex  4.217006e+001 -5.839911e+001  3.253362e+001
    endloop
  endfacet
  facet normal  3.553842e-001  3.385116e-001  8.712704e-001
    outer loop
      vertex  5.105899e+001 -1.337223e+002  5.662006e+001
      vertex  4.294931e+001 -5.892323e+001  3.086652e+001
      vertex  4.927698e+001 -1.336288e+002  5.731060e+001
    endloop
  endfacet
  facet normal  9.098393e-001  2.048127e-001  3.608936e-001
    outer loop
      vertex  4.927698e+001 -1.336288e+002  5.731060e+001
      vertex  4.294931e+001 -5.892323e+001  3.086652e+001
      vertex  4.217006e+001 -5.839911e+001  3.253362e+001
    endloop
  endfacet
  facet normal  9.098399e-001  2.048125e-001  3.608923e-001
    outer loop
      vertex  4.927698e+001 -1.336288e+002  5.731060e+001
      vertex  4.217006e+001 -5.839911e+001  3.253362e+001
      vertex  4.849773e+001 -1.331047e+002  5.897771e+001
    endloop
  endfacet
  facet normal  3.553806e-001  3.385117e-001  8.712717e-001
    outer loop
      vertex  4.294931e+001 -5.892323e+001  3.086652e+001
      vertex  5.105899e+001 -1.337223e+002  5.662006e+001
      vertex  4.473133e+001 -5.901672e+001  3.017598e+001
    endloop
  endfacet
  facet normal -4.072561e-001  2.739150e-001  8.712709e-001
    outer loop
      vertex  4.473133e+001 -5.901672e+001  3.017598e+001
      vertex  5.105899e+001 -1.337223e+002  5.662006e+001
      vertex  5.279990e+001 -1.333304e+002  5.731060e+001
    endloop
  endfacet
  facet normal -4.072541e-001  2.739155e-001  8.712717e-001
    outer loop
      vertex  4.473133e+001 -5.901672e+001  3.017598e+001
      vertex  5.279990e+001 -1.333304e+002  5.731060e+001
      vertex  4.647223e+001 -5.862483e+001  3.086652e+001
    endloop
  endfacet
  facet normal -9.313266e-001  4.886302e-002  3.608923e-001
    outer loop
      vertex  4.647223e+001 -5.862483e+001  3.086652e+001
      vertex  5.279990e+001 -1.333304e+002  5.731060e+001
      vertex  5.347989e+001 -1.326827e+002  5.897771e+001
    endloop
  endfacet
  facet normal -9.313263e-001  4.886309e-002  3.608928e-001
    outer loop
      vertex  4.647223e+001 -5.862483e+001  3.086652e+001
      vertex  5.347989e+001 -1.326827e+002  5.897771e+001
      vertex  4.715222e+001 -5.797712e+001  3.253362e+001
    endloop
  endfacet
  facet normal -8.606102e-001 -3.238139e-001  3.930581e-001
    outer loop
      vertex  5.347989e+001 -1.326827e+002  5.897771e+001
      vertex  5.319400e+001 -1.335608e+002  5.762834e+001
      vertex  5.365395e+001 -1.330025e+002  5.909531e+001
    endloop
  endfacet
  facet normal -6.990311e-001 -5.225530e-001  4.881537e-001
    outer loop
      vertex  5.347989e+001 -1.326827e+002  5.897771e+001
      vertex  5.279990e+001 -1.333304e+002  5.731060e+001
      vertex  5.319400e+001 -1.335608e+002  5.762834e+001
    endloop
  endfacet
  facet normal  7.769714e-001 -3.975233e-001  4.881501e-001
    outer loop
      vertex  4.849773e+001 -1.331047e+002  5.897771e+001
      vertex  4.892724e+001 -1.339222e+002  5.762834e+001
      vertex  4.927698e+001 -1.336288e+002  5.731060e+001
    endloop
  endfacet
  facet normal  9.028147e-001 -1.744470e-001  3.930571e-001
    outer loop
      vertex  4.849773e+001 -1.331047e+002  5.897771e+001
      vertex  4.837995e+001 -1.334493e+002  5.909531e+001
      vertex  4.892724e+001 -1.339222e+002  5.762834e+001
    endloop
  endfacet
  facet normal -5.922965e-001  9.093174e-002  8.005725e-001
    outer loop
      vertex  5.279990e+001 -1.333304e+002  5.731060e+001
      vertex  5.190249e+001 -1.339911e+002  5.672171e+001
      vertex  5.319400e+001 -1.335608e+002  5.762834e+001
    endloop
  endfacet
  facet normal -2.423775e-002  2.861478e-001  9.578789e-001
    outer loop
      vertex  5.105899e+001 -1.337223e+002  5.662006e+001
      vertex  5.027273e+001 -1.341292e+002  5.672171e+001
      vertex  5.190249e+001 -1.339911e+002  5.672171e+001
    endloop
  endfacet
  facet normal -2.441263e-001 -4.390809e-001  8.646446e-001
    outer loop
      vertex  5.105899e+001 -1.337223e+002  5.662006e+001
      vertex  5.190249e+001 -1.339911e+002  5.672171e+001
      vertex  5.279990e+001 -1.333304e+002  5.731060e+001
    endloop
  endfacet
  facet normal  5.685635e-001  1.892546e-001  8.005738e-001
    outer loop
      vertex  4.927698e+001 -1.336288e+002  5.731060e+001
      vertex  4.892724e+001 -1.339222e+002  5.762834e+001
      vertex  5.027273e+001 -1.341292e+002  5.672171e+001
    endloop
  endfacet
  facet normal  3.144992e-001 -3.917573e-001  8.646482e-001
    outer loop
      vertex  4.927698e+001 -1.336288e+002  5.731060e+001
      vertex  5.027273e+001 -1.341292e+002  5.672171e+001
      vertex  5.105899e+001 -1.337223e+002  5.662006e+001
    endloop
  endfacet
  facet normal -3.088911e-001 -8.526836e-001  4.213277e-001
    outer loop
      vertex  5.401790e+001 -1.331103e+002  5.914402e+001
      vertex  5.365395e+001 -1.330025e+002  5.909531e+001
      vertex  5.349650e+001 -1.337431e+002  5.748108e+001
    endloop
  endfacet
  facet normal -3.089080e-001 -8.526779e-001  4.213268e-001
    outer loop
      vertex  5.349650e+001 -1.337431e+002  5.748108e+001
      vertex  5.365395e+001 -1.330025e+002  5.909531e+001
      vertex  5.319400e+001 -1.335608e+002  5.762834e+001
    endloop
  endfacet
  facet normal -1.699713e-001 -7.742604e-001  6.096151e-001
    outer loop
      vertex  5.349650e+001 -1.337431e+002  5.748108e+001
      vertex  5.319400e+001 -1.335608e+002  5.762834e+001
      vertex  5.203245e+001 -1.342309e+002  5.645332e+001
    endloop
  endfacet
  facet normal -1.699548e-001 -7.742717e-001  6.096053e-001
    outer loop
      vertex  5.203245e+001 -1.342309e+002  5.645332e+001
      vertex  5.319400e+001 -1.335608e+002  5.762834e+001
      vertex  5.190249e+001 -1.339911e+002  5.672171e+001
    endloop
  endfacet
  facet normal  6.176699e-002 -7.291874e-001  6.815208e-001
    outer loop
      vertex  5.203245e+001 -1.342309e+002  5.645332e+001
      vertex  5.190249e+001 -1.339911e+002  5.672171e+001
      vertex  5.018496e+001 -1.343874e+002  5.645332e+001
    endloop
  endfacet
  facet normal  6.176420e-002 -7.291806e-001  6.815283e-001
    outer loop
      vertex  5.018496e+001 -1.343874e+002  5.645332e+001
      vertex  5.190249e+001 -1.339911e+002  5.672171e+001
      vertex  5.027273e+001 -1.341292e+002  5.672171e+001
    endloop
  endfacet
  facet normal  2.977695e-001 -7.346476e-001  6.096116e-001
    outer loop
      vertex  5.018496e+001 -1.343874e+002  5.645332e+001
      vertex  5.027273e+001 -1.341292e+002  5.672171e+001
      vertex  4.865972e+001 -1.341528e+002  5.748108e+001
    endloop
  endfacet
  facet normal  2.977711e-001 -7.346440e-001  6.096150e-001
    outer loop
      vertex  4.865972e+001 -1.341528e+002  5.748108e+001
      vertex  5.027273e+001 -1.341292e+002  5.672171e+001
      vertex  4.892724e+001 -1.339222e+002  5.762834e+001
    endloop
  endfacet
  facet normal  4.479159e-001 -7.885763e-001  4.213296e-001
    outer loop
      vertex  4.865972e+001 -1.341528e+002  5.748108e+001
      vertex  4.892724e+001 -1.339222e+002  5.762834e+001
      vertex  4.803931e+001 -1.336167e+002  5.914402e+001
    endloop
  endfacet
  facet normal  4.479044e-001 -7.885856e-001  4.213247e-001
    outer loop
      vertex  4.803931e+001 -1.336167e+002  5.914402e+001
      vertex  4.892724e+001 -1.339222e+002  5.762834e+001
      vertex  4.837995e+001 -1.334493e+002  5.909531e+001
    endloop
  endfacet
  facet normal  9.189581e-001 -3.650316e-001 -1.492242e-001
    outer loop
      vertex  4.849773e+001 -1.331047e+002  5.897771e+001
      vertex  4.883990e+001 -1.328910e+002  6.056227e+001
      vertex  4.837995e+001 -1.334493e+002  5.909531e+001
    endloop
  endfacet
  facet normal  7.942021e-001 -6.008787e-001 -9.048650e-002
    outer loop
      vertex  4.849773e+001 -1.331047e+002  5.897771e+001
      vertex  4.917772e+001 -1.324570e+002  6.064481e+001
      vertex  4.883990e+001 -1.328910e+002  6.056227e+001
    endloop
  endfacet
  facet normal -6.818070e-001 -7.259151e-001 -9.047898e-002
    outer loop
      vertex  5.347989e+001 -1.326827e+002  5.897771e+001
      vertex  5.310666e+001 -1.325296e+002  6.056227e+001
      vertex  5.270064e+001 -1.321586e+002  6.064481e+001
    endloop
  endfacet
  facet normal -8.444688e-001 -5.143981e-001 -1.492214e-001
    outer loop
      vertex  5.347989e+001 -1.326827e+002  5.897771e+001
      vertex  5.365395e+001 -1.330025e+002  5.909531e+001
      vertex  5.310666e+001 -1.325296e+002  6.056227e+001
    endloop
  endfacet
  facet normal  6.135799e-001 -3.422090e-001 -7.116268e-001
    outer loop
      vertex  4.917772e+001 -1.324570e+002  6.064481e+001
      vertex  5.013141e+001 -1.324607e+002  6.146891e+001
      vertex  4.883990e+001 -1.328910e+002  6.056227e+001
    endloop
  endfacet
  facet normal  3.184262e-002 -3.759715e-001 -9.260840e-001
    outer loop
      vertex  5.091862e+001 -1.320651e+002  6.133535e+001
      vertex  5.176117e+001 -1.323227e+002  6.146891e+001
      vertex  5.013141e+001 -1.324607e+002  6.146891e+001
    endloop
  endfacet
  facet normal  3.524978e-001 -8.403578e-001 -4.117574e-001
    outer loop
      vertex  5.091862e+001 -1.320651e+002  6.133535e+001
      vertex  5.013141e+001 -1.324607e+002  6.146891e+001
      vertex  4.917772e+001 -1.324570e+002  6.064481e+001
    endloop
  endfacet
  facet normal -5.472743e-001 -4.405482e-001 -7.116235e-001
    outer loop
      vertex  5.270064e+001 -1.321586e+002  6.064481e+001
      vertex  5.310666e+001 -1.325296e+002  6.056227e+001
      vertex  5.176117e+001 -1.323227e+002  6.146891e+001
    endloop
  endfacet
  facet normal -2.061395e-001 -8.876679e-001 -4.117672e-001
    outer loop
      vertex  5.270064e+001 -1.321586e+002  6.064481e+001
      vertex  5.176117e+001 -1.323227e+002  6.146891e+001
      vertex  5.091862e+001 -1.320651e+002  6.133535e+001
    endloop
  endfacet
  facet normal  4.548307e-001 -8.703796e-001  1.885961e-001
    outer loop
      vertex  4.803931e+001 -1.336167e+002  5.914402e+001
      vertex  4.837995e+001 -1.334493e+002  5.909531e+001
      vertex  4.856071e+001 -1.329839e+002  6.080696e+001
    endloop
  endfacet
  facet normal  4.548423e-001 -8.703740e-001  1.885934e-001
    outer loop
      vertex  4.856071e+001 -1.329839e+002  6.080696e+001
      vertex  4.837995e+001 -1.334493e+002  5.909531e+001
      vertex  4.883990e+001 -1.328910e+002  6.056227e+001
    endloop
  endfacet
  facet normal  3.159107e-001 -9.487889e-001  3.080800e-004
    outer loop
      vertex  4.856071e+001 -1.329839e+002  6.080696e+001
      vertex  4.883990e+001 -1.328910e+002  6.056227e+001
      vertex  5.002477e+001 -1.324961e+002  6.183472e+001
    endloop
  endfacet
  facet normal  3.159291e-001 -9.487827e-001  2.891132e-004
    outer loop
      vertex  5.002477e+001 -1.324961e+002  6.183472e+001
      vertex  4.883990e+001 -1.328910e+002  6.056227e+001
      vertex  5.013141e+001 -1.324607e+002  6.146891e+001
    endloop
  endfacet
  facet normal  8.418749e-002 -9.938717e-001 -7.163414e-002
    outer loop
      vertex  5.002477e+001 -1.324961e+002  6.183472e+001
      vertex  5.013141e+001 -1.324607e+002  6.146891e+001
      vertex  5.187225e+001 -1.323396e+002  6.183472e+001
    endloop
  endfacet
  facet normal  8.417564e-002 -9.938769e-001 -7.157600e-002
    outer loop
      vertex  5.187225e+001 -1.323396e+002  6.183472e+001
      vertex  5.013141e+001 -1.324607e+002  6.146891e+001
      vertex  5.176117e+001 -1.323227e+002  6.146891e+001
    endloop
  endfacet
  facet normal -1.518149e-001 -9.884089e-001  3.353762e-004
    outer loop
      vertex  5.187225e+001 -1.323396e+002  6.183472e+001
      vertex  5.176117e+001 -1.323227e+002  6.146891e+001
      vertex  5.339750e+001 -1.325742e+002  6.080696e+001
    endloop
  endfacet
  facet normal -1.518299e-001 -9.884065e-001  2.972228e-004
    outer loop
      vertex  5.339750e+001 -1.325742e+002  6.080696e+001
      vertex  5.176117e+001 -1.323227e+002  6.146891e+001
      vertex  5.310666e+001 -1.325296e+002  6.056227e+001
    endloop
  endfacet
  facet normal -3.019766e-001 -9.344757e-001  1.885882e-001
    outer loop
      vertex  5.339750e+001 -1.325742e+002  6.080696e+001
      vertex  5.310666e+001 -1.325296e+002  6.056227e+001
      vertex  5.401790e+001 -1.331103e+002  5.914402e+001
    endloop
  endfacet
  facet normal -3.019620e-001 -9.344782e-001  1.885987e-001
    outer loop
      vertex  5.401790e+001 -1.331103e+002  5.914402e+001
      vertex  5.310666e+001 -1.325296e+002  6.056227e+001
      vertex  5.365395e+001 -1.330025e+002  5.909531e+001
    endloop
  endfacet
  facet normal -7.959294e-002  9.396926e-001 -3.326300e-001
    outer loop
      vertex  4.583229e+001 -5.920010e+001  2.939447e+001
      vertex  4.473133e+001 -5.901672e+001  3.017598e+001
      vertex  4.754035e+001 -5.863099e+001  3.059352e+001
    endloop
  endfacet
  facet normal -7.959260e-002  9.396921e-001 -3.326318e-001
    outer loop
      vertex  4.754035e+001 -5.863099e+001  3.059352e+001
      vertex  4.473133e+001 -5.901672e+001  3.017598e+001
      vertex  4.647223e+001 -5.862483e+001  3.086652e+001
    endloop
  endfacet
  facet normal -7.959232e-002  9.396924e-001 -3.326308e-001
    outer loop
      vertex  4.754035e+001 -5.863099e+001  3.059352e+001
      vertex  4.647223e+001 -5.862483e+001  3.086652e+001
      vertex  4.814865e+001 -5.789272e+001  3.253362e+001
    endloop
  endfacet
  facet normal -7.959414e-002  9.396929e-001 -3.326291e-001
    outer loop
      vertex  4.814865e+001 -5.789272e+001  3.253362e+001
      vertex  4.647223e+001 -5.862483e+001  3.086652e+001
      vertex  4.715222e+001 -5.797712e+001  3.253362e+001
    endloop
  endfacet
  facet normal -7.959414e-002  9.396930e-001 -3.326289e-001
    outer loop
      vertex  4.814865e+001 -5.789272e+001  3.253362e+001
      vertex  4.715222e+001 -5.797712e+001  3.253362e+001
      vertex  4.742484e+001 -5.726727e+001  3.447373e+001
    endloop
  endfacet
  facet normal -7.959343e-002  9.396929e-001 -3.326290e-001
    outer loop
      vertex  4.742484e+001 -5.726727e+001  3.447373e+001
      vertex  4.715222e+001 -5.797712e+001  3.253362e+001
      vertex  4.637297e+001 -5.745300e+001  3.420073e+001
    endloop
  endfacet
  facet normal -7.959303e-002  9.396926e-001 -3.326303e-001
    outer loop
      vertex  4.742484e+001 -5.726727e+001  3.447373e+001
      vertex  4.637297e+001 -5.745300e+001  3.420073e+001
      vertex  4.564539e+001 -5.699356e+001  3.567278e+001
    endloop
  endfacet
  facet normal -7.959229e-002  9.396927e-001 -3.326299e-001
    outer loop
      vertex  4.564539e+001 -5.699356e+001  3.567278e+001
      vertex  4.637297e+001 -5.745300e+001  3.420073e+001
      vertex  4.459096e+001 -5.735950e+001  3.489127e+001
    endloop
  endfacet
  facet normal -7.959247e-002  9.396928e-001 -3.326298e-001
    outer loop
      vertex  4.564539e+001 -5.699356e+001  3.567278e+001
      vertex  4.459096e+001 -5.735950e+001  3.489127e+001
      vertex  4.348999e+001 -5.717612e+001  3.567278e+001
    endloop
  endfacet
  facet normal -7.959363e-002  9.396921e-001 -3.326313e-001
    outer loop
      vertex  4.348999e+001 -5.717612e+001  3.567278e+001
      vertex  4.459096e+001 -5.735950e+001  3.489127e+001
      vertex  4.178193e+001 -5.774524e+001  3.447373e+001
    endloop
  endfacet
  facet normal -7.959483e-002  9.396942e-001 -3.326251e-001
    outer loop
      vertex  4.178193e+001 -5.774524e+001  3.447373e+001
      vertex  4.459096e+001 -5.735950e+001  3.489127e+001
      vertex  4.285005e+001 -5.775140e+001  3.420073e+001
    endloop
  endfacet
  facet normal -7.959588e-002  9.396926e-001 -3.326292e-001
    outer loop
      vertex  4.178193e+001 -5.774524e+001  3.447373e+001
      vertex  4.285005e+001 -5.775140e+001  3.420073e+001
      vertex  4.117363e+001 -5.848351e+001  3.253362e+001
    endloop
  endfacet
  facet normal -7.959440e-002  9.396923e-001 -3.326305e-001
    outer loop
      vertex  4.117363e+001 -5.848351e+001  3.253362e+001
      vertex  4.285005e+001 -5.775140e+001  3.420073e+001
      vertex  4.217006e+001 -5.839911e+001  3.253362e+001
    endloop
  endfacet
  facet normal -7.959443e-002  9.396927e-001 -3.326294e-001
    outer loop
      vertex  4.117363e+001 -5.848351e+001  3.253362e+001
      vertex  4.217006e+001 -5.839911e+001  3.253362e+001
      vertex  4.189744e+001 -5.910896e+001  3.059352e+001
    endloop
  endfacet
  facet normal -7.959358e-002  9.396927e-001 -3.326295e-001
    outer loop
      vertex  4.189744e+001 -5.910896e+001  3.059352e+001
      vertex  4.217006e+001 -5.839911e+001  3.253362e+001
      vertex  4.294931e+001 -5.892323e+001  3.086652e+001
    endloop
  endfacet
  facet normal -7.959314e-002  9.396923e-001 -3.326309e-001
    outer loop
      vertex  4.189744e+001 -5.910896e+001  3.059352e+001
      vertex  4.294931e+001 -5.892323e+001  3.086652e+001
      vertex  4.367689e+001 -5.938267e+001  2.939447e+001
    endloop
  endfacet
  facet normal -7.959417e-002  9.396921e-001 -3.326313e-001
    outer loop
      vertex  4.367689e+001 -5.938267e+001  2.939447e+001
      vertex  4.294931e+001 -5.892323e+001  3.086652e+001
      vertex  4.473133e+001 -5.901672e+001  3.017598e+001
    endloop
  endfacet
  facet normal -7.959407e-002  9.396920e-001 -3.326315e-001
    outer loop
      vertex  4.367689e+001 -5.938267e+001  2.939447e+001
      vertex  4.473133e+001 -5.901672e+001  3.017598e+001
      vertex  4.583229e+001 -5.920010e+001  2.939447e+001
    endloop
  endfacet
endsolid CATIA STL
