solid CATIA STL
  facet normal  0.000000e+000  1.010258e-001 -9.948838e-001
    outer loop
      vertex -4.750000e+001 -4.607261e+001  3.225307e+001
      vertex -7.150000e+001 -4.607261e+001  3.225307e+001
      vertex -4.721171e+001 -4.577170e+001  3.228363e+001
    endloop
  endfacet
  facet normal  0.000000e+000  1.010258e-001 -9.948838e-001
    outer loop
      vertex -4.721171e+001 -4.577170e+001  3.228363e+001
      vertex -7.150000e+001 -4.607261e+001  3.225307e+001
      vertex -7.178829e+001 -4.577170e+001  3.228363e+001
    endloop
  endfacet
  facet normal  0.000000e+000  5.254918e-001 -8.507987e-001
    outer loop
      vertex -4.721171e+001 -4.577170e+001  3.228363e+001
      vertex -7.178829e+001 -4.577170e+001  3.228363e+001
      vertex -4.710703e+001 -4.564890e+001  3.235947e+001
    endloop
  endfacet
  facet normal  0.000000e+000  5.254917e-001 -8.507987e-001
    outer loop
      vertex -4.710703e+001 -4.564890e+001  3.235947e+001
      vertex -7.178829e+001 -4.577170e+001  3.228363e+001
      vertex -7.189297e+001 -4.564890e+001  3.235947e+001
    endloop
  endfacet
  facet normal  0.000000e+000 -2.046141e-001 -9.788427e-001
    outer loop
      vertex -4.750000e+001 -4.607261e+001  3.225307e+001
      vertex -4.750000e+001 -4.669533e+001  3.238324e+001
      vertex -7.150000e+001 -4.607261e+001  3.225307e+001
    endloop
  endfacet
  facet normal  0.000000e+000 -2.046141e-001 -9.788427e-001
    outer loop
      vertex -7.150000e+001 -4.607261e+001  3.225307e+001
      vertex -4.750000e+001 -4.669533e+001  3.238324e+001
      vertex -7.150000e+001 -4.669533e+001  3.238324e+001
    endloop
  endfacet
  facet normal  1.000000e+000  -0.000000e+000  -0.000000e+000
    outer loop
      vertex -4.700000e+001  1.623254e+002  4.632256e+001
      vertex -4.700000e+001  1.676358e+002  4.101218e+001
      vertex -4.700000e+001  1.686357e+002  4.100216e+001
    endloop
  endfacet
  facet normal  1.000000e+000  0.000000e+000  0.000000e+000
    outer loop
      vertex -4.700000e+001  1.623254e+002  4.632256e+001
      vertex -4.700000e+001  1.686357e+002  4.100216e+001
      vertex -4.700000e+001  1.623153e+002  4.732256e+001
    endloop
  endfacet
  facet normal  1.000000e+000  0.000000e+000  0.000000e+000
    outer loop
      vertex -4.700000e+001  1.623254e+002  4.632256e+001
      vertex -4.700000e+001  1.623153e+002  4.732256e+001
      vertex -4.700000e+001 -2.937231e+001  4.732256e+001
    endloop
  endfacet
  facet normal  1.000000e+000  0.000000e+000  0.000000e+000
    outer loop
      vertex -4.700000e+001  1.623254e+002  4.632256e+001
      vertex -4.700000e+001 -2.937231e+001  4.732256e+001
      vertex -4.700000e+001 -2.900834e+001  4.632256e+001
    endloop
  endfacet
  facet normal  1.000000e+000  0.000000e+000  -0.000000e+000
    outer loop
      vertex -4.700000e+001  1.578947e+002  2.424914e+001
      vertex -4.700000e+001  1.594757e+002  2.424914e+001
      vertex -4.700000e+001  1.597052e+002  2.430491e+001
    endloop
  endfacet
  facet normal  1.000000e+000  0.000000e+000  -0.000000e+000
    outer loop
      vertex -4.700000e+001  1.578947e+002  2.424914e+001
      vertex -4.700000e+001  1.597052e+002  2.430491e+001
      vertex -4.700000e+001  1.598835e+002  2.445979e+001
    endloop
  endfacet
  facet normal  9.999999e-001  0.000000e+000  -0.000000e+000
    outer loop
      vertex -4.700000e+001  1.578947e+002  2.424914e+001
      vertex -4.700000e+001  1.598835e+002  2.445979e+001
      vertex -4.700000e+001  1.685649e+002  3.669455e+001
    endloop
  endfacet
  facet normal  1.000000e+000  0.000000e+000  0.000000e+000
    outer loop
      vertex -4.700000e+001  1.578947e+002  2.424914e+001
      vertex -4.700000e+001  1.685649e+002  3.669455e+001
      vertex -4.700000e+001  1.675847e+002  3.790516e+001
    endloop
  endfacet
  facet normal  1.000000e+000  0.000000e+000  -0.000000e+000
    outer loop
      vertex -4.700000e+001 -4.659303e+001  3.287267e+001
      vertex -4.700000e+001 -4.534757e+001  3.261232e+001
      vertex -4.700000e+001 -2.937231e+001  4.732256e+001
    endloop
  endfacet
  facet normal  1.000000e+000  0.000000e+000  0.000000e+000
    outer loop
      vertex -4.700000e+001 -2.937231e+001  4.732256e+001
      vertex -4.700000e+001 -4.534757e+001  3.261232e+001
      vertex -4.700000e+001 -2.900834e+001  4.632256e+001
    endloop
  endfacet
  facet normal  1.000000e+000  0.000000e+000  0.000000e+000
    outer loop
      vertex -4.700000e+001  1.675847e+002  3.790516e+001
      vertex -4.700000e+001  1.685649e+002  3.669455e+001
      vertex -4.700000e+001  1.676358e+002  4.101218e+001
    endloop
  endfacet
  facet normal  1.000000e+000  0.000000e+000  0.000000e+000
    outer loop
      vertex -4.700000e+001  1.676358e+002  4.101218e+001
      vertex -4.700000e+001  1.685649e+002  3.669455e+001
      vertex -4.700000e+001  1.686357e+002  4.100216e+001
    endloop
  endfacet
  facet normal -1.000000e+000  0.000000e+000  0.000000e+000
    outer loop
      vertex -7.200000e+001  1.623254e+002  4.632256e+001
      vertex -7.200000e+001 -2.900834e+001  4.632256e+001
      vertex -7.200000e+001 -2.937231e+001  4.732256e+001
    endloop
  endfacet
  facet normal -1.000000e+000  0.000000e+000  0.000000e+000
    outer loop
      vertex -7.200000e+001  1.623254e+002  4.632256e+001
      vertex -7.200000e+001 -2.937231e+001  4.732256e+001
      vertex -7.200000e+001  1.623153e+002  4.732256e+001
    endloop
  endfacet
  facet normal -1.000000e+000  0.000000e+000  0.000000e+000
    outer loop
      vertex -7.200000e+001  1.623254e+002  4.632256e+001
      vertex -7.200000e+001  1.623153e+002  4.732256e+001
      vertex -7.200000e+001  1.686357e+002  4.100216e+001
    endloop
  endfacet
  facet normal -1.000000e+000  0.000000e+000  0.000000e+000
    outer loop
      vertex -7.200000e+001  1.623254e+002  4.632256e+001
      vertex -7.200000e+001  1.686357e+002  4.100216e+001
      vertex -7.200000e+001  1.676358e+002  4.101218e+001
    endloop
  endfacet
  facet normal -1.000000e+000  0.000000e+000  0.000000e+000
    outer loop
      vertex -7.200000e+001 -4.659303e+001  3.287267e+001
      vertex -7.200000e+001 -2.937231e+001  4.732256e+001
      vertex -7.200000e+001 -4.534757e+001  3.261232e+001
    endloop
  endfacet
  facet normal -9.999999e-001  0.000000e+000  0.000000e+000
    outer loop
      vertex -7.200000e+001 -4.534757e+001  3.261232e+001
      vertex -7.200000e+001 -2.937231e+001  4.732256e+001
      vertex -7.200000e+001 -2.900834e+001  4.632256e+001
    endloop
  endfacet
  facet normal -1.000000e+000  0.000000e+000  0.000000e+000
    outer loop
      vertex -7.200000e+001  1.686357e+002  4.100216e+001
      vertex -7.200000e+001  1.685795e+002  3.757906e+001
      vertex -7.200000e+001  1.676358e+002  4.101218e+001
    endloop
  endfacet
  facet normal -9.999999e-001  0.000000e+000  -0.000000e+000
    outer loop
      vertex -7.200000e+001  1.676358e+002  4.101218e+001
      vertex -7.200000e+001  1.685795e+002  3.757906e+001
      vertex -7.200000e+001  1.675847e+002  3.790516e+001
    endloop
  endfacet
  facet normal -1.000000e+000  0.000000e+000  0.000000e+000
    outer loop
      vertex -7.200000e+001  1.685795e+002  3.757906e+001
      vertex -7.200000e+001  1.591209e+002  2.424914e+001
      vertex -7.200000e+001  1.675847e+002  3.790516e+001
    endloop
  endfacet
  facet normal -1.000000e+000  0.000000e+000  0.000000e+000
    outer loop
      vertex -7.200000e+001  1.675847e+002  3.790516e+001
      vertex -7.200000e+001  1.591209e+002  2.424914e+001
      vertex -7.200000e+001  1.578947e+002  2.424914e+001
    endloop
  endfacet
  facet normal -2.318455e-005  6.427876e-001 -7.660445e-001
    outer loop
      vertex -7.200000e+001 -2.900834e+001  4.632256e+001
      vertex -7.189297e+001 -4.564890e+001  3.235947e+001
      vertex -7.200000e+001 -4.534757e+001  3.261232e+001
    endloop
  endfacet
  facet normal  2.318455e-005  6.427876e-001 -7.660445e-001
    outer loop
      vertex -4.700000e+001 -4.534757e+001  3.261232e+001
      vertex -4.710703e+001 -4.564890e+001  3.235947e+001
      vertex -4.700000e+001 -2.900834e+001  4.632256e+001
    endloop
  endfacet
  facet normal  0.000000e+000  6.427877e-001 -7.660444e-001
    outer loop
      vertex -4.700000e+001 -2.900834e+001  4.632256e+001
      vertex -4.710703e+001 -4.564890e+001  3.235947e+001
      vertex -7.189297e+001 -4.564890e+001  3.235947e+001
    endloop
  endfacet
  facet normal  0.000000e+000  6.427877e-001 -7.660444e-001
    outer loop
      vertex -4.700000e+001 -2.900834e+001  4.632256e+001
      vertex -7.189297e+001 -4.564890e+001  3.235947e+001
      vertex -7.200000e+001 -2.900834e+001  4.632256e+001
    endloop
  endfacet
  facet normal -9.511598e-001 -1.984277e-001  2.364769e-001
    outer loop
      vertex -7.200000e+001 -2.937231e+001  4.732256e+001
      vertex -7.200000e+001 -4.659303e+001  3.287267e+001
      vertex -7.190471e+001 -2.947918e+001  4.761617e+001
    endloop
  endfacet
  facet normal -9.238792e-001 -2.468086e-001  2.924598e-001
    outer loop
      vertex -7.190471e+001 -2.947918e+001  4.761617e+001
      vertex -7.200000e+001 -4.659303e+001  3.287267e+001
      vertex -7.185355e+001 -4.682029e+001  3.314350e+001
    endloop
  endfacet
  facet normal -5.834090e-001 -5.214191e-001  6.227006e-001
    outer loop
      vertex -7.190471e+001 -2.947918e+001  4.761617e+001
      vertex -7.185355e+001 -4.682029e+001  3.314350e+001
      vertex -7.164886e+001 -2.954604e+001  4.779989e+001
    endloop
  endfacet
  facet normal -1.505803e-001 -6.354585e-001  7.573097e-001
    outer loop
      vertex -7.150000e+001 -2.955429e+001  4.782256e+001
      vertex -7.164886e+001 -2.954604e+001  4.779989e+001
      vertex -7.150000e+001 -4.691442e+001  3.325569e+001
    endloop
  endfacet
  facet normal -3.826820e-001 -5.950759e-001  7.067102e-001
    outer loop
      vertex -7.150000e+001 -4.691442e+001  3.325569e+001
      vertex -7.164886e+001 -2.954604e+001  4.779989e+001
      vertex -7.185355e+001 -4.682029e+001  3.314350e+001
    endloop
  endfacet
  facet normal  0.000000e+000 -6.427877e-001  7.660444e-001
    outer loop
      vertex -4.750000e+001 -2.955429e+001  4.782256e+001
      vertex -7.150000e+001 -2.955429e+001  4.782256e+001
      vertex -4.750000e+001 -4.691442e+001  3.325569e+001
    endloop
  endfacet
  facet normal  0.000000e+000 -6.427877e-001  7.660444e-001
    outer loop
      vertex -4.750000e+001 -4.691442e+001  3.325569e+001
      vertex -7.150000e+001 -2.955429e+001  4.782256e+001
      vertex -7.150000e+001 -4.691442e+001  3.325569e+001
    endloop
  endfacet
  facet normal  3.120808e-001 -6.106840e-001  7.277848e-001
    outer loop
      vertex -4.750000e+001 -2.955429e+001  4.782256e+001
      vertex -4.750000e+001 -4.691442e+001  3.325569e+001
      vertex -4.720351e+001 -2.951885e+001  4.772517e+001
    endloop
  endfacet
  facet normal  3.826825e-001 -5.946532e-001  7.070655e-001
    outer loop
      vertex -4.720351e+001 -2.951885e+001  4.772517e+001
      vertex -4.750000e+001 -4.691442e+001  3.325569e+001
      vertex -4.714645e+001 -4.682029e+001  3.314350e+001
    endloop
  endfacet
  facet normal  8.088648e-001 -3.773692e-001  4.509215e-001
    outer loop
      vertex -4.720351e+001 -2.951885e+001  4.772517e+001
      vertex -4.714645e+001 -4.682029e+001  3.314350e+001
      vertex -4.702563e+001 -2.942982e+001  4.748058e+001
    endloop
  endfacet
  facet normal  9.871034e-001 -1.029000e-001  1.226315e-001
    outer loop
      vertex -4.700000e+001 -2.937231e+001  4.732256e+001
      vertex -4.702563e+001 -2.942982e+001  4.748058e+001
      vertex -4.700000e+001 -4.659303e+001  3.287267e+001
    endloop
  endfacet
  facet normal  9.238784e-001 -2.472344e-001  2.921026e-001
    outer loop
      vertex -4.700000e+001 -4.659303e+001  3.287267e+001
      vertex -4.702563e+001 -2.942982e+001  4.748058e+001
      vertex -4.714645e+001 -4.682029e+001  3.314350e+001
    endloop
  endfacet
  facet normal  9.449700e-001 -6.694099e-002 -3.202355e-001
    outer loop
      vertex -4.700000e+001 -4.534757e+001  3.261232e+001
      vertex -4.700000e+001 -4.659303e+001  3.287267e+001
      vertex -4.710703e+001 -4.564890e+001  3.235947e+001
    endloop
  endfacet
  facet normal  9.237154e-001 -9.675887e-002 -3.706583e-001
    outer loop
      vertex -4.710703e+001 -4.564890e+001  3.235947e+001
      vertex -4.700000e+001 -4.659303e+001  3.287267e+001
      vertex -4.714645e+001 -4.666537e+001  3.252659e+001
    endloop
  endfacet
  facet normal  6.857548e-001 -1.438947e-001 -7.134665e-001
    outer loop
      vertex -4.710703e+001 -4.564890e+001  3.235947e+001
      vertex -4.714645e+001 -4.666537e+001  3.252659e+001
      vertex -4.721171e+001 -4.577170e+001  3.228363e+001
    endloop
  endfacet
  facet normal  3.024525e-001 -1.950309e-001 -9.329981e-001
    outer loop
      vertex -4.750000e+001 -4.607261e+001  3.225307e+001
      vertex -4.721171e+001 -4.577170e+001  3.228363e+001
      vertex -4.750000e+001 -4.669533e+001  3.238324e+001
    endloop
  endfacet
  facet normal  3.825348e-001 -2.162813e-001 -8.982703e-001
    outer loop
      vertex -4.750000e+001 -4.669533e+001  3.238324e+001
      vertex -4.721171e+001 -4.577170e+001  3.228363e+001
      vertex -4.714645e+001 -4.666537e+001  3.252659e+001
    endloop
  endfacet
  facet normal -3.024525e-001 -1.950309e-001 -9.329981e-001
    outer loop
      vertex -7.150000e+001 -4.607261e+001  3.225307e+001
      vertex -7.150000e+001 -4.669533e+001  3.238324e+001
      vertex -7.178829e+001 -4.577170e+001  3.228363e+001
    endloop
  endfacet
  facet normal -3.825348e-001 -2.162813e-001 -8.982703e-001
    outer loop
      vertex -7.178829e+001 -4.577170e+001  3.228363e+001
      vertex -7.150000e+001 -4.669533e+001  3.238324e+001
      vertex -7.185355e+001 -4.666537e+001  3.252659e+001
    endloop
  endfacet
  facet normal -6.857548e-001 -1.438947e-001 -7.134665e-001
    outer loop
      vertex -7.178829e+001 -4.577170e+001  3.228363e+001
      vertex -7.185355e+001 -4.666537e+001  3.252659e+001
      vertex -7.189297e+001 -4.564890e+001  3.235947e+001
    endloop
  endfacet
  facet normal -9.238798e-001 -7.830226e-002 -3.745861e-001
    outer loop
      vertex -7.200000e+001 -4.659303e+001  3.287267e+001
      vertex -7.200000e+001 -4.534757e+001  3.261232e+001
      vertex -7.185355e+001 -4.666537e+001  3.252659e+001
    endloop
  endfacet
  facet normal -9.501710e-001 -8.610199e-002 -2.996021e-001
    outer loop
      vertex -7.185355e+001 -4.666537e+001  3.252659e+001
      vertex -7.200000e+001 -4.534757e+001  3.261232e+001
      vertex -7.189297e+001 -4.564890e+001  3.235947e+001
    endloop
  endfacet
  facet normal -9.123693e-001 -3.634655e-001  1.883490e-001
    outer loop
      vertex -7.200000e+001 -4.659303e+001  3.287267e+001
      vertex -7.185245e+001 -4.694611e+001  3.290606e+001
      vertex -7.185355e+001 -4.682029e+001  3.314350e+001
    endloop
  endfacet
  facet normal -3.598958e-001 -8.188795e-001  4.471145e-001
    outer loop
      vertex -7.150000e+001 -4.691442e+001  3.325569e+001
      vertex -7.185355e+001 -4.682029e+001  3.314350e+001
      vertex -7.150000e+001 -4.708901e+001  3.293593e+001
    endloop
  endfacet
  facet normal -3.698963e-001 -8.216501e-001  4.336678e-001
    outer loop
      vertex -7.150000e+001 -4.708901e+001  3.293593e+001
      vertex -7.185355e+001 -4.682029e+001  3.314350e+001
      vertex -7.185245e+001 -4.694611e+001  3.290606e+001
    endloop
  endfacet
  facet normal -3.491555e-001 -9.088452e-001 -2.282342e-001
    outer loop
      vertex -7.150000e+001 -4.708901e+001  3.293593e+001
      vertex -7.185245e+001 -4.694611e+001  3.290606e+001
      vertex -7.150000e+001 -4.700027e+001  3.258258e+001
    endloop
  endfacet
  facet normal -3.491528e-001 -9.088470e-001 -2.282309e-001
    outer loop
      vertex -7.150000e+001 -4.700027e+001  3.258258e+001
      vertex -7.185245e+001 -4.694611e+001  3.290606e+001
      vertex -7.173991e+001 -4.690300e+001  3.256225e+001
    endloop
  endfacet
  facet normal -1.492207e-001 -5.410366e-001 -8.276547e-001
    outer loop
      vertex -7.150000e+001 -4.700027e+001  3.258258e+001
      vertex -7.173991e+001 -4.690300e+001  3.256225e+001
      vertex -7.150000e+001 -4.669533e+001  3.238324e+001
    endloop
  endfacet
  facet normal -8.593863e-001 -3.903722e-001 -3.302498e-001
    outer loop
      vertex -7.185245e+001 -4.694611e+001  3.290606e+001
      vertex -7.200000e+001 -4.659303e+001  3.287267e+001
      vertex -7.173991e+001 -4.690300e+001  3.256225e+001
    endloop
  endfacet
  facet normal -8.530818e-001 -4.480935e-001 -2.673269e-001
    outer loop
      vertex -7.173991e+001 -4.690300e+001  3.256225e+001
      vertex -7.200000e+001 -4.659303e+001  3.287267e+001
      vertex -7.185355e+001 -4.666537e+001  3.252659e+001
    endloop
  endfacet
  facet normal -3.795650e-001 -3.122098e-001 -8.708935e-001
    outer loop
      vertex -7.173991e+001 -4.690300e+001  3.256225e+001
      vertex -7.185355e+001 -4.666537e+001  3.252659e+001
      vertex -7.150000e+001 -4.669533e+001  3.238324e+001
    endloop
  endfacet
  facet normal  0.000000e+000 -8.776913e-001  4.792262e-001
    outer loop
      vertex -4.750000e+001 -4.691442e+001  3.325569e+001
      vertex -7.150000e+001 -4.691442e+001  3.325569e+001
      vertex -4.750000e+001 -4.708901e+001  3.293593e+001
    endloop
  endfacet
  facet normal  0.000000e+000 -8.776913e-001  4.792262e-001
    outer loop
      vertex -4.750000e+001 -4.708901e+001  3.293593e+001
      vertex -7.150000e+001 -4.691442e+001  3.325569e+001
      vertex -7.150000e+001 -4.708901e+001  3.293593e+001
    endloop
  endfacet
  facet normal  0.000000e+000 -9.698851e-001 -2.435629e-001
    outer loop
      vertex -4.750000e+001 -4.708901e+001  3.293593e+001
      vertex -7.150000e+001 -4.708901e+001  3.293593e+001
      vertex -4.750000e+001 -4.700027e+001  3.258258e+001
    endloop
  endfacet
  facet normal  -0.000000e+000 -9.698851e-001 -2.435629e-001
    outer loop
      vertex -4.750000e+001 -4.700027e+001  3.258258e+001
      vertex -7.150000e+001 -4.708901e+001  3.293593e+001
      vertex -7.150000e+001 -4.700027e+001  3.258258e+001
    endloop
  endfacet
  facet normal  0.000000e+000 -5.471628e-001 -8.370262e-001
    outer loop
      vertex -4.750000e+001 -4.700027e+001  3.258258e+001
      vertex -7.150000e+001 -4.700027e+001  3.258258e+001
      vertex -4.750000e+001 -4.669533e+001  3.238324e+001
    endloop
  endfacet
  facet normal  -0.000000e+000 -5.471628e-001 -8.370262e-001
    outer loop
      vertex -4.750000e+001 -4.669533e+001  3.238324e+001
      vertex -7.150000e+001 -4.700027e+001  3.258258e+001
      vertex -7.150000e+001 -4.669533e+001  3.238324e+001
    endloop
  endfacet
  facet normal  3.795650e-001 -3.122098e-001 -8.708935e-001
    outer loop
      vertex -4.750000e+001 -4.669533e+001  3.238324e+001
      vertex -4.714645e+001 -4.666537e+001  3.252659e+001
      vertex -4.726009e+001 -4.690300e+001  3.256225e+001
    endloop
  endfacet
  facet normal  3.581375e-001 -8.256908e-001  4.358580e-001
    outer loop
      vertex -4.714645e+001 -4.682029e+001  3.314350e+001
      vertex -4.750000e+001 -4.691442e+001  3.325569e+001
      vertex -4.714756e+001 -4.694611e+001  3.290606e+001
    endloop
  endfacet
  facet normal  3.685712e-001 -8.159015e-001  4.454885e-001
    outer loop
      vertex -4.714756e+001 -4.694611e+001  3.290606e+001
      vertex -4.750000e+001 -4.691442e+001  3.325569e+001
      vertex -4.750000e+001 -4.708901e+001  3.293593e+001
    endloop
  endfacet
  facet normal  3.491597e-001 -9.088450e-001 -2.282290e-001
    outer loop
      vertex -4.714756e+001 -4.694611e+001  3.290606e+001
      vertex -4.750000e+001 -4.708901e+001  3.293593e+001
      vertex -4.726009e+001 -4.690300e+001  3.256225e+001
    endloop
  endfacet
  facet normal  3.491522e-001 -9.088463e-001 -2.282345e-001
    outer loop
      vertex -4.726009e+001 -4.690300e+001  3.256225e+001
      vertex -4.750000e+001 -4.708901e+001  3.293593e+001
      vertex -4.750000e+001 -4.700027e+001  3.258258e+001
    endloop
  endfacet
  facet normal  1.492208e-001 -5.410366e-001 -8.276548e-001
    outer loop
      vertex -4.726009e+001 -4.690300e+001  3.256225e+001
      vertex -4.750000e+001 -4.700027e+001  3.258258e+001
      vertex -4.750000e+001 -4.669533e+001  3.238324e+001
    endloop
  endfacet
  facet normal  8.319855e-001 -4.471678e-001 -3.283916e-001
    outer loop
      vertex -4.726009e+001 -4.690300e+001  3.256225e+001
      vertex -4.714645e+001 -4.666537e+001  3.252659e+001
      vertex -4.714756e+001 -4.694611e+001  3.290606e+001
    endloop
  endfacet
  facet normal  8.736750e-001 -3.923284e-001 -2.876982e-001
    outer loop
      vertex -4.714756e+001 -4.694611e+001  3.290606e+001
      vertex -4.714645e+001 -4.666537e+001  3.252659e+001
      vertex -4.700000e+001 -4.659303e+001  3.287267e+001
    endloop
  endfacet
  facet normal  9.123672e-001 -3.634754e-001  1.883396e-001
    outer loop
      vertex -4.714756e+001 -4.694611e+001  3.290606e+001
      vertex -4.700000e+001 -4.659303e+001  3.287267e+001
      vertex -4.714645e+001 -4.682029e+001  3.314350e+001
    endloop
  endfacet
  facet normal  0.000000e+000  0.000000e+000  1.000000e+000
    outer loop
      vertex -7.150000e+001  1.625224e+002  4.782256e+001
      vertex -7.150000e+001 -2.955429e+001  4.782256e+001
      vertex -4.750000e+001  1.625224e+002  4.782256e+001
    endloop
  endfacet
  facet normal  0.000000e+000  0.000000e+000  1.000000e+000
    outer loop
      vertex -4.750000e+001  1.625224e+002  4.782256e+001
      vertex -7.150000e+001 -2.955429e+001  4.782256e+001
      vertex -4.750000e+001 -2.955429e+001  4.782256e+001
    endloop
  endfacet
  facet normal  0.000000e+000  8.155464e-001 -5.786917e-001
    outer loop
      vertex -4.700000e+001  1.598835e+002  2.445979e+001
      vertex -7.150000e+001  1.598835e+002  2.445979e+001
      vertex -7.150000e+001  1.690769e+002  3.741600e+001
    endloop
  endfacet
  facet normal  0.000000e+000  8.155464e-001 -5.786917e-001
    outer loop
      vertex -4.700000e+001  1.598835e+002  2.445979e+001
      vertex -7.150000e+001  1.690769e+002  3.741600e+001
      vertex -4.750000e+001  1.690769e+002  3.741600e+001
    endloop
  endfacet
  facet normal  4.037019e-005  8.155471e-001 -5.786906e-001
    outer loop
      vertex -4.700000e+001  1.598835e+002  2.445979e+001
      vertex -4.750000e+001  1.690769e+002  3.741600e+001
      vertex -4.742162e+001  1.690705e+002  3.740708e+001
    endloop
  endfacet
  facet normal  6.058172e-006  8.155466e-001 -5.786914e-001
    outer loop
      vertex -4.700000e+001  1.598835e+002  2.445979e+001
      vertex -4.742162e+001  1.690705e+002  3.740708e+001
      vertex -4.727500e+001  1.690221e+002  3.733883e+001
    endloop
  endfacet
  facet normal -2.165612e-005  8.155463e-001 -5.786918e-001
    outer loop
      vertex -4.700000e+001  1.598835e+002  2.445979e+001
      vertex -4.727500e+001  1.690221e+002  3.733883e+001
      vertex -4.710149e+001  1.688741e+002  3.713028e+001
    endloop
  endfacet
  facet normal  6.890060e-005  8.155467e-001 -5.786914e-001
    outer loop
      vertex -4.700000e+001  1.598835e+002  2.445979e+001
      vertex -4.710149e+001  1.688741e+002  3.713028e+001
      vertex -4.700000e+001  1.685649e+002  3.669455e+001
    endloop
  endfacet
  facet normal  0.000000e+000  9.998649e-001 -1.643280e-002
    outer loop
      vertex -4.750000e+001  1.690769e+002  3.741600e+001
      vertex -7.150000e+001  1.690769e+002  3.741600e+001
      vertex -4.750000e+001  1.691391e+002  4.120586e+001
    endloop
  endfacet
  facet normal  0.000000e+000  9.998649e-001 -1.643280e-002
    outer loop
      vertex -4.750000e+001  1.691391e+002  4.120586e+001
      vertex -7.150000e+001  1.690769e+002  3.741600e+001
      vertex -7.150000e+001  1.691391e+002  4.120586e+001
    endloop
  endfacet
  facet normal  0.000000e+000  7.071072e-001  7.071064e-001
    outer loop
      vertex -4.750000e+001  1.625224e+002  4.782256e+001
      vertex -4.750000e+001  1.691391e+002  4.120586e+001
      vertex -7.150000e+001  1.625224e+002  4.782256e+001
    endloop
  endfacet
  facet normal  0.000000e+000  7.071072e-001  7.071064e-001
    outer loop
      vertex -7.150000e+001  1.625224e+002  4.782256e+001
      vertex -4.750000e+001  1.691391e+002  4.120586e+001
      vertex -7.150000e+001  1.691391e+002  4.120586e+001
    endloop
  endfacet
  facet normal  0.000000e+000  0.000000e+000 -9.999999e-001
    outer loop
      vertex -7.200000e+001  1.591209e+002  2.424914e+001
      vertex -7.190778e+001  1.594757e+002  2.424914e+001
      vertex -7.200000e+001  1.578947e+002  2.424914e+001
    endloop
  endfacet
  facet normal  0.000000e+000  0.000000e+000 -1.000000e+000
    outer loop
      vertex -7.200000e+001  1.578947e+002  2.424914e+001
      vertex -7.190778e+001  1.594757e+002  2.424914e+001
      vertex -4.700000e+001  1.594757e+002  2.424914e+001
    endloop
  endfacet
  facet normal  0.000000e+000  -0.000000e+000 -1.000000e+000
    outer loop
      vertex -7.200000e+001  1.578947e+002  2.424914e+001
      vertex -4.700000e+001  1.594757e+002  2.424914e+001
      vertex -4.700000e+001  1.578947e+002  2.424914e+001
    endloop
  endfacet
  facet normal -9.625473e-001  0.000000e+000  2.711139e-001
    outer loop
      vertex -7.200000e+001  1.623153e+002  4.732256e+001
      vertex -7.200000e+001 -2.937231e+001  4.732256e+001
      vertex -7.192650e+001  1.624234e+002  4.758352e+001
    endloop
  endfacet
  facet normal -9.511657e-001 -5.547533e-005  3.086810e-001
    outer loop
      vertex -7.192650e+001  1.624234e+002  4.758352e+001
      vertex -7.200000e+001 -2.937231e+001  4.732256e+001
      vertex -7.190471e+001 -2.947918e+001  4.761617e+001
    endloop
  endfacet
  facet normal -6.748632e-001  4.893982e-005  7.379429e-001
    outer loop
      vertex -7.192650e+001  1.624234e+002  4.758352e+001
      vertex -7.190471e+001 -2.947918e+001  4.761617e+001
      vertex -7.172190e+001  1.625009e+002  4.777062e+001
    endloop
  endfacet
  facet normal -5.832810e-001 -9.806395e-005  8.122704e-001
    outer loop
      vertex -7.172190e+001  1.625009e+002  4.777062e+001
      vertex -7.190471e+001 -2.947918e+001  4.761617e+001
      vertex -7.164886e+001 -2.954604e+001  4.779989e+001
    endloop
  endfacet
  facet normal -2.279178e-001  6.169370e-005  9.736804e-001
    outer loop
      vertex -7.172190e+001  1.625009e+002  4.777062e+001
      vertex -7.164886e+001 -2.954604e+001  4.779989e+001
      vertex -7.150000e+001  1.625224e+002  4.782256e+001
    endloop
  endfacet
  facet normal -1.505873e-001  0.000000e+000  9.885967e-001
    outer loop
      vertex -7.150000e+001  1.625224e+002  4.782256e+001
      vertex -7.164886e+001 -2.954604e+001  4.779989e+001
      vertex -7.150000e+001 -2.955429e+001  4.782256e+001
    endloop
  endfacet
  facet normal -2.279142e-001  6.884970e-001  6.884962e-001
    outer loop
      vertex -7.150000e+001  1.625224e+002  4.782256e+001
      vertex -7.150000e+001  1.691391e+002  4.120586e+001
      vertex -7.172190e+001  1.625009e+002  4.777062e+001
    endloop
  endfacet
  facet normal -2.278707e-001  6.885034e-001  6.885042e-001
    outer loop
      vertex -7.172190e+001  1.625009e+002  4.777062e+001
      vertex -7.150000e+001  1.691391e+002  4.120586e+001
      vertex -7.172186e+001  1.690869e+002  4.118470e+001
    endloop
  endfacet
  facet normal -6.748513e-001  5.218133e-001  5.218109e-001
    outer loop
      vertex -7.172190e+001  1.625009e+002  4.777062e+001
      vertex -7.172186e+001  1.690869e+002  4.118470e+001
      vertex -7.192650e+001  1.624234e+002  4.758352e+001
    endloop
  endfacet
  facet normal -6.749837e-001  5.217316e-001  5.217215e-001
    outer loop
      vertex -7.192650e+001  1.624234e+002  4.758352e+001
      vertex -7.172186e+001  1.690869e+002  4.118470e+001
      vertex -7.192661e+001  1.688983e+002  4.110840e+001
    endloop
  endfacet
  facet normal -9.625481e-001  1.917002e-001  1.917083e-001
    outer loop
      vertex -7.192650e+001  1.624234e+002  4.758352e+001
      vertex -7.192661e+001  1.688983e+002  4.110840e+001
      vertex -7.200000e+001  1.623153e+002  4.732256e+001
    endloop
  endfacet
  facet normal -9.626021e-001  1.915688e-001  1.915684e-001
    outer loop
      vertex -7.200000e+001  1.623153e+002  4.732256e+001
      vertex -7.192661e+001  1.688983e+002  4.110840e+001
      vertex -7.200000e+001  1.686357e+002  4.100216e+001
    endloop
  endfacet
  facet normal -9.506686e-001  3.101666e-001 -5.097623e-003
    outer loop
      vertex -7.200000e+001  1.685795e+002  3.757906e+001
      vertex -7.200000e+001  1.686357e+002  4.100216e+001
      vertex -7.190377e+001  1.688728e+002  3.748288e+001
    endloop
  endfacet
  facet normal -9.622080e-001  2.721985e-001 -7.971194e-003
    outer loop
      vertex -7.190377e+001  1.688728e+002  3.748288e+001
      vertex -7.200000e+001  1.686357e+002  4.100216e+001
      vertex -7.192661e+001  1.688983e+002  4.110840e+001
    endloop
  endfacet
  facet normal -5.814010e-001  8.135631e-001 -9.373195e-003
    outer loop
      vertex -7.190377e+001  1.688728e+002  3.748288e+001
      vertex -7.192661e+001  1.688983e+002  4.110840e+001
      vertex -7.164890e+001  1.690543e+002  3.742340e+001
    endloop
  endfacet
  facet normal -6.734226e-001  7.390014e-001 -1.946475e-002
    outer loop
      vertex -7.164890e+001  1.690543e+002  3.742340e+001
      vertex -7.192661e+001  1.688983e+002  4.110840e+001
      vertex -7.172186e+001  1.690869e+002  4.118470e+001
    endloop
  endfacet
  facet normal -1.504043e-001  9.885578e-001 -1.147990e-002
    outer loop
      vertex -7.164890e+001  1.690543e+002  3.742340e+001
      vertex -7.172186e+001  1.690869e+002  4.118470e+001
      vertex -7.150000e+001  1.690769e+002  3.741600e+001
    endloop
  endfacet
  facet normal -2.278704e-001  9.735600e-001 -1.600048e-002
    outer loop
      vertex -7.150000e+001  1.690769e+002  3.741600e+001
      vertex -7.172186e+001  1.690869e+002  4.118470e+001
      vertex -7.150000e+001  1.691391e+002  4.120586e+001
    endloop
  endfacet
  facet normal -9.527726e-001  2.476691e-001 -1.757398e-001
    outer loop
      vertex -7.200000e+001  1.591209e+002  2.424914e+001
      vertex -7.200000e+001  1.685795e+002  3.757906e+001
      vertex -7.190778e+001  1.594757e+002  2.424914e+001
    endloop
  endfacet
  facet normal -9.506806e-001  2.530335e-001 -1.793889e-001
    outer loop
      vertex -7.190778e+001  1.594757e+002  2.424914e+001
      vertex -7.200000e+001  1.685795e+002  3.757906e+001
      vertex -7.190377e+001  1.688728e+002  3.748288e+001
    endloop
  endfacet
  facet normal -7.172995e-001  5.682085e-001 -4.032624e-001
    outer loop
      vertex -7.190778e+001  1.594757e+002  2.424914e+001
      vertex -7.190377e+001  1.688728e+002  3.748288e+001
      vertex -7.180112e+001  1.596270e+002  2.427257e+001
    endloop
  endfacet
  facet normal -5.822158e-001  6.639630e-001 -4.692312e-001
    outer loop
      vertex -7.180112e+001  1.596270e+002  2.427257e+001
      vertex -7.190377e+001  1.688728e+002  3.748288e+001
      vertex -7.164890e+001  1.690543e+002  3.742340e+001
    endloop
  endfacet
  facet normal -3.161170e-001  7.727932e-001 -5.503276e-001
    outer loop
      vertex -7.180112e+001  1.596270e+002  2.427257e+001
      vertex -7.164890e+001  1.690543e+002  3.742340e+001
      vertex -7.150000e+001  1.598835e+002  2.445979e+001
    endloop
  endfacet
  facet normal -1.506345e-001  8.062406e-001 -5.720885e-001
    outer loop
      vertex -7.150000e+001  1.598835e+002  2.445979e+001
      vertex -7.164890e+001  1.690543e+002  3.742340e+001
      vertex -7.150000e+001  1.690769e+002  3.741600e+001
    endloop
  endfacet
  facet normal  0.000000e+000  2.361607e-001 -9.717140e-001
    outer loop
      vertex -4.700000e+001  1.594757e+002  2.424914e+001
      vertex -7.190778e+001  1.594757e+002  2.424914e+001
      vertex -4.700000e+001  1.597052e+002  2.430491e+001
    endloop
  endfacet
  facet normal  8.077295e-004  1.525251e-001 -9.882992e-001
    outer loop
      vertex -4.700000e+001  1.597052e+002  2.430491e+001
      vertex -7.190778e+001  1.594757e+002  2.424914e+001
      vertex -7.180112e+001  1.596270e+002  2.427257e+001
    endloop
  endfacet
  facet normal -1.083869e-003  6.558195e-001 -7.549169e-001
    outer loop
      vertex -4.700000e+001  1.597052e+002  2.430491e+001
      vertex -7.180112e+001  1.596270e+002  2.427257e+001
      vertex -4.700000e+001  1.598835e+002  2.445979e+001
    endloop
  endfacet
  facet normal  0.000000e+000  5.895629e-001 -8.077224e-001
    outer loop
      vertex -4.700000e+001  1.598835e+002  2.445979e+001
      vertex -7.180112e+001  1.596270e+002  2.427257e+001
      vertex -7.150000e+001  1.598835e+002  2.445979e+001
    endloop
  endfacet
  facet normal  2.347110e-001  -0.000000e+000  9.720652e-001
    outer loop
      vertex -4.750000e+001  1.625224e+002  4.782256e+001
      vertex -4.750000e+001 -2.955429e+001  4.782256e+001
      vertex -4.727185e+001  1.624996e+002  4.776748e+001
    endloop
  endfacet
  facet normal  3.120915e-001 -9.823802e-005  9.500520e-001
    outer loop
      vertex -4.727185e+001  1.624996e+002  4.776748e+001
      vertex -4.750000e+001 -2.955429e+001  4.782256e+001
      vertex -4.720351e+001 -2.951885e+001  4.772517e+001
    endloop
  endfacet
  facet normal  6.473350e-001  6.246258e-005  7.622055e-001
    outer loop
      vertex -4.727185e+001  1.624996e+002  4.776748e+001
      vertex -4.720351e+001 -2.951885e+001  4.772517e+001
      vertex -4.709792e+001  1.624384e+002  4.761976e+001
    endloop
  endfacet
  facet normal  8.087544e-001 -1.219163e-004  5.881464e-001
    outer loop
      vertex -4.709792e+001  1.624384e+002  4.761976e+001
      vertex -4.720351e+001 -2.951885e+001  4.772517e+001
      vertex -4.702563e+001 -2.942982e+001  4.748058e+001
    endloop
  endfacet
  facet normal  9.497957e-001  1.308992e-004  3.128707e-001
    outer loop
      vertex -4.709792e+001  1.624384e+002  4.761976e+001
      vertex -4.702563e+001 -2.942982e+001  4.748058e+001
      vertex -4.700000e+001  1.623153e+002  4.732256e+001
    endloop
  endfacet
  facet normal  9.871033e-001  0.000000e+000  1.600850e-001
    outer loop
      vertex -4.700000e+001  1.623153e+002  4.732256e+001
      vertex -4.702563e+001 -2.942982e+001  4.748058e+001
      vertex -4.700000e+001 -2.937231e+001  4.732256e+001
    endloop
  endfacet
  facet normal  9.497775e-001  2.212724e-001  2.212719e-001
    outer loop
      vertex -4.700000e+001  1.623153e+002  4.732256e+001
      vertex -4.700000e+001  1.686357e+002  4.100216e+001
      vertex -4.709792e+001  1.624384e+002  4.761976e+001
    endloop
  endfacet
  facet normal  9.497929e-001  2.212379e-001  2.212400e-001
    outer loop
      vertex -4.709792e+001  1.624384e+002  4.761976e+001
      vertex -4.700000e+001  1.686357e+002  4.100216e+001
      vertex -4.709790e+001  1.689349e+002  4.112323e+001
    endloop
  endfacet
  facet normal  6.473246e-001  5.389670e-001  5.389670e-001
    outer loop
      vertex -4.709792e+001  1.624384e+002  4.761976e+001
      vertex -4.709790e+001  1.689349e+002  4.112323e+001
      vertex -4.727185e+001  1.624996e+002  4.776748e+001
    endloop
  endfacet
  facet normal  6.474535e-001  5.388866e-001  5.388924e-001
    outer loop
      vertex -4.727185e+001  1.624996e+002  4.776748e+001
      vertex -4.709790e+001  1.689349e+002  4.112323e+001
      vertex -4.727170e+001  1.690836e+002  4.118338e+001
    endloop
  endfacet
  facet normal  2.347368e-001  6.873524e-001  6.873466e-001
    outer loop
      vertex -4.727185e+001  1.624996e+002  4.776748e+001
      vertex -4.727170e+001  1.690836e+002  4.118338e+001
      vertex -4.750000e+001  1.625224e+002  4.782256e+001
    endloop
  endfacet
  facet normal  2.348737e-001  6.873265e-001  6.873257e-001
    outer loop
      vertex -4.750000e+001  1.625224e+002  4.782256e+001
      vertex -4.727170e+001  1.690836e+002  4.118338e+001
      vertex -4.750000e+001  1.691391e+002  4.120586e+001
    endloop
  endfacet
  facet normal  6.475230e-001  7.619484e-001 -1.218890e-002
    outer loop
      vertex -4.727170e+001  1.690836e+002  4.118338e+001
      vertex -4.709790e+001  1.689349e+002  4.112323e+001
      vertex -4.710149e+001  1.688741e+002  3.713028e+001
    endloop
  endfacet
  facet normal  6.398733e-001  7.683732e-001 -1.284222e-002
    outer loop
      vertex -4.727170e+001  1.690836e+002  4.118338e+001
      vertex -4.710149e+001  1.688741e+002  3.713028e+001
      vertex -4.727500e+001  1.690221e+002  3.733883e+001
    endloop
  endfacet
  facet normal  3.071024e-001  9.515504e-001 -1.548722e-002
    outer loop
      vertex -4.727170e+001  1.690836e+002  4.118338e+001
      vertex -4.727500e+001  1.690221e+002  3.733883e+001
      vertex -4.742162e+001  1.690705e+002  3.740708e+001
    endloop
  endfacet
  facet normal  7.978179e-002  9.967903e-001 -6.619122e-003
    outer loop
      vertex -4.727170e+001  1.690836e+002  4.118338e+001
      vertex -4.742162e+001  1.690705e+002  3.740708e+001
      vertex -4.750000e+001  1.690769e+002  3.741600e+001
    endloop
  endfacet
  facet normal  2.348769e-001  9.718939e-001 -1.597310e-002
    outer loop
      vertex -4.727170e+001  1.690836e+002  4.118338e+001
      vertex -4.750000e+001  1.690769e+002  3.741600e+001
      vertex -4.750000e+001  1.691391e+002  4.120586e+001
    endloop
  endfacet
  facet normal  9.497325e-001  3.130122e-001 -5.622577e-003
    outer loop
      vertex -4.709790e+001  1.689349e+002  4.112323e+001
      vertex -4.700000e+001  1.686357e+002  4.100216e+001
      vertex -4.710149e+001  1.688741e+002  3.713028e+001
    endloop
  endfacet
  facet normal  9.479008e-001  3.185226e-001 -5.235299e-003
    outer loop
      vertex -4.710149e+001  1.688741e+002  3.713028e+001
      vertex -4.700000e+001  1.686357e+002  4.100216e+001
      vertex -4.700000e+001  1.685649e+002  3.669455e+001
    endloop
  endfacet
  facet normal  0.000000e+000  0.000000e+000 -9.999999e-001
    outer loop
      vertex -4.899661e+001  6.985274e+001  4.632256e+001
      vertex -4.899661e+001  4.985274e+001  4.632256e+001
      vertex -7.000000e+001  4.985274e+001  4.632256e+001
    endloop
  endfacet
  facet normal  0.000000e+000  0.000000e+000 -9.999999e-001
    outer loop
      vertex -4.899661e+001  6.985274e+001  4.632256e+001
      vertex -7.000000e+001  4.985274e+001  4.632256e+001
      vertex -7.000000e+001  6.985274e+001  4.632256e+001
    endloop
  endfacet
  facet normal  0.000000e+000  0.000000e+000 -1.000000e+000
    outer loop
      vertex -4.899661e+001  6.985274e+001  4.632256e+001
      vertex -7.000000e+001  6.985274e+001  4.632256e+001
      vertex -7.000000e+001  1.333318e+002  4.632256e+001
    endloop
  endfacet
  facet normal  0.000000e+000  0.000000e+000 -1.000000e+000
    outer loop
      vertex -4.899661e+001  6.985274e+001  4.632256e+001
      vertex -7.000000e+001  1.333318e+002  4.632256e+001
      vertex -4.900000e+001  1.334930e+002  4.632256e+001
    endloop
  endfacet
  facet normal  0.000000e+000  0.000000e+000 -1.000000e+000
    outer loop
      vertex -4.899661e+001  6.985274e+001  4.632256e+001
      vertex -4.900000e+001  1.334930e+002  4.632256e+001
      vertex -4.800000e+001  1.334930e+002  4.632256e+001
    endloop
  endfacet
  facet normal  0.000000e+000  -0.000000e+000 -1.000000e+000
    outer loop
      vertex -4.899661e+001  6.985274e+001  4.632256e+001
      vertex -4.800000e+001  1.334930e+002  4.632256e+001
      vertex -4.800000e+001  6.985274e+001  4.632256e+001
    endloop
  endfacet
  facet normal  -0.000000e+000  -0.000000e+000 -1.000000e+000
    outer loop
      vertex -4.899661e+001  4.985274e+001  4.632256e+001
      vertex -4.800000e+001  4.985274e+001  4.632256e+001
      vertex -4.800000e+001 -2.173621e+000  4.632256e+001
    endloop
  endfacet
  facet normal  0.000000e+000  0.000000e+000 -1.000000e+000
    outer loop
      vertex -4.899661e+001  4.985274e+001  4.632256e+001
      vertex -4.800000e+001 -2.173621e+000  4.632256e+001
      vertex -4.900000e+001 -2.173621e+000  4.632256e+001
    endloop
  endfacet
  facet normal  0.000000e+000  0.000000e+000 -1.000000e+000
    outer loop
      vertex -4.899661e+001  4.985274e+001  4.632256e+001
      vertex -4.900000e+001 -2.173621e+000  4.632256e+001
      vertex -7.000000e+001 -2.173621e+000  4.632256e+001
    endloop
  endfacet
  facet normal  0.000000e+000  0.000000e+000 -1.000000e+000
    outer loop
      vertex -4.899661e+001  4.985274e+001  4.632256e+001
      vertex -7.000000e+001 -2.173621e+000  4.632256e+001
      vertex -7.000000e+001  4.985274e+001  4.632256e+001
    endloop
  endfacet
  facet normal  0.000000e+000  0.000000e+000 -1.000000e+000
    outer loop
      vertex -7.200000e+001 -2.900834e+001  4.632256e+001
      vertex -7.200000e+001  1.623254e+002  4.632256e+001
      vertex -7.100000e+001 -2.173621e+000  4.632256e+001
    endloop
  endfacet
  facet normal  0.000000e+000  -0.000000e+000 -1.000000e+000
    outer loop
      vertex -7.200000e+001 -2.900834e+001  4.632256e+001
      vertex -7.100000e+001 -2.173621e+000  4.632256e+001
      vertex -7.100000e+001 -2.217362e+001  4.632256e+001
    endloop
  endfacet
  facet normal  0.000000e+000  -0.000000e+000 -9.999999e-001
    outer loop
      vertex -7.200000e+001 -2.900834e+001  4.632256e+001
      vertex -7.100000e+001 -2.217362e+001  4.632256e+001
      vertex -7.000000e+001 -2.217362e+001  4.632256e+001
    endloop
  endfacet
  facet normal  0.000000e+000  -0.000000e+000 -9.999999e-001
    outer loop
      vertex -7.200000e+001 -2.900834e+001  4.632256e+001
      vertex -7.000000e+001 -2.217362e+001  4.632256e+001
      vertex -4.700000e+001 -2.900834e+001  4.632256e+001
    endloop
  endfacet
  facet normal  0.000000e+000  0.000000e+000 -1.000000e+000
    outer loop
      vertex -4.700000e+001  1.623254e+002  4.632256e+001
      vertex -4.800000e+001 -2.173621e+000  4.632256e+001
      vertex -4.800000e+001  4.985274e+001  4.632256e+001
    endloop
  endfacet
  facet normal  0.000000e+000  0.000000e+000 -1.000000e+000
    outer loop
      vertex -4.700000e+001  1.623254e+002  4.632256e+001
      vertex -4.800000e+001  4.985274e+001  4.632256e+001
      vertex -4.800000e+001  6.985274e+001  4.632256e+001
    endloop
  endfacet
  facet normal  0.000000e+000  0.000000e+000 -1.000000e+000
    outer loop
      vertex -4.700000e+001  1.623254e+002  4.632256e+001
      vertex -4.800000e+001  6.985274e+001  4.632256e+001
      vertex -4.800000e+001  1.334930e+002  4.632256e+001
    endloop
  endfacet
  facet normal  0.000000e+000  0.000000e+000 -1.000000e+000
    outer loop
      vertex -4.700000e+001  1.623254e+002  4.632256e+001
      vertex -4.800000e+001  1.334930e+002  4.632256e+001
      vertex -4.800000e+001  1.534930e+002  4.632256e+001
    endloop
  endfacet
  facet normal  0.000000e+000  0.000000e+000 -1.000000e+000
    outer loop
      vertex -4.700000e+001  1.623254e+002  4.632256e+001
      vertex -4.800000e+001  1.534930e+002  4.632256e+001
      vertex -4.900000e+001  1.534930e+002  4.632256e+001
    endloop
  endfacet
  facet normal  -0.000000e+000  0.000000e+000 -1.000000e+000
    outer loop
      vertex -4.700000e+001  1.623254e+002  4.632256e+001
      vertex -4.900000e+001  1.534930e+002  4.632256e+001
      vertex -7.000000e+001  1.533318e+002  4.632256e+001
    endloop
  endfacet
  facet normal  0.000000e+000  0.000000e+000 -1.000000e+000
    outer loop
      vertex -4.700000e+001  1.623254e+002  4.632256e+001
      vertex -7.000000e+001  1.533318e+002  4.632256e+001
      vertex -7.100000e+001  1.533318e+002  4.632256e+001
    endloop
  endfacet
  facet normal  0.000000e+000  0.000000e+000 -1.000000e+000
    outer loop
      vertex -4.700000e+001  1.623254e+002  4.632256e+001
      vertex -7.100000e+001  1.533318e+002  4.632256e+001
      vertex -7.200000e+001  1.623254e+002  4.632256e+001
    endloop
  endfacet
  facet normal  0.000000e+000  0.000000e+000 -1.000000e+000
    outer loop
      vertex -4.700000e+001 -2.900834e+001  4.632256e+001
      vertex -7.000000e+001 -2.217362e+001  4.632256e+001
      vertex -4.900000e+001 -2.217362e+001  4.632256e+001
    endloop
  endfacet
  facet normal  0.000000e+000  0.000000e+000 -9.999999e-001
    outer loop
      vertex -4.700000e+001 -2.900834e+001  4.632256e+001
      vertex -4.900000e+001 -2.217362e+001  4.632256e+001
      vertex -4.800000e+001 -2.217362e+001  4.632256e+001
    endloop
  endfacet
  facet normal  0.000000e+000  0.000000e+000 -1.000000e+000
    outer loop
      vertex -4.700000e+001 -2.900834e+001  4.632256e+001
      vertex -4.800000e+001 -2.217362e+001  4.632256e+001
      vertex -4.800000e+001 -2.173621e+000  4.632256e+001
    endloop
  endfacet
  facet normal  0.000000e+000  0.000000e+000 -1.000000e+000
    outer loop
      vertex -4.700000e+001 -2.900834e+001  4.632256e+001
      vertex -4.800000e+001 -2.173621e+000  4.632256e+001
      vertex -4.700000e+001  1.623254e+002  4.632256e+001
    endloop
  endfacet
  facet normal  -0.000000e+000  -0.000000e+000 -1.000000e+000
    outer loop
      vertex -7.200000e+001  1.623254e+002  4.632256e+001
      vertex -7.100000e+001  1.533318e+002  4.632256e+001
      vertex -7.100000e+001  1.333318e+002  4.632256e+001
    endloop
  endfacet
  facet normal  -0.000000e+000  -0.000000e+000 -9.999999e-001
    outer loop
      vertex -7.200000e+001  1.623254e+002  4.632256e+001
      vertex -7.100000e+001  1.333318e+002  4.632256e+001
      vertex -7.100000e+001  6.985274e+001  4.632256e+001
    endloop
  endfacet
  facet normal  -0.000000e+000  -0.000000e+000 -1.000000e+000
    outer loop
      vertex -7.200000e+001  1.623254e+002  4.632256e+001
      vertex -7.100000e+001  6.985274e+001  4.632256e+001
      vertex -7.100000e+001  4.985274e+001  4.632256e+001
    endloop
  endfacet
  facet normal  -0.000000e+000  -0.000000e+000 -1.000000e+000
    outer loop
      vertex -7.200000e+001  1.623254e+002  4.632256e+001
      vertex -7.100000e+001  4.985274e+001  4.632256e+001
      vertex -7.100000e+001 -2.173621e+000  4.632256e+001
    endloop
  endfacet
  facet normal  0.000000e+000  0.000000e+000 -9.999999e-001
    outer loop
      vertex -7.000000e+001  6.985274e+001  4.632256e+001
      vertex -7.100000e+001  6.985274e+001  4.632256e+001
      vertex -7.000000e+001  1.333318e+002  4.632256e+001
    endloop
  endfacet
  facet normal  -0.000000e+000  0.000000e+000 -9.999999e-001
    outer loop
      vertex -7.000000e+001  1.333318e+002  4.632256e+001
      vertex -7.100000e+001  6.985274e+001  4.632256e+001
      vertex -7.100000e+001  1.333318e+002  4.632256e+001
    endloop
  endfacet
  facet normal  0.000000e+000  0.000000e+000 -1.000000e+000
    outer loop
      vertex -7.000000e+001 -2.173621e+000  4.632256e+001
      vertex -7.100000e+001 -2.173621e+000  4.632256e+001
      vertex -7.000000e+001  4.985274e+001  4.632256e+001
    endloop
  endfacet
  facet normal  -0.000000e+000  0.000000e+000 -1.000000e+000
    outer loop
      vertex -7.000000e+001  4.985274e+001  4.632256e+001
      vertex -7.100000e+001 -2.173621e+000  4.632256e+001
      vertex -7.100000e+001  4.985274e+001  4.632256e+001
    endloop
  endfacet
  facet normal  0.000000e+000  0.000000e+000 -1.000000e+000
    outer loop
      vertex -7.000000e+001  1.333318e+002  4.632256e+001
      vertex -7.000000e+001  1.533318e+002  4.632256e+001
      vertex -4.900000e+001  1.334930e+002  4.632256e+001
    endloop
  endfacet
  facet normal  0.000000e+000  0.000000e+000 -1.000000e+000
    outer loop
      vertex -4.900000e+001  1.334930e+002  4.632256e+001
      vertex -7.000000e+001  1.533318e+002  4.632256e+001
      vertex -4.900000e+001  1.534930e+002  4.632256e+001
    endloop
  endfacet
  facet normal  0.000000e+000  0.000000e+000 -1.000000e+000
    outer loop
      vertex -7.000000e+001 -2.217362e+001  4.632256e+001
      vertex -7.000000e+001 -2.173621e+000  4.632256e+001
      vertex -4.900000e+001 -2.217362e+001  4.632256e+001
    endloop
  endfacet
  facet normal  0.000000e+000  0.000000e+000 -1.000000e+000
    outer loop
      vertex -4.900000e+001 -2.217362e+001  4.632256e+001
      vertex -7.000000e+001 -2.173621e+000  4.632256e+001
      vertex -4.900000e+001 -2.173621e+000  4.632256e+001
    endloop
  endfacet
  facet normal -1.000000e+000  0.000000e+000  0.000000e+000
    outer loop
      vertex -7.100000e+001 -2.217362e+001  3.832256e+001
      vertex -7.100000e+001 -2.217362e+001  4.632256e+001
      vertex -7.100000e+001 -2.173621e+000  3.832256e+001
    endloop
  endfacet
  facet normal -1.000000e+000  0.000000e+000  0.000000e+000
    outer loop
      vertex -7.100000e+001 -2.173621e+000  3.832256e+001
      vertex -7.100000e+001 -2.217362e+001  4.632256e+001
      vertex -7.100000e+001 -2.173621e+000  4.632256e+001
    endloop
  endfacet
  facet normal  0.000000e+000 -1.000000e+000  0.000000e+000
    outer loop
      vertex -7.100000e+001 -2.217362e+001  3.832256e+001
      vertex -7.000000e+001 -2.217362e+001  3.832256e+001
      vertex -7.100000e+001 -2.217362e+001  4.632256e+001
    endloop
  endfacet
  facet normal  0.000000e+000 -1.000000e+000  0.000000e+000
    outer loop
      vertex -7.100000e+001 -2.217362e+001  4.632256e+001
      vertex -7.000000e+001 -2.217362e+001  3.832256e+001
      vertex -7.000000e+001 -2.217362e+001  4.632256e+001
    endloop
  endfacet
  facet normal  1.000000e+000  0.000000e+000  0.000000e+000
    outer loop
      vertex -7.000000e+001 -2.173621e+000  3.832256e+001
      vertex -7.000000e+001 -2.173621e+000  4.632256e+001
      vertex -7.000000e+001 -2.217362e+001  3.832256e+001
    endloop
  endfacet
  facet normal  1.000000e+000  0.000000e+000  0.000000e+000
    outer loop
      vertex -7.000000e+001 -2.217362e+001  3.832256e+001
      vertex -7.000000e+001 -2.173621e+000  4.632256e+001
      vertex -7.000000e+001 -2.217362e+001  4.632256e+001
    endloop
  endfacet
  facet normal  0.000000e+000  1.000000e+000  0.000000e+000
    outer loop
      vertex -7.000000e+001 -2.173621e+000  3.832256e+001
      vertex -7.100000e+001 -2.173621e+000  3.832256e+001
      vertex -7.000000e+001 -2.173621e+000  4.632256e+001
    endloop
  endfacet
  facet normal  0.000000e+000  1.000000e+000  0.000000e+000
    outer loop
      vertex -7.000000e+001 -2.173621e+000  4.632256e+001
      vertex -7.100000e+001 -2.173621e+000  3.832256e+001
      vertex -7.100000e+001 -2.173621e+000  4.632256e+001
    endloop
  endfacet
  facet normal -1.000000e+000  0.000000e+000  0.000000e+000
    outer loop
      vertex -7.100000e+001  4.985274e+001  3.832256e+001
      vertex -7.100000e+001  4.985274e+001  4.632256e+001
      vertex -7.100000e+001  6.985274e+001  3.832256e+001
    endloop
  endfacet
  facet normal -1.000000e+000  0.000000e+000  0.000000e+000
    outer loop
      vertex -7.100000e+001  6.985274e+001  3.832256e+001
      vertex -7.100000e+001  4.985274e+001  4.632256e+001
      vertex -7.100000e+001  6.985274e+001  4.632256e+001
    endloop
  endfacet
  facet normal  0.000000e+000 -1.000000e+000  0.000000e+000
    outer loop
      vertex -7.100000e+001  4.985274e+001  3.832256e+001
      vertex -7.000000e+001  4.985274e+001  3.832256e+001
      vertex -7.100000e+001  4.985274e+001  4.632256e+001
    endloop
  endfacet
  facet normal  0.000000e+000 -1.000000e+000  0.000000e+000
    outer loop
      vertex -7.100000e+001  4.985274e+001  4.632256e+001
      vertex -7.000000e+001  4.985274e+001  3.832256e+001
      vertex -7.000000e+001  4.985274e+001  4.632256e+001
    endloop
  endfacet
  facet normal  1.000000e+000  0.000000e+000  0.000000e+000
    outer loop
      vertex -7.000000e+001  6.985274e+001  3.832256e+001
      vertex -7.000000e+001  6.985274e+001  4.632256e+001
      vertex -7.000000e+001  4.985274e+001  3.832256e+001
    endloop
  endfacet
  facet normal  1.000000e+000  0.000000e+000  0.000000e+000
    outer loop
      vertex -7.000000e+001  4.985274e+001  3.832256e+001
      vertex -7.000000e+001  6.985274e+001  4.632256e+001
      vertex -7.000000e+001  4.985274e+001  4.632256e+001
    endloop
  endfacet
  facet normal  0.000000e+000  1.000000e+000  0.000000e+000
    outer loop
      vertex -7.000000e+001  6.985274e+001  3.832256e+001
      vertex -7.100000e+001  6.985274e+001  3.832256e+001
      vertex -7.000000e+001  6.985274e+001  4.632256e+001
    endloop
  endfacet
  facet normal  0.000000e+000  1.000000e+000  0.000000e+000
    outer loop
      vertex -7.000000e+001  6.985274e+001  4.632256e+001
      vertex -7.100000e+001  6.985274e+001  3.832256e+001
      vertex -7.100000e+001  6.985274e+001  4.632256e+001
    endloop
  endfacet
  facet normal -1.000000e+000  0.000000e+000  0.000000e+000
    outer loop
      vertex -7.100000e+001  1.333318e+002  3.832256e+001
      vertex -7.100000e+001  1.333318e+002  4.632256e+001
      vertex -7.100000e+001  1.533318e+002  3.832256e+001
    endloop
  endfacet
  facet normal -1.000000e+000  0.000000e+000  0.000000e+000
    outer loop
      vertex -7.100000e+001  1.533318e+002  3.832256e+001
      vertex -7.100000e+001  1.333318e+002  4.632256e+001
      vertex -7.100000e+001  1.533318e+002  4.632256e+001
    endloop
  endfacet
  facet normal  0.000000e+000 -1.000000e+000  0.000000e+000
    outer loop
      vertex -7.000000e+001  1.333318e+002  4.632256e+001
      vertex -7.100000e+001  1.333318e+002  4.632256e+001
      vertex -7.000000e+001  1.333318e+002  3.832256e+001
    endloop
  endfacet
  facet normal  0.000000e+000 -1.000000e+000  0.000000e+000
    outer loop
      vertex -7.000000e+001  1.333318e+002  3.832256e+001
      vertex -7.100000e+001  1.333318e+002  4.632256e+001
      vertex -7.100000e+001  1.333318e+002  3.832256e+001
    endloop
  endfacet
  facet normal  1.000000e+000  0.000000e+000  0.000000e+000
    outer loop
      vertex -7.000000e+001  1.533318e+002  3.832256e+001
      vertex -7.000000e+001  1.533318e+002  4.632256e+001
      vertex -7.000000e+001  1.333318e+002  3.832256e+001
    endloop
  endfacet
  facet normal  1.000000e+000  0.000000e+000  0.000000e+000
    outer loop
      vertex -7.000000e+001  1.333318e+002  3.832256e+001
      vertex -7.000000e+001  1.533318e+002  4.632256e+001
      vertex -7.000000e+001  1.333318e+002  4.632256e+001
    endloop
  endfacet
  facet normal  0.000000e+000  1.000000e+000  0.000000e+000
    outer loop
      vertex -7.100000e+001  1.533318e+002  4.632256e+001
      vertex -7.000000e+001  1.533318e+002  4.632256e+001
      vertex -7.100000e+001  1.533318e+002  3.832256e+001
    endloop
  endfacet
  facet normal  0.000000e+000  1.000000e+000  0.000000e+000
    outer loop
      vertex -7.100000e+001  1.533318e+002  3.832256e+001
      vertex -7.000000e+001  1.533318e+002  4.632256e+001
      vertex -7.000000e+001  1.533318e+002  3.832256e+001
    endloop
  endfacet
  facet normal  0.000000e+000 -1.000000e+000  0.000000e+000
    outer loop
      vertex -4.900000e+001  1.334930e+002  4.632256e+001
      vertex -4.900000e+001  1.334930e+002  3.832256e+001
      vertex -4.800000e+001  1.334930e+002  4.632256e+001
    endloop
  endfacet
  facet normal  0.000000e+000 -1.000000e+000  -0.000000e+000
    outer loop
      vertex -4.800000e+001  1.334930e+002  4.632256e+001
      vertex -4.900000e+001  1.334930e+002  3.832256e+001
      vertex -4.800000e+001  1.334930e+002  3.832256e+001
    endloop
  endfacet
  facet normal  1.000000e+000  0.000000e+000  0.000000e+000
    outer loop
      vertex -4.800000e+001  1.534930e+002  3.832256e+001
      vertex -4.800000e+001  1.534930e+002  4.632256e+001
      vertex -4.800000e+001  1.334930e+002  3.832256e+001
    endloop
  endfacet
  facet normal  1.000000e+000  0.000000e+000  0.000000e+000
    outer loop
      vertex -4.800000e+001  1.334930e+002  3.832256e+001
      vertex -4.800000e+001  1.534930e+002  4.632256e+001
      vertex -4.800000e+001  1.334930e+002  4.632256e+001
    endloop
  endfacet
  facet normal  0.000000e+000  1.000000e+000  -0.000000e+000
    outer loop
      vertex -4.800000e+001  1.534930e+002  4.632256e+001
      vertex -4.800000e+001  1.534930e+002  3.832256e+001
      vertex -4.900000e+001  1.534930e+002  4.632256e+001
    endloop
  endfacet
  facet normal  0.000000e+000  1.000000e+000  0.000000e+000
    outer loop
      vertex -4.900000e+001  1.534930e+002  4.632256e+001
      vertex -4.800000e+001  1.534930e+002  3.832256e+001
      vertex -4.900000e+001  1.534930e+002  3.832256e+001
    endloop
  endfacet
  facet normal -1.000000e+000  0.000000e+000  0.000000e+000
    outer loop
      vertex -4.900000e+001  1.334930e+002  3.832256e+001
      vertex -4.900000e+001  1.334930e+002  4.632256e+001
      vertex -4.900000e+001  1.534930e+002  3.832256e+001
    endloop
  endfacet
  facet normal -1.000000e+000  0.000000e+000  0.000000e+000
    outer loop
      vertex -4.900000e+001  1.534930e+002  3.832256e+001
      vertex -4.900000e+001  1.334930e+002  4.632256e+001
      vertex -4.900000e+001  1.534930e+002  4.632256e+001
    endloop
  endfacet
  facet normal  0.000000e+000 -1.000000e+000  0.000000e+000
    outer loop
      vertex -4.899661e+001  4.985274e+001  3.832256e+001
      vertex -4.800000e+001  4.985274e+001  3.832256e+001
      vertex -4.899661e+001  4.985274e+001  4.632256e+001
    endloop
  endfacet
  facet normal  0.000000e+000 -1.000000e+000  0.000000e+000
    outer loop
      vertex -4.899661e+001  4.985274e+001  4.632256e+001
      vertex -4.800000e+001  4.985274e+001  3.832256e+001
      vertex -4.800000e+001  4.985274e+001  4.632256e+001
    endloop
  endfacet
  facet normal  1.000000e+000  0.000000e+000  0.000000e+000
    outer loop
      vertex -4.800000e+001  6.985274e+001  3.832256e+001
      vertex -4.800000e+001  6.985274e+001  4.632256e+001
      vertex -4.800000e+001  4.985274e+001  3.832256e+001
    endloop
  endfacet
  facet normal  1.000000e+000  0.000000e+000  0.000000e+000
    outer loop
      vertex -4.800000e+001  4.985274e+001  3.832256e+001
      vertex -4.800000e+001  6.985274e+001  4.632256e+001
      vertex -4.800000e+001  4.985274e+001  4.632256e+001
    endloop
  endfacet
  facet normal  0.000000e+000  1.000000e+000  0.000000e+000
    outer loop
      vertex -4.800000e+001  6.985274e+001  3.832256e+001
      vertex -4.899661e+001  6.985274e+001  3.832256e+001
      vertex -4.800000e+001  6.985274e+001  4.632256e+001
    endloop
  endfacet
  facet normal  0.000000e+000  1.000000e+000  0.000000e+000
    outer loop
      vertex -4.800000e+001  6.985274e+001  4.632256e+001
      vertex -4.899661e+001  6.985274e+001  3.832256e+001
      vertex -4.899661e+001  6.985274e+001  4.632256e+001
    endloop
  endfacet
  facet normal -1.000000e+000  0.000000e+000  0.000000e+000
    outer loop
      vertex -4.899661e+001  4.985274e+001  3.832256e+001
      vertex -4.899661e+001  4.985274e+001  4.632256e+001
      vertex -4.899661e+001  6.985274e+001  3.832256e+001
    endloop
  endfacet
  facet normal -1.000000e+000  0.000000e+000  0.000000e+000
    outer loop
      vertex -4.899661e+001  6.985274e+001  3.832256e+001
      vertex -4.899661e+001  4.985274e+001  4.632256e+001
      vertex -4.899661e+001  6.985274e+001  4.632256e+001
    endloop
  endfacet
  facet normal  0.000000e+000 -1.000000e+000  0.000000e+000
    outer loop
      vertex -4.900000e+001 -2.217362e+001  3.832256e+001
      vertex -4.800000e+001 -2.217362e+001  3.832256e+001
      vertex -4.900000e+001 -2.217362e+001  4.632256e+001
    endloop
  endfacet
  facet normal  0.000000e+000 -1.000000e+000  0.000000e+000
    outer loop
      vertex -4.900000e+001 -2.217362e+001  4.632256e+001
      vertex -4.800000e+001 -2.217362e+001  3.832256e+001
      vertex -4.800000e+001 -2.217362e+001  4.632256e+001
    endloop
  endfacet
  facet normal  1.000000e+000  0.000000e+000  0.000000e+000
    outer loop
      vertex -4.800000e+001 -2.173621e+000  3.832256e+001
      vertex -4.800000e+001 -2.173621e+000  4.632256e+001
      vertex -4.800000e+001 -2.217362e+001  3.832256e+001
    endloop
  endfacet
  facet normal  1.000000e+000  0.000000e+000  0.000000e+000
    outer loop
      vertex -4.800000e+001 -2.217362e+001  3.832256e+001
      vertex -4.800000e+001 -2.173621e+000  4.632256e+001
      vertex -4.800000e+001 -2.217362e+001  4.632256e+001
    endloop
  endfacet
  facet normal  0.000000e+000  1.000000e+000  0.000000e+000
    outer loop
      vertex -4.800000e+001 -2.173621e+000  3.832256e+001
      vertex -4.900000e+001 -2.173621e+000  3.832256e+001
      vertex -4.800000e+001 -2.173621e+000  4.632256e+001
    endloop
  endfacet
  facet normal  0.000000e+000  1.000000e+000  0.000000e+000
    outer loop
      vertex -4.800000e+001 -2.173621e+000  4.632256e+001
      vertex -4.900000e+001 -2.173621e+000  3.832256e+001
      vertex -4.900000e+001 -2.173621e+000  4.632256e+001
    endloop
  endfacet
  facet normal -1.000000e+000  0.000000e+000  0.000000e+000
    outer loop
      vertex -4.900000e+001 -2.217362e+001  3.832256e+001
      vertex -4.900000e+001 -2.217362e+001  4.632256e+001
      vertex -4.900000e+001 -2.173621e+000  3.832256e+001
    endloop
  endfacet
  facet normal -1.000000e+000  0.000000e+000  0.000000e+000
    outer loop
      vertex -4.900000e+001 -2.173621e+000  3.832256e+001
      vertex -4.900000e+001 -2.217362e+001  4.632256e+001
      vertex -4.900000e+001 -2.173621e+000  4.632256e+001
    endloop
  endfacet
  facet normal  -0.000000e+000  0.000000e+000 -1.000000e+000
    outer loop
      vertex -7.100000e+001 -2.173621e+000  3.832256e+001
      vertex -7.000000e+001 -2.173621e+000  3.832256e+001
      vertex -7.100000e+001 -2.217362e+001  3.832256e+001
    endloop
  endfacet
  facet normal  0.000000e+000  0.000000e+000 -1.000000e+000
    outer loop
      vertex -7.100000e+001 -2.217362e+001  3.832256e+001
      vertex -7.000000e+001 -2.173621e+000  3.832256e+001
      vertex -7.000000e+001 -2.217362e+001  3.832256e+001
    endloop
  endfacet
  facet normal  -0.000000e+000  0.000000e+000 -1.000000e+000
    outer loop
      vertex -7.100000e+001  6.985274e+001  3.832256e+001
      vertex -7.000000e+001  6.985274e+001  3.832256e+001
      vertex -7.100000e+001  4.985274e+001  3.832256e+001
    endloop
  endfacet
  facet normal  0.000000e+000  0.000000e+000 -1.000000e+000
    outer loop
      vertex -7.100000e+001  4.985274e+001  3.832256e+001
      vertex -7.000000e+001  6.985274e+001  3.832256e+001
      vertex -7.000000e+001  4.985274e+001  3.832256e+001
    endloop
  endfacet
  facet normal  -0.000000e+000  0.000000e+000 -1.000000e+000
    outer loop
      vertex -7.100000e+001  1.533318e+002  3.832256e+001
      vertex -7.000000e+001  1.533318e+002  3.832256e+001
      vertex -7.100000e+001  1.333318e+002  3.832256e+001
    endloop
  endfacet
  facet normal  0.000000e+000  0.000000e+000 -1.000000e+000
    outer loop
      vertex -7.100000e+001  1.333318e+002  3.832256e+001
      vertex -7.000000e+001  1.533318e+002  3.832256e+001
      vertex -7.000000e+001  1.333318e+002  3.832256e+001
    endloop
  endfacet
  facet normal  -0.000000e+000  0.000000e+000 -1.000000e+000
    outer loop
      vertex -4.900000e+001  1.534930e+002  3.832256e+001
      vertex -4.800000e+001  1.534930e+002  3.832256e+001
      vertex -4.900000e+001  1.334930e+002  3.832256e+001
    endloop
  endfacet
  facet normal  0.000000e+000  0.000000e+000 -1.000000e+000
    outer loop
      vertex -4.900000e+001  1.334930e+002  3.832256e+001
      vertex -4.800000e+001  1.534930e+002  3.832256e+001
      vertex -4.800000e+001  1.334930e+002  3.832256e+001
    endloop
  endfacet
  facet normal  -0.000000e+000  0.000000e+000 -1.000000e+000
    outer loop
      vertex -4.899661e+001  6.985274e+001  3.832256e+001
      vertex -4.800000e+001  6.985274e+001  3.832256e+001
      vertex -4.899661e+001  4.985274e+001  3.832256e+001
    endloop
  endfacet
  facet normal  0.000000e+000  0.000000e+000 -1.000000e+000
    outer loop
      vertex -4.899661e+001  4.985274e+001  3.832256e+001
      vertex -4.800000e+001  6.985274e+001  3.832256e+001
      vertex -4.800000e+001  4.985274e+001  3.832256e+001
    endloop
  endfacet
  facet normal  -0.000000e+000  0.000000e+000 -1.000000e+000
    outer loop
      vertex -4.900000e+001 -2.173621e+000  3.832256e+001
      vertex -4.800000e+001 -2.173621e+000  3.832256e+001
      vertex -4.900000e+001 -2.217362e+001  3.832256e+001
    endloop
  endfacet
  facet normal  0.000000e+000  0.000000e+000 -1.000000e+000
    outer loop
      vertex -4.900000e+001 -2.217362e+001  3.832256e+001
      vertex -4.800000e+001 -2.173621e+000  3.832256e+001
      vertex -4.800000e+001 -2.217362e+001  3.832256e+001
    endloop
  endfacet
  facet normal  0.000000e+000 -8.155465e-001  5.786915e-001
    outer loop
      vertex -4.700000e+001  1.675847e+002  3.790516e+001
      vertex -7.200000e+001  1.675847e+002  3.790516e+001
      vertex -4.700000e+001  1.578947e+002  2.424914e+001
    endloop
  endfacet
  facet normal  0.000000e+000 -8.155465e-001  5.786915e-001
    outer loop
      vertex -4.700000e+001  1.578947e+002  2.424914e+001
      vertex -7.200000e+001  1.675847e+002  3.790516e+001
      vertex -7.200000e+001  1.578947e+002  2.424914e+001
    endloop
  endfacet
  facet normal  0.000000e+000 -9.998649e-001  1.643510e-002
    outer loop
      vertex -4.700000e+001  1.676358e+002  4.101218e+001
      vertex -7.200000e+001  1.676358e+002  4.101218e+001
      vertex -4.700000e+001  1.675847e+002  3.790516e+001
    endloop
  endfacet
  facet normal  0.000000e+000 -9.998649e-001  1.643510e-002
    outer loop
      vertex -4.700000e+001  1.675847e+002  3.790516e+001
      vertex -7.200000e+001  1.676358e+002  4.101218e+001
      vertex -7.200000e+001  1.675847e+002  3.790516e+001
    endloop
  endfacet
  facet normal  0.000000e+000 -7.071068e-001 -7.071068e-001
    outer loop
      vertex -4.700000e+001  1.623254e+002  4.632256e+001
      vertex -7.200000e+001  1.623254e+002  4.632256e+001
      vertex -4.700000e+001  1.676358e+002  4.101218e+001
    endloop
  endfacet
  facet normal  -0.000000e+000 -7.071068e-001 -7.071068e-001
    outer loop
      vertex -4.700000e+001  1.676358e+002  4.101218e+001
      vertex -7.200000e+001  1.623254e+002  4.632256e+001
      vertex -7.200000e+001  1.676358e+002  4.101218e+001
    endloop
  endfacet
endsolid CATIA STL
