solid CATIA STL
  facet normal  0.000000e+000 -9.433279e-001  3.318620e-001
    outer loop
      vertex -4.700000e+001 -3.579962e+001  1.944806e+001
      vertex  4.700000e+001 -3.579962e+001  1.944806e+001
      vertex -4.700000e+001 -3.232719e+001  2.931854e+001
    endloop
  endfacet
  facet normal  0.000000e+000 -9.433279e-001  3.318620e-001
    outer loop
      vertex -4.700000e+001 -3.232719e+001  2.931854e+001
      vertex  4.700000e+001 -3.579962e+001  1.944806e+001
      vertex  4.700000e+001 -3.232719e+001  2.931854e+001
    endloop
  endfacet
  facet normal  1.000000e+000  0.000000e+000  0.000000e+000
    outer loop
      vertex  4.700000e+001 -3.044053e+001  2.865482e+001
      vertex  4.700000e+001 -3.232719e+001  2.931854e+001
      vertex  4.700000e+001 -3.424482e+001  1.784101e+001
    endloop
  endfacet
  facet normal  1.000000e+000  0.000000e+000  -0.000000e+000
    outer loop
      vertex  4.700000e+001 -3.424482e+001  1.784101e+001
      vertex  4.700000e+001 -3.232719e+001  2.931854e+001
      vertex  4.700000e+001 -3.579962e+001  1.944806e+001
    endloop
  endfacet
  facet normal  1.000000e+000  0.000000e+000  0.000000e+000
    outer loop
      vertex  4.700000e+001 -3.424482e+001  1.784101e+001
      vertex  4.700000e+001 -3.579962e+001  1.944806e+001
      vertex  4.700000e+001 -3.518815e+001  1.817287e+001
    endloop
  endfacet
  facet normal  1.000000e+000  0.000000e+000  0.000000e+000
    outer loop
      vertex  4.700000e+001 -3.518815e+001  1.817287e+001
      vertex  4.700000e+001 -3.579962e+001  1.944806e+001
      vertex  4.700000e+001 -3.575798e+001  1.868383e+001
    endloop
  endfacet
  facet normal -1.000000e+000  0.000000e+000  0.000000e+000
    outer loop
      vertex -4.700000e+001 -3.518815e+001  1.817287e+001
      vertex -4.700000e+001 -3.575798e+001  1.868383e+001
      vertex -4.700000e+001 -3.424482e+001  1.784101e+001
    endloop
  endfacet
  facet normal -1.000000e+000  0.000000e+000  0.000000e+000
    outer loop
      vertex -4.700000e+001 -3.424482e+001  1.784101e+001
      vertex -4.700000e+001 -3.575798e+001  1.868383e+001
      vertex -4.700000e+001 -3.579962e+001  1.944806e+001
    endloop
  endfacet
  facet normal -1.000000e+000  0.000000e+000  0.000000e+000
    outer loop
      vertex -4.700000e+001 -3.424482e+001  1.784101e+001
      vertex -4.700000e+001 -3.579962e+001  1.944806e+001
      vertex -4.700000e+001 -3.044053e+001  2.865482e+001
    endloop
  endfacet
  facet normal -1.000000e+000  -0.000000e+000  0.000000e+000
    outer loop
      vertex -4.700000e+001 -3.044053e+001  2.865482e+001
      vertex -4.700000e+001 -3.579962e+001  1.944806e+001
      vertex -4.700000e+001 -3.232719e+001  2.931854e+001
    endloop
  endfacet
  facet normal  0.000000e+000 -3.318613e-001 -9.433283e-001
    outer loop
      vertex -4.700000e+001 -3.518815e+001  1.817287e+001
      vertex -4.700000e+001 -3.424482e+001  1.784101e+001
      vertex  4.700000e+001 -3.518815e+001  1.817287e+001
    endloop
  endfacet
  facet normal  0.000000e+000 -3.318613e-001 -9.433283e-001
    outer loop
      vertex  4.700000e+001 -3.518815e+001  1.817287e+001
      vertex -4.700000e+001 -3.424482e+001  1.784101e+001
      vertex  4.700000e+001 -3.424482e+001  1.784101e+001
    endloop
  endfacet
  facet normal  -0.000000e+000 -6.675986e-001 -7.445214e-001
    outer loop
      vertex -4.700000e+001 -3.518815e+001  1.817287e+001
      vertex  4.700000e+001 -3.518815e+001  1.817287e+001
      vertex -4.700000e+001 -3.575798e+001  1.868383e+001
    endloop
  endfacet
  facet normal  0.000000e+000 -6.675986e-001 -7.445214e-001
    outer loop
      vertex -4.700000e+001 -3.575798e+001  1.868383e+001
      vertex  4.700000e+001 -3.518815e+001  1.817287e+001
      vertex  4.700000e+001 -3.575798e+001  1.868383e+001
    endloop
  endfacet
  facet normal  -0.000000e+000 -9.985194e-001 -5.439700e-002
    outer loop
      vertex -4.700000e+001 -3.575798e+001  1.868383e+001
      vertex  4.700000e+001 -3.575798e+001  1.868383e+001
      vertex -4.700000e+001 -3.579962e+001  1.944806e+001
    endloop
  endfacet
  facet normal  0.000000e+000 -9.985194e-001 -5.439700e-002
    outer loop
      vertex -4.700000e+001 -3.579962e+001  1.944806e+001
      vertex  4.700000e+001 -3.575798e+001  1.868383e+001
      vertex  4.700000e+001 -3.579962e+001  1.944806e+001
    endloop
  endfacet
  facet normal  0.000000e+000  7.998804e-001 -6.001594e-001
    outer loop
      vertex  5.000000e+000 -2.448804e+001  2.002150e+001
      vertex -5.000000e+000 -2.448804e+001  2.002150e+001
      vertex  5.000000e+000 -2.060622e+001  2.519511e+001
    endloop
  endfacet
  facet normal  0.000000e+000  7.998804e-001 -6.001594e-001
    outer loop
      vertex  5.000000e+000 -2.060622e+001  2.519511e+001
      vertex -5.000000e+000 -2.448804e+001  2.002150e+001
      vertex -5.000000e+000 -2.060622e+001  2.519511e+001
    endloop
  endfacet
  facet normal  0.000000e+000  9.433280e-001 -3.318620e-001
    outer loop
      vertex  4.700000e+001 -3.424482e+001  1.784101e+001
      vertex  5.000000e+000 -3.044053e+001  2.865482e+001
      vertex  4.700000e+001 -3.044053e+001  2.865482e+001
    endloop
  endfacet
  facet normal  2.552319e-008  9.433280e-001 -3.318619e-001
    outer loop
      vertex  5.000000e+000 -3.044053e+001  2.865482e+001
      vertex  4.700000e+001 -3.424482e+001  1.784101e+001
      vertex  5.000000e+000 -3.368816e+001  1.942334e+001
    endloop
  endfacet
  facet normal  0.000000e+000  9.433277e-001 -3.318624e-001
    outer loop
      vertex  5.000000e+000 -3.368816e+001  1.942334e+001
      vertex  4.700000e+001 -3.424482e+001  1.784101e+001
      vertex -4.700000e+001 -3.424482e+001  1.784101e+001
    endloop
  endfacet
  facet normal  0.000000e+000  9.433278e-001 -3.318624e-001
    outer loop
      vertex  5.000000e+000 -3.368816e+001  1.942334e+001
      vertex -4.700000e+001 -3.424482e+001  1.784101e+001
      vertex -5.000000e+000 -3.368816e+001  1.942334e+001
    endloop
  endfacet
  facet normal -2.178851e-008  9.433280e-001 -3.318620e-001
    outer loop
      vertex -5.000000e+000 -3.368816e+001  1.942334e+001
      vertex -4.700000e+001 -3.424482e+001  1.784101e+001
      vertex -4.700000e+001 -3.044053e+001  2.865482e+001
    endloop
  endfacet
  facet normal  0.000000e+000  9.433280e-001 -3.318619e-001
    outer loop
      vertex -5.000000e+000 -3.368816e+001  1.942334e+001
      vertex -4.700000e+001 -3.044053e+001  2.865482e+001
      vertex -5.000000e+000 -3.044053e+001  2.865482e+001
    endloop
  endfacet
  facet normal  1.000000e+000  0.000000e+000  0.000000e+000
    outer loop
      vertex  5.000000e+000 -2.448804e+001  2.002150e+001
      vertex  5.000000e+000 -2.060622e+001  2.519511e+001
      vertex  5.000000e+000 -3.008720e+001  2.422262e+001
    endloop
  endfacet
  facet normal  1.000000e+000  0.000000e+000  -0.000000e+000
    outer loop
      vertex  5.000000e+000 -3.008720e+001  2.422262e+001
      vertex  5.000000e+000 -2.060622e+001  2.519511e+001
      vertex  5.000000e+000 -3.044053e+001  2.865482e+001
    endloop
  endfacet
  facet normal  1.000000e+000  0.000000e+000  0.000000e+000
    outer loop
      vertex  5.000000e+000 -3.008720e+001  2.422262e+001
      vertex  5.000000e+000 -3.044053e+001  2.865482e+001
      vertex  5.000000e+000 -3.368816e+001  1.942334e+001
    endloop
  endfacet
  facet normal -1.000000e+000  0.000000e+000  0.000000e+000
    outer loop
      vertex -5.000000e+000 -2.060622e+001  2.519511e+001
      vertex -5.000000e+000 -2.448804e+001  2.002150e+001
      vertex -5.000000e+000 -3.044053e+001  2.865482e+001
    endloop
  endfacet
  facet normal -9.999999e-001  0.000000e+000  0.000000e+000
    outer loop
      vertex -5.000000e+000 -3.044053e+001  2.865482e+001
      vertex -5.000000e+000 -2.448804e+001  2.002150e+001
      vertex -5.000000e+000 -3.008720e+001  2.422262e+001
    endloop
  endfacet
  facet normal -1.000000e+000  -0.000000e+000  0.000000e+000
    outer loop
      vertex -5.000000e+000 -3.044053e+001  2.865482e+001
      vertex -5.000000e+000 -3.008720e+001  2.422262e+001
      vertex -5.000000e+000 -3.368816e+001  1.942334e+001
    endloop
  endfacet
  facet normal  -0.000000e+000  3.318616e-001  9.433281e-001
    outer loop
      vertex -5.000000e+000 -3.044053e+001  2.865482e+001
      vertex -4.700000e+001 -3.044053e+001  2.865482e+001
      vertex -4.700000e+001 -3.232719e+001  2.931854e+001
    endloop
  endfacet
  facet normal  0.000000e+000  3.318616e-001  9.433281e-001
    outer loop
      vertex -5.000000e+000 -3.044053e+001  2.865482e+001
      vertex -4.700000e+001 -3.232719e+001  2.931854e+001
      vertex  5.000000e+000 -3.044053e+001  2.865482e+001
    endloop
  endfacet
  facet normal  0.000000e+000  3.318620e-001  9.433280e-001
    outer loop
      vertex -5.000000e+000 -3.044053e+001  2.865482e+001
      vertex  5.000000e+000 -3.044053e+001  2.865482e+001
      vertex  5.000000e+000 -2.060622e+001  2.519511e+001
    endloop
  endfacet
  facet normal  0.000000e+000  3.318620e-001  9.433280e-001
    outer loop
      vertex -5.000000e+000 -3.044053e+001  2.865482e+001
      vertex  5.000000e+000 -2.060622e+001  2.519511e+001
      vertex -5.000000e+000 -2.060622e+001  2.519511e+001
    endloop
  endfacet
  facet normal  0.000000e+000  3.318616e-001  9.433281e-001
    outer loop
      vertex  4.700000e+001 -3.232719e+001  2.931854e+001
      vertex  4.700000e+001 -3.044053e+001  2.865482e+001
      vertex -4.700000e+001 -3.232719e+001  2.931854e+001
    endloop
  endfacet
  facet normal  0.000000e+000  3.318616e-001  9.433281e-001
    outer loop
      vertex -4.700000e+001 -3.232719e+001  2.931854e+001
      vertex  4.700000e+001 -3.044053e+001  2.865482e+001
      vertex  5.000000e+000 -3.044053e+001  2.865482e+001
    endloop
  endfacet
  facet normal  0.000000e+000  7.998805e-001 -6.001594e-001
    outer loop
      vertex -5.000000e+000 -3.368816e+001  1.942334e+001
      vertex -5.000000e+000 -3.008720e+001  2.422262e+001
      vertex  5.000000e+000 -3.368816e+001  1.942334e+001
    endloop
  endfacet
  facet normal  0.000000e+000  7.998805e-001 -6.001594e-001
    outer loop
      vertex  5.000000e+000 -3.368816e+001  1.942334e+001
      vertex -5.000000e+000 -3.008720e+001  2.422262e+001
      vertex  5.000000e+000 -3.008720e+001  2.422262e+001
    endloop
  endfacet
  facet normal  0.000000e+000 -6.001596e-001 -7.998803e-001
    outer loop
      vertex  5.000000e+000 -2.448804e+001  2.002150e+001
      vertex  5.000000e+000 -3.008720e+001  2.422262e+001
      vertex -5.000000e+000 -2.448804e+001  2.002150e+001
    endloop
  endfacet
  facet normal  0.000000e+000 -6.001596e-001 -7.998803e-001
    outer loop
      vertex -5.000000e+000 -2.448804e+001  2.002150e+001
      vertex  5.000000e+000 -3.008720e+001  2.422262e+001
      vertex -5.000000e+000 -3.008720e+001  2.422262e+001
    endloop
  endfacet
endsolid CATIA STL
