solid CATIA STL
  facet normal  0.000000e+000  0.000000e+000  1.000000e+000
    outer loop
      vertex  6.421636e+000  5.660569e+001  2.896996e+001
      vertex  2.905317e+000  5.664844e+001  2.896996e+001
      vertex  2.820617e+000  4.968055e+001  2.896996e+001
    endloop
  endfacet
  facet normal  0.000000e+000  0.000000e+000  1.000000e+000
    outer loop
      vertex  6.421636e+000  5.660569e+001  2.896996e+001
      vertex  2.820617e+000  4.968055e+001  2.896996e+001
      vertex  1.441941e+001  5.637416e+001  2.896996e+001
    endloop
  endfacet
  facet normal  0.000000e+000  -0.000000e+000  1.000000e+000
    outer loop
      vertex  6.421636e+000  5.660569e+001  2.896996e+001
      vertex  1.441941e+001  5.637416e+001  2.896996e+001
      vertex  1.469688e+001  7.920045e+001  2.896996e+001
    endloop
  endfacet
  facet normal  0.000000e+000  0.000000e+000  1.000000e+000
    outer loop
      vertex  6.421636e+000  5.660569e+001  2.896996e+001
      vertex  1.469688e+001  7.920045e+001  2.896996e+001
      vertex  6.701197e+000  7.960400e+001  2.896996e+001
    endloop
  endfacet
  facet normal  -0.000000e+000  0.000000e+000  1.000000e+000
    outer loop
      vertex  4.700000e+001  1.029643e+002  2.896996e+001
      vertex -4.700000e+001  1.029643e+002  2.896996e+001
      vertex  1.469688e+001  7.920045e+001  2.896996e+001
    endloop
  endfacet
  facet normal  -0.000000e+000  0.000000e+000  1.000000e+000
    outer loop
      vertex  4.700000e+001  1.029643e+002  2.896996e+001
      vertex  1.469688e+001  7.920045e+001  2.896996e+001
      vertex  1.677588e+001  7.576298e+001  2.896996e+001
    endloop
  endfacet
  facet normal  -0.000000e+000  0.000000e+000  1.000000e+000
    outer loop
      vertex  4.700000e+001  1.029643e+002  2.896996e+001
      vertex  1.677588e+001  7.576298e+001  2.896996e+001
      vertex  4.700000e+001  2.296427e+001  2.896996e+001
    endloop
  endfacet
  facet normal  0.000000e+000  0.000000e+000  1.000000e+000
    outer loop
      vertex  4.700000e+001  2.296427e+001  2.896996e+001
      vertex  1.677588e+001  7.576298e+001  2.896996e+001
      vertex  1.806383e+001  7.195778e+001  2.896996e+001
    endloop
  endfacet
  facet normal  0.000000e+000  0.000000e+000  1.000000e+000
    outer loop
      vertex  4.700000e+001  2.296427e+001  2.896996e+001
      vertex  1.806383e+001  7.195778e+001  2.896996e+001
      vertex  1.850000e+001  6.796426e+001  2.896996e+001
    endloop
  endfacet
  facet normal  0.000000e+000  0.000000e+000  1.000000e+000
    outer loop
      vertex  4.700000e+001  2.296427e+001  2.896996e+001
      vertex  1.850000e+001  6.796426e+001  2.896996e+001
      vertex  1.803087e+001  6.382451e+001  2.896996e+001
    endloop
  endfacet
  facet normal  0.000000e+000  0.000000e+000  1.000000e+000
    outer loop
      vertex  4.700000e+001  2.296427e+001  2.896996e+001
      vertex  1.803087e+001  6.382451e+001  2.896996e+001
      vertex  1.664729e+001  5.989471e+001  2.896996e+001
    endloop
  endfacet
  facet normal  0.000000e+000  0.000000e+000  1.000000e+000
    outer loop
      vertex  4.700000e+001  2.296427e+001  2.896996e+001
      vertex  1.664729e+001  5.989471e+001  2.896996e+001
      vertex  1.441941e+001  5.637416e+001  2.896996e+001
    endloop
  endfacet
  facet normal  0.000000e+000  0.000000e+000  1.000000e+000
    outer loop
      vertex  4.700000e+001  2.296427e+001  2.896996e+001
      vertex  1.441941e+001  5.637416e+001  2.896996e+001
      vertex  2.820617e+000  4.968055e+001  2.896996e+001
    endloop
  endfacet
  facet normal  0.000000e+000  0.000000e+000  1.000000e+000
    outer loop
      vertex -4.700000e+001  2.296427e+001  2.896996e+001
      vertex  4.700000e+001  2.296427e+001  2.896996e+001
      vertex  2.820617e+000  4.968055e+001  2.896996e+001
    endloop
  endfacet
  facet normal  0.000000e+000  0.000000e+000  1.000000e+000
    outer loop
      vertex -4.700000e+001  2.296427e+001  2.896996e+001
      vertex  2.820617e+000  4.968055e+001  2.896996e+001
      vertex -1.428481e-001  4.946482e+001  2.896996e+001
    endloop
  endfacet
  facet normal  0.000000e+000  0.000000e+000  1.000000e+000
    outer loop
      vertex -4.700000e+001  2.296427e+001  2.896996e+001
      vertex -1.428481e-001  4.946482e+001  2.896996e+001
      vertex -3.102628e+000  4.972629e+001  2.896996e+001
    endloop
  endfacet
  facet normal  0.000000e+000  0.000000e+000  1.000000e+000
    outer loop
      vertex -4.700000e+001  2.296427e+001  2.896996e+001
      vertex -3.102628e+000  4.972629e+001  2.896996e+001
      vertex -1.458026e+001  5.657717e+001  2.896996e+001
    endloop
  endfacet
  facet normal  0.000000e+000  0.000000e+000  1.000000e+000
    outer loop
      vertex -4.700000e+001  2.296427e+001  2.896996e+001
      vertex -1.458026e+001  5.657717e+001  2.896996e+001
      vertex -1.672188e+001  6.005044e+001  2.896996e+001
    endloop
  endfacet
  facet normal  0.000000e+000  0.000000e+000  1.000000e+000
    outer loop
      vertex -4.700000e+001  2.296427e+001  2.896996e+001
      vertex -1.672188e+001  6.005044e+001  2.896996e+001
      vertex -1.805000e+001  6.390870e+001  2.896996e+001
    endloop
  endfacet
  facet normal  0.000000e+000  0.000000e+000  1.000000e+000
    outer loop
      vertex -4.700000e+001  2.296427e+001  2.896996e+001
      vertex -1.805000e+001  6.390870e+001  2.896996e+001
      vertex -1.850000e+001  6.796426e+001  2.896996e+001
    endloop
  endfacet
  facet normal  0.000000e+000  -0.000000e+000  1.000000e+000
    outer loop
      vertex -4.700000e+001  2.296427e+001  2.896996e+001
      vertex -1.850000e+001  6.796426e+001  2.896996e+001
      vertex -1.801654e+001  7.216596e+001  2.896996e+001
    endloop
  endfacet
  facet normal  0.000000e+000  -0.000000e+000  1.000000e+000
    outer loop
      vertex -4.700000e+001  2.296427e+001  2.896996e+001
      vertex -1.801654e+001  7.216596e+001  2.896996e+001
      vertex -1.659143e+001  7.614806e+001  2.896996e+001
    endloop
  endfacet
  facet normal  0.000000e+000  0.000000e+000  1.000000e+000
    outer loop
      vertex -4.700000e+001  1.029643e+002  2.896996e+001
      vertex -4.700000e+001  2.296427e+001  2.896996e+001
      vertex -1.659143e+001  7.614806e+001  2.896996e+001
    endloop
  endfacet
  facet normal  0.000000e+000  -0.000000e+000  9.999999e-001
    outer loop
      vertex -4.700000e+001  1.029643e+002  2.896996e+001
      vertex -1.659143e+001  7.614806e+001  2.896996e+001
      vertex -1.429916e+001  7.970242e+001  2.896996e+001
    endloop
  endfacet
  facet normal  0.000000e+000  -0.000000e+000  1.000000e+000
    outer loop
      vertex -4.700000e+001  1.029643e+002  2.896996e+001
      vertex -1.429916e+001  7.970242e+001  2.896996e+001
      vertex -6.297843e+000  7.976201e+001  2.896996e+001
    endloop
  endfacet
  facet normal  -0.000000e+000  -0.000000e+000  9.999999e-001
    outer loop
      vertex -4.700000e+001  1.029643e+002  2.896996e+001
      vertex -6.297843e+000  7.976201e+001  2.896996e+001
      vertex  6.701197e+000  7.960400e+001  2.896996e+001
    endloop
  endfacet
  facet normal  -0.000000e+000  -0.000000e+000  1.000000e+000
    outer loop
      vertex -4.700000e+001  1.029643e+002  2.896996e+001
      vertex  6.701197e+000  7.960400e+001  2.896996e+001
      vertex  1.469688e+001  7.920045e+001  2.896996e+001
    endloop
  endfacet
  facet normal  -0.000000e+000  0.000000e+000  1.000000e+000
    outer loop
      vertex -6.297843e+000  7.976201e+001  2.896996e+001
      vertex -1.429916e+001  7.970242e+001  2.896996e+001
      vertex -6.577404e+000  5.676371e+001  2.896996e+001
    endloop
  endfacet
  facet normal  0.000000e+000  0.000000e+000  9.999999e-001
    outer loop
      vertex -6.577404e+000  5.676371e+001  2.896996e+001
      vertex -1.429916e+001  7.970242e+001  2.896996e+001
      vertex -1.458026e+001  5.657717e+001  2.896996e+001
    endloop
  endfacet
  facet normal  0.000000e+000  0.000000e+000  1.000000e+000
    outer loop
      vertex -6.577404e+000  5.676371e+001  2.896996e+001
      vertex -1.458026e+001  5.657717e+001  2.896996e+001
      vertex -3.102628e+000  5.672147e+001  2.896996e+001
    endloop
  endfacet
  facet normal  0.000000e+000  0.000000e+000  1.000000e+000
    outer loop
      vertex -3.102628e+000  5.672147e+001  2.896996e+001
      vertex -1.458026e+001  5.657717e+001  2.896996e+001
      vertex -3.102628e+000  4.972629e+001  2.896996e+001
    endloop
  endfacet
  facet normal  9.999261e-001 -1.215491e-002  0.000000e+000
    outer loop
      vertex  1.473707e+001  8.250653e+001  2.696996e+001
      vertex  1.468680e+001  7.837090e+001  2.696996e+001
      vertex  1.473707e+001  8.250653e+001  2.396996e+001
    endloop
  endfacet
  facet normal  9.999261e-001 -1.215485e-002  6.696132e-006
    outer loop
      vertex  1.469688e+001  7.920045e+001  2.896996e+001
      vertex  1.441941e+001  5.637416e+001  2.896996e+001
      vertex  1.442396e+001  5.674867e+001  2.891459e+001
    endloop
  endfacet
  facet normal  9.999261e-001 -1.215484e-002  2.342144e-006
    outer loop
      vertex  1.469688e+001  7.920045e+001  2.896996e+001
      vertex  1.442396e+001  5.674867e+001  2.891459e+001
      vertex  1.442766e+001  5.705226e+001  2.875539e+001
    endloop
  endfacet
  facet normal  9.999261e-001 -1.215478e-002 -3.387889e-006
    outer loop
      vertex  1.469688e+001  7.920045e+001  2.896996e+001
      vertex  1.442766e+001  5.705226e+001  2.875539e+001
      vertex  1.442910e+001  5.717155e+001  2.860622e+001
    endloop
  endfacet
  facet normal  9.999261e-001 -1.215486e-002  1.095532e-006
    outer loop
      vertex  1.469688e+001  7.920045e+001  2.896996e+001
      vertex  1.442910e+001  5.717155e+001  2.860622e+001
      vertex  1.442950e+001  5.720371e+001  2.846996e+001
    endloop
  endfacet
  facet normal  9.999261e-001 -1.215464e-002 -8.326711e-006
    outer loop
      vertex  1.469688e+001  7.920045e+001  2.896996e+001
      vertex  1.442950e+001  5.720371e+001  2.846996e+001
      vertex  1.469233e+001  7.882594e+001  2.891459e+001
    endloop
  endfacet
  facet normal  9.999261e-001 -1.215483e-002  0.000000e+000
    outer loop
      vertex  1.442950e+001  5.720371e+001  2.846996e+001
      vertex  1.442950e+001  5.720371e+001  2.696996e+001
      vertex  1.473707e+001  8.250653e+001  2.396996e+001
    endloop
  endfacet
  facet normal  9.999261e-001 -1.215481e-002  1.414642e-007
    outer loop
      vertex  1.442950e+001  5.720371e+001  2.846996e+001
      vertex  1.473707e+001  8.250653e+001  2.396996e+001
      vertex  1.468680e+001  7.837090e+001  2.696996e+001
    endloop
  endfacet
  facet normal  9.999261e-001 -1.215482e-002  0.000000e+000
    outer loop
      vertex  1.442950e+001  5.720371e+001  2.846996e+001
      vertex  1.468680e+001  7.837090e+001  2.696996e+001
      vertex  1.468680e+001  7.837090e+001  2.846996e+001
    endloop
  endfacet
  facet normal  9.999261e-001 -1.215482e-002 -1.445488e-006
    outer loop
      vertex  1.442950e+001  5.720371e+001  2.846996e+001
      vertex  1.468680e+001  7.837090e+001  2.846996e+001
      vertex  1.468719e+001  7.840305e+001  2.860622e+001
    endloop
  endfacet
  facet normal  9.999261e-001 -1.215481e-002 -2.986830e-006
    outer loop
      vertex  1.442950e+001  5.720371e+001  2.846996e+001
      vertex  1.468719e+001  7.840305e+001  2.860622e+001
      vertex  1.468864e+001  7.852234e+001  2.875539e+001
    endloop
  endfacet
  facet normal  9.999261e-001 -1.215491e-002  4.354245e-006
    outer loop
      vertex  1.442950e+001  5.720371e+001  2.846996e+001
      vertex  1.468864e+001  7.852234e+001  2.875539e+001
      vertex  1.469233e+001  7.882594e+001  2.891459e+001
    endloop
  endfacet
  facet normal  9.999261e-001 -1.215483e-002  0.000000e+000
    outer loop
      vertex  1.436027e+001  5.150882e+001  2.396996e+001
      vertex  1.473707e+001  8.250653e+001  2.396996e+001
      vertex  1.436027e+001  5.150882e+001  2.696996e+001
    endloop
  endfacet
  facet normal  9.999261e-001 -1.215480e-002  2.651279e-007
    outer loop
      vertex  1.436027e+001  5.150882e+001  2.696996e+001
      vertex  1.473707e+001  8.250653e+001  2.396996e+001
      vertex  1.442950e+001  5.720371e+001  2.696996e+001
    endloop
  endfacet
  facet normal -9.999261e-001  1.215488e-002  0.000000e+000
    outer loop
      vertex -1.463759e+001  5.186131e+001  2.696996e+001
      vertex -1.457032e+001  5.739517e+001  2.696996e+001
      vertex -1.463759e+001  5.186131e+001  2.396996e+001
    endloop
  endfacet
  facet normal -9.999262e-001  1.215479e-002 -1.531900e-005
    outer loop
      vertex -1.458026e+001  5.657717e+001  2.896996e+001
      vertex -1.429916e+001  7.970242e+001  2.896996e+001
      vertex -1.430365e+001  7.933290e+001  2.891459e+001
    endloop
  endfacet
  facet normal -9.999261e-001  1.215482e-002 -3.892340e-008
    outer loop
      vertex -1.458026e+001  5.657717e+001  2.896996e+001
      vertex -1.430365e+001  7.933290e+001  2.891459e+001
      vertex -1.430729e+001  7.903375e+001  2.875550e+001
    endloop
  endfacet
  facet normal -9.999261e-001  1.215485e-002  3.257354e-006
    outer loop
      vertex -1.458026e+001  5.657717e+001  2.896996e+001
      vertex -1.430729e+001  7.903375e+001  2.875550e+001
      vertex -1.430871e+001  7.891627e+001  2.860661e+001
    endloop
  endfacet
  facet normal -9.999260e-001  1.215480e-002 -2.431404e-009
    outer loop
      vertex -1.458026e+001  5.657717e+001  2.896996e+001
      vertex -1.430871e+001  7.891627e+001  2.860661e+001
      vertex -1.430910e+001  7.888441e+001  2.846996e+001
    endloop
  endfacet
  facet normal -9.999261e-001  1.215521e-002  1.815620e-005
    outer loop
      vertex -1.458026e+001  5.657717e+001  2.896996e+001
      vertex -1.430910e+001  7.888441e+001  2.846996e+001
      vertex -1.457577e+001  5.694669e+001  2.891459e+001
    endloop
  endfacet
  facet normal -9.999261e-001  1.215483e-002  0.000000e+000
    outer loop
      vertex -1.430910e+001  7.888441e+001  2.846996e+001
      vertex -1.430910e+001  7.888441e+001  2.696996e+001
      vertex -1.463759e+001  5.186131e+001  2.396996e+001
    endloop
  endfacet
  facet normal -9.999261e-001  1.215481e-002  1.358242e-007
    outer loop
      vertex -1.430910e+001  7.888441e+001  2.846996e+001
      vertex -1.463759e+001  5.186131e+001  2.396996e+001
      vertex -1.457032e+001  5.739517e+001  2.696996e+001
    endloop
  endfacet
  facet normal -9.999261e-001  1.215482e-002  0.000000e+000
    outer loop
      vertex -1.430910e+001  7.888441e+001  2.846996e+001
      vertex -1.457032e+001  5.739517e+001  2.696996e+001
      vertex -1.457032e+001  5.739517e+001  2.846996e+001
    endloop
  endfacet
  facet normal -9.999261e-001  1.215482e-002  6.025718e-009
    outer loop
      vertex -1.430910e+001  7.888441e+001  2.846996e+001
      vertex -1.457032e+001  5.739517e+001  2.846996e+001
      vertex -1.457071e+001  5.736332e+001  2.860661e+001
    endloop
  endfacet
  facet normal -9.999261e-001  1.215480e-002 -2.990254e-006
    outer loop
      vertex -1.430910e+001  7.888441e+001  2.846996e+001
      vertex -1.457071e+001  5.736332e+001  2.860661e+001
      vertex -1.457213e+001  5.724583e+001  2.875550e+001
    endloop
  endfacet
  facet normal -9.999261e-001  1.215484e-002 -2.308063e-007
    outer loop
      vertex -1.430910e+001  7.888441e+001  2.846996e+001
      vertex -1.457213e+001  5.724583e+001  2.875550e+001
      vertex -1.457577e+001  5.694669e+001  2.891459e+001
    endloop
  endfacet
  facet normal -9.999261e-001  1.215483e-002  0.000000e+000
    outer loop
      vertex -1.426079e+001  8.285902e+001  2.396996e+001
      vertex -1.463759e+001  5.186131e+001  2.396996e+001
      vertex -1.426079e+001  8.285902e+001  2.696996e+001
    endloop
  endfacet
  facet normal -9.999261e-001  1.215479e-002  4.098700e-007
    outer loop
      vertex -1.426079e+001  8.285902e+001  2.696996e+001
      vertex -1.463759e+001  5.186131e+001  2.396996e+001
      vertex -1.430910e+001  7.888441e+001  2.696996e+001
    endloop
  endfacet
  facet normal  1.000000e+000  0.000000e+000  0.000000e+000
    outer loop
      vertex -3.102628e+000  4.696427e+001  2.396996e+001
      vertex -3.102628e+000  5.023368e+001  2.696996e+001
      vertex -3.102628e+000  4.696427e+001  2.496996e+001
    endloop
  endfacet
  facet normal  1.000000e+000  -0.000000e+000  0.000000e+000
    outer loop
      vertex -3.102628e+000  5.023368e+001  2.696996e+001
      vertex -3.102628e+000  4.696427e+001  2.696996e+001
      vertex -3.102628e+000  4.696427e+001  2.496996e+001
    endloop
  endfacet
  facet normal  1.000000e+000  -0.000000e+000  0.000000e+000
    outer loop
      vertex -3.102628e+000  5.672147e+001  2.896996e+001
      vertex -3.102628e+000  4.972629e+001  2.896996e+001
      vertex -3.102628e+000  4.995753e+001  2.891499e+001
    endloop
  endfacet
  facet normal  1.000000e+000  -0.000000e+000  0.000000e+000
    outer loop
      vertex -3.102628e+000  5.672147e+001  2.896996e+001
      vertex -3.102628e+000  4.995753e+001  2.891499e+001
      vertex -3.102628e+000  5.013824e+001  2.876181e+001
    endloop
  endfacet
  facet normal  9.999999e-001  -0.000000e+000  0.000000e+000
    outer loop
      vertex -3.102628e+000  5.672147e+001  2.896996e+001
      vertex -3.102628e+000  5.013824e+001  2.876181e+001
      vertex -3.102628e+000  5.023368e+001  2.846996e+001
    endloop
  endfacet
  facet normal  1.000000e+000  -0.000000e+000  0.000000e+000
    outer loop
      vertex -3.102628e+000  5.672147e+001  2.896996e+001
      vertex -3.102628e+000  5.023368e+001  2.846996e+001
      vertex -3.102628e+000  5.023368e+001  2.696996e+001
    endloop
  endfacet
  facet normal  1.000000e+000  -0.000000e+000  0.000000e+000
    outer loop
      vertex -3.102628e+000  5.672147e+001  2.896996e+001
      vertex -3.102628e+000  5.023368e+001  2.696996e+001
      vertex -3.102628e+000  4.696427e+001  2.396996e+001
    endloop
  endfacet
  facet normal  1.000000e+000  0.000000e+000  0.000000e+000
    outer loop
      vertex -3.102628e+000  5.672147e+001  2.896996e+001
      vertex -3.102628e+000  4.696427e+001  2.396996e+001
      vertex -3.102628e+000  5.672147e+001  2.396996e+001
    endloop
  endfacet
  facet normal -9.999261e-001  1.215483e-002  0.000000e+000
    outer loop
      vertex  2.787598e+000  4.696427e+001  2.496996e+001
      vertex  2.826781e+000  5.018762e+001  2.696996e+001
      vertex  2.787598e+000  4.696427e+001  2.396996e+001
    endloop
  endfacet
  facet normal -9.999261e-001  1.215483e-002  0.000000e+000
    outer loop
      vertex  2.787598e+000  4.696427e+001  2.496996e+001
      vertex  2.787598e+000  4.696427e+001  2.696996e+001
      vertex  2.826781e+000  5.018762e+001  2.696996e+001
    endloop
  endfacet
  facet normal -9.999261e-001  1.215484e-002  0.000000e+000
    outer loop
      vertex  2.905317e+000  5.664844e+001  2.896996e+001
      vertex  2.905317e+000  5.664844e+001  2.396996e+001
      vertex  2.787598e+000  4.696427e+001  2.396996e+001
    endloop
  endfacet
  facet normal -9.999261e-001  1.215484e-002 -9.214806e-009
    outer loop
      vertex  2.905317e+000  5.664844e+001  2.896996e+001
      vertex  2.787598e+000  4.696427e+001  2.396996e+001
      vertex  2.826781e+000  5.018762e+001  2.696996e+001
    endloop
  endfacet
  facet normal -9.999261e-001  1.215484e-002  0.000000e+000
    outer loop
      vertex  2.905317e+000  5.664844e+001  2.896996e+001
      vertex  2.826781e+000  5.018762e+001  2.696996e+001
      vertex  2.826781e+000  5.018762e+001  2.846996e+001
    endloop
  endfacet
  facet normal -9.999261e-001  1.215484e-002  5.852436e-008
    outer loop
      vertex  2.905317e+000  5.664844e+001  2.896996e+001
      vertex  2.826781e+000  5.018762e+001  2.846996e+001
      vertex  2.825621e+000  5.009224e+001  2.876182e+001
    endloop
  endfacet
  facet normal -9.999262e-001  1.215482e-002  6.534254e-007
    outer loop
      vertex  2.905317e+000  5.664844e+001  2.896996e+001
      vertex  2.825621e+000  5.009224e+001  2.876182e+001
      vertex  2.823426e+000  4.991164e+001  2.891499e+001
    endloop
  endfacet
  facet normal -9.999261e-001  1.215482e-002  4.327759e-007
    outer loop
      vertex  2.905317e+000  5.664844e+001  2.896996e+001
      vertex  2.823426e+000  4.991164e+001  2.891499e+001
      vertex  2.820617e+000  4.968055e+001  2.896996e+001
    endloop
  endfacet
  facet normal  1.000000e+000  0.000000e+000  0.000000e+000
    outer loop
      vertex -2.100000e+001  1.029643e+002  2.496996e+001
      vertex -2.100000e+001  1.029643e+002  2.696996e+001
      vertex -2.100000e+001  9.033655e+001  2.496996e+001
    endloop
  endfacet
  facet normal  1.000000e+000  0.000000e+000  0.000000e+000
    outer loop
      vertex -2.100000e+001  9.033655e+001  2.496996e+001
      vertex -2.100000e+001  1.029643e+002  2.696996e+001
      vertex -2.100000e+001  9.033655e+001  2.696996e+001
    endloop
  endfacet
  facet normal  1.000000e+000  0.000000e+000  0.000000e+000
    outer loop
      vertex -2.100000e+001  8.294094e+001  2.496996e+001
      vertex -2.100000e+001  8.294094e+001  2.696996e+001
      vertex -2.100000e+001  4.696427e+001  2.496996e+001
    endloop
  endfacet
  facet normal  1.000000e+000  0.000000e+000  0.000000e+000
    outer loop
      vertex -2.100000e+001  4.696427e+001  2.496996e+001
      vertex -2.100000e+001  8.294094e+001  2.696996e+001
      vertex -2.100000e+001  4.696427e+001  2.696996e+001
    endloop
  endfacet
  facet normal  0.000000e+000  9.999999e-001  0.000000e+000
    outer loop
      vertex  9.304659e+000  4.696427e+001  2.496996e+001
      vertex  9.304659e+000  4.696427e+001  2.696996e+001
      vertex  2.100000e+001  4.696427e+001  2.496996e+001
    endloop
  endfacet
  facet normal  0.000000e+000  9.999999e-001  -0.000000e+000
    outer loop
      vertex  2.100000e+001  4.696427e+001  2.496996e+001
      vertex  9.304659e+000  4.696427e+001  2.696996e+001
      vertex  2.100000e+001  4.696427e+001  2.696996e+001
    endloop
  endfacet
  facet normal  0.000000e+000  1.000000e+000  0.000000e+000
    outer loop
      vertex -2.100000e+001  4.696427e+001  2.496996e+001
      vertex -2.100000e+001  4.696427e+001  2.696996e+001
      vertex -9.696745e+000  4.696427e+001  2.496996e+001
    endloop
  endfacet
  facet normal  0.000000e+000  1.000000e+000  -0.000000e+000
    outer loop
      vertex -9.696745e+000  4.696427e+001  2.496996e+001
      vertex -2.100000e+001  4.696427e+001  2.696996e+001
      vertex -9.696745e+000  4.696427e+001  2.696996e+001
    endloop
  endfacet
  facet normal  0.000000e+000  1.000000e+000  0.000000e+000
    outer loop
      vertex -3.102628e+000  4.696427e+001  2.496996e+001
      vertex -3.102628e+000  4.696427e+001  2.696996e+001
      vertex  2.787598e+000  4.696427e+001  2.496996e+001
    endloop
  endfacet
  facet normal  0.000000e+000  1.000000e+000  -0.000000e+000
    outer loop
      vertex  2.787598e+000  4.696427e+001  2.496996e+001
      vertex -3.102628e+000  4.696427e+001  2.696996e+001
      vertex  2.787598e+000  4.696427e+001  2.696996e+001
    endloop
  endfacet
  facet normal -1.000000e+000  0.000000e+000  0.000000e+000
    outer loop
      vertex  2.100000e+001  4.696427e+001  2.496996e+001
      vertex  2.100000e+001  4.696427e+001  2.696996e+001
      vertex  2.100000e+001  8.243040e+001  2.496996e+001
    endloop
  endfacet
  facet normal -1.000000e+000  0.000000e+000  0.000000e+000
    outer loop
      vertex  2.100000e+001  8.243040e+001  2.496996e+001
      vertex  2.100000e+001  4.696427e+001  2.696996e+001
      vertex  2.100000e+001  8.243040e+001  2.696996e+001
    endloop
  endfacet
  facet normal -1.000000e+000  0.000000e+000  0.000000e+000
    outer loop
      vertex  2.100000e+001  8.951406e+001  2.496996e+001
      vertex  2.100000e+001  8.951406e+001  2.696996e+001
      vertex  2.100000e+001  1.029643e+002  2.496996e+001
    endloop
  endfacet
  facet normal -1.000000e+000  0.000000e+000  0.000000e+000
    outer loop
      vertex  2.100000e+001  1.029643e+002  2.496996e+001
      vertex  2.100000e+001  8.951406e+001  2.696996e+001
      vertex  2.100000e+001  1.029643e+002  2.696996e+001
    endloop
  endfacet
  facet normal  0.000000e+000  0.000000e+000 -1.000000e+000
    outer loop
      vertex -2.100000e+001  9.033655e+001  2.696996e+001
      vertex -2.100000e+001  1.029643e+002  2.696996e+001
      vertex  2.100000e+001  8.951406e+001  2.696996e+001
    endloop
  endfacet
  facet normal  0.000000e+000  0.000000e+000 -1.000000e+000
    outer loop
      vertex  2.100000e+001  8.951406e+001  2.696996e+001
      vertex -2.100000e+001  1.029643e+002  2.696996e+001
      vertex  2.100000e+001  1.029643e+002  2.696996e+001
    endloop
  endfacet
  facet normal  -0.000000e+000  0.000000e+000 -9.999999e-001
    outer loop
      vertex -1.426079e+001  8.285902e+001  2.696996e+001
      vertex -1.430910e+001  7.888441e+001  2.696996e+001
      vertex -1.632684e+001  7.554281e+001  2.696996e+001
    endloop
  endfacet
  facet normal  -0.000000e+000  0.000000e+000 -1.000000e+000
    outer loop
      vertex -1.426079e+001  8.285902e+001  2.696996e+001
      vertex -1.632684e+001  7.554281e+001  2.696996e+001
      vertex -1.757673e+001  7.184479e+001  2.696996e+001
    endloop
  endfacet
  facet normal  0.000000e+000  0.000000e+000 -1.000000e+000
    outer loop
      vertex -1.426079e+001  8.285902e+001  2.696996e+001
      vertex -1.757673e+001  7.184479e+001  2.696996e+001
      vertex -2.100000e+001  8.294094e+001  2.696996e+001
    endloop
  endfacet
  facet normal  0.000000e+000  0.000000e+000 -9.999999e-001
    outer loop
      vertex -2.100000e+001  4.696427e+001  2.696996e+001
      vertex -2.100000e+001  8.294094e+001  2.696996e+001
      vertex -1.757673e+001  7.184479e+001  2.696996e+001
    endloop
  endfacet
  facet normal  0.000000e+000  0.000000e+000 -1.000000e+000
    outer loop
      vertex -2.100000e+001  4.696427e+001  2.696996e+001
      vertex -1.757673e+001  7.184479e+001  2.696996e+001
      vertex -1.800000e+001  6.796426e+001  2.696996e+001
    endloop
  endfacet
  facet normal  0.000000e+000  -0.000000e+000 -9.999999e-001
    outer loop
      vertex -2.100000e+001  4.696427e+001  2.696996e+001
      vertex -1.800000e+001  6.796426e+001  2.696996e+001
      vertex -1.760760e+001  6.422630e+001  2.696996e+001
    endloop
  endfacet
  facet normal  0.000000e+000  -0.000000e+000 -1.000000e+000
    outer loop
      vertex -2.100000e+001  4.696427e+001  2.696996e+001
      vertex -1.760760e+001  6.422630e+001  2.696996e+001
      vertex -1.644752e+001  6.065132e+001  2.696996e+001
    endloop
  endfacet
  facet normal  0.000000e+000  -0.000000e+000 -9.999999e-001
    outer loop
      vertex -2.100000e+001  4.696427e+001  2.696996e+001
      vertex -1.644752e+001  6.065132e+001  2.696996e+001
      vertex -1.457032e+001  5.739517e+001  2.696996e+001
    endloop
  endfacet
  facet normal  0.000000e+000  0.000000e+000 -1.000000e+000
    outer loop
      vertex -2.100000e+001  4.696427e+001  2.696996e+001
      vertex -1.457032e+001  5.739517e+001  2.696996e+001
      vertex -1.463759e+001  5.186131e+001  2.696996e+001
    endloop
  endfacet
  facet normal  0.000000e+000  -0.000000e+000 -1.000000e+000
    outer loop
      vertex -2.100000e+001  4.696427e+001  2.696996e+001
      vertex -1.463759e+001  5.186131e+001  2.696996e+001
      vertex -9.637957e+000  5.180054e+001  2.696996e+001
    endloop
  endfacet
  facet normal  0.000000e+000  0.000000e+000 -1.000000e+000
    outer loop
      vertex -2.100000e+001  4.696427e+001  2.696996e+001
      vertex -9.637957e+000  5.180054e+001  2.696996e+001
      vertex -9.696745e+000  4.696427e+001  2.696996e+001
    endloop
  endfacet
  facet normal  -0.000000e+000  0.000000e+000 -1.000000e+000
    outer loop
      vertex  9.360640e+000  5.156960e+001  2.696996e+001
      vertex  1.436027e+001  5.150882e+001  2.696996e+001
      vertex  9.304659e+000  4.696427e+001  2.696996e+001
    endloop
  endfacet
  facet normal  0.000000e+000  0.000000e+000 -1.000000e+000
    outer loop
      vertex  2.100000e+001  4.696427e+001  2.696996e+001
      vertex  9.304659e+000  4.696427e+001  2.696996e+001
      vertex  1.436027e+001  5.150882e+001  2.696996e+001
    endloop
  endfacet
  facet normal  0.000000e+000  0.000000e+000 -9.999999e-001
    outer loop
      vertex  2.100000e+001  4.696427e+001  2.696996e+001
      vertex  1.436027e+001  5.150882e+001  2.696996e+001
      vertex  1.442950e+001  5.720371e+001  2.696996e+001
    endloop
  endfacet
  facet normal  0.000000e+000  0.000000e+000 -1.000000e+000
    outer loop
      vertex  2.100000e+001  4.696427e+001  2.696996e+001
      vertex  1.442950e+001  5.720371e+001  2.696996e+001
      vertex  1.638250e+001  6.050682e+001  2.696996e+001
    endloop
  endfacet
  facet normal  0.000000e+000  0.000000e+000 -1.000000e+000
    outer loop
      vertex  2.100000e+001  4.696427e+001  2.696996e+001
      vertex  1.638250e+001  6.050682e+001  2.696996e+001
      vertex  1.759098e+001  6.414884e+001  2.696996e+001
    endloop
  endfacet
  facet normal  0.000000e+000  0.000000e+000 -1.000000e+000
    outer loop
      vertex  2.100000e+001  4.696427e+001  2.696996e+001
      vertex  1.759098e+001  6.414884e+001  2.696996e+001
      vertex  1.800000e+001  6.796426e+001  2.696996e+001
    endloop
  endfacet
  facet normal  0.000000e+000  0.000000e+000 -1.000000e+000
    outer loop
      vertex  2.100000e+001  4.696427e+001  2.696996e+001
      vertex  1.800000e+001  6.796426e+001  2.696996e+001
      vertex  1.762132e+001  7.163702e+001  2.696996e+001
    endloop
  endfacet
  facet normal  0.000000e+000  0.000000e+000 -1.000000e+000
    outer loop
      vertex  2.100000e+001  8.243040e+001  2.696996e+001
      vertex  2.100000e+001  4.696427e+001  2.696996e+001
      vertex  1.762132e+001  7.163702e+001  2.696996e+001
    endloop
  endfacet
  facet normal  0.000000e+000  0.000000e+000 -9.999999e-001
    outer loop
      vertex  2.100000e+001  8.243040e+001  2.696996e+001
      vertex  1.762132e+001  7.163702e+001  2.696996e+001
      vertex  1.650121e+001  7.515524e+001  2.696996e+001
    endloop
  endfacet
  facet normal  0.000000e+000  0.000000e+000 -1.000000e+000
    outer loop
      vertex  2.100000e+001  8.243040e+001  2.696996e+001
      vertex  1.650121e+001  7.515524e+001  2.696996e+001
      vertex  1.468680e+001  7.837090e+001  2.696996e+001
    endloop
  endfacet
  facet normal  0.000000e+000  0.000000e+000 -1.000000e+000
    outer loop
      vertex  2.100000e+001  8.243040e+001  2.696996e+001
      vertex  1.468680e+001  7.837090e+001  2.696996e+001
      vertex  1.473707e+001  8.250653e+001  2.696996e+001
    endloop
  endfacet
  facet normal  0.000000e+000  0.000000e+000 -1.000000e+000
    outer loop
      vertex  2.826781e+000  5.018762e+001  2.696996e+001
      vertex  2.787598e+000  4.696427e+001  2.696996e+001
      vertex -1.398337e-001  4.996481e+001  2.696996e+001
    endloop
  endfacet
  facet normal  0.000000e+000  -0.000000e+000 -1.000000e+000
    outer loop
      vertex -1.398337e-001  4.996481e+001  2.696996e+001
      vertex  2.787598e+000  4.696427e+001  2.696996e+001
      vertex -3.102628e+000  4.696427e+001  2.696996e+001
    endloop
  endfacet
  facet normal  0.000000e+000  0.000000e+000 -1.000000e+000
    outer loop
      vertex -1.398337e-001  4.996481e+001  2.696996e+001
      vertex -3.102628e+000  4.696427e+001  2.696996e+001
      vertex -3.102628e+000  5.023368e+001  2.696996e+001
    endloop
  endfacet
  facet normal -8.709258e-001 -4.914143e-001  -0.000000e+000
    outer loop
      vertex  1.650121e+001  7.515524e+001  2.696996e+001
      vertex  1.468680e+001  7.837090e+001  2.846996e+001
      vertex  1.468680e+001  7.837090e+001  2.696996e+001
    endloop
  endfacet
  facet normal -8.709258e-001 -4.914143e-001  0.000000e+000
    outer loop
      vertex  1.468680e+001  7.837090e+001  2.846996e+001
      vertex  1.650121e+001  7.515524e+001  2.696996e+001
      vertex  1.650121e+001  7.515524e+001  2.846996e+001
    endloop
  endfacet
  facet normal -9.528728e-001 -3.033700e-001  -0.000000e+000
    outer loop
      vertex  1.650121e+001  7.515524e+001  2.846996e+001
      vertex  1.650121e+001  7.515524e+001  2.696996e+001
      vertex  1.762132e+001  7.163702e+001  2.696996e+001
    endloop
  endfacet
  facet normal -9.528728e-001 -3.033700e-001  0.000000e+000
    outer loop
      vertex  1.650121e+001  7.515524e+001  2.846996e+001
      vertex  1.762132e+001  7.163702e+001  2.696996e+001
      vertex  1.762132e+001  7.163702e+001  2.846996e+001
    endloop
  endfacet
  facet normal -9.947266e-001 -1.025616e-001  -0.000000e+000
    outer loop
      vertex  1.762132e+001  7.163702e+001  2.846996e+001
      vertex  1.762132e+001  7.163702e+001  2.696996e+001
      vertex  1.800000e+001  6.796426e+001  2.696996e+001
    endloop
  endfacet
  facet normal -9.947266e-001 -1.025616e-001  0.000000e+000
    outer loop
      vertex  1.762132e+001  7.163702e+001  2.846996e+001
      vertex  1.800000e+001  6.796426e+001  2.696996e+001
      vertex  1.800000e+001  6.796426e+001  2.846996e+001
    endloop
  endfacet
  facet normal  9.941038e-001 -1.084317e-001  0.000000e+000
    outer loop
      vertex -1.757673e+001  7.184479e+001  2.696996e+001
      vertex -1.800000e+001  6.796426e+001  2.846996e+001
      vertex -1.800000e+001  6.796426e+001  2.696996e+001
    endloop
  endfacet
  facet normal  9.941038e-001 -1.084317e-001  0.000000e+000
    outer loop
      vertex -1.800000e+001  6.796426e+001  2.846996e+001
      vertex -1.757673e+001  7.184479e+001  2.696996e+001
      vertex -1.757673e+001  7.184479e+001  2.846996e+001
    endloop
  endfacet
  facet normal  9.473516e-001 -3.201951e-001  0.000000e+000
    outer loop
      vertex -1.757673e+001  7.184479e+001  2.846996e+001
      vertex -1.757673e+001  7.184479e+001  2.696996e+001
      vertex -1.632684e+001  7.554281e+001  2.696996e+001
    endloop
  endfacet
  facet normal  9.473516e-001 -3.201951e-001  0.000000e+000
    outer loop
      vertex -1.757673e+001  7.184479e+001  2.846996e+001
      vertex -1.632684e+001  7.554281e+001  2.696996e+001
      vertex -1.632684e+001  7.554281e+001  2.846996e+001
    endloop
  endfacet
  facet normal  8.560458e-001 -5.168998e-001  0.000000e+000
    outer loop
      vertex -1.632684e+001  7.554281e+001  2.846996e+001
      vertex -1.632684e+001  7.554281e+001  2.696996e+001
      vertex -1.430910e+001  7.888441e+001  2.696996e+001
    endloop
  endfacet
  facet normal  8.560458e-001 -5.168998e-001  0.000000e+000
    outer loop
      vertex -1.632684e+001  7.554281e+001  2.846996e+001
      vertex -1.430910e+001  7.888441e+001  2.696996e+001
      vertex -1.430910e+001  7.888441e+001  2.846996e+001
    endloop
  endfacet
  facet normal -8.617245e-001 -2.743507e-001  4.268050e-001
    outer loop
      vertex  1.771861e+001  7.188145e+001  2.882351e+001
      vertex  1.650121e+001  7.515524e+001  2.846996e+001
      vertex  1.762132e+001  7.163702e+001  2.846996e+001
    endloop
  endfacet
  facet normal -9.386820e-001 -1.025228e-001  3.291887e-001
    outer loop
      vertex  1.771861e+001  7.188145e+001  2.882351e+001
      vertex  1.762132e+001  7.163702e+001  2.846996e+001
      vertex  1.814645e+001  6.796426e+001  2.882351e+001
    endloop
  endfacet
  facet normal -9.090275e-001 -3.076792e-001  2.810742e-001
    outer loop
      vertex  1.645527e+001  7.561394e+001  2.882351e+001
      vertex  1.650121e+001  7.515524e+001  2.846996e+001
      vertex  1.771861e+001  7.188145e+001  2.882351e+001
    endloop
  endfacet
  facet normal -2.307586e-001 -1.395637e-001  9.629499e-001
    outer loop
      vertex  1.469688e+001  7.920045e+001  2.896996e+001
      vertex  1.469233e+001  7.882594e+001  2.891459e+001
      vertex  1.677588e+001  7.576298e+001  2.896996e+001
    endloop
  endfacet
  facet normal -9.197167e-001 -9.482771e-002  3.809577e-001
    outer loop
      vertex  1.800000e+001  6.796426e+001  2.846996e+001
      vertex  1.814645e+001  6.796426e+001  2.882351e+001
      vertex  1.762132e+001  7.163702e+001  2.846996e+001
    endloop
  endfacet
  facet normal -8.648803e-001 -4.880032e-001  1.176220e-001
    outer loop
      vertex  1.468680e+001  7.837090e+001  2.846996e+001
      vertex  1.650121e+001  7.515524e+001  2.846996e+001
      vertex  1.468719e+001  7.840305e+001  2.860622e+001
    endloop
  endfacet
  facet normal -7.585962e-001 -4.437223e-001  4.771186e-001
    outer loop
      vertex  1.468719e+001  7.840305e+001  2.860622e+001
      vertex  1.650121e+001  7.515524e+001  2.846996e+001
      vertex  1.645527e+001  7.561394e+001  2.882351e+001
    endloop
  endfacet
  facet normal -7.925943e-001 -4.724110e-001  3.855155e-001
    outer loop
      vertex  1.468719e+001  7.840305e+001  2.860622e+001
      vertex  1.645527e+001  7.561394e+001  2.882351e+001
      vertex  1.468864e+001  7.852234e+001  2.875539e+001
    endloop
  endfacet
  facet normal -5.715668e-001 -3.756147e-001  7.295375e-001
    outer loop
      vertex  1.469233e+001  7.882594e+001  2.891459e+001
      vertex  1.468864e+001  7.852234e+001  2.875539e+001
      vertex  1.677588e+001  7.576298e+001  2.896996e+001
    endloop
  endfacet
  facet normal -3.368359e-001 -1.829676e-001  9.236149e-001
    outer loop
      vertex  1.677588e+001  7.576298e+001  2.896996e+001
      vertex  1.468864e+001  7.852234e+001  2.875539e+001
      vertex  1.645527e+001  7.561394e+001  2.882351e+001
    endloop
  endfacet
  facet normal -3.643208e-001 -1.233122e-001  9.230734e-001
    outer loop
      vertex  1.677588e+001  7.576298e+001  2.896996e+001
      vertex  1.645527e+001  7.561394e+001  2.882351e+001
      vertex  1.806383e+001  7.195778e+001  2.896996e+001
    endloop
  endfacet
  facet normal -3.643191e-001 -1.233113e-001  9.230741e-001
    outer loop
      vertex  1.806383e+001  7.195778e+001  2.896996e+001
      vertex  1.645527e+001  7.561394e+001  2.882351e+001
      vertex  1.771861e+001  7.188145e+001  2.882351e+001
    endloop
  endfacet
  facet normal -3.823492e-001 -4.176025e-002  9.230738e-001
    outer loop
      vertex  1.806383e+001  7.195778e+001  2.896996e+001
      vertex  1.771861e+001  7.188145e+001  2.882351e+001
      vertex  1.850000e+001  6.796426e+001  2.896996e+001
    endloop
  endfacet
  facet normal -3.823484e-001 -4.176008e-002  9.230741e-001
    outer loop
      vertex  1.850000e+001  6.796426e+001  2.896996e+001
      vertex  1.771861e+001  7.188145e+001  2.882351e+001
      vertex  1.814645e+001  6.796426e+001  2.882351e+001
    endloop
  endfacet
  facet normal  7.794448e-001 -4.954287e-001  3.834271e-001
    outer loop
      vertex -1.627435e+001  7.599165e+001  2.882351e+001
      vertex -1.430871e+001  7.891627e+001  2.860661e+001
      vertex -1.430729e+001  7.903375e+001  2.875550e+001
    endloop
  endfacet
  facet normal  2.279420e-001 -1.470041e-001  9.625135e-001
    outer loop
      vertex -1.429916e+001  7.970242e+001  2.896996e+001
      vertex -1.659143e+001  7.614806e+001  2.896996e+001
      vertex -1.430365e+001  7.933290e+001  2.891459e+001
    endloop
  endfacet
  facet normal  9.187037e-001 -1.057083e-001  3.805381e-001
    outer loop
      vertex -1.814645e+001  6.796426e+001  2.882351e+001
      vertex -1.800000e+001  6.796426e+001  2.846996e+001
      vertex -1.767223e+001  7.208566e+001  2.882351e+001
    endloop
  endfacet
  facet normal  9.405054e-001 -1.025854e-001  3.239226e-001
    outer loop
      vertex -1.767223e+001  7.208566e+001  2.882351e+001
      vertex -1.800000e+001  6.796426e+001  2.846996e+001
      vertex -1.757673e+001  7.184479e+001  2.846996e+001
    endloop
  endfacet
  facet normal  8.475199e-001 -3.033102e-001  4.355604e-001
    outer loop
      vertex -1.767223e+001  7.208566e+001  2.882351e+001
      vertex -1.757673e+001  7.184479e+001  2.846996e+001
      vertex -1.627435e+001  7.599165e+001  2.882351e+001
    endloop
  endfacet
  facet normal  9.155484e-001 -3.094460e-001  2.569324e-001
    outer loop
      vertex -1.627435e+001  7.599165e+001  2.882351e+001
      vertex -1.757673e+001  7.184479e+001  2.846996e+001
      vertex -1.632684e+001  7.554281e+001  2.846996e+001
    endloop
  endfacet
  facet normal  7.443833e-001 -4.647390e-001  4.794906e-001
    outer loop
      vertex -1.627435e+001  7.599165e+001  2.882351e+001
      vertex -1.632684e+001  7.554281e+001  2.846996e+001
      vertex -1.430871e+001  7.891627e+001  2.860661e+001
    endloop
  endfacet
  facet normal  8.501410e-001 -5.133344e-001  1.172528e-001
    outer loop
      vertex -1.430871e+001  7.891627e+001  2.860661e+001
      vertex -1.632684e+001  7.554281e+001  2.846996e+001
      vertex -1.430910e+001  7.888441e+001  2.846996e+001
    endloop
  endfacet
  facet normal  6.089723e-001 -3.781830e-001  6.972306e-001
    outer loop
      vertex -1.430729e+001  7.903375e+001  2.875550e+001
      vertex -1.430365e+001  7.933290e+001  2.891459e+001
      vertex -1.627435e+001  7.599165e+001  2.882351e+001
    endloop
  endfacet
  facet normal  3.205107e-001 -2.141914e-001  9.227107e-001
    outer loop
      vertex -1.627435e+001  7.599165e+001  2.882351e+001
      vertex -1.430365e+001  7.933290e+001  2.891459e+001
      vertex -1.659143e+001  7.614806e+001  2.896996e+001
    endloop
  endfacet
  facet normal  3.623289e-001 -1.296702e-001  9.229861e-001
    outer loop
      vertex -1.627435e+001  7.599165e+001  2.882351e+001
      vertex -1.659143e+001  7.614806e+001  2.896996e+001
      vertex -1.767223e+001  7.208566e+001  2.882351e+001
    endloop
  endfacet
  facet normal  3.623312e-001 -1.296707e-001  9.229852e-001
    outer loop
      vertex -1.767223e+001  7.208566e+001  2.882351e+001
      vertex -1.659143e+001  7.614806e+001  2.896996e+001
      vertex -1.801654e+001  7.216596e+001  2.896996e+001
    endloop
  endfacet
  facet normal  3.823133e-001 -4.398992e-002  9.229850e-001
    outer loop
      vertex -1.767223e+001  7.208566e+001  2.882351e+001
      vertex -1.801654e+001  7.216596e+001  2.896996e+001
      vertex -1.814645e+001  6.796426e+001  2.882351e+001
    endloop
  endfacet
  facet normal  3.823118e-001 -4.398989e-002  9.229856e-001
    outer loop
      vertex -1.814645e+001  6.796426e+001  2.882351e+001
      vertex -1.801654e+001  7.216596e+001  2.896996e+001
      vertex -1.850000e+001  6.796426e+001  2.896996e+001
    endloop
  endfacet
  facet normal -9.943029e-001  1.065914e-001  0.000000e+000
    outer loop
      vertex  1.759098e+001  6.414884e+001  2.696996e+001
      vertex  1.800000e+001  6.796426e+001  2.846996e+001
      vertex  1.800000e+001  6.796426e+001  2.696996e+001
    endloop
  endfacet
  facet normal -9.943029e-001  1.065914e-001  0.000000e+000
    outer loop
      vertex  1.800000e+001  6.796426e+001  2.846996e+001
      vertex  1.759098e+001  6.414884e+001  2.696996e+001
      vertex  1.759098e+001  6.414884e+001  2.846996e+001
    endloop
  endfacet
  facet normal -9.491150e-001  3.149297e-001  0.000000e+000
    outer loop
      vertex  1.759098e+001  6.414884e+001  2.846996e+001
      vertex  1.759098e+001  6.414884e+001  2.696996e+001
      vertex  1.638250e+001  6.050682e+001  2.696996e+001
    endloop
  endfacet
  facet normal -9.491150e-001  3.149297e-001  0.000000e+000
    outer loop
      vertex  1.759098e+001  6.414884e+001  2.846996e+001
      vertex  1.638250e+001  6.050682e+001  2.696996e+001
      vertex  1.638250e+001  6.050682e+001  2.846996e+001
    endloop
  endfacet
  facet normal -8.607928e-001  5.089555e-001  0.000000e+000
    outer loop
      vertex  1.638250e+001  6.050682e+001  2.846996e+001
      vertex  1.638250e+001  6.050682e+001  2.696996e+001
      vertex  1.442950e+001  5.720371e+001  2.696996e+001
    endloop
  endfacet
  facet normal -8.607928e-001  5.089555e-001  0.000000e+000
    outer loop
      vertex  1.638250e+001  6.050682e+001  2.846996e+001
      vertex  1.442950e+001  5.720371e+001  2.696996e+001
      vertex  1.442950e+001  5.720371e+001  2.846996e+001
    endloop
  endfacet
  facet normal  8.663409e-001  4.994531e-001  0.000000e+000
    outer loop
      vertex -1.644752e+001  6.065132e+001  2.696996e+001
      vertex -1.457032e+001  5.739517e+001  2.846996e+001
      vertex -1.457032e+001  5.739517e+001  2.696996e+001
    endloop
  endfacet
  facet normal  8.663409e-001  4.994531e-001  -0.000000e+000
    outer loop
      vertex -1.457032e+001  5.739517e+001  2.846996e+001
      vertex -1.644752e+001  6.065132e+001  2.696996e+001
      vertex -1.644752e+001  6.065132e+001  2.846996e+001
    endloop
  endfacet
  facet normal  9.511735e-001  3.086566e-001  0.000000e+000
    outer loop
      vertex -1.644752e+001  6.065132e+001  2.846996e+001
      vertex -1.644752e+001  6.065132e+001  2.696996e+001
      vertex -1.760760e+001  6.422630e+001  2.696996e+001
    endloop
  endfacet
  facet normal  9.511735e-001  3.086566e-001  -0.000000e+000
    outer loop
      vertex -1.644752e+001  6.065132e+001  2.846996e+001
      vertex -1.760760e+001  6.422630e+001  2.696996e+001
      vertex -1.760760e+001  6.422630e+001  2.846996e+001
    endloop
  endfacet
  facet normal  9.945351e-001  1.044030e-001  0.000000e+000
    outer loop
      vertex -1.760760e+001  6.422630e+001  2.846996e+001
      vertex -1.760760e+001  6.422630e+001  2.696996e+001
      vertex -1.800000e+001  6.796426e+001  2.696996e+001
    endloop
  endfacet
  facet normal  9.945351e-001  1.044030e-001  -0.000000e+000
    outer loop
      vertex -1.760760e+001  6.422630e+001  2.846996e+001
      vertex -1.800000e+001  6.796426e+001  2.696996e+001
      vertex -1.800000e+001  6.796426e+001  2.846996e+001
    endloop
  endfacet
  facet normal -7.489450e-002  9.971915e-001  0.000000e+000
    outer loop
      vertex  2.826781e+000  5.018762e+001  2.696996e+001
      vertex -1.398337e-001  4.996481e+001  2.696996e+001
      vertex  2.826781e+000  5.018762e+001  2.846996e+001
    endloop
  endfacet
  facet normal -7.489450e-002  9.971915e-001  0.000000e+000
    outer loop
      vertex  2.826781e+000  5.018762e+001  2.846996e+001
      vertex -1.398337e-001  4.996481e+001  2.696996e+001
      vertex -1.398337e-001  4.996481e+001  2.846996e+001
    endloop
  endfacet
  facet normal  9.037784e-002  9.959075e-001  0.000000e+000
    outer loop
      vertex -1.398337e-001  4.996481e+001  2.696996e+001
      vertex -3.102628e+000  5.023368e+001  2.696996e+001
      vertex -1.398337e-001  4.996481e+001  2.846996e+001
    endloop
  endfacet
  facet normal  9.037784e-002  9.959075e-001  0.000000e+000
    outer loop
      vertex -1.398337e-001  4.996481e+001  2.846996e+001
      vertex -3.102628e+000  5.023368e+001  2.696996e+001
      vertex -3.102628e+000  5.023368e+001  2.846996e+001
    endloop
  endfacet
  facet normal -7.838288e-001  4.886553e-001  3.831820e-001
    outer loop
      vertex  1.632914e+001  6.004892e+001  2.882351e+001
      vertex  1.442910e+001  5.717155e+001  2.860622e+001
      vertex  1.442766e+001  5.705226e+001  2.875539e+001
    endloop
  endfacet
  facet normal -2.292716e-001  1.450879e-001  9.624884e-001
    outer loop
      vertex  1.441941e+001  5.637416e+001  2.896996e+001
      vertex  1.664729e+001  5.989471e+001  2.896996e+001
      vertex  1.442396e+001  5.674867e+001  2.891459e+001
    endloop
  endfacet
  facet normal -9.188578e-001  1.041272e-001  3.806019e-001
    outer loop
      vertex  1.814645e+001  6.796426e+001  2.882351e+001
      vertex  1.800000e+001  6.796426e+001  2.846996e+001
      vertex  1.768629e+001  6.390363e+001  2.882351e+001
    endloop
  endfacet
  facet normal -9.408153e-001  1.008574e-001  3.235650e-001
    outer loop
      vertex  1.768629e+001  6.390363e+001  2.882351e+001
      vertex  1.800000e+001  6.796426e+001  2.846996e+001
      vertex  1.759098e+001  6.414884e+001  2.846996e+001
    endloop
  endfacet
  facet normal -8.488293e-001  2.988514e-001  4.360924e-001
    outer loop
      vertex  1.768629e+001  6.390363e+001  2.882351e+001
      vertex  1.759098e+001  6.414884e+001  2.846996e+001
      vertex  1.632914e+001  6.004892e+001  2.882351e+001
    endloop
  endfacet
  facet normal -9.175338e-001  3.044506e-001  2.558157e-001
    outer loop
      vertex  1.632914e+001  6.004892e+001  2.882351e+001
      vertex  1.759098e+001  6.414884e+001  2.846996e+001
      vertex  1.638250e+001  6.050682e+001  2.846996e+001
    endloop
  endfacet
  facet normal -7.482749e-001  4.578627e-001  4.800484e-001
    outer loop
      vertex  1.632914e+001  6.004892e+001  2.882351e+001
      vertex  1.638250e+001  6.050682e+001  2.846996e+001
      vertex  1.442910e+001  5.717155e+001  2.860622e+001
    endloop
  endfacet
  facet normal -8.548988e-001  5.054705e-001  1.168232e-001
    outer loop
      vertex  1.442910e+001  5.717155e+001  2.860622e+001
      vertex  1.638250e+001  6.050682e+001  2.846996e+001
      vertex  1.442950e+001  5.720371e+001  2.846996e+001
    endloop
  endfacet
  facet normal -6.126289e-001  3.728915e-001  6.968772e-001
    outer loop
      vertex  1.442766e+001  5.705226e+001  2.875539e+001
      vertex  1.442396e+001  5.674867e+001  2.891459e+001
      vertex  1.632914e+001  6.004892e+001  2.882351e+001
    endloop
  endfacet
  facet normal -3.222323e-001  2.114835e-001  9.227356e-001
    outer loop
      vertex  1.632914e+001  6.004892e+001  2.882351e+001
      vertex  1.442396e+001  5.674867e+001  2.891459e+001
      vertex  1.664729e+001  5.989471e+001  2.896996e+001
    endloop
  endfacet
  facet normal -3.629338e-001  1.277798e-001  9.230121e-001
    outer loop
      vertex  1.632914e+001  6.004892e+001  2.882351e+001
      vertex  1.664729e+001  5.989471e+001  2.896996e+001
      vertex  1.768629e+001  6.390363e+001  2.882351e+001
    endloop
  endfacet
  facet normal -3.629315e-001  1.277793e-001  9.230131e-001
    outer loop
      vertex  1.768629e+001  6.390363e+001  2.882351e+001
      vertex  1.664729e+001  5.989471e+001  2.896996e+001
      vertex  1.803087e+001  6.382451e+001  2.896996e+001
    endloop
  endfacet
  facet normal -3.823218e-001  4.332562e-002  9.230130e-001
    outer loop
      vertex  1.768629e+001  6.390363e+001  2.882351e+001
      vertex  1.803087e+001  6.382451e+001  2.896996e+001
      vertex  1.814645e+001  6.796426e+001  2.882351e+001
    endloop
  endfacet
  facet normal -3.823229e-001  4.332564e-002  9.230126e-001
    outer loop
      vertex  1.814645e+001  6.796426e+001  2.882351e+001
      vertex  1.803087e+001  6.382451e+001  2.896996e+001
      vertex  1.850000e+001  6.796426e+001  2.896996e+001
    endloop
  endfacet
  facet normal  8.602521e-001  2.791525e-001  4.266617e-001
    outer loop
      vertex -1.770504e+001  6.398621e+001  2.882351e+001
      vertex -1.644752e+001  6.065132e+001  2.846996e+001
      vertex -1.760760e+001  6.422630e+001  2.846996e+001
    endloop
  endfacet
  facet normal  9.384461e-001  1.041294e-001  3.293570e-001
    outer loop
      vertex -1.770504e+001  6.398621e+001  2.882351e+001
      vertex -1.760760e+001  6.422630e+001  2.846996e+001
      vertex -1.814645e+001  6.796426e+001  2.882351e+001
    endloop
  endfacet
  facet normal  9.073909e-001  3.123477e-001  2.812130e-001
    outer loop
      vertex -1.640231e+001  6.020168e+001  2.882351e+001
      vertex -1.644752e+001  6.065132e+001  2.846996e+001
      vertex -1.770504e+001  6.398621e+001  2.882351e+001
    endloop
  endfacet
  facet normal  2.295040e-001  1.415124e-001  9.629653e-001
    outer loop
      vertex -1.458026e+001  5.657717e+001  2.896996e+001
      vertex -1.457577e+001  5.694669e+001  2.891459e+001
      vertex -1.672188e+001  6.005044e+001  2.896996e+001
    endloop
  endfacet
  facet normal  9.195653e-001  9.653294e-002  3.808950e-001
    outer loop
      vertex -1.800000e+001  6.796426e+001  2.846996e+001
      vertex -1.814645e+001  6.796426e+001  2.882351e+001
      vertex -1.760760e+001  6.422630e+001  2.846996e+001
    endloop
  endfacet
  facet normal  8.602833e-001  4.959608e-001  1.180498e-001
    outer loop
      vertex -1.457032e+001  5.739517e+001  2.846996e+001
      vertex -1.644752e+001  6.065132e+001  2.846996e+001
      vertex -1.457071e+001  5.736332e+001  2.860661e+001
    endloop
  endfacet
  facet normal  7.548109e-001  4.506583e-001  4.766210e-001
    outer loop
      vertex -1.457071e+001  5.736332e+001  2.860661e+001
      vertex -1.644752e+001  6.065132e+001  2.846996e+001
      vertex -1.640231e+001  6.020168e+001  2.882351e+001
    endloop
  endfacet
  facet normal  7.883695e-001  4.792602e-001  3.857243e-001
    outer loop
      vertex -1.457071e+001  5.736332e+001  2.860661e+001
      vertex -1.640231e+001  6.020168e+001  2.882351e+001
      vertex -1.457213e+001  5.724583e+001  2.875550e+001
    endloop
  endfacet
  facet normal  5.692664e-001  3.806222e-001  7.287404e-001
    outer loop
      vertex -1.457577e+001  5.694669e+001  2.891459e+001
      vertex -1.457213e+001  5.724583e+001  2.875550e+001
      vertex -1.672188e+001  6.005044e+001  2.896996e+001
    endloop
  endfacet
  facet normal  3.351039e-001  1.862358e-001  9.235917e-001
    outer loop
      vertex -1.672188e+001  6.005044e+001  2.896996e+001
      vertex -1.457213e+001  5.724583e+001  2.875550e+001
      vertex -1.640231e+001  6.020168e+001  2.882351e+001
    endloop
  endfacet
  facet normal  3.637371e-001  1.252078e-001  9.230483e-001
    outer loop
      vertex -1.672188e+001  6.005044e+001  2.896996e+001
      vertex -1.640231e+001  6.020168e+001  2.882351e+001
      vertex -1.805000e+001  6.390870e+001  2.896996e+001
    endloop
  endfacet
  facet normal  3.637373e-001  1.252079e-001  9.230483e-001
    outer loop
      vertex -1.805000e+001  6.390870e+001  2.896996e+001
      vertex -1.640231e+001  6.020168e+001  2.882351e+001
      vertex -1.770504e+001  6.398621e+001  2.882351e+001
    endloop
  endfacet
  facet normal  3.823379e-001  4.242398e-002  9.230483e-001
    outer loop
      vertex -1.805000e+001  6.390870e+001  2.896996e+001
      vertex -1.770504e+001  6.398621e+001  2.882351e+001
      vertex -1.850000e+001  6.796426e+001  2.896996e+001
    endloop
  endfacet
  facet normal  3.823377e-001  4.242396e-002  9.230483e-001
    outer loop
      vertex -1.850000e+001  6.796426e+001  2.896996e+001
      vertex -1.770504e+001  6.398621e+001  2.882351e+001
      vertex -1.814645e+001  6.796426e+001  2.882351e+001
    endloop
  endfacet
  facet normal -7.121474e-002  9.481969e-001  3.095985e-001
    outer loop
      vertex  2.826781e+000  5.018762e+001  2.846996e+001
      vertex -1.398337e-001  4.996481e+001  2.846996e+001
      vertex  2.825621e+000  5.009224e+001  2.876182e+001
    endloop
  endfacet
  facet normal -7.711457e-002  9.212202e-001  3.813224e-001
    outer loop
      vertex  2.825621e+000  5.009224e+001  2.876182e+001
      vertex -1.398337e-001  4.996481e+001  2.846996e+001
      vertex -1.409714e-001  4.981837e+001  2.882351e+001
    endloop
  endfacet
  facet normal -4.384609e-002  6.465237e-001  7.616329e-001
    outer loop
      vertex  2.825621e+000  5.009224e+001  2.876182e+001
      vertex -1.409714e-001  4.981837e+001  2.882351e+001
      vertex  2.823426e+000  4.991164e+001  2.891499e+001
    endloop
  endfacet
  facet normal -4.052100e-002  3.825551e-001  9.230437e-001
    outer loop
      vertex  2.823426e+000  4.991164e+001  2.891499e+001
      vertex -1.409714e-001  4.981837e+001  2.882351e+001
      vertex -1.428481e-001  4.946482e+001  2.896996e+001
    endloop
  endfacet
  facet normal -1.685838e-002  2.315753e-001  9.726709e-001
    outer loop
      vertex  2.823426e+000  4.991164e+001  2.891499e+001
      vertex -1.428481e-001  4.946482e+001  2.896996e+001
      vertex  2.820617e+000  4.968055e+001  2.896996e+001
    endloop
  endfacet
  facet normal  8.354001e-002  9.205589e-001  3.815655e-001
    outer loop
      vertex -1.398337e-001  4.996481e+001  2.846996e+001
      vertex -3.102628e+000  5.023368e+001  2.846996e+001
      vertex -1.409714e-001  4.981837e+001  2.882351e+001
    endloop
  endfacet
  facet normal  9.573965e-002  9.461063e-001  3.093814e-001
    outer loop
      vertex -1.409714e-001  4.981837e+001  2.882351e+001
      vertex -3.102628e+000  5.023368e+001  2.846996e+001
      vertex -3.102628e+000  5.013824e+001  2.876181e+001
    endloop
  endfacet
  facet normal  2.206689e-002  3.824926e-001  9.236950e-001
    outer loop
      vertex -1.409714e-001  4.981837e+001  2.882351e+001
      vertex -3.102628e+000  5.013824e+001  2.876181e+001
      vertex -1.428481e-001  4.946482e+001  2.896996e+001
    endloop
  endfacet
  facet normal  9.306711e-002  6.437986e-001  7.595143e-001
    outer loop
      vertex -1.428481e-001  4.946482e+001  2.896996e+001
      vertex -3.102628e+000  5.013824e+001  2.876181e+001
      vertex -3.102628e+000  4.995753e+001  2.891499e+001
    endloop
  endfacet
  facet normal  2.042702e-002  2.312251e-001  9.726858e-001
    outer loop
      vertex -1.428481e-001  4.946482e+001  2.896996e+001
      vertex -3.102628e+000  4.995753e+001  2.891499e+001
      vertex -3.102628e+000  4.972629e+001  2.896996e+001
    endloop
  endfacet
  facet normal  0.000000e+000 -9.999999e-001  0.000000e+000
    outer loop
      vertex  2.787598e+000  4.696427e+001  2.396996e+001
      vertex  9.304659e+000  4.696427e+001  2.396996e+001
      vertex  2.787598e+000  4.696427e+001  2.496996e+001
    endloop
  endfacet
  facet normal  0.000000e+000 -9.999999e-001  0.000000e+000
    outer loop
      vertex  2.787598e+000  4.696427e+001  2.496996e+001
      vertex  9.304659e+000  4.696427e+001  2.396996e+001
      vertex  9.304659e+000  4.696427e+001  2.496996e+001
    endloop
  endfacet
  facet normal  0.000000e+000 -1.000000e+000  0.000000e+000
    outer loop
      vertex -9.696745e+000  4.696427e+001  2.396996e+001
      vertex -3.102628e+000  4.696427e+001  2.396996e+001
      vertex -9.696745e+000  4.696427e+001  2.496996e+001
    endloop
  endfacet
  facet normal  0.000000e+000 -1.000000e+000  0.000000e+000
    outer loop
      vertex -9.696745e+000  4.696427e+001  2.496996e+001
      vertex -3.102628e+000  4.696427e+001  2.396996e+001
      vertex -3.102628e+000  4.696427e+001  2.496996e+001
    endloop
  endfacet
  facet normal -9.999261e-001  1.215481e-002  0.000000e+000
    outer loop
      vertex -9.696745e+000  4.696427e+001  2.696996e+001
      vertex -9.637957e+000  5.180054e+001  2.696996e+001
      vertex -9.696745e+000  4.696427e+001  2.496996e+001
    endloop
  endfacet
  facet normal -9.999261e-001  1.215480e-002  0.000000e+000
    outer loop
      vertex -9.696745e+000  4.696427e+001  2.496996e+001
      vertex -9.637957e+000  5.180054e+001  2.696996e+001
      vertex -9.637957e+000  5.180054e+001  2.396996e+001
    endloop
  endfacet
  facet normal -9.999261e-001  1.215481e-002  0.000000e+000
    outer loop
      vertex -9.696745e+000  4.696427e+001  2.496996e+001
      vertex -9.637957e+000  5.180054e+001  2.396996e+001
      vertex -9.696745e+000  4.696427e+001  2.396996e+001
    endloop
  endfacet
  facet normal -1.215439e-002 -9.999261e-001  -0.000000e+000
    outer loop
      vertex -9.637957e+000  5.180054e+001  2.396996e+001
      vertex -9.637957e+000  5.180054e+001  2.696996e+001
      vertex -1.463759e+001  5.186131e+001  2.396996e+001
    endloop
  endfacet
  facet normal -1.215439e-002 -9.999261e-001  0.000000e+000
    outer loop
      vertex -1.463759e+001  5.186131e+001  2.396996e+001
      vertex -9.637957e+000  5.180054e+001  2.696996e+001
      vertex -1.463759e+001  5.186131e+001  2.696996e+001
    endloop
  endfacet
  facet normal -1.215435e-002 -9.999261e-001  0.000000e+000
    outer loop
      vertex -2.100000e+001  8.294094e+001  2.696996e+001
      vertex -2.100000e+001  8.294094e+001  2.496996e+001
      vertex -1.426079e+001  8.285902e+001  2.696996e+001
    endloop
  endfacet
  facet normal -1.215435e-002 -9.999261e-001  0.000000e+000
    outer loop
      vertex -1.426079e+001  8.285902e+001  2.696996e+001
      vertex -2.100000e+001  8.294094e+001  2.496996e+001
      vertex -2.100000e+001  8.294094e+001  2.396996e+001
    endloop
  endfacet
  facet normal -1.215435e-002 -9.999261e-001  0.000000e+000
    outer loop
      vertex -1.426079e+001  8.285902e+001  2.696996e+001
      vertex -2.100000e+001  8.294094e+001  2.396996e+001
      vertex -1.426079e+001  8.285902e+001  2.396996e+001
    endloop
  endfacet
  facet normal -1.000000e+000  0.000000e+000  0.000000e+000
    outer loop
      vertex -2.100000e+001  9.033655e+001  2.396996e+001
      vertex -2.100000e+001  8.294094e+001  2.396996e+001
      vertex -2.100000e+001  9.033655e+001  2.496996e+001
    endloop
  endfacet
  facet normal -1.000000e+000  -0.000000e+000  0.000000e+000
    outer loop
      vertex -2.100000e+001  9.033655e+001  2.496996e+001
      vertex -2.100000e+001  8.294094e+001  2.396996e+001
      vertex -2.100000e+001  8.294094e+001  2.496996e+001
    endloop
  endfacet
  facet normal  1.957927e-002  9.998083e-001  0.000000e+000
    outer loop
      vertex -2.100000e+001  9.033655e+001  2.396996e+001
      vertex -2.100000e+001  9.033655e+001  2.496996e+001
      vertex  2.100000e+001  8.951406e+001  2.396996e+001
    endloop
  endfacet
  facet normal  1.957927e-002  9.998083e-001  -0.000000e+000
    outer loop
      vertex  2.100000e+001  8.951406e+001  2.696996e+001
      vertex  2.100000e+001  8.951406e+001  2.496996e+001
      vertex -2.100000e+001  9.033655e+001  2.696996e+001
    endloop
  endfacet
  facet normal  1.957927e-002  9.998083e-001  0.000000e+000
    outer loop
      vertex -2.100000e+001  9.033655e+001  2.696996e+001
      vertex  2.100000e+001  8.951406e+001  2.496996e+001
      vertex  2.100000e+001  8.951406e+001  2.396996e+001
    endloop
  endfacet
  facet normal  1.957927e-002  9.998083e-001  0.000000e+000
    outer loop
      vertex -2.100000e+001  9.033655e+001  2.696996e+001
      vertex  2.100000e+001  8.951406e+001  2.396996e+001
      vertex -2.100000e+001  9.033655e+001  2.496996e+001
    endloop
  endfacet
  facet normal  1.000000e+000  0.000000e+000  0.000000e+000
    outer loop
      vertex  2.100000e+001  8.243040e+001  2.396996e+001
      vertex  2.100000e+001  8.951406e+001  2.396996e+001
      vertex  2.100000e+001  8.243040e+001  2.496996e+001
    endloop
  endfacet
  facet normal  1.000000e+000  -0.000000e+000  0.000000e+000
    outer loop
      vertex  2.100000e+001  8.243040e+001  2.496996e+001
      vertex  2.100000e+001  8.951406e+001  2.396996e+001
      vertex  2.100000e+001  8.951406e+001  2.496996e+001
    endloop
  endfacet
  facet normal -1.215413e-002 -9.999261e-001  -0.000000e+000
    outer loop
      vertex  2.100000e+001  8.243040e+001  2.396996e+001
      vertex  2.100000e+001  8.243040e+001  2.496996e+001
      vertex  1.473707e+001  8.250653e+001  2.396996e+001
    endloop
  endfacet
  facet normal -1.215413e-002 -9.999261e-001  0.000000e+000
    outer loop
      vertex  1.473707e+001  8.250653e+001  2.396996e+001
      vertex  2.100000e+001  8.243040e+001  2.496996e+001
      vertex  2.100000e+001  8.243040e+001  2.696996e+001
    endloop
  endfacet
  facet normal -1.215413e-002 -9.999261e-001  0.000000e+000
    outer loop
      vertex  1.473707e+001  8.250653e+001  2.396996e+001
      vertex  2.100000e+001  8.243040e+001  2.696996e+001
      vertex  1.473707e+001  8.250653e+001  2.696996e+001
    endloop
  endfacet
  facet normal -1.215515e-002 -9.999261e-001  -0.000000e+000
    outer loop
      vertex  1.436027e+001  5.150882e+001  2.396996e+001
      vertex  1.436027e+001  5.150882e+001  2.696996e+001
      vertex  9.360640e+000  5.156960e+001  2.396996e+001
    endloop
  endfacet
  facet normal -1.215515e-002 -9.999261e-001  0.000000e+000
    outer loop
      vertex  9.360640e+000  5.156960e+001  2.396996e+001
      vertex  1.436027e+001  5.150882e+001  2.696996e+001
      vertex  9.360640e+000  5.156960e+001  2.696996e+001
    endloop
  endfacet
  facet normal  9.999260e-001 -1.215473e-002  0.000000e+000
    outer loop
      vertex  9.304659e+000  4.696427e+001  2.696996e+001
      vertex  9.304659e+000  4.696427e+001  2.496996e+001
      vertex  9.360640e+000  5.156960e+001  2.696996e+001
    endloop
  endfacet
  facet normal  9.999260e-001 -1.215473e-002  0.000000e+000
    outer loop
      vertex  9.360640e+000  5.156960e+001  2.696996e+001
      vertex  9.304659e+000  4.696427e+001  2.496996e+001
      vertex  9.304659e+000  4.696427e+001  2.396996e+001
    endloop
  endfacet
  facet normal  9.999262e-001 -1.215473e-002  0.000000e+000
    outer loop
      vertex  9.360640e+000  5.156960e+001  2.696996e+001
      vertex  9.304659e+000  4.696427e+001  2.396996e+001
      vertex  9.360640e+000  5.156960e+001  2.396996e+001
    endloop
  endfacet
  facet normal  0.000000e+000  0.000000e+000 -1.000000e+000
    outer loop
      vertex  2.100000e+001  8.951406e+001  2.496996e+001
      vertex  2.100000e+001  1.029643e+002  2.496996e+001
      vertex  3.300000e+001  1.029643e+002  2.496996e+001
    endloop
  endfacet
  facet normal  0.000000e+000  0.000000e+000 -1.000000e+000
    outer loop
      vertex  3.300000e+001  3.696427e+001  2.496996e+001
      vertex -3.300000e+001  4.696427e+001  2.496996e+001
      vertex -2.100000e+001  4.696427e+001  2.496996e+001
    endloop
  endfacet
  facet normal  0.000000e+000  0.000000e+000 -1.000000e+000
    outer loop
      vertex  3.300000e+001  3.696427e+001  2.496996e+001
      vertex -2.100000e+001  4.696427e+001  2.496996e+001
      vertex -9.696745e+000  4.696427e+001  2.496996e+001
    endloop
  endfacet
  facet normal  0.000000e+000  0.000000e+000 -1.000000e+000
    outer loop
      vertex  3.300000e+001  3.696427e+001  2.496996e+001
      vertex -9.696745e+000  4.696427e+001  2.496996e+001
      vertex -3.102628e+000  4.696427e+001  2.496996e+001
    endloop
  endfacet
  facet normal  0.000000e+000  0.000000e+000 -1.000000e+000
    outer loop
      vertex  3.300000e+001  3.696427e+001  2.496996e+001
      vertex -3.102628e+000  4.696427e+001  2.496996e+001
      vertex  2.787598e+000  4.696427e+001  2.496996e+001
    endloop
  endfacet
  facet normal  0.000000e+000  0.000000e+000 -1.000000e+000
    outer loop
      vertex  3.300000e+001  3.696427e+001  2.496996e+001
      vertex  2.787598e+000  4.696427e+001  2.496996e+001
      vertex  9.304659e+000  4.696427e+001  2.496996e+001
    endloop
  endfacet
  facet normal  0.000000e+000  0.000000e+000 -1.000000e+000
    outer loop
      vertex  3.300000e+001  3.696427e+001  2.496996e+001
      vertex  9.304659e+000  4.696427e+001  2.496996e+001
      vertex  2.100000e+001  4.696427e+001  2.496996e+001
    endloop
  endfacet
  facet normal  0.000000e+000  0.000000e+000 -1.000000e+000
    outer loop
      vertex  3.300000e+001  3.696427e+001  2.496996e+001
      vertex  2.100000e+001  4.696427e+001  2.496996e+001
      vertex  3.300000e+001  4.696427e+001  2.496996e+001
    endloop
  endfacet
  facet normal  0.000000e+000  0.000000e+000 -1.000000e+000
    outer loop
      vertex -3.300000e+001  4.696427e+001  2.496996e+001
      vertex  3.300000e+001  3.696427e+001  2.496996e+001
      vertex  5.000000e+000  3.696427e+001  2.496996e+001
    endloop
  endfacet
  facet normal  0.000000e+000  0.000000e+000 -1.000000e+000
    outer loop
      vertex -3.300000e+001  4.696427e+001  2.496996e+001
      vertex  5.000000e+000  3.696427e+001  2.496996e+001
      vertex -5.000000e+000  3.696427e+001  2.496996e+001
    endloop
  endfacet
  facet normal  0.000000e+000  0.000000e+000 -1.000000e+000
    outer loop
      vertex -3.300000e+001  4.696427e+001  2.496996e+001
      vertex -5.000000e+000  3.696427e+001  2.496996e+001
      vertex -3.300000e+001  3.696427e+001  2.496996e+001
    endloop
  endfacet
  facet normal  -0.000000e+000  -0.000000e+000 -1.000000e+000
    outer loop
      vertex -3.300000e+001  1.029643e+002  2.496996e+001
      vertex -2.100000e+001  1.029643e+002  2.496996e+001
      vertex -2.100000e+001  9.033655e+001  2.496996e+001
    endloop
  endfacet
  facet normal  -0.000000e+000  -0.000000e+000 -1.000000e+000
    outer loop
      vertex -3.300000e+001  1.029643e+002  2.496996e+001
      vertex -2.100000e+001  9.033655e+001  2.496996e+001
      vertex -2.100000e+001  8.294094e+001  2.496996e+001
    endloop
  endfacet
  facet normal  -0.000000e+000  -0.000000e+000 -1.000000e+000
    outer loop
      vertex -3.300000e+001  1.029643e+002  2.496996e+001
      vertex -2.100000e+001  8.294094e+001  2.496996e+001
      vertex -2.100000e+001  4.696427e+001  2.496996e+001
    endloop
  endfacet
  facet normal  0.000000e+000  0.000000e+000 -1.000000e+000
    outer loop
      vertex -3.300000e+001  1.029643e+002  2.496996e+001
      vertex -2.100000e+001  4.696427e+001  2.496996e+001
      vertex -3.300000e+001  4.696427e+001  2.496996e+001
    endloop
  endfacet
  facet normal  -0.000000e+000  0.000000e+000 -1.000000e+000
    outer loop
      vertex -5.000000e+000  3.696427e+001  2.496996e+001
      vertex  5.000000e+000  3.696427e+001  2.496996e+001
      vertex -5.000000e+000  2.415810e+001  2.496996e+001
    endloop
  endfacet
  facet normal  0.000000e+000  0.000000e+000 -1.000000e+000
    outer loop
      vertex -5.000000e+000  2.415810e+001  2.496996e+001
      vertex  5.000000e+000  3.696427e+001  2.496996e+001
      vertex  5.000000e+000  2.415810e+001  2.496996e+001
    endloop
  endfacet
  facet normal  0.000000e+000  0.000000e+000 -1.000000e+000
    outer loop
      vertex  3.300000e+001  4.696427e+001  2.496996e+001
      vertex  2.100000e+001  4.696427e+001  2.496996e+001
      vertex  3.300000e+001  1.029643e+002  2.496996e+001
    endloop
  endfacet
  facet normal  0.000000e+000  0.000000e+000 -1.000000e+000
    outer loop
      vertex  3.300000e+001  1.029643e+002  2.496996e+001
      vertex  2.100000e+001  4.696427e+001  2.496996e+001
      vertex  2.100000e+001  8.243040e+001  2.496996e+001
    endloop
  endfacet
  facet normal  0.000000e+000  0.000000e+000 -1.000000e+000
    outer loop
      vertex  3.300000e+001  1.029643e+002  2.496996e+001
      vertex  2.100000e+001  8.243040e+001  2.496996e+001
      vertex  2.100000e+001  8.951406e+001  2.496996e+001
    endloop
  endfacet
  facet normal  0.000000e+000  -0.000000e+000 -1.000000e+000
    outer loop
      vertex  1.473707e+001  8.250653e+001  2.396996e+001
      vertex  2.100000e+001  8.951406e+001  2.396996e+001
      vertex  2.100000e+001  8.243040e+001  2.396996e+001
    endloop
  endfacet
  facet normal  0.000000e+000  0.000000e+000 -1.000000e+000
    outer loop
      vertex -1.426079e+001  8.285902e+001  2.396996e+001
      vertex -2.100000e+001  8.294094e+001  2.396996e+001
      vertex -2.100000e+001  9.033655e+001  2.396996e+001
    endloop
  endfacet
  facet normal  0.000000e+000  0.000000e+000 -1.000000e+000
    outer loop
      vertex -1.426079e+001  8.285902e+001  2.396996e+001
      vertex -2.100000e+001  9.033655e+001  2.396996e+001
      vertex  2.100000e+001  8.951406e+001  2.396996e+001
    endloop
  endfacet
  facet normal  0.000000e+000  0.000000e+000 -1.000000e+000
    outer loop
      vertex -1.426079e+001  8.285902e+001  2.396996e+001
      vertex  2.100000e+001  8.951406e+001  2.396996e+001
      vertex  1.473707e+001  8.250653e+001  2.396996e+001
    endloop
  endfacet
  facet normal  -0.000000e+000  0.000000e+000 -1.000000e+000
    outer loop
      vertex -1.426079e+001  8.285902e+001  2.396996e+001
      vertex  1.473707e+001  8.250653e+001  2.396996e+001
      vertex -6.297843e+000  7.976201e+001  2.396996e+001
    endloop
  endfacet
  facet normal  -0.000000e+000  0.000000e+000 -1.000000e+000
    outer loop
      vertex -1.426079e+001  8.285902e+001  2.396996e+001
      vertex -6.297843e+000  7.976201e+001  2.396996e+001
      vertex -6.577404e+000  5.676371e+001  2.396996e+001
    endloop
  endfacet
  facet normal  -0.000000e+000  0.000000e+000 -1.000000e+000
    outer loop
      vertex -1.426079e+001  8.285902e+001  2.396996e+001
      vertex -6.577404e+000  5.676371e+001  2.396996e+001
      vertex -1.463759e+001  5.186131e+001  2.396996e+001
    endloop
  endfacet
  facet normal  0.000000e+000  0.000000e+000 -1.000000e+000
    outer loop
      vertex -3.102628e+000  5.672147e+001  2.396996e+001
      vertex -3.102628e+000  4.696427e+001  2.396996e+001
      vertex -9.696745e+000  4.696427e+001  2.396996e+001
    endloop
  endfacet
  facet normal  0.000000e+000  0.000000e+000 -1.000000e+000
    outer loop
      vertex -3.102628e+000  5.672147e+001  2.396996e+001
      vertex -9.696745e+000  4.696427e+001  2.396996e+001
      vertex -9.637957e+000  5.180054e+001  2.396996e+001
    endloop
  endfacet
  facet normal  0.000000e+000  0.000000e+000 -1.000000e+000
    outer loop
      vertex -3.102628e+000  5.672147e+001  2.396996e+001
      vertex -9.637957e+000  5.180054e+001  2.396996e+001
      vertex -1.463759e+001  5.186131e+001  2.396996e+001
    endloop
  endfacet
  facet normal  0.000000e+000  0.000000e+000 -1.000000e+000
    outer loop
      vertex -3.102628e+000  5.672147e+001  2.396996e+001
      vertex -1.463759e+001  5.186131e+001  2.396996e+001
      vertex -6.577404e+000  5.676371e+001  2.396996e+001
    endloop
  endfacet
  facet normal  0.000000e+000  0.000000e+000 -1.000000e+000
    outer loop
      vertex  1.473707e+001  8.250653e+001  2.396996e+001
      vertex  1.436027e+001  5.150882e+001  2.396996e+001
      vertex  9.360640e+000  5.156960e+001  2.396996e+001
    endloop
  endfacet
  facet normal  0.000000e+000  0.000000e+000 -1.000000e+000
    outer loop
      vertex  1.473707e+001  8.250653e+001  2.396996e+001
      vertex  9.360640e+000  5.156960e+001  2.396996e+001
      vertex  6.421636e+000  5.660569e+001  2.396996e+001
    endloop
  endfacet
  facet normal  0.000000e+000  0.000000e+000 -1.000000e+000
    outer loop
      vertex  1.473707e+001  8.250653e+001  2.396996e+001
      vertex  6.421636e+000  5.660569e+001  2.396996e+001
      vertex  6.701197e+000  7.960400e+001  2.396996e+001
    endloop
  endfacet
  facet normal  0.000000e+000  0.000000e+000 -1.000000e+000
    outer loop
      vertex  1.473707e+001  8.250653e+001  2.396996e+001
      vertex  6.701197e+000  7.960400e+001  2.396996e+001
      vertex -6.297843e+000  7.976201e+001  2.396996e+001
    endloop
  endfacet
  facet normal  0.000000e+000  0.000000e+000 -1.000000e+000
    outer loop
      vertex  9.304659e+000  4.696427e+001  2.396996e+001
      vertex  2.787598e+000  4.696427e+001  2.396996e+001
      vertex  9.360640e+000  5.156960e+001  2.396996e+001
    endloop
  endfacet
  facet normal  -0.000000e+000  0.000000e+000 -1.000000e+000
    outer loop
      vertex  9.360640e+000  5.156960e+001  2.396996e+001
      vertex  2.787598e+000  4.696427e+001  2.396996e+001
      vertex  2.905317e+000  5.664844e+001  2.396996e+001
    endloop
  endfacet
  facet normal  0.000000e+000  0.000000e+000 -1.000000e+000
    outer loop
      vertex  9.360640e+000  5.156960e+001  2.396996e+001
      vertex  2.905317e+000  5.664844e+001  2.396996e+001
      vertex  6.421636e+000  5.660569e+001  2.396996e+001
    endloop
  endfacet
  facet normal  1.215532e-002  9.999261e-001  0.000000e+000
    outer loop
      vertex -3.102628e+000  5.672147e+001  2.396996e+001
      vertex -6.577404e+000  5.676371e+001  2.396996e+001
      vertex -3.102628e+000  5.672147e+001  2.896996e+001
    endloop
  endfacet
  facet normal  1.215532e-002  9.999261e-001  0.000000e+000
    outer loop
      vertex -3.102628e+000  5.672147e+001  2.896996e+001
      vertex -6.577404e+000  5.676371e+001  2.396996e+001
      vertex -6.577404e+000  5.676371e+001  2.896996e+001
    endloop
  endfacet
  facet normal  9.999261e-001 -1.215483e-002  0.000000e+000
    outer loop
      vertex -6.577404e+000  5.676371e+001  2.396996e+001
      vertex -6.297843e+000  7.976201e+001  2.396996e+001
      vertex -6.577404e+000  5.676371e+001  2.896996e+001
    endloop
  endfacet
  facet normal  9.999261e-001 -1.215483e-002  0.000000e+000
    outer loop
      vertex -6.577404e+000  5.676371e+001  2.896996e+001
      vertex -6.297843e+000  7.976201e+001  2.396996e+001
      vertex -6.297843e+000  7.976201e+001  2.896996e+001
    endloop
  endfacet
  facet normal -1.215480e-002 -9.999261e-001  0.000000e+000
    outer loop
      vertex -6.297843e+000  7.976201e+001  2.396996e+001
      vertex  6.701197e+000  7.960400e+001  2.396996e+001
      vertex -6.297843e+000  7.976201e+001  2.896996e+001
    endloop
  endfacet
  facet normal -1.215480e-002 -9.999261e-001  0.000000e+000
    outer loop
      vertex -6.297843e+000  7.976201e+001  2.896996e+001
      vertex  6.701197e+000  7.960400e+001  2.396996e+001
      vertex  6.701197e+000  7.960400e+001  2.896996e+001
    endloop
  endfacet
  facet normal -9.999261e-001  1.215483e-002  0.000000e+000
    outer loop
      vertex  6.701197e+000  7.960400e+001  2.396996e+001
      vertex  6.421636e+000  5.660569e+001  2.396996e+001
      vertex  6.701197e+000  7.960400e+001  2.896996e+001
    endloop
  endfacet
  facet normal -9.999261e-001  1.215483e-002  0.000000e+000
    outer loop
      vertex  6.701197e+000  7.960400e+001  2.896996e+001
      vertex  6.421636e+000  5.660569e+001  2.396996e+001
      vertex  6.421636e+000  5.660569e+001  2.896996e+001
    endloop
  endfacet
  facet normal  1.215491e-002  9.999261e-001  0.000000e+000
    outer loop
      vertex  6.421636e+000  5.660569e+001  2.396996e+001
      vertex  2.905317e+000  5.664844e+001  2.396996e+001
      vertex  6.421636e+000  5.660569e+001  2.896996e+001
    endloop
  endfacet
  facet normal  1.215491e-002  9.999261e-001  0.000000e+000
    outer loop
      vertex  6.421636e+000  5.660569e+001  2.896996e+001
      vertex  2.905317e+000  5.664844e+001  2.396996e+001
      vertex  2.905317e+000  5.664844e+001  2.896996e+001
    endloop
  endfacet
  facet normal  0.000000e+000 -1.000000e+000  -0.000000e+000
    outer loop
      vertex  3.300000e+001  3.696427e+001  2.496996e+001
      vertex  3.300000e+001  3.696427e+001  2.696996e+001
      vertex  5.000000e+000  3.696427e+001  2.496996e+001
    endloop
  endfacet
  facet normal  0.000000e+000 -1.000000e+000  0.000000e+000
    outer loop
      vertex  5.000000e+000  3.696427e+001  2.496996e+001
      vertex  3.300000e+001  3.696427e+001  2.696996e+001
      vertex  5.000000e+000  3.696427e+001  2.696996e+001
    endloop
  endfacet
  facet normal  0.000000e+000 -1.000000e+000  -0.000000e+000
    outer loop
      vertex -5.000000e+000  3.696427e+001  2.496996e+001
      vertex -5.000000e+000  3.696427e+001  2.696996e+001
      vertex -3.300000e+001  3.696427e+001  2.496996e+001
    endloop
  endfacet
  facet normal  0.000000e+000 -1.000000e+000  0.000000e+000
    outer loop
      vertex -3.300000e+001  3.696427e+001  2.496996e+001
      vertex -5.000000e+000  3.696427e+001  2.696996e+001
      vertex -3.300000e+001  3.696427e+001  2.696996e+001
    endloop
  endfacet
  facet normal  0.000000e+000 -9.582320e-001 -2.859921e-001
    outer loop
      vertex  4.700000e+001  2.296427e+001  2.896996e+001
      vertex -4.700000e+001  2.296427e+001  2.896996e+001
      vertex -4.700000e+001  2.356118e+001  2.696996e+001
    endloop
  endfacet
  facet normal  0.000000e+000 -9.582320e-001 -2.859921e-001
    outer loop
      vertex  4.700000e+001  2.296427e+001  2.896996e+001
      vertex -4.700000e+001  2.356118e+001  2.696996e+001
      vertex -5.000000e+000  2.356118e+001  2.696996e+001
    endloop
  endfacet
  facet normal  0.000000e+000 -9.582320e-001 -2.859921e-001
    outer loop
      vertex  4.700000e+001  2.296427e+001  2.896996e+001
      vertex -5.000000e+000  2.356118e+001  2.696996e+001
      vertex  5.000000e+000  2.356118e+001  2.696996e+001
    endloop
  endfacet
  facet normal  0.000000e+000 -9.582320e-001 -2.859921e-001
    outer loop
      vertex  4.700000e+001  2.296427e+001  2.896996e+001
      vertex  5.000000e+000  2.356118e+001  2.696996e+001
      vertex  4.700000e+001  2.356118e+001  2.696996e+001
    endloop
  endfacet
  facet normal  0.000000e+000 -9.582320e-001 -2.859921e-001
    outer loop
      vertex  5.000000e+000  2.415810e+001  2.496996e+001
      vertex  5.000000e+000  2.356118e+001  2.696996e+001
      vertex -5.000000e+000  2.415810e+001  2.496996e+001
    endloop
  endfacet
  facet normal  0.000000e+000 -9.582320e-001 -2.859921e-001
    outer loop
      vertex -5.000000e+000  2.415810e+001  2.496996e+001
      vertex  5.000000e+000  2.356118e+001  2.696996e+001
      vertex -5.000000e+000  2.356118e+001  2.696996e+001
    endloop
  endfacet
  facet normal -1.000000e+000  0.000000e+000  0.000000e+000
    outer loop
      vertex -5.000000e+000  2.415810e+001  2.496996e+001
      vertex -5.000000e+000  2.356118e+001  2.696996e+001
      vertex -5.000000e+000  3.696427e+001  2.496996e+001
    endloop
  endfacet
  facet normal -1.000000e+000  0.000000e+000  0.000000e+000
    outer loop
      vertex -5.000000e+000  3.696427e+001  2.496996e+001
      vertex -5.000000e+000  2.356118e+001  2.696996e+001
      vertex -5.000000e+000  3.696427e+001  2.696996e+001
    endloop
  endfacet
  facet normal  1.000000e+000  0.000000e+000  0.000000e+000
    outer loop
      vertex  5.000000e+000  3.696427e+001  2.496996e+001
      vertex  5.000000e+000  3.696427e+001  2.696996e+001
      vertex  5.000000e+000  2.415810e+001  2.496996e+001
    endloop
  endfacet
  facet normal  1.000000e+000  0.000000e+000  -0.000000e+000
    outer loop
      vertex  5.000000e+000  2.415810e+001  2.496996e+001
      vertex  5.000000e+000  3.696427e+001  2.696996e+001
      vertex  5.000000e+000  2.356118e+001  2.696996e+001
    endloop
  endfacet
  facet normal  0.000000e+000  9.999999e-001  0.000000e+000
    outer loop
      vertex -4.700000e+001  1.029643e+002  2.896996e+001
      vertex  4.700000e+001  1.029643e+002  2.896996e+001
      vertex  4.700000e+001  1.029643e+002  2.696996e+001
    endloop
  endfacet
  facet normal  0.000000e+000  1.000000e+000  0.000000e+000
    outer loop
      vertex -4.700000e+001  1.029643e+002  2.896996e+001
      vertex  4.700000e+001  1.029643e+002  2.696996e+001
      vertex  3.300000e+001  1.029643e+002  2.696996e+001
    endloop
  endfacet
  facet normal  0.000000e+000  1.000000e+000  0.000000e+000
    outer loop
      vertex -4.700000e+001  1.029643e+002  2.896996e+001
      vertex  3.300000e+001  1.029643e+002  2.696996e+001
      vertex  2.100000e+001  1.029643e+002  2.696996e+001
    endloop
  endfacet
  facet normal  0.000000e+000  1.000000e+000  0.000000e+000
    outer loop
      vertex -4.700000e+001  1.029643e+002  2.896996e+001
      vertex  2.100000e+001  1.029643e+002  2.696996e+001
      vertex -2.100000e+001  1.029643e+002  2.696996e+001
    endloop
  endfacet
  facet normal  0.000000e+000  1.000000e+000  0.000000e+000
    outer loop
      vertex -4.700000e+001  1.029643e+002  2.896996e+001
      vertex -2.100000e+001  1.029643e+002  2.696996e+001
      vertex -3.300000e+001  1.029643e+002  2.696996e+001
    endloop
  endfacet
  facet normal  0.000000e+000  1.000000e+000  0.000000e+000
    outer loop
      vertex -4.700000e+001  1.029643e+002  2.896996e+001
      vertex -3.300000e+001  1.029643e+002  2.696996e+001
      vertex -4.700000e+001  1.029643e+002  2.696996e+001
    endloop
  endfacet
  facet normal  0.000000e+000  1.000000e+000  -0.000000e+000
    outer loop
      vertex  3.300000e+001  1.029643e+002  2.696996e+001
      vertex  3.300000e+001  1.029643e+002  2.496996e+001
      vertex  2.100000e+001  1.029643e+002  2.696996e+001
    endloop
  endfacet
  facet normal  0.000000e+000  1.000000e+000  0.000000e+000
    outer loop
      vertex  2.100000e+001  1.029643e+002  2.696996e+001
      vertex  3.300000e+001  1.029643e+002  2.496996e+001
      vertex  2.100000e+001  1.029643e+002  2.496996e+001
    endloop
  endfacet
  facet normal  0.000000e+000  1.000000e+000  -0.000000e+000
    outer loop
      vertex -2.100000e+001  1.029643e+002  2.696996e+001
      vertex -2.100000e+001  1.029643e+002  2.496996e+001
      vertex -3.300000e+001  1.029643e+002  2.696996e+001
    endloop
  endfacet
  facet normal  0.000000e+000  1.000000e+000  0.000000e+000
    outer loop
      vertex -3.300000e+001  1.029643e+002  2.696996e+001
      vertex -2.100000e+001  1.029643e+002  2.496996e+001
      vertex -3.300000e+001  1.029643e+002  2.496996e+001
    endloop
  endfacet
  facet normal  1.000000e+000  0.000000e+000  0.000000e+000
    outer loop
      vertex  3.300000e+001  1.029643e+002  2.496996e+001
      vertex  3.300000e+001  1.029643e+002  2.696996e+001
      vertex  3.300000e+001  4.696427e+001  2.496996e+001
    endloop
  endfacet
  facet normal  1.000000e+000  0.000000e+000  0.000000e+000
    outer loop
      vertex  3.300000e+001  4.696427e+001  2.496996e+001
      vertex  3.300000e+001  1.029643e+002  2.696996e+001
      vertex  3.300000e+001  4.696427e+001  2.696996e+001
    endloop
  endfacet
  facet normal -1.000000e+000  0.000000e+000  0.000000e+000
    outer loop
      vertex -3.300000e+001  4.696427e+001  2.496996e+001
      vertex -3.300000e+001  4.696427e+001  2.696996e+001
      vertex -3.300000e+001  1.029643e+002  2.496996e+001
    endloop
  endfacet
  facet normal -1.000000e+000  0.000000e+000  0.000000e+000
    outer loop
      vertex -3.300000e+001  1.029643e+002  2.496996e+001
      vertex -3.300000e+001  4.696427e+001  2.696996e+001
      vertex -3.300000e+001  1.029643e+002  2.696996e+001
    endloop
  endfacet
  facet normal  0.000000e+000  0.000000e+000 -1.000000e+000
    outer loop
      vertex -4.700000e+001  2.356118e+001  2.696996e+001
      vertex -4.700000e+001  1.029643e+002  2.696996e+001
      vertex -3.300000e+001  1.029643e+002  2.696996e+001
    endloop
  endfacet
  facet normal  0.000000e+000  -0.000000e+000 -1.000000e+000
    outer loop
      vertex -4.700000e+001  2.356118e+001  2.696996e+001
      vertex -3.300000e+001  1.029643e+002  2.696996e+001
      vertex -3.300000e+001  4.696427e+001  2.696996e+001
    endloop
  endfacet
  facet normal  0.000000e+000  -0.000000e+000 -1.000000e+000
    outer loop
      vertex -4.700000e+001  2.356118e+001  2.696996e+001
      vertex -3.300000e+001  4.696427e+001  2.696996e+001
      vertex -3.300000e+001  3.696427e+001  2.696996e+001
    endloop
  endfacet
  facet normal  0.000000e+000  -0.000000e+000 -1.000000e+000
    outer loop
      vertex -4.700000e+001  2.356118e+001  2.696996e+001
      vertex -3.300000e+001  3.696427e+001  2.696996e+001
      vertex -5.000000e+000  3.696427e+001  2.696996e+001
    endloop
  endfacet
  facet normal  0.000000e+000  -0.000000e+000 -1.000000e+000
    outer loop
      vertex -4.700000e+001  2.356118e+001  2.696996e+001
      vertex -5.000000e+000  3.696427e+001  2.696996e+001
      vertex -5.000000e+000  2.356118e+001  2.696996e+001
    endloop
  endfacet
  facet normal  0.000000e+000  0.000000e+000 -1.000000e+000
    outer loop
      vertex  3.300000e+001  3.696427e+001  2.696996e+001
      vertex  3.300000e+001  4.696427e+001  2.696996e+001
      vertex  4.700000e+001  2.356118e+001  2.696996e+001
    endloop
  endfacet
  facet normal  0.000000e+000  0.000000e+000 -1.000000e+000
    outer loop
      vertex  4.700000e+001  2.356118e+001  2.696996e+001
      vertex  3.300000e+001  4.696427e+001  2.696996e+001
      vertex  3.300000e+001  1.029643e+002  2.696996e+001
    endloop
  endfacet
  facet normal  0.000000e+000  0.000000e+000 -1.000000e+000
    outer loop
      vertex  4.700000e+001  2.356118e+001  2.696996e+001
      vertex  3.300000e+001  1.029643e+002  2.696996e+001
      vertex  4.700000e+001  1.029643e+002  2.696996e+001
    endloop
  endfacet
  facet normal  0.000000e+000  0.000000e+000 -1.000000e+000
    outer loop
      vertex  5.000000e+000  2.356118e+001  2.696996e+001
      vertex  5.000000e+000  3.696427e+001  2.696996e+001
      vertex  4.700000e+001  2.356118e+001  2.696996e+001
    endloop
  endfacet
  facet normal  0.000000e+000  0.000000e+000 -1.000000e+000
    outer loop
      vertex  4.700000e+001  2.356118e+001  2.696996e+001
      vertex  5.000000e+000  3.696427e+001  2.696996e+001
      vertex  3.300000e+001  3.696427e+001  2.696996e+001
    endloop
  endfacet
  facet normal -1.000000e+000  0.000000e+000  0.000000e+000
    outer loop
      vertex -3.300000e+001  3.696427e+001  2.496996e+001
      vertex -3.300000e+001  3.696427e+001  2.696996e+001
      vertex -3.300000e+001  4.696427e+001  2.496996e+001
    endloop
  endfacet
  facet normal -1.000000e+000  0.000000e+000  0.000000e+000
    outer loop
      vertex -3.300000e+001  4.696427e+001  2.496996e+001
      vertex -3.300000e+001  3.696427e+001  2.696996e+001
      vertex -3.300000e+001  4.696427e+001  2.696996e+001
    endloop
  endfacet
  facet normal  1.000000e+000  0.000000e+000  0.000000e+000
    outer loop
      vertex  3.300000e+001  4.696427e+001  2.496996e+001
      vertex  3.300000e+001  4.696427e+001  2.696996e+001
      vertex  3.300000e+001  3.696427e+001  2.496996e+001
    endloop
  endfacet
  facet normal  1.000000e+000  0.000000e+000  0.000000e+000
    outer loop
      vertex  3.300000e+001  3.696427e+001  2.496996e+001
      vertex  3.300000e+001  4.696427e+001  2.696996e+001
      vertex  3.300000e+001  3.696427e+001  2.696996e+001
    endloop
  endfacet
  facet normal  1.000000e+000  0.000000e+000  -0.000000e+000
    outer loop
      vertex  4.700000e+001  2.296427e+001  2.896996e+001
      vertex  4.700000e+001  2.356118e+001  2.696996e+001
      vertex  4.700000e+001  1.029643e+002  2.896996e+001
    endloop
  endfacet
  facet normal  1.000000e+000  0.000000e+000  0.000000e+000
    outer loop
      vertex  4.700000e+001  1.029643e+002  2.896996e+001
      vertex  4.700000e+001  2.356118e+001  2.696996e+001
      vertex  4.700000e+001  1.029643e+002  2.696996e+001
    endloop
  endfacet
  facet normal -1.000000e+000  0.000000e+000  0.000000e+000
    outer loop
      vertex -4.700000e+001  1.029643e+002  2.896996e+001
      vertex -4.700000e+001  1.029643e+002  2.696996e+001
      vertex -4.700000e+001  2.296427e+001  2.896996e+001
    endloop
  endfacet
  facet normal -1.000000e+000  0.000000e+000  0.000000e+000
    outer loop
      vertex -4.700000e+001  2.296427e+001  2.896996e+001
      vertex -4.700000e+001  1.029643e+002  2.696996e+001
      vertex -4.700000e+001  2.356118e+001  2.696996e+001
    endloop
  endfacet
endsolid CATIA STL
