solid CATIA STL
  facet normal  0.000000e+000 -9.433280e-001  3.318621e-001
    outer loop
      vertex -4.500000e+001 -3.326196e+001  2.017209e+001
      vertex -4.500000e+001 -2.977641e+001  3.007984e+001
      vertex -4.600000e+001 -3.326196e+001  2.017209e+001
    endloop
  endfacet
  facet normal  0.000000e+000 -9.433280e-001  3.318621e-001
    outer loop
      vertex -4.600000e+001 -3.326196e+001  2.017209e+001
      vertex -4.500000e+001 -2.977641e+001  3.007984e+001
      vertex -4.600000e+001 -2.977641e+001  3.007984e+001
    endloop
  endfacet
  facet normal -1.000000e+000  0.000000e+000  0.000000e+000
    outer loop
      vertex -4.600000e+001 -2.432641e+001  1.352853e+001
      vertex -4.600000e+001 -3.326196e+001  2.017209e+001
      vertex -4.600000e+001  1.472222e+002  1.352853e+001
    endloop
  endfacet
  facet normal -1.000000e+000  0.000000e+000  0.000000e+000
    outer loop
      vertex -4.600000e+001  1.472222e+002  1.352853e+001
      vertex -4.600000e+001 -3.326196e+001  2.017209e+001
      vertex -4.600000e+001 -2.977641e+001  3.007984e+001
    endloop
  endfacet
  facet normal -1.000000e+000  0.000000e+000  0.000000e+000
    outer loop
      vertex -4.600000e+001  1.472222e+002  1.352853e+001
      vertex -4.600000e+001 -2.977641e+001  3.007984e+001
      vertex -4.600000e+001  1.633703e+002  3.628596e+001
    endloop
  endfacet
  facet normal -1.000000e+000  -0.000000e+000  0.000000e+000
    outer loop
      vertex -4.600000e+001  1.633703e+002  3.628596e+001
      vertex -4.600000e+001 -2.977641e+001  3.007984e+001
      vertex -4.600000e+001  2.297037e+001  4.582256e+001
    endloop
  endfacet
  facet normal -1.000000e+000  0.000000e+000  0.000000e+000
    outer loop
      vertex -4.600000e+001  1.633703e+002  3.628596e+001
      vertex -4.600000e+001  2.297037e+001  4.582256e+001
      vertex -4.600000e+001  1.025225e+002  4.582256e+001
    endloop
  endfacet
  facet normal  0.000000e+000  1.548385e-001  9.879398e-001
    outer loop
      vertex -4.600000e+001  1.025225e+002  4.582256e+001
      vertex -4.500000e+001  1.025225e+002  4.582256e+001
      vertex -4.500000e+001  1.227565e+002  4.265131e+001
    endloop
  endfacet
  facet normal  4.740407e-007  1.548385e-001  9.879398e-001
    outer loop
      vertex -4.600000e+001  1.025225e+002  4.582256e+001
      vertex -4.500000e+001  1.227565e+002  4.265131e+001
      vertex -4.500000e+001  1.386568e+002  4.015928e+001
    endloop
  endfacet
  facet normal  3.659881e-006  1.548384e-001  9.879398e-001
    outer loop
      vertex -4.600000e+001  1.025225e+002  4.582256e+001
      vertex -4.500000e+001  1.386568e+002  4.015928e+001
      vertex -4.500000e+001  1.633703e+002  3.628596e+001
    endloop
  endfacet
  facet normal  0.000000e+000  1.548385e-001  9.879398e-001
    outer loop
      vertex -4.600000e+001  1.025225e+002  4.582256e+001
      vertex -4.500000e+001  1.633703e+002  3.628596e+001
      vertex -4.600000e+001  1.633703e+002  3.628596e+001
    endloop
  endfacet
  facet normal  0.000000e+000  1.548385e-001  9.879398e-001
    outer loop
      vertex -4.000000e+001  1.227565e+002  4.265131e+001
      vertex -4.000000e+001  1.386568e+002  4.015928e+001
      vertex -4.500000e+001  1.227565e+002  4.265131e+001
    endloop
  endfacet
  facet normal  0.000000e+000  1.548385e-001  9.879398e-001
    outer loop
      vertex -4.500000e+001  1.227565e+002  4.265131e+001
      vertex -4.000000e+001  1.386568e+002  4.015928e+001
      vertex -4.500000e+001  1.386568e+002  4.015928e+001
    endloop
  endfacet
  facet normal  0.000000e+000 -2.859924e-001  9.582319e-001
    outer loop
      vertex -4.600000e+001 -2.977641e+001  3.007984e+001
      vertex -4.500000e+001 -2.977641e+001  3.007984e+001
      vertex -4.500000e+001 -7.847902e+000  3.662459e+001
    endloop
  endfacet
  facet normal -2.604115e-006 -2.859923e-001  9.582320e-001
    outer loop
      vertex -4.600000e+001 -2.977641e+001  3.007984e+001
      vertex -4.500000e+001 -7.847902e+000  3.662459e+001
      vertex -4.500000e+001  3.381603e+000  3.997613e+001
    endloop
  endfacet
  facet normal -7.464207e-007 -2.859924e-001  9.582319e-001
    outer loop
      vertex -4.600000e+001 -2.977641e+001  3.007984e+001
      vertex -4.500000e+001  3.381603e+000  3.997613e+001
      vertex -4.500000e+001  2.297037e+001  4.582256e+001
    endloop
  endfacet
  facet normal  0.000000e+000 -2.859924e-001  9.582319e-001
    outer loop
      vertex -4.600000e+001 -2.977641e+001  3.007984e+001
      vertex -4.500000e+001  2.297037e+001  4.582256e+001
      vertex -4.600000e+001  2.297037e+001  4.582256e+001
    endloop
  endfacet
  facet normal  0.000000e+000 -2.859923e-001  9.582319e-001
    outer loop
      vertex -4.000000e+001 -7.847902e+000  3.662459e+001
      vertex -4.000000e+001  3.381603e+000  3.997613e+001
      vertex -4.500000e+001 -7.847902e+000  3.662459e+001
    endloop
  endfacet
  facet normal  0.000000e+000 -2.859923e-001  9.582319e-001
    outer loop
      vertex -4.500000e+001 -7.847902e+000  3.662459e+001
      vertex -4.000000e+001  3.381603e+000  3.997613e+001
      vertex -4.500000e+001  3.381603e+000  3.997613e+001
    endloop
  endfacet
  facet normal  0.000000e+000  -0.000000e+000  1.000000e+000
    outer loop
      vertex -4.600000e+001  2.297037e+001  4.582256e+001
      vertex -4.500000e+001  2.297037e+001  4.582256e+001
      vertex -4.500000e+001  5.667408e+001  4.582256e+001
    endloop
  endfacet
  facet normal  0.000000e+000  -0.000000e+000  1.000000e+000
    outer loop
      vertex -4.600000e+001  2.297037e+001  4.582256e+001
      vertex -4.500000e+001  5.667408e+001  4.582256e+001
      vertex -4.500000e+001  7.453516e+001  4.582256e+001
    endloop
  endfacet
  facet normal  0.000000e+000  -0.000000e+000  1.000000e+000
    outer loop
      vertex -4.600000e+001  2.297037e+001  4.582256e+001
      vertex -4.500000e+001  7.453516e+001  4.582256e+001
      vertex -4.500000e+001  1.025225e+002  4.582256e+001
    endloop
  endfacet
  facet normal  0.000000e+000  0.000000e+000  1.000000e+000
    outer loop
      vertex -4.600000e+001  2.297037e+001  4.582256e+001
      vertex -4.500000e+001  1.025225e+002  4.582256e+001
      vertex -4.600000e+001  1.025225e+002  4.582256e+001
    endloop
  endfacet
  facet normal  0.000000e+000  0.000000e+000  1.000000e+000
    outer loop
      vertex -4.000000e+001  5.667408e+001  4.582256e+001
      vertex -4.000000e+001  7.453516e+001  4.582256e+001
      vertex -4.500000e+001  5.667408e+001  4.582256e+001
    endloop
  endfacet
  facet normal  0.000000e+000  0.000000e+000  1.000000e+000
    outer loop
      vertex -4.500000e+001  5.667408e+001  4.582256e+001
      vertex -4.000000e+001  7.453516e+001  4.582256e+001
      vertex -4.500000e+001  7.453516e+001  4.582256e+001
    endloop
  endfacet
  facet normal  0.000000e+000 -1.000000e+000  0.000000e+000
    outer loop
      vertex -4.500000e+001  5.667408e+001  4.582256e+001
      vertex -4.500000e+001  5.667408e+001  4.282256e+001
      vertex -4.000000e+001  5.667408e+001  4.582256e+001
    endloop
  endfacet
  facet normal  0.000000e+000 -1.000000e+000  -0.000000e+000
    outer loop
      vertex -4.000000e+001  5.667408e+001  4.582256e+001
      vertex -4.500000e+001  5.667408e+001  4.282256e+001
      vertex -4.000000e+001  5.667408e+001  4.282256e+001
    endloop
  endfacet
  facet normal  0.000000e+000  1.000000e+000  0.000000e+000
    outer loop
      vertex -4.500000e+001  7.453516e+001  4.282256e+001
      vertex -4.500000e+001  7.453516e+001  4.582256e+001
      vertex -4.000000e+001  7.453516e+001  4.282256e+001
    endloop
  endfacet
  facet normal  0.000000e+000  1.000000e+000  -0.000000e+000
    outer loop
      vertex -4.000000e+001  7.453516e+001  4.282256e+001
      vertex -4.500000e+001  7.453516e+001  4.582256e+001
      vertex -4.000000e+001  7.453516e+001  4.582256e+001
    endloop
  endfacet
  facet normal  0.000000e+000 -9.582319e-001 -2.859922e-001
    outer loop
      vertex -4.500000e+001 -7.847902e+000  3.662459e+001
      vertex -4.500000e+001 -6.846929e+000  3.327078e+001
      vertex -4.000000e+001 -7.847902e+000  3.662459e+001
    endloop
  endfacet
  facet normal  0.000000e+000 -9.582319e-001 -2.859922e-001
    outer loop
      vertex -4.000000e+001 -7.847902e+000  3.662459e+001
      vertex -4.500000e+001 -6.846929e+000  3.327078e+001
      vertex -4.000000e+001 -6.846929e+000  3.327078e+001
    endloop
  endfacet
  facet normal  0.000000e+000  9.582319e-001  2.859923e-001
    outer loop
      vertex -4.500000e+001  4.382576e+000  3.662232e+001
      vertex -4.500000e+001  3.381603e+000  3.997613e+001
      vertex -4.000000e+001  4.382576e+000  3.662232e+001
    endloop
  endfacet
  facet normal  0.000000e+000  9.582319e-001  2.859923e-001
    outer loop
      vertex -4.000000e+001  4.382576e+000  3.662232e+001
      vertex -4.500000e+001  3.381603e+000  3.997613e+001
      vertex -4.000000e+001  3.381603e+000  3.997613e+001
    endloop
  endfacet
  facet normal  0.000000e+000 -9.879400e-001  1.548375e-001
    outer loop
      vertex -4.500000e+001  1.227565e+002  4.265131e+001
      vertex -4.500000e+001  1.222146e+002  3.919352e+001
      vertex -4.000000e+001  1.227565e+002  4.265131e+001
    endloop
  endfacet
  facet normal  0.000000e+000 -9.879400e-001  1.548375e-001
    outer loop
      vertex -4.000000e+001  1.227565e+002  4.265131e+001
      vertex -4.500000e+001  1.222146e+002  3.919352e+001
      vertex -4.000000e+001  1.222146e+002  3.919352e+001
    endloop
  endfacet
  facet normal  0.000000e+000  9.879400e-001 -1.548375e-001
    outer loop
      vertex -4.500000e+001  1.381149e+002  3.670149e+001
      vertex -4.500000e+001  1.386568e+002  4.015928e+001
      vertex -4.000000e+001  1.381149e+002  3.670149e+001
    endloop
  endfacet
  facet normal  0.000000e+000  9.879400e-001 -1.548375e-001
    outer loop
      vertex -4.000000e+001  1.381149e+002  3.670149e+001
      vertex -4.500000e+001  1.386568e+002  4.015928e+001
      vertex -4.000000e+001  1.386568e+002  4.015928e+001
    endloop
  endfacet
  facet normal  1.000000e+000  0.000000e+000  0.000000e+000
    outer loop
      vertex -4.500000e+001  1.381149e+002  3.670149e+001
      vertex -4.500000e+001  1.633703e+002  3.628596e+001
      vertex -4.500000e+001  1.386568e+002  4.015928e+001
    endloop
  endfacet
  facet normal  1.000000e+000  0.000000e+000  0.000000e+000
    outer loop
      vertex -4.500000e+001 -2.977641e+001  3.007984e+001
      vertex -4.500000e+001 -6.846929e+000  3.327078e+001
      vertex -4.500000e+001 -7.847902e+000  3.662459e+001
    endloop
  endfacet
  facet normal  1.000000e+000  0.000000e+000  0.000000e+000
    outer loop
      vertex -4.500000e+001  1.472222e+002  1.352853e+001
      vertex -4.500000e+001  1.633703e+002  3.628596e+001
      vertex -4.500000e+001 -6.846929e+000  3.327078e+001
    endloop
  endfacet
  facet normal  1.000000e+000  0.000000e+000  0.000000e+000
    outer loop
      vertex -4.500000e+001  1.472222e+002  1.352853e+001
      vertex -4.500000e+001 -6.846929e+000  3.327078e+001
      vertex -4.500000e+001 -2.977641e+001  3.007984e+001
    endloop
  endfacet
  facet normal  1.000000e+000  0.000000e+000  0.000000e+000
    outer loop
      vertex -4.500000e+001  1.472222e+002  1.352853e+001
      vertex -4.500000e+001 -2.977641e+001  3.007984e+001
      vertex -4.500000e+001 -2.941038e+001  2.033243e+001
    endloop
  endfacet
  facet normal  1.000000e+000  0.000000e+000  0.000000e+000
    outer loop
      vertex -4.500000e+001  1.472222e+002  1.352853e+001
      vertex -4.500000e+001 -2.941038e+001  2.033243e+001
      vertex -4.500000e+001 -2.442542e+001  1.659216e+001
    endloop
  endfacet
  facet normal  1.000000e+000  0.000000e+000  0.000000e+000
    outer loop
      vertex -4.500000e+001  1.472222e+002  1.352853e+001
      vertex -4.500000e+001 -2.442542e+001  1.659216e+001
      vertex -4.500000e+001 -2.581590e+001  1.463596e+001
    endloop
  endfacet
  facet normal  1.000000e+000  0.000000e+000  0.000000e+000
    outer loop
      vertex -4.500000e+001  1.472222e+002  1.352853e+001
      vertex -4.500000e+001 -2.581590e+001  1.463596e+001
      vertex -4.500000e+001 -2.432641e+001  1.352853e+001
    endloop
  endfacet
  facet normal  1.000000e+000  0.000000e+000  -0.000000e+000
    outer loop
      vertex -4.500000e+001 -3.326196e+001  2.017209e+001
      vertex -4.500000e+001 -3.081946e+001  1.835610e+001
      vertex -4.500000e+001 -2.977641e+001  3.007984e+001
    endloop
  endfacet
  facet normal  1.000000e+000  0.000000e+000  0.000000e+000
    outer loop
      vertex -4.500000e+001 -2.977641e+001  3.007984e+001
      vertex -4.500000e+001 -3.081946e+001  1.835610e+001
      vertex -4.500000e+001 -2.941038e+001  2.033243e+001
    endloop
  endfacet
  facet normal  1.000000e+000  -0.000000e+000  0.000000e+000
    outer loop
      vertex -4.500000e+001  1.025225e+002  4.582256e+001
      vertex -4.500000e+001  7.453516e+001  4.582256e+001
      vertex -4.500000e+001  1.227565e+002  4.265131e+001
    endloop
  endfacet
  facet normal  1.000000e+000  0.000000e+000  0.000000e+000
    outer loop
      vertex -4.500000e+001  1.227565e+002  4.265131e+001
      vertex -4.500000e+001  7.453516e+001  4.582256e+001
      vertex -4.500000e+001  7.453516e+001  4.282256e+001
    endloop
  endfacet
  facet normal  1.000000e+000  0.000000e+000  0.000000e+000
    outer loop
      vertex -4.500000e+001  1.227565e+002  4.265131e+001
      vertex -4.500000e+001  7.453516e+001  4.282256e+001
      vertex -4.500000e+001  5.667408e+001  4.282256e+001
    endloop
  endfacet
  facet normal  1.000000e+000  0.000000e+000  0.000000e+000
    outer loop
      vertex -4.500000e+001  1.227565e+002  4.265131e+001
      vertex -4.500000e+001  5.667408e+001  4.282256e+001
      vertex -4.500000e+001  1.222146e+002  3.919352e+001
    endloop
  endfacet
  facet normal  1.000000e+000  0.000000e+000  0.000000e+000
    outer loop
      vertex -4.500000e+001  1.222146e+002  3.919352e+001
      vertex -4.500000e+001  5.667408e+001  4.282256e+001
      vertex -4.500000e+001  3.381603e+000  3.997613e+001
    endloop
  endfacet
  facet normal  1.000000e+000  0.000000e+000  0.000000e+000
    outer loop
      vertex -4.500000e+001  1.222146e+002  3.919352e+001
      vertex -4.500000e+001  3.381603e+000  3.997613e+001
      vertex -4.500000e+001  1.381149e+002  3.670149e+001
    endloop
  endfacet
  facet normal  1.000000e+000  0.000000e+000  0.000000e+000
    outer loop
      vertex -4.500000e+001  1.381149e+002  3.670149e+001
      vertex -4.500000e+001  3.381603e+000  3.997613e+001
      vertex -4.500000e+001  4.382576e+000  3.662232e+001
    endloop
  endfacet
  facet normal  1.000000e+000  -0.000000e+000  0.000000e+000
    outer loop
      vertex -4.500000e+001  1.381149e+002  3.670149e+001
      vertex -4.500000e+001  4.382576e+000  3.662232e+001
      vertex -4.500000e+001  1.633703e+002  3.628596e+001
    endloop
  endfacet
  facet normal  1.000000e+000  0.000000e+000  0.000000e+000
    outer loop
      vertex -4.500000e+001  1.633703e+002  3.628596e+001
      vertex -4.500000e+001  4.382576e+000  3.662232e+001
      vertex -4.500000e+001 -6.846929e+000  3.327078e+001
    endloop
  endfacet
  facet normal  1.000000e+000  0.000000e+000  0.000000e+000
    outer loop
      vertex -4.500000e+001  2.297037e+001  4.582256e+001
      vertex -4.500000e+001  3.381603e+000  3.997613e+001
      vertex -4.500000e+001  5.667408e+001  4.582256e+001
    endloop
  endfacet
  facet normal  1.000000e+000  0.000000e+000  0.000000e+000
    outer loop
      vertex -4.500000e+001  5.667408e+001  4.582256e+001
      vertex -4.500000e+001  3.381603e+000  3.997613e+001
      vertex -4.500000e+001  5.667408e+001  4.282256e+001
    endloop
  endfacet
  facet normal -1.000000e+000  0.000000e+000  -0.000000e+000
    outer loop
      vertex -4.500000e+001 -3.132352e+001  1.764912e+001
      vertex -4.500000e+001 -3.081946e+001  1.835610e+001
      vertex -4.500000e+001 -2.633476e+001  1.390600e+001
    endloop
  endfacet
  facet normal -1.000000e+000  0.000000e+000  0.000000e+000
    outer loop
      vertex -4.500000e+001 -2.633476e+001  1.390600e+001
      vertex -4.500000e+001 -3.081946e+001  1.835610e+001
      vertex -4.500000e+001 -2.581590e+001  1.463596e+001
    endloop
  endfacet
  facet normal  0.000000e+000  6.001595e-001  7.998803e-001
    outer loop
      vertex -4.000000e+001 -2.941038e+001  2.033243e+001
      vertex -4.000000e+001 -2.442542e+001  1.659216e+001
      vertex -4.500000e+001 -2.941038e+001  2.033243e+001
    endloop
  endfacet
  facet normal  0.000000e+000  6.001595e-001  7.998803e-001
    outer loop
      vertex -4.500000e+001 -2.941038e+001  2.033243e+001
      vertex -4.000000e+001 -2.442542e+001  1.659216e+001
      vertex -4.500000e+001 -2.442542e+001  1.659216e+001
    endloop
  endfacet
  facet normal  0.000000e+000  8.150734e-001 -5.793577e-001
    outer loop
      vertex -4.500000e+001 -2.633476e+001  1.390600e+001
      vertex -4.500000e+001 -2.581590e+001  1.463596e+001
      vertex -4.000000e+001 -2.633476e+001  1.390600e+001
    endloop
  endfacet
  facet normal -1.291417e-007  8.150730e-001 -5.793583e-001
    outer loop
      vertex -4.000000e+001 -2.633476e+001  1.390600e+001
      vertex -4.500000e+001 -2.581590e+001  1.463596e+001
      vertex -4.500000e+001 -2.442542e+001  1.659216e+001
    endloop
  endfacet
  facet normal  0.000000e+000  8.150731e-001 -5.793582e-001
    outer loop
      vertex -4.000000e+001 -2.633476e+001  1.390600e+001
      vertex -4.500000e+001 -2.442542e+001  1.659216e+001
      vertex -4.000000e+001 -2.442542e+001  1.659216e+001
    endloop
  endfacet
  facet normal  0.000000e+000 -8.142372e-001  5.805324e-001
    outer loop
      vertex -4.500000e+001 -2.941038e+001  2.033243e+001
      vertex -4.500000e+001 -3.081946e+001  1.835610e+001
      vertex -4.000000e+001 -2.941038e+001  2.033243e+001
    endloop
  endfacet
  facet normal -1.647537e-007 -8.142369e-001  5.805327e-001
    outer loop
      vertex -4.000000e+001 -2.941038e+001  2.033243e+001
      vertex -4.500000e+001 -3.081946e+001  1.835610e+001
      vertex -4.500000e+001 -3.132352e+001  1.764912e+001
    endloop
  endfacet
  facet normal  0.000000e+000 -8.142371e-001  5.805324e-001
    outer loop
      vertex -4.000000e+001 -2.941038e+001  2.033243e+001
      vertex -4.500000e+001 -3.132352e+001  1.764912e+001
      vertex -4.000000e+001 -3.132352e+001  1.764912e+001
    endloop
  endfacet
  facet normal  0.000000e+000  2.859923e-001 -9.582319e-001
    outer loop
      vertex -4.000000e+001 -6.846929e+000  3.327078e+001
      vertex -4.500000e+001 -6.846929e+000  3.327078e+001
      vertex -4.000000e+001  4.382576e+000  3.662232e+001
    endloop
  endfacet
  facet normal  0.000000e+000  2.859923e-001 -9.582319e-001
    outer loop
      vertex -4.000000e+001  4.382576e+000  3.662232e+001
      vertex -4.500000e+001 -6.846929e+000  3.327078e+001
      vertex -4.500000e+001  4.382576e+000  3.662232e+001
    endloop
  endfacet
  facet normal  0.000000e+000  0.000000e+000 -1.000000e+000
    outer loop
      vertex -4.000000e+001  5.667408e+001  4.282256e+001
      vertex -4.500000e+001  5.667408e+001  4.282256e+001
      vertex -4.000000e+001  7.453516e+001  4.282256e+001
    endloop
  endfacet
  facet normal  -0.000000e+000  0.000000e+000 -1.000000e+000
    outer loop
      vertex -4.000000e+001  7.453516e+001  4.282256e+001
      vertex -4.500000e+001  5.667408e+001  4.282256e+001
      vertex -4.500000e+001  7.453516e+001  4.282256e+001
    endloop
  endfacet
  facet normal  0.000000e+000 -1.548385e-001 -9.879398e-001
    outer loop
      vertex -4.000000e+001  1.222146e+002  3.919352e+001
      vertex -4.500000e+001  1.222146e+002  3.919352e+001
      vertex -4.000000e+001  1.381149e+002  3.670149e+001
    endloop
  endfacet
  facet normal  -0.000000e+000 -1.548385e-001 -9.879398e-001
    outer loop
      vertex -4.000000e+001  1.381149e+002  3.670149e+001
      vertex -4.500000e+001  1.222146e+002  3.919352e+001
      vertex -4.500000e+001  1.381149e+002  3.670149e+001
    endloop
  endfacet
  facet normal  -0.000000e+000 -5.966552e-001 -8.024977e-001
    outer loop
      vertex -4.600000e+001 -2.432641e+001  1.352853e+001
      vertex -4.500000e+001 -2.432641e+001  1.352853e+001
      vertex -4.500000e+001 -2.581590e+001  1.463596e+001
    endloop
  endfacet
  facet normal -9.177332e-007 -5.966555e-001 -8.024974e-001
    outer loop
      vertex -4.500000e+001 -2.581590e+001  1.463596e+001
      vertex -4.500000e+001 -3.081946e+001  1.835610e+001
      vertex -4.600000e+001 -2.432641e+001  1.352853e+001
    endloop
  endfacet
  facet normal  2.506683e-006 -5.966552e-001 -8.024977e-001
    outer loop
      vertex -4.600000e+001 -2.432641e+001  1.352853e+001
      vertex -4.500000e+001 -3.081946e+001  1.835610e+001
      vertex -4.500000e+001 -3.326196e+001  2.017209e+001
    endloop
  endfacet
  facet normal  -0.000000e+000 -5.966554e-001 -8.024976e-001
    outer loop
      vertex -4.600000e+001 -2.432641e+001  1.352853e+001
      vertex -4.500000e+001 -3.326196e+001  2.017209e+001
      vertex -4.600000e+001 -3.326196e+001  2.017209e+001
    endloop
  endfacet
  facet normal  1.000000e+000  0.000000e+000  0.000000e+000
    outer loop
      vertex -4.000000e+001 -3.132352e+001  1.764912e+001
      vertex -4.000000e+001 -2.633476e+001  1.390600e+001
      vertex -4.000000e+001 -2.941038e+001  2.033243e+001
    endloop
  endfacet
  facet normal  1.000000e+000  0.000000e+000  0.000000e+000
    outer loop
      vertex -4.000000e+001 -2.941038e+001  2.033243e+001
      vertex -4.000000e+001 -2.633476e+001  1.390600e+001
      vertex -4.000000e+001 -2.442542e+001  1.659216e+001
    endloop
  endfacet
  facet normal  0.000000e+000 -6.001595e-001 -7.998804e-001
    outer loop
      vertex -4.000000e+001 -2.633476e+001  1.390600e+001
      vertex -4.000000e+001 -3.132352e+001  1.764912e+001
      vertex -4.500000e+001 -2.633476e+001  1.390600e+001
    endloop
  endfacet
  facet normal  0.000000e+000 -6.001595e-001 -7.998804e-001
    outer loop
      vertex -4.500000e+001 -2.633476e+001  1.390600e+001
      vertex -4.000000e+001 -3.132352e+001  1.764912e+001
      vertex -4.500000e+001 -3.132352e+001  1.764912e+001
    endloop
  endfacet
  facet normal  1.000000e+000  0.000000e+000  -0.000000e+000
    outer loop
      vertex -4.000000e+001 -7.847902e+000  3.662459e+001
      vertex -4.000000e+001 -6.846929e+000  3.327078e+001
      vertex -4.000000e+001  3.381603e+000  3.997613e+001
    endloop
  endfacet
  facet normal  1.000000e+000  0.000000e+000  0.000000e+000
    outer loop
      vertex -4.000000e+001  3.381603e+000  3.997613e+001
      vertex -4.000000e+001 -6.846929e+000  3.327078e+001
      vertex -4.000000e+001  4.382576e+000  3.662232e+001
    endloop
  endfacet
  facet normal  9.999999e-001  0.000000e+000  0.000000e+000
    outer loop
      vertex -4.000000e+001  5.667408e+001  4.282256e+001
      vertex -4.000000e+001  7.453516e+001  4.282256e+001
      vertex -4.000000e+001  5.667408e+001  4.582256e+001
    endloop
  endfacet
  facet normal  9.999999e-001  -0.000000e+000  0.000000e+000
    outer loop
      vertex -4.000000e+001  5.667408e+001  4.582256e+001
      vertex -4.000000e+001  7.453516e+001  4.282256e+001
      vertex -4.000000e+001  7.453516e+001  4.582256e+001
    endloop
  endfacet
  facet normal  1.000000e+000  0.000000e+000  0.000000e+000
    outer loop
      vertex -4.000000e+001  1.222146e+002  3.919352e+001
      vertex -4.000000e+001  1.381149e+002  3.670149e+001
      vertex -4.000000e+001  1.227565e+002  4.265131e+001
    endloop
  endfacet
  facet normal  1.000000e+000  0.000000e+000  0.000000e+000
    outer loop
      vertex -4.000000e+001  1.227565e+002  4.265131e+001
      vertex -4.000000e+001  1.381149e+002  3.670149e+001
      vertex -4.000000e+001  1.386568e+002  4.015928e+001
    endloop
  endfacet
  facet normal  0.000000e+000  8.155466e-001 -5.786913e-001
    outer loop
      vertex -4.500000e+001  1.633703e+002  3.628596e+001
      vertex -4.500000e+001  1.472222e+002  1.352853e+001
      vertex -4.600000e+001  1.633703e+002  3.628596e+001
    endloop
  endfacet
  facet normal  0.000000e+000  8.155466e-001 -5.786913e-001
    outer loop
      vertex -4.600000e+001  1.633703e+002  3.628596e+001
      vertex -4.500000e+001  1.472222e+002  1.352853e+001
      vertex -4.600000e+001  1.472222e+002  1.352853e+001
    endloop
  endfacet
  facet normal  0.000000e+000  0.000000e+000 -1.000000e+000
    outer loop
      vertex -4.500000e+001  1.472222e+002  1.352853e+001
      vertex -4.500000e+001 -2.432641e+001  1.352853e+001
      vertex -4.600000e+001  1.472222e+002  1.352853e+001
    endloop
  endfacet
  facet normal  0.000000e+000  0.000000e+000 -1.000000e+000
    outer loop
      vertex -4.600000e+001  1.472222e+002  1.352853e+001
      vertex -4.500000e+001 -2.432641e+001  1.352853e+001
      vertex -4.600000e+001 -2.432641e+001  1.352853e+001
    endloop
  endfacet
endsolid CATIA STL
