solid CATIA STL
  facet normal  7.959193e-002 -9.396948e-001  3.326242e-001
    outer loop
      vertex  3.883233e+001 -1.369872e+002  5.182528e+001
      vertex  3.998767e+001 -1.364816e+002  5.297723e+001
      vertex  3.185517e+001 -1.369872e+002  5.349481e+001
    endloop
  endfacet
  facet normal  7.959319e-002 -9.396929e-001  3.326295e-001
    outer loop
      vertex  5.446542e+001 -1.335670e+002  5.774672e+001
      vertex  3.404198e+001 -1.335670e+002  6.263374e+001
      vertex  3.185517e+001 -1.369872e+002  5.349481e+001
    endloop
  endfacet
  facet normal  7.959230e-002 -9.396915e-001  3.326331e-001
    outer loop
      vertex  5.446542e+001 -1.335670e+002  5.774672e+001
      vertex  3.185517e+001 -1.369872e+002  5.349481e+001
      vertex  3.998767e+001 -1.364816e+002  5.297723e+001
    endloop
  endfacet
  facet normal  7.962875e-002 -9.397215e-001  3.325402e-001
    outer loop
      vertex  5.446542e+001 -1.335670e+002  5.774672e+001
      vertex  3.998767e+001 -1.364816e+002  5.297723e+001
      vertex  4.163990e+001 -1.361613e+002  5.348672e+001
    endloop
  endfacet
  facet normal  7.959346e-002 -9.396927e-001  3.326295e-001
    outer loop
      vertex  5.446542e+001 -1.335670e+002  5.774672e+001
      vertex  4.163990e+001 -1.361613e+002  5.348672e+001
      vertex  4.333593e+001 -1.361395e+002  5.314240e+001
    endloop
  endfacet
  facet normal  7.959375e-002 -9.396929e-001  3.326289e-001
    outer loop
      vertex  5.446542e+001 -1.335670e+002  5.774672e+001
      vertex  4.333593e+001 -1.361395e+002  5.314240e+001
      vertex  4.468756e+001 -1.364337e+002  5.198800e+001
    endloop
  endfacet
  facet normal  7.959399e-002 -9.396930e-001  3.326286e-001
    outer loop
      vertex  5.446542e+001 -1.335670e+002  5.774672e+001
      vertex  4.468756e+001 -1.364337e+002  5.198800e+001
      vertex  4.530145e+001 -1.369872e+002  5.027732e+001
    endloop
  endfacet
  facet normal  7.959319e-002 -9.396928e-001  3.326295e-001
    outer loop
      vertex  5.446542e+001 -1.335670e+002  5.774672e+001
      vertex  4.530145e+001 -1.369872e+002  5.027732e+001
      vertex  5.227861e+001 -1.369872e+002  4.860779e+001
    endloop
  endfacet
  facet normal  2.327186e-001  3.867100e-006  9.725442e-001
    outer loop
      vertex  3.404198e+001 -1.335670e+002  6.263374e+001
      vertex  3.364801e+001 -1.333468e+002  6.272802e+001
      vertex  3.382058e+001 -1.335087e+002  6.268672e+001
    endloop
  endfacet
  facet normal  2.327253e-001  0.000000e+000  9.725426e-001
    outer loop
      vertex  5.495169e+001 -1.320670e+002  5.763036e+001
      vertex  5.485939e+001 -1.333468e+002  5.765245e+001
      vertex  5.495169e+001 -1.330349e+002  5.763036e+001
    endloop
  endfacet
  facet normal  2.326873e-001  0.000000e+000  9.725516e-001
    outer loop
      vertex  3.355571e+001 -1.330349e+002  6.275010e+001
      vertex  3.364801e+001 -1.333468e+002  6.272802e+001
      vertex  3.355571e+001 -1.320670e+002  6.275010e+001
    endloop
  endfacet
  facet normal  2.327177e-001  2.321079e-006  9.725443e-001
    outer loop
      vertex  3.355571e+001 -1.320670e+002  6.275010e+001
      vertex  3.364801e+001 -1.333468e+002  6.272802e+001
      vertex  3.404198e+001 -1.335670e+002  6.263374e+001
    endloop
  endfacet
  facet normal  2.327153e-001  1.473860e-006  9.725450e-001
    outer loop
      vertex  3.355571e+001 -1.320670e+002  6.275010e+001
      vertex  3.404198e+001 -1.335670e+002  6.263374e+001
      vertex  5.495169e+001 -1.320670e+002  5.763036e+001
    endloop
  endfacet
  facet normal  2.327153e-001  1.597026e-006  9.725450e-001
    outer loop
      vertex  5.495169e+001 -1.320670e+002  5.763036e+001
      vertex  3.404198e+001 -1.335670e+002  6.263374e+001
      vertex  5.446542e+001 -1.335670e+002  5.774672e+001
    endloop
  endfacet
  facet normal  2.327183e-001  5.316073e-007  9.725441e-001
    outer loop
      vertex  5.495169e+001 -1.320670e+002  5.763036e+001
      vertex  5.446542e+001 -1.335670e+002  5.774672e+001
      vertex  5.485939e+001 -1.333468e+002  5.765245e+001
    endloop
  endfacet
  facet normal  2.327238e-001 -9.843749e-006  9.725429e-001
    outer loop
      vertex  5.485939e+001 -1.333468e+002  5.765245e+001
      vertex  5.446542e+001 -1.335670e+002  5.774672e+001
      vertex  5.468682e+001 -1.335087e+002  5.769374e+001
    endloop
  endfacet
  facet normal -2.327292e-001 -2.062041e-005 -9.725416e-001
    outer loop
      vertex  2.921563e+001 -1.309241e+002  4.344073e+001
      vertex  2.904369e+001 -1.307498e+002  4.348187e+001
      vertex  2.943672e+001 -1.309872e+002  4.338783e+001
    endloop
  endfacet
  facet normal -2.326836e-001  0.000000e+000 -9.725525e-001
    outer loop
      vertex  5.034644e+001 -1.304099e+002  3.838445e+001
      vertex  5.025320e+001 -1.307498e+002  3.840676e+001
      vertex  5.034644e+001 -1.294872e+002  3.838445e+001
    endloop
  endfacet
  facet normal -2.327303e-001  0.000000e+000 -9.725412e-001
    outer loop
      vertex  2.895045e+001 -1.294872e+002  4.350418e+001
      vertex  2.904369e+001 -1.307498e+002  4.348187e+001
      vertex  2.895045e+001 -1.304099e+002  4.350418e+001
    endloop
  endfacet
  facet normal -2.327168e-001  1.052631e-006 -9.725445e-001
    outer loop
      vertex  2.904369e+001 -1.307498e+002  4.348187e+001
      vertex  2.895045e+001 -1.294872e+002  4.350418e+001
      vertex  2.943672e+001 -1.309872e+002  4.338783e+001
    endloop
  endfacet
  facet normal -2.327153e-001  1.589457e-006 -9.725450e-001
    outer loop
      vertex  2.943672e+001 -1.309872e+002  4.338783e+001
      vertex  2.895045e+001 -1.294872e+002  4.350418e+001
      vertex  5.034644e+001 -1.294872e+002  3.838445e+001
    endloop
  endfacet
  facet normal -2.327153e-001  1.475925e-006 -9.725450e-001
    outer loop
      vertex  2.943672e+001 -1.309872e+002  4.338783e+001
      vertex  5.034644e+001 -1.294872e+002  3.838445e+001
      vertex  4.986016e+001 -1.309872e+002  3.850080e+001
    endloop
  endfacet
  facet normal -2.327190e-001  2.758622e-006 -9.725440e-001
    outer loop
      vertex  4.986016e+001 -1.309872e+002  3.850080e+001
      vertex  5.034644e+001 -1.294872e+002  3.838445e+001
      vertex  5.025320e+001 -1.307498e+002  3.840676e+001
    endloop
  endfacet
  facet normal -2.326991e-001 -3.207643e-005 -9.725488e-001
    outer loop
      vertex  4.986016e+001 -1.309872e+002  3.850080e+001
      vertex  5.025320e+001 -1.307498e+002  3.840676e+001
      vertex  5.008126e+001 -1.309241e+002  3.844790e+001
    endloop
  endfacet
  facet normal -1.163572e-001 -8.660264e-001 -4.862706e-001
    outer loop
      vertex  3.185517e+001 -1.369872e+002  5.349481e+001
      vertex  3.831318e+001 -1.358875e+002  4.999101e+001
      vertex  3.883233e+001 -1.369872e+002  5.182528e+001
    endloop
  endfacet
  facet normal -1.163554e-001 -8.660308e-001 -4.862634e-001
    outer loop
      vertex  5.227861e+001 -1.369872e+002  4.860779e+001
      vertex  4.530145e+001 -1.369872e+002  5.027732e+001
      vertex  4.531318e+001 -1.368280e+002  4.999101e+001
    endloop
  endfacet
  facet normal -1.163576e-001 -8.660241e-001 -4.862748e-001
    outer loop
      vertex  5.227861e+001 -1.369872e+002  4.860779e+001
      vertex  4.531318e+001 -1.368280e+002  4.999101e+001
      vertex  4.514845e+001 -1.362101e+002  4.892987e+001
    endloop
  endfacet
  facet normal -1.163576e-001 -8.660254e-001 -4.862724e-001
    outer loop
      vertex  5.227861e+001 -1.369872e+002  4.860779e+001
      vertex  4.514845e+001 -1.362101e+002  4.892987e+001
      vertex  4.986016e+001 -1.309872e+002  3.850080e+001
    endloop
  endfacet
  facet normal -1.163652e-001 -8.660349e-001 -4.862537e-001
    outer loop
      vertex  2.943672e+001 -1.309872e+002  4.338783e+001
      vertex  4.282576e+001 -1.346126e+002  4.664069e+001
      vertex  4.121806e+001 -1.343412e+002  4.654198e+001
    endloop
  endfacet
  facet normal -1.163550e-001 -8.660224e-001 -4.862784e-001
    outer loop
      vertex  2.943672e+001 -1.309872e+002  4.338783e+001
      vertex  4.121806e+001 -1.343412e+002  4.654198e+001
      vertex  3.969610e+001 -1.345084e+002  4.720390e+001
    endloop
  endfacet
  facet normal -1.163600e-001 -8.660270e-001 -4.862692e-001
    outer loop
      vertex  2.943672e+001 -1.309872e+002  4.338783e+001
      vertex  3.969610e+001 -1.345084e+002  4.720390e+001
      vertex  3.889332e+001 -1.348819e+002  4.806115e+001
    endloop
  endfacet
  facet normal -1.163569e-001 -8.660249e-001 -4.862737e-001
    outer loop
      vertex  2.943672e+001 -1.309872e+002  4.338783e+001
      vertex  3.889332e+001 -1.348819e+002  4.806115e+001
      vertex  3.831318e+001 -1.358875e+002  4.999101e+001
    endloop
  endfacet
  facet normal -1.163583e-001 -8.660254e-001 -4.862723e-001
    outer loop
      vertex  2.943672e+001 -1.309872e+002  4.338783e+001
      vertex  3.831318e+001 -1.358875e+002  4.999101e+001
      vertex  3.185517e+001 -1.369872e+002  5.349481e+001
    endloop
  endfacet
  facet normal -1.163559e-001 -8.660260e-001 -4.862719e-001
    outer loop
      vertex  4.986016e+001 -1.309872e+002  3.850080e+001
      vertex  4.514845e+001 -1.362101e+002  4.892987e+001
      vertex  4.423347e+001 -1.352634e+002  4.746273e+001
    endloop
  endfacet
  facet normal -1.163559e-001 -8.660260e-001 -4.862720e-001
    outer loop
      vertex  4.986016e+001 -1.309872e+002  3.850080e+001
      vertex  4.423347e+001 -1.352634e+002  4.746273e+001
      vertex  4.282576e+001 -1.346126e+002  4.664069e+001
    endloop
  endfacet
  facet normal -1.163578e-001 -8.660250e-001 -4.862732e-001
    outer loop
      vertex  4.986016e+001 -1.309872e+002  3.850080e+001
      vertex  4.282576e+001 -1.346126e+002  4.664069e+001
      vertex  2.943672e+001 -1.309872e+002  4.338783e+001
    endloop
  endfacet
  facet normal -9.725449e-001  0.000000e+000  2.327151e-001
    outer loop
      vertex  3.355571e+001 -1.330349e+002  6.275010e+001
      vertex  3.355571e+001 -1.320670e+002  6.275010e+001
      vertex  3.138009e+001 -1.364376e+002  5.365793e+001
    endloop
  endfacet
  facet normal -9.725448e-001 -1.327862e-006  2.327157e-001
    outer loop
      vertex  3.138009e+001 -1.364376e+002  5.365793e+001
      vertex  3.355571e+001 -1.320670e+002  6.275010e+001
      vertex  3.136890e+001 -1.354872e+002  5.361117e+001
    endloop
  endfacet
  facet normal -9.725451e-001 -1.388357e-006  2.327146e-001
    outer loop
      vertex  3.138009e+001 -1.364376e+002  5.365793e+001
      vertex  3.136890e+001 -1.354872e+002  5.361117e+001
      vertex  2.895045e+001 -1.304099e+002  4.350418e+001
    endloop
  endfacet
  facet normal -9.725448e-001  0.000000e+000  2.327152e-001
    outer loop
      vertex  2.895045e+001 -1.304099e+002  4.350418e+001
      vertex  3.136890e+001 -1.354872e+002  5.361117e+001
      vertex  2.895045e+001 -1.294872e+002  4.350418e+001
    endloop
  endfacet
  facet normal -1.517650e-001 -9.132438e-001  3.780915e-001
    outer loop
      vertex  3.185517e+001 -1.369872e+002  5.349481e+001
      vertex  3.404198e+001 -1.335670e+002  6.263374e+001
      vertex  3.163375e+001 -1.369262e+002  5.355328e+001
    endloop
  endfacet
  facet normal -1.503576e-001 -9.135795e-001  3.778425e-001
    outer loop
      vertex  3.163375e+001 -1.369262e+002  5.355328e+001
      vertex  3.404198e+001 -1.335670e+002  6.263374e+001
      vertex  3.382058e+001 -1.335087e+002  6.268672e+001
    endloop
  endfacet
  facet normal -5.696561e-001 -7.156383e-001  4.041705e-001
    outer loop
      vertex  3.163375e+001 -1.369262e+002  5.355328e+001
      vertex  3.382058e+001 -1.335087e+002  6.268672e+001
      vertex  3.146861e+001 -1.367642e+002  5.360737e+001
    endloop
  endfacet
  facet normal -5.724293e-001 -7.134579e-001  4.041071e-001
    outer loop
      vertex  3.146861e+001 -1.367642e+002  5.360737e+001
      vertex  3.382058e+001 -1.335087e+002  6.268672e+001
      vertex  3.364801e+001 -1.333468e+002  6.272802e+001
    endloop
  endfacet
  facet normal -8.988997e-001 -2.939391e-001  3.249295e-001
    outer loop
      vertex  3.146861e+001 -1.367642e+002  5.360737e+001
      vertex  3.364801e+001 -1.333468e+002  6.272802e+001
      vertex  3.138009e+001 -1.364376e+002  5.365793e+001
    endloop
  endfacet
  facet normal -9.007235e-001 -2.894914e-001  3.238699e-001
    outer loop
      vertex  3.138009e+001 -1.364376e+002  5.365793e+001
      vertex  3.364801e+001 -1.333468e+002  6.272802e+001
      vertex  3.355571e+001 -1.330349e+002  6.275010e+001
    endloop
  endfacet
  facet normal -3.405269e-001 -8.420205e-001 -4.183815e-001
    outer loop
      vertex  2.943672e+001 -1.309872e+002  4.338783e+001
      vertex  3.185517e+001 -1.369872e+002  5.349481e+001
      vertex  2.921563e+001 -1.309241e+002  4.344073e+001
    endloop
  endfacet
  facet normal -3.421975e-001 -8.416668e-001 -4.177293e-001
    outer loop
      vertex  2.921563e+001 -1.309241e+002  4.344073e+001
      vertex  3.185517e+001 -1.369872e+002  5.349481e+001
      vertex  3.163375e+001 -1.369262e+002  5.355328e+001
    endloop
  endfacet
  facet normal -7.199059e-001 -6.586808e-001 -2.188037e-001
    outer loop
      vertex  2.921563e+001 -1.309241e+002  4.344073e+001
      vertex  3.163375e+001 -1.369262e+002  5.355328e+001
      vertex  2.904369e+001 -1.307498e+002  4.348187e+001
    endloop
  endfacet
  facet normal -7.189005e-001 -6.595210e-001 -2.195775e-001
    outer loop
      vertex  2.904369e+001 -1.307498e+002  4.348187e+001
      vertex  3.163375e+001 -1.369262e+002  5.355328e+001
      vertex  3.146861e+001 -1.367642e+002  5.360737e+001
    endloop
  endfacet
  facet normal -9.607715e-001 -2.681479e-001  7.081563e-002
    outer loop
      vertex  2.904369e+001 -1.307498e+002  4.348187e+001
      vertex  3.146861e+001 -1.367642e+002  5.360737e+001
      vertex  2.895045e+001 -1.304099e+002  4.350418e+001
    endloop
  endfacet
  facet normal -9.601359e-001 -2.709027e-001  6.892525e-002
    outer loop
      vertex  2.895045e+001 -1.304099e+002  4.350418e+001
      vertex  3.146861e+001 -1.367642e+002  5.360737e+001
      vertex  3.138009e+001 -1.364376e+002  5.365793e+001
    endloop
  endfacet
  facet normal  9.725448e-001  0.000000e+000 -2.327154e-001
    outer loop
      vertex  5.495169e+001 -1.320670e+002  5.763036e+001
      vertex  5.495169e+001 -1.330349e+002  5.763036e+001
      vertex  5.276488e+001 -1.354872e+002  4.849143e+001
    endloop
  endfacet
  facet normal  9.725448e-001  3.251508e-006 -2.327163e-001
    outer loop
      vertex  5.276488e+001 -1.354872e+002  4.849143e+001
      vertex  5.495169e+001 -1.330349e+002  5.763036e+001
      vertex  5.277608e+001 -1.364376e+002  4.853819e+001
    endloop
  endfacet
  facet normal  9.725454e-001  3.414301e-006 -2.327131e-001
    outer loop
      vertex  5.276488e+001 -1.354872e+002  4.849143e+001
      vertex  5.277608e+001 -1.364376e+002  4.853819e+001
      vertex  5.034644e+001 -1.294872e+002  3.838445e+001
    endloop
  endfacet
  facet normal  9.725448e-001  0.000000e+000 -2.327153e-001
    outer loop
      vertex  5.034644e+001 -1.294872e+002  3.838445e+001
      vertex  5.277608e+001 -1.364376e+002  4.853819e+001
      vertex  5.034644e+001 -1.304099e+002  3.838445e+001
    endloop
  endfacet
  facet normal  9.579113e-001 -2.537353e-001 -1.342545e-001
    outer loop
      vertex  5.277608e+001 -1.364376e+002  4.853819e+001
      vertex  5.495169e+001 -1.330349e+002  5.763036e+001
      vertex  5.269935e+001 -1.367234e+002  4.853085e+001
    endloop
  endfacet
  facet normal  9.499147e-001 -2.894591e-001 -1.177946e-001
    outer loop
      vertex  5.269935e+001 -1.367234e+002  4.853085e+001
      vertex  5.495169e+001 -1.330349e+002  5.763036e+001
      vertex  5.485939e+001 -1.333468e+002  5.765245e+001
    endloop
  endfacet
  facet normal  7.156109e-001 -6.930487e-001  8.708865e-002
    outer loop
      vertex  5.269935e+001 -1.367234e+002  4.853085e+001
      vertex  5.485939e+001 -1.333468e+002  5.765245e+001
      vertex  5.249533e+001 -1.369303e+002  4.856105e+001
    endloop
  endfacet
  facet normal  6.933327e-001 -7.135119e-001  1.009476e-001
    outer loop
      vertex  5.249533e+001 -1.369303e+002  4.856105e+001
      vertex  5.485939e+001 -1.333468e+002  5.765245e+001
      vertex  5.468682e+001 -1.335087e+002  5.769374e+001
    endloop
  endfacet
  facet normal  2.988818e-001 -9.149782e-001  2.710804e-001
    outer loop
      vertex  5.249533e+001 -1.369303e+002  4.856105e+001
      vertex  5.468682e+001 -1.335087e+002  5.769374e+001
      vertex  5.227861e+001 -1.369872e+002  4.860779e+001
    endloop
  endfacet
  facet normal  3.051140e-001 -9.135671e-001  2.688880e-001
    outer loop
      vertex  5.227861e+001 -1.369872e+002  4.860779e+001
      vertex  5.468682e+001 -1.335087e+002  5.769374e+001
      vertex  5.446542e+001 -1.335670e+002  5.774672e+001
    endloop
  endfacet
  facet normal  8.887218e-001 -2.681507e-001 -3.718451e-001
    outer loop
      vertex  5.034644e+001 -1.304099e+002  3.838445e+001
      vertex  5.277608e+001 -1.364376e+002  4.853819e+001
      vertex  5.025320e+001 -1.307498e+002  3.840676e+001
    endloop
  endfacet
  facet normal  9.046055e-001 -2.337114e-001 -3.564658e-001
    outer loop
      vertex  5.025320e+001 -1.307498e+002  3.840676e+001
      vertex  5.277608e+001 -1.364376e+002  4.853819e+001
      vertex  5.269935e+001 -1.367234e+002  4.853085e+001
    endloop
  endfacet
  facet normal  5.433776e-001 -6.589650e-001 -5.201019e-001
    outer loop
      vertex  5.025320e+001 -1.307498e+002  3.840676e+001
      vertex  5.269935e+001 -1.367234e+002  4.853085e+001
      vertex  5.008126e+001 -1.309241e+002  3.844790e+001
    endloop
  endfacet
  facet normal  5.711960e-001 -6.386374e-001 -5.156331e-001
    outer loop
      vertex  5.008126e+001 -1.309241e+002  3.844790e+001
      vertex  5.269935e+001 -1.367234e+002  4.853085e+001
      vertex  5.249533e+001 -1.369303e+002  4.856105e+001
    endloop
  endfacet
  facet normal  1.142232e-001 -8.419631e-001 -5.273058e-001
    outer loop
      vertex  5.008126e+001 -1.309241e+002  3.844790e+001
      vertex  5.249533e+001 -1.369303e+002  4.856105e+001
      vertex  4.986016e+001 -1.309872e+002  3.850080e+001
    endloop
  endfacet
  facet normal  1.080570e-001 -8.432943e-001 -5.264773e-001
    outer loop
      vertex  4.986016e+001 -1.309872e+002  3.850080e+001
      vertex  5.249533e+001 -1.369303e+002  4.856105e+001
      vertex  5.227861e+001 -1.369872e+002  4.860779e+001
    endloop
  endfacet
  facet normal  0.000000e+000  1.000000e+000  0.000000e+000
    outer loop
      vertex  3.931318e+001 -1.290670e+002  4.566088e+001
      vertex  4.073162e+001 -1.290670e+002  4.666232e+001
      vertex  4.181318e+001 -1.290670e+002  4.499101e+001
    endloop
  endfacet
  facet normal  0.000000e+000  1.000000e+000  -0.000000e+000
    outer loop
      vertex  4.181318e+001 -1.290670e+002  4.499101e+001
      vertex  4.073162e+001 -1.290670e+002  4.666232e+001
      vertex  4.289474e+001 -1.290670e+002  4.666232e+001
    endloop
  endfacet
  facet normal  0.000000e+000  1.000000e+000  0.000000e+000
    outer loop
      vertex  4.181318e+001 -1.290670e+002  4.499101e+001
      vertex  4.289474e+001 -1.290670e+002  4.666232e+001
      vertex  4.431318e+001 -1.290670e+002  4.566088e+001
    endloop
  endfacet
  facet normal  0.000000e+000  9.999999e-001  -0.000000e+000
    outer loop
      vertex  4.431318e+001 -1.290670e+002  4.566088e+001
      vertex  4.289474e+001 -1.290670e+002  4.666232e+001
      vertex  4.464474e+001 -1.290670e+002  4.793377e+001
    endloop
  endfacet
  facet normal  0.000000e+000  1.000000e+000  0.000000e+000
    outer loop
      vertex  4.431318e+001 -1.290670e+002  4.566088e+001
      vertex  4.464474e+001 -1.290670e+002  4.793377e+001
      vertex  4.614331e+001 -1.290670e+002  4.749101e+001
    endloop
  endfacet
  facet normal  0.000000e+000  1.000000e+000  0.000000e+000
    outer loop
      vertex  4.614331e+001 -1.290670e+002  4.749101e+001
      vertex  4.464474e+001 -1.290670e+002  4.793377e+001
      vertex  4.531318e+001 -1.290670e+002  4.999101e+001
    endloop
  endfacet
  facet normal  -0.000000e+000  1.000000e+000  0.000000e+000
    outer loop
      vertex  4.614331e+001 -1.290670e+002  4.749101e+001
      vertex  4.531318e+001 -1.290670e+002  4.999101e+001
      vertex  4.681318e+001 -1.290670e+002  4.999101e+001
    endloop
  endfacet
  facet normal  0.000000e+000  1.000000e+000  0.000000e+000
    outer loop
      vertex  4.681318e+001 -1.290670e+002  4.999101e+001
      vertex  4.531318e+001 -1.290670e+002  4.999101e+001
      vertex  4.464474e+001 -1.290670e+002  5.204826e+001
    endloop
  endfacet
  facet normal  -0.000000e+000  1.000000e+000  0.000000e+000
    outer loop
      vertex  4.681318e+001 -1.290670e+002  4.999101e+001
      vertex  4.464474e+001 -1.290670e+002  5.204826e+001
      vertex  4.614331e+001 -1.290670e+002  5.249101e+001
    endloop
  endfacet
  facet normal  0.000000e+000  1.000000e+000  0.000000e+000
    outer loop
      vertex  4.614331e+001 -1.290670e+002  5.249101e+001
      vertex  4.464474e+001 -1.290670e+002  5.204826e+001
      vertex  4.289474e+001 -1.290670e+002  5.331971e+001
    endloop
  endfacet
  facet normal  -0.000000e+000  9.999999e-001  0.000000e+000
    outer loop
      vertex  4.614331e+001 -1.290670e+002  5.249101e+001
      vertex  4.289474e+001 -1.290670e+002  5.331971e+001
      vertex  4.431318e+001 -1.290670e+002  5.432114e+001
    endloop
  endfacet
  facet normal  0.000000e+000  1.000000e+000  0.000000e+000
    outer loop
      vertex  4.431318e+001 -1.290670e+002  5.432114e+001
      vertex  4.289474e+001 -1.290670e+002  5.331971e+001
      vertex  4.073162e+001 -1.290670e+002  5.331971e+001
    endloop
  endfacet
  facet normal  0.000000e+000  1.000000e+000  0.000000e+000
    outer loop
      vertex  4.431318e+001 -1.290670e+002  5.432114e+001
      vertex  4.073162e+001 -1.290670e+002  5.331971e+001
      vertex  4.181318e+001 -1.290670e+002  5.499101e+001
    endloop
  endfacet
  facet normal  0.000000e+000  1.000000e+000  -0.000000e+000
    outer loop
      vertex  4.181318e+001 -1.290670e+002  5.499101e+001
      vertex  4.073162e+001 -1.290670e+002  5.331971e+001
      vertex  3.931318e+001 -1.290670e+002  5.432114e+001
    endloop
  endfacet
  facet normal  0.000000e+000  1.000000e+000  0.000000e+000
    outer loop
      vertex  3.931318e+001 -1.290670e+002  5.432114e+001
      vertex  4.073162e+001 -1.290670e+002  5.331971e+001
      vertex  3.898162e+001 -1.290670e+002  5.204826e+001
    endloop
  endfacet
  facet normal  0.000000e+000  9.999999e-001  -0.000000e+000
    outer loop
      vertex  3.931318e+001 -1.290670e+002  5.432114e+001
      vertex  3.898162e+001 -1.290670e+002  5.204826e+001
      vertex  3.748306e+001 -1.290670e+002  5.249101e+001
    endloop
  endfacet
  facet normal  0.000000e+000  1.000000e+000  0.000000e+000
    outer loop
      vertex  3.748306e+001 -1.290670e+002  5.249101e+001
      vertex  3.898162e+001 -1.290670e+002  5.204826e+001
      vertex  3.831318e+001 -1.290670e+002  4.999101e+001
    endloop
  endfacet
  facet normal  0.000000e+000  1.000000e+000  0.000000e+000
    outer loop
      vertex  3.748306e+001 -1.290670e+002  5.249101e+001
      vertex  3.831318e+001 -1.290670e+002  4.999101e+001
      vertex  3.681318e+001 -1.290670e+002  4.999101e+001
    endloop
  endfacet
  facet normal  -0.000000e+000  1.000000e+000  0.000000e+000
    outer loop
      vertex  3.681318e+001 -1.290670e+002  4.999101e+001
      vertex  3.831318e+001 -1.290670e+002  4.999101e+001
      vertex  3.898162e+001 -1.290670e+002  4.793377e+001
    endloop
  endfacet
  facet normal  0.000000e+000  1.000000e+000  0.000000e+000
    outer loop
      vertex  3.681318e+001 -1.290670e+002  4.999101e+001
      vertex  3.898162e+001 -1.290670e+002  4.793377e+001
      vertex  3.748306e+001 -1.290670e+002  4.749101e+001
    endloop
  endfacet
  facet normal  -0.000000e+000  1.000000e+000  0.000000e+000
    outer loop
      vertex  3.748306e+001 -1.290670e+002  4.749101e+001
      vertex  3.898162e+001 -1.290670e+002  4.793377e+001
      vertex  4.073162e+001 -1.290670e+002  4.666232e+001
    endloop
  endfacet
  facet normal  0.000000e+000  1.000000e+000  0.000000e+000
    outer loop
      vertex  3.748306e+001 -1.290670e+002  4.749101e+001
      vertex  4.073162e+001 -1.290670e+002  4.666232e+001
      vertex  3.931318e+001 -1.290670e+002  4.566088e+001
    endloop
  endfacet
  facet normal  5.876471e-001 -2.160248e-002 -8.088289e-001
    outer loop
      vertex  4.073162e+001 -1.290670e+002  5.331971e+001
      vertex  3.998767e+001 -1.364816e+002  5.297723e+001
      vertex  3.898162e+001 -1.290670e+002  5.204826e+001
    endloop
  endfacet
  facet normal  2.920052e-001  1.487258e-002 -9.563012e-001
    outer loop
      vertex  4.163990e+001 -1.361613e+002  5.348672e+001
      vertex  3.998767e+001 -1.364816e+002  5.297723e+001
      vertex  4.073162e+001 -1.290670e+002  5.331971e+001
    endloop
  endfacet
  facet normal  0.000000e+000 -2.353515e-002 -9.997230e-001
    outer loop
      vertex  4.289474e+001 -1.290670e+002  5.331971e+001
      vertex  4.163990e+001 -1.361613e+002  5.348672e+001
      vertex  4.073162e+001 -1.290670e+002  5.331971e+001
    endloop
  endfacet
  facet normal -1.990930e-001  1.214697e-002 -9.799053e-001
    outer loop
      vertex  4.289474e+001 -1.290670e+002  5.331971e+001
      vertex  4.333593e+001 -1.361395e+002  5.314240e+001
      vertex  4.163990e+001 -1.361613e+002  5.348672e+001
    endloop
  endfacet
  facet normal  9.622036e-001  0.000000e+000 -2.723311e-001
    outer loop
      vertex  3.883233e+001 -1.369872e+002  5.182528e+001
      vertex  3.831318e+001 -1.358875e+002  4.999101e+001
      vertex  3.831318e+001 -1.343875e+002  4.999101e+001
    endloop
  endfacet
  facet normal  9.622036e-001  0.000000e+000 -2.723311e-001
    outer loop
      vertex  3.883233e+001 -1.369872e+002  5.182528e+001
      vertex  3.831318e+001 -1.343875e+002  4.999101e+001
      vertex  3.831318e+001 -1.320670e+002  4.999101e+001
    endloop
  endfacet
  facet normal  9.622036e-001  0.000000e+000 -2.723311e-001
    outer loop
      vertex  3.883233e+001 -1.369872e+002  5.182528e+001
      vertex  3.831318e+001 -1.320670e+002  4.999101e+001
      vertex  3.831318e+001 -1.290670e+002  4.999101e+001
    endloop
  endfacet
  facet normal  9.510165e-001 -9.226134e-003 -3.090024e-001
    outer loop
      vertex  3.883233e+001 -1.369872e+002  5.182528e+001
      vertex  3.831318e+001 -1.290670e+002  4.999101e+001
      vertex  3.898162e+001 -1.290670e+002  5.204826e+001
    endloop
  endfacet
  facet normal  7.045808e-001  6.697099e-003 -7.095921e-001
    outer loop
      vertex  3.883233e+001 -1.369872e+002  5.182528e+001
      vertex  3.898162e+001 -1.290670e+002  5.204826e+001
      vertex  3.998767e+001 -1.364816e+002  5.297723e+001
    endloop
  endfacet
  facet normal -9.991618e-001  0.000000e+000 -4.093670e-002
    outer loop
      vertex  4.531318e+001 -1.368280e+002  4.999101e+001
      vertex  4.530145e+001 -1.369872e+002  5.027732e+001
      vertex  4.531318e+001 -1.290670e+002  4.999101e+001
    endloop
  endfacet
  facet normal -9.422712e-001 -1.070267e-002 -3.346796e-001
    outer loop
      vertex  4.531318e+001 -1.290670e+002  4.999101e+001
      vertex  4.530145e+001 -1.369872e+002  5.027732e+001
      vertex  4.468756e+001 -1.364337e+002  5.198800e+001
    endloop
  endfacet
  facet normal -9.510521e-001 -2.999853e-003 -3.090158e-001
    outer loop
      vertex  4.531318e+001 -1.290670e+002  4.999101e+001
      vertex  4.468756e+001 -1.364337e+002  5.198800e+001
      vertex  4.464474e+001 -1.290670e+002  5.204826e+001
    endloop
  endfacet
  facet normal -6.491380e-001  2.449521e-003 -7.606667e-001
    outer loop
      vertex  4.464474e+001 -1.290670e+002  5.204826e+001
      vertex  4.468756e+001 -1.364337e+002  5.198800e+001
      vertex  4.333593e+001 -1.361395e+002  5.314240e+001
    endloop
  endfacet
  facet normal -5.877054e-001 -1.638214e-002 -8.089092e-001
    outer loop
      vertex  4.464474e+001 -1.290670e+002  5.204826e+001
      vertex  4.333593e+001 -1.361395e+002  5.314240e+001
      vertex  4.289474e+001 -1.290670e+002  5.331971e+001
    endloop
  endfacet
  facet normal  9.576656e-001  0.000000e+000  2.878829e-001
    outer loop
      vertex  3.831318e+001 -1.358875e+002  4.999101e+001
      vertex  3.889332e+001 -1.348819e+002  4.806115e+001
      vertex  3.831318e+001 -1.343875e+002  4.999101e+001
    endloop
  endfacet
  facet normal  9.576657e-001  0.000000e+000  2.878830e-001
    outer loop
      vertex  3.889332e+001 -1.348819e+002  4.806115e+001
      vertex  3.831318e+001 -1.320670e+002  4.999101e+001
      vertex  3.831318e+001 -1.343875e+002  4.999101e+001
    endloop
  endfacet
  facet normal -8.439653e-001  1.525760e-002  5.361809e-001
    outer loop
      vertex  4.423347e+001 -1.352634e+002  4.746273e+001
      vertex  4.514845e+001 -1.362101e+002  4.892987e+001
      vertex  4.464474e+001 -1.290670e+002  4.793377e+001
    endloop
  endfacet
  facet normal -9.909871e-001 -5.270733e-002  1.231523e-001
    outer loop
      vertex  4.464474e+001 -1.290670e+002  4.793377e+001
      vertex  4.514845e+001 -1.362101e+002  4.892987e+001
      vertex  4.531318e+001 -1.368280e+002  4.999101e+001
    endloop
  endfacet
  facet normal -9.510563e-001  0.000000e+000  3.090177e-001
    outer loop
      vertex  4.464474e+001 -1.290670e+002  4.793377e+001
      vertex  4.531318e+001 -1.368280e+002  4.999101e+001
      vertex  4.531318e+001 -1.290670e+002  4.999101e+001
    endloop
  endfacet
  facet normal  3.973264e-001  1.571135e-002  9.175428e-001
    outer loop
      vertex  3.969610e+001 -1.345084e+002  4.720390e+001
      vertex  4.121806e+001 -1.343412e+002  4.654198e+001
      vertex  4.073162e+001 -1.290670e+002  4.666232e+001
    endloop
  endfacet
  facet normal -6.610726e-002 -2.885356e-002  9.973953e-001
    outer loop
      vertex  4.073162e+001 -1.290670e+002  4.666232e+001
      vertex  4.121806e+001 -1.343412e+002  4.654198e+001
      vertex  4.282576e+001 -1.346126e+002  4.664069e+001
    endloop
  endfacet
  facet normal  0.000000e+000 -3.900233e-003  9.999923e-001
    outer loop
      vertex  4.073162e+001 -1.290670e+002  4.666232e+001
      vertex  4.282576e+001 -1.346126e+002  4.664069e+001
      vertex  4.289474e+001 -1.290670e+002  4.666232e+001
    endloop
  endfacet
  facet normal -5.032749e-001  2.890221e-003  8.641216e-001
    outer loop
      vertex  4.289474e+001 -1.290670e+002  4.666232e+001
      vertex  4.282576e+001 -1.346126e+002  4.664069e+001
      vertex  4.423347e+001 -1.352634e+002  4.746273e+001
    endloop
  endfacet
  facet normal -5.876369e-001 -2.248096e-002  8.088124e-001
    outer loop
      vertex  4.289474e+001 -1.290670e+002  4.666232e+001
      vertex  4.423347e+001 -1.352634e+002  4.746273e+001
      vertex  4.464474e+001 -1.290670e+002  4.793377e+001
    endloop
  endfacet
  facet normal  5.874971e-001 -3.132037e-002  8.086200e-001
    outer loop
      vertex  4.073162e+001 -1.290670e+002  4.666232e+001
      vertex  3.898162e+001 -1.290670e+002  4.793377e+001
      vertex  3.969610e+001 -1.345084e+002  4.720390e+001
    endloop
  endfacet
  facet normal  7.290525e-001  3.922345e-003  6.844464e-001
    outer loop
      vertex  3.969610e+001 -1.345084e+002  4.720390e+001
      vertex  3.898162e+001 -1.290670e+002  4.793377e+001
      vertex  3.889332e+001 -1.348819e+002  4.806115e+001
    endloop
  endfacet
  facet normal  9.510289e-001 -7.672948e-003  3.090070e-001
    outer loop
      vertex  3.898162e+001 -1.290670e+002  4.793377e+001
      vertex  3.831318e+001 -1.290670e+002  4.999101e+001
      vertex  3.889332e+001 -1.348819e+002  4.806115e+001
    endloop
  endfacet
  facet normal  9.576656e-001  0.000000e+000  2.878829e-001
    outer loop
      vertex  3.889332e+001 -1.348819e+002  4.806115e+001
      vertex  3.831318e+001 -1.290670e+002  4.999101e+001
      vertex  3.831318e+001 -1.320670e+002  4.999101e+001
    endloop
  endfacet
  facet normal -7.955877e-002  9.397464e-001 -3.324862e-001
    outer loop
      vertex  5.276488e+001 -1.354872e+002  4.849143e+001
      vertex  4.681261e+001 -1.354872e+002  4.991572e+001
      vertex  4.681318e+001 -1.354605e+002  4.999101e+001
    endloop
  endfacet
  facet normal -7.959601e-002  9.396914e-001 -3.326330e-001
    outer loop
      vertex  5.276488e+001 -1.354872e+002  4.849143e+001
      vertex  4.681318e+001 -1.354605e+002  4.999101e+001
      vertex  4.662773e+001 -1.349987e+002  5.134013e+001
    endloop
  endfacet
  facet normal -7.959865e-002  9.396892e-001 -3.326382e-001
    outer loop
      vertex  5.276488e+001 -1.354872e+002  4.849143e+001
      vertex  4.662773e+001 -1.349987e+002  5.134013e+001
      vertex  4.607528e+001 -1.345976e+002  5.260531e+001
    endloop
  endfacet
  facet normal -7.958578e-002  9.396971e-001 -3.326190e-001
    outer loop
      vertex  5.276488e+001 -1.354872e+002  4.849143e+001
      vertex  4.607528e+001 -1.345976e+002  5.260531e+001
      vertex  4.459840e+001 -1.341783e+002  5.414343e+001
    endloop
  endfacet
  facet normal -7.960104e-002  9.396887e-001 -3.326391e-001
    outer loop
      vertex  5.276488e+001 -1.354872e+002  4.849143e+001
      vertex  4.459840e+001 -1.341783e+002  5.414343e+001
      vertex  3.355571e+001 -1.320670e+002  6.275010e+001
    endloop
  endfacet
  facet normal -7.959320e-002  9.396927e-001 -3.326295e-001
    outer loop
      vertex  5.276488e+001 -1.354872e+002  4.849143e+001
      vertex  3.355571e+001 -1.320670e+002  6.275010e+001
      vertex  5.495169e+001 -1.320670e+002  5.763036e+001
    endloop
  endfacet
  facet normal -7.959218e-002  9.396931e-001 -3.326288e-001
    outer loop
      vertex  3.355571e+001 -1.320670e+002  6.275010e+001
      vertex  4.459840e+001 -1.341783e+002  5.414343e+001
      vertex  4.266592e+001 -1.340679e+002  5.491776e+001
    endloop
  endfacet
  facet normal -7.959122e-002  9.396935e-001 -3.326279e-001
    outer loop
      vertex  3.355571e+001 -1.320670e+002  6.275010e+001
      vertex  4.266592e+001 -1.340679e+002  5.491776e+001
      vertex  4.094397e+001 -1.342147e+002  5.491488e+001
    endloop
  endfacet
  facet normal -7.959431e-002  9.396924e-001 -3.326304e-001
    outer loop
      vertex  3.355571e+001 -1.320670e+002  6.275010e+001
      vertex  4.094397e+001 -1.342147e+002  5.491488e+001
      vertex  3.902036e+001 -1.346525e+002  5.413832e+001
    endloop
  endfacet
  facet normal -7.959212e-002  9.396930e-001 -3.326292e-001
    outer loop
      vertex  3.355571e+001 -1.320670e+002  6.275010e+001
      vertex  3.902036e+001 -1.346525e+002  5.413832e+001
      vertex  3.732117e+001 -1.354872e+002  5.218688e+001
    endloop
  endfacet
  facet normal -7.959329e-002  9.396928e-001 -3.326296e-001
    outer loop
      vertex  3.355571e+001 -1.320670e+002  6.275010e+001
      vertex  3.732117e+001 -1.354872e+002  5.218688e+001
      vertex  3.136890e+001 -1.354872e+002  5.361117e+001
    endloop
  endfacet
  facet normal  1.163572e-001  8.660261e-001  4.862715e-001
    outer loop
      vertex  4.681261e+001 -1.354872e+002  4.991572e+001
      vertex  5.276488e+001 -1.354872e+002  4.849143e+001
      vertex  4.653904e+001 -1.345759e+002  4.835817e+001
    endloop
  endfacet
  facet normal  1.163398e-001  8.660396e-001  4.862512e-001
    outer loop
      vertex  5.034644e+001 -1.294872e+002  3.838445e+001
      vertex  3.853785e+001 -1.322965e+002  4.621315e+001
      vertex  4.020645e+001 -1.319833e+002  4.525621e+001
    endloop
  endfacet
  facet normal  1.163585e-001  8.660248e-001  4.862735e-001
    outer loop
      vertex  5.034644e+001 -1.294872e+002  3.838445e+001
      vertex  4.020645e+001 -1.319833e+002  4.525621e+001
      vertex  4.214938e+001 -1.321018e+002  4.500233e+001
    endloop
  endfacet
  facet normal  1.163591e-001  8.660243e-001  4.862740e-001
    outer loop
      vertex  5.034644e+001 -1.294872e+002  3.838445e+001
      vertex  4.214938e+001 -1.321018e+002  4.500233e+001
      vertex  4.413068e+001 -1.326815e+002  4.556053e+001
    endloop
  endfacet
  facet normal  1.163569e-001  8.660255e-001  4.862726e-001
    outer loop
      vertex  5.034644e+001 -1.294872e+002  3.838445e+001
      vertex  4.413068e+001 -1.326815e+002  4.556053e+001
      vertex  4.578535e+001 -1.336864e+002  4.695426e+001
    endloop
  endfacet
  facet normal  1.163570e-001  8.660254e-001  4.862726e-001
    outer loop
      vertex  5.034644e+001 -1.294872e+002  3.838445e+001
      vertex  4.578535e+001 -1.336864e+002  4.695426e+001
      vertex  4.653904e+001 -1.345759e+002  4.835817e+001
    endloop
  endfacet
  facet normal  1.163571e-001  8.660254e-001  4.862726e-001
    outer loop
      vertex  5.034644e+001 -1.294872e+002  3.838445e+001
      vertex  4.653904e+001 -1.345759e+002  4.835817e+001
      vertex  5.276488e+001 -1.354872e+002  4.849143e+001
    endloop
  endfacet
  facet normal  1.163577e-001  8.660254e-001  4.862725e-001
    outer loop
      vertex  2.895045e+001 -1.294872e+002  4.350418e+001
      vertex  3.136890e+001 -1.354872e+002  5.361117e+001
      vertex  3.732117e+001 -1.354872e+002  5.218688e+001
    endloop
  endfacet
  facet normal  1.163606e-001  8.660263e-001  4.862703e-001
    outer loop
      vertex  2.895045e+001 -1.294872e+002  4.350418e+001
      vertex  3.732117e+001 -1.354872e+002  5.218688e+001
      vertex  3.681318e+001 -1.341860e+002  4.999101e+001
    endloop
  endfacet
  facet normal  1.163580e-001  8.660253e-001  4.862727e-001
    outer loop
      vertex  2.895045e+001 -1.294872e+002  4.350418e+001
      vertex  3.681318e+001 -1.341860e+002  4.999101e+001
      vertex  3.734405e+001 -1.329984e+002  4.774895e+001
    endloop
  endfacet
  facet normal  1.163579e-001  8.660251e-001  4.862729e-001
    outer loop
      vertex  2.895045e+001 -1.294872e+002  4.350418e+001
      vertex  3.734405e+001 -1.329984e+002  4.774895e+001
      vertex  3.853785e+001 -1.322965e+002  4.621315e+001
    endloop
  endfacet
  facet normal  1.163578e-001  8.660251e-001  4.862731e-001
    outer loop
      vertex  2.895045e+001 -1.294872e+002  4.350418e+001
      vertex  3.853785e+001 -1.322965e+002  4.621315e+001
      vertex  5.034644e+001 -1.294872e+002  3.838445e+001
    endloop
  endfacet
  facet normal -7.070382e-001  1.392484e-002  7.070382e-001
    outer loop
      vertex  3.748306e+001 -1.290670e+002  5.249101e+001
      vertex  3.902036e+001 -1.346525e+002  5.413832e+001
      vertex  3.931318e+001 -1.290670e+002  5.432114e+001
    endloop
  endfacet
  facet normal -3.721972e-001 -1.086465e-002  9.280901e-001
    outer loop
      vertex  3.931318e+001 -1.290670e+002  5.432114e+001
      vertex  3.902036e+001 -1.346525e+002  5.413832e+001
      vertex  4.094397e+001 -1.342147e+002  5.491488e+001
    endloop
  endfacet
  facet normal -2.587069e-001  2.940491e-002  9.655082e-001
    outer loop
      vertex  3.931318e+001 -1.290670e+002  5.432114e+001
      vertex  4.094397e+001 -1.342147e+002  5.491488e+001
      vertex  4.181318e+001 -1.290670e+002  5.499101e+001
    endloop
  endfacet
  facet normal -4.149221e-004 -1.471748e-002  9.998916e-001
    outer loop
      vertex  4.094397e+001 -1.342147e+002  5.491488e+001
      vertex  4.266592e+001 -1.340679e+002  5.491776e+001
      vertex  4.181318e+001 -1.290670e+002  5.499101e+001
    endloop
  endfacet
  facet normal  2.587025e-001  2.997097e-002  9.654921e-001
    outer loop
      vertex  4.431318e+001 -1.290670e+002  5.432114e+001
      vertex  4.181318e+001 -1.290670e+002  5.499101e+001
      vertex  4.266592e+001 -1.340679e+002  5.491776e+001
    endloop
  endfacet
  facet normal  3.713502e-001 -1.155770e-002  9.284210e-001
    outer loop
      vertex  4.266592e+001 -1.340679e+002  5.491776e+001
      vertex  4.459840e+001 -1.341783e+002  5.414343e+001
      vertex  4.431318e+001 -1.290670e+002  5.432114e+001
    endloop
  endfacet
  facet normal -9.659259e-001  0.000000e+000  2.588188e-001
    outer loop
      vertex  3.681318e+001 -1.290670e+002  4.999101e+001
      vertex  3.681318e+001 -1.341860e+002  4.999101e+001
      vertex  3.748306e+001 -1.290670e+002  5.249101e+001
    endloop
  endfacet
  facet normal -9.723969e-001  1.348398e-002  2.329430e-001
    outer loop
      vertex  3.748306e+001 -1.290670e+002  5.249101e+001
      vertex  3.681318e+001 -1.341860e+002  4.999101e+001
      vertex  3.732117e+001 -1.354872e+002  5.218688e+001
    endloop
  endfacet
  facet normal -7.515006e-001 -1.229811e-002  6.596177e-001
    outer loop
      vertex  3.748306e+001 -1.290670e+002  5.249101e+001
      vertex  3.732117e+001 -1.354872e+002  5.218688e+001
      vertex  3.902036e+001 -1.346525e+002  5.413832e+001
    endloop
  endfacet
  facet normal  7.070286e-001  1.487162e-002  7.070286e-001
    outer loop
      vertex  4.431318e+001 -1.290670e+002  5.432114e+001
      vertex  4.459840e+001 -1.341783e+002  5.414343e+001
      vertex  4.614331e+001 -1.290670e+002  5.249101e+001
    endloop
  endfacet
  facet normal  7.220484e-001  5.415396e-003  6.918212e-001
    outer loop
      vertex  4.614331e+001 -1.290670e+002  5.249101e+001
      vertex  4.459840e+001 -1.341783e+002  5.414343e+001
      vertex  4.607528e+001 -1.345976e+002  5.260531e+001
    endloop
  endfacet
  facet normal  9.659053e-001 -6.533328e-003  2.588133e-001
    outer loop
      vertex  4.614331e+001 -1.290670e+002  5.249101e+001
      vertex  4.607528e+001 -1.345976e+002  5.260531e+001
      vertex  4.681318e+001 -1.290670e+002  4.999101e+001
    endloop
  endfacet
  facet normal  9.215388e-001  5.849313e-002  3.838550e-001
    outer loop
      vertex  4.681318e+001 -1.290670e+002  4.999101e+001
      vertex  4.607528e+001 -1.345976e+002  5.260531e+001
      vertex  4.662773e+001 -1.349987e+002  5.134013e+001
    endloop
  endfacet
  facet normal  9.906836e-001  0.000000e+000  1.361835e-001
    outer loop
      vertex  4.681318e+001 -1.290670e+002  4.999101e+001
      vertex  4.662773e+001 -1.349987e+002  5.134013e+001
      vertex  4.681318e+001 -1.354605e+002  4.999101e+001
    endloop
  endfacet
  facet normal  8.777126e-001 -1.235328e-002 -4.790280e-001
    outer loop
      vertex  4.653904e+001 -1.345759e+002  4.835817e+001
      vertex  4.578535e+001 -1.336864e+002  4.695426e+001
      vertex  4.614331e+001 -1.290670e+002  4.749101e+001
    endloop
  endfacet
  facet normal -2.584316e-001  5.467758e-002 -9.644809e-001
    outer loop
      vertex  4.181318e+001 -1.290670e+002  4.499101e+001
      vertex  4.020645e+001 -1.319833e+002  4.525621e+001
      vertex  3.931318e+001 -1.290670e+002  4.566088e+001
    endloop
  endfacet
  facet normal -4.929754e-001 -3.034195e-002 -8.695140e-001
    outer loop
      vertex  4.020645e+001 -1.319833e+002  4.525621e+001
      vertex  3.853785e+001 -1.322965e+002  4.621315e+001
      vertex  3.931318e+001 -1.290670e+002  4.566088e+001
    endloop
  endfacet
  facet normal -7.062649e-001  4.878255e-002 -7.062649e-001
    outer loop
      vertex  3.748306e+001 -1.290670e+002  4.749101e+001
      vertex  3.931318e+001 -1.290670e+002  4.566088e+001
      vertex  3.853785e+001 -1.322965e+002  4.621315e+001
    endloop
  endfacet
  facet normal  9.659259e-001  0.000000e+000 -2.588188e-001
    outer loop
      vertex  4.681318e+001 -1.290670e+002  4.999101e+001
      vertex  4.681318e+001 -1.354605e+002  4.999101e+001
      vertex  4.614331e+001 -1.290670e+002  4.749101e+001
    endloop
  endfacet
  facet normal  9.952650e-001  8.900439e-002 -3.905974e-002
    outer loop
      vertex  4.614331e+001 -1.290670e+002  4.749101e+001
      vertex  4.681318e+001 -1.354605e+002  4.999101e+001
      vertex  4.681261e+001 -1.354872e+002  4.991572e+001
    endloop
  endfacet
  facet normal  9.881991e-001  4.809569e-002 -1.454287e-001
    outer loop
      vertex  4.614331e+001 -1.290670e+002  4.749101e+001
      vertex  4.681261e+001 -1.354872e+002  4.991572e+001
      vertex  4.653904e+001 -1.345759e+002  4.835817e+001
    endloop
  endfacet
  facet normal  7.068421e-001  2.735892e-002 -7.068421e-001
    outer loop
      vertex  4.614331e+001 -1.290670e+002  4.749101e+001
      vertex  4.578535e+001 -1.336864e+002  4.695426e+001
      vertex  4.431318e+001 -1.290670e+002  4.566088e+001
    endloop
  endfacet
  facet normal  6.402670e-001 -1.100282e-002 -7.680736e-001
    outer loop
      vertex  4.431318e+001 -1.290670e+002  4.566088e+001
      vertex  4.578535e+001 -1.336864e+002  4.695426e+001
      vertex  4.413068e+001 -1.326815e+002  4.556053e+001
    endloop
  endfacet
  facet normal  2.587943e-001  1.374980e-002 -9.658346e-001
    outer loop
      vertex  4.431318e+001 -1.290670e+002  4.566088e+001
      vertex  4.413068e+001 -1.326815e+002  4.556053e+001
      vertex  4.181318e+001 -1.290670e+002  4.499101e+001
    endloop
  endfacet
  facet normal  2.784584e-001  2.726769e-002 -9.600612e-001
    outer loop
      vertex  4.181318e+001 -1.290670e+002  4.499101e+001
      vertex  4.413068e+001 -1.326815e+002  4.556053e+001
      vertex  4.214938e+001 -1.321018e+002  4.500233e+001
    endloop
  endfacet
  facet normal -1.306330e-001 -1.816871e-002 -9.912643e-001
    outer loop
      vertex  4.181318e+001 -1.290670e+002  4.499101e+001
      vertex  4.214938e+001 -1.321018e+002  4.500233e+001
      vertex  4.020645e+001 -1.319833e+002  4.525621e+001
    endloop
  endfacet
  facet normal -9.730946e-001  -0.000000e+000 -2.304060e-001
    outer loop
      vertex  3.681318e+001 -1.341860e+002  4.999101e+001
      vertex  3.681318e+001 -1.290670e+002  4.999101e+001
      vertex  3.734405e+001 -1.329984e+002  4.774895e+001
    endloop
  endfacet
  facet normal -9.657834e-001  1.716930e-002 -2.587806e-001
    outer loop
      vertex  3.734405e+001 -1.329984e+002  4.774895e+001
      vertex  3.681318e+001 -1.290670e+002  4.999101e+001
      vertex  3.748306e+001 -1.290670e+002  4.749101e+001
    endloop
  endfacet
  facet normal -7.866465e-001 -1.268493e-002 -6.172733e-001
    outer loop
      vertex  3.734405e+001 -1.329984e+002  4.774895e+001
      vertex  3.748306e+001 -1.290670e+002  4.749101e+001
      vertex  3.853785e+001 -1.322965e+002  4.621315e+001
    endloop
  endfacet
endsolid CATIA STL
