solid CATIA STL
  facet normal  1.000000e+000  0.000000e+000  0.000000e+000
    outer loop
      vertex  3.727000e+001  1.347090e+002  1.642442e+001
      vertex  3.727000e+001  1.347090e+002  1.625716e+001
      vertex  3.727000e+001  1.352921e+002  1.642442e+001
    endloop
  endfacet
  facet normal  1.000000e+000  0.000000e+000  0.000000e+000
    outer loop
      vertex  3.727000e+001  1.347090e+002  1.625716e+001
      vertex  3.727000e+001  1.347090e+002  1.642442e+001
      vertex  3.727000e+001  1.341259e+002  1.642442e+001
    endloop
  endfacet
  facet normal  1.000000e+000  0.000000e+000  0.000000e+000
    outer loop
      vertex  3.727000e+001  1.340773e+002  1.442442e+001
      vertex  3.727000e+001  1.323750e+002  1.547237e+001
      vertex  3.727000e+001  1.329980e+002  1.442442e+001
    endloop
  endfacet
  facet normal  1.000000e+000  0.000000e+000  0.000000e+000
    outer loop
      vertex  3.727000e+001  1.323750e+002  1.547237e+001
      vertex  3.727000e+001  1.315677e+002  1.606847e+001
      vertex  3.727000e+001  1.329980e+002  1.442442e+001
    endloop
  endfacet
  facet normal  9.999999e-001  -0.000000e+000  0.000000e+000
    outer loop
      vertex  3.727000e+001  1.378502e+002  1.606847e+001
      vertex  3.727000e+001  1.370430e+002  1.547237e+001
      vertex  3.727000e+001  1.364199e+002  1.442442e+001
    endloop
  endfacet
  facet normal  1.000000e+000  0.000000e+000  0.000000e+000
    outer loop
      vertex  3.727000e+001  1.370430e+002  1.547237e+001
      vertex  3.727000e+001  1.353407e+002  1.442442e+001
      vertex  3.727000e+001  1.364199e+002  1.442442e+001
    endloop
  endfacet
  facet normal  9.999999e-001  -0.000000e+000  -0.000000e+000
    outer loop
      vertex  3.727000e+001  1.347090e+002  2.075249e+001
      vertex  3.727000e+001  1.356360e+002  2.021033e+001
      vertex  3.727000e+001  1.367729e+002  2.005319e+001
    endloop
  endfacet
  facet normal  1.000000e+000  0.000000e+000  0.000000e+000
    outer loop
      vertex  3.727000e+001  1.367729e+002  2.005319e+001
      vertex  3.727000e+001  1.356360e+002  2.021033e+001
      vertex  3.727000e+001  1.371360e+002  1.912052e+001
    endloop
  endfacet
  facet normal  1.000000e+000  0.000000e+000  0.000000e+000
    outer loop
      vertex  3.727000e+001  1.371360e+002  1.912052e+001
      vertex  3.727000e+001  1.379866e+002  1.824335e+001
      vertex  3.727000e+001  1.367729e+002  2.005319e+001
    endloop
  endfacet
  facet normal  1.000000e+000  0.000000e+000  0.000000e+000
    outer loop
      vertex  3.727000e+001  1.337819e+002  2.021033e+001
      vertex  3.727000e+001  1.356360e+002  2.021033e+001
      vertex  3.727000e+001  1.347090e+002  2.075249e+001
    endloop
  endfacet
  facet normal  9.999999e-001  0.000000e+000  -0.000000e+000
    outer loop
      vertex  3.727000e+001  1.326451e+002  2.005319e+001
      vertex  3.727000e+001  1.337819e+002  2.021033e+001
      vertex  3.727000e+001  1.347090e+002  2.075249e+001
    endloop
  endfacet
  facet normal  1.000000e+000  0.000000e+000  0.000000e+000
    outer loop
      vertex  3.727000e+001  1.322819e+002  1.912052e+001
      vertex  3.727000e+001  1.337819e+002  2.021033e+001
      vertex  3.727000e+001  1.326451e+002  2.005319e+001
    endloop
  endfacet
  facet normal  1.000000e+000  0.000000e+000  -0.000000e+000
    outer loop
      vertex  3.727000e+001  1.314313e+002  1.824335e+001
      vertex  3.727000e+001  1.322819e+002  1.912052e+001
      vertex  3.727000e+001  1.326451e+002  2.005319e+001
    endloop
  endfacet
  facet normal  9.999999e-001  0.000000e+000  0.000000e+000
    outer loop
      vertex  3.727000e+001  1.317090e+002  1.735716e+001
      vertex  3.727000e+001  1.322819e+002  1.912052e+001
      vertex  3.727000e+001  1.314313e+002  1.824335e+001
    endloop
  endfacet
  facet normal  1.000000e+000  0.000000e+000  0.000000e+000
    outer loop
      vertex  3.727000e+001  1.317090e+002  1.735716e+001
      vertex  3.727000e+001  1.314313e+002  1.824335e+001
      vertex  3.727000e+001  1.315677e+002  1.606847e+001
    endloop
  endfacet
  facet normal  9.999999e-001  -0.000000e+000  0.000000e+000
    outer loop
      vertex  3.727000e+001  1.317090e+002  1.735716e+001
      vertex  3.727000e+001  1.315677e+002  1.606847e+001
      vertex  3.727000e+001  1.323750e+002  1.547237e+001
    endloop
  endfacet
  facet normal  9.999999e-001  0.000000e+000  0.000000e+000
    outer loop
      vertex  3.727000e+001  1.377090e+002  1.735716e+001
      vertex  3.727000e+001  1.370430e+002  1.547237e+001
      vertex  3.727000e+001  1.378502e+002  1.606847e+001
    endloop
  endfacet
  facet normal  1.000000e+000  0.000000e+000  -0.000000e+000
    outer loop
      vertex  3.727000e+001  1.377090e+002  1.735716e+001
      vertex  3.727000e+001  1.378502e+002  1.606847e+001
      vertex  3.727000e+001  1.379866e+002  1.824335e+001
    endloop
  endfacet
  facet normal  1.000000e+000  0.000000e+000  0.000000e+000
    outer loop
      vertex  3.727000e+001  1.377090e+002  1.735716e+001
      vertex  3.727000e+001  1.379866e+002  1.824335e+001
      vertex  3.727000e+001  1.371360e+002  1.912052e+001
    endloop
  endfacet
  facet normal -9.999999e-001  0.000000e+000  0.000000e+000
    outer loop
      vertex  3.727000e+001  1.353407e+002  1.442442e+001
      vertex  3.727000e+001  1.347090e+002  1.435716e+001
      vertex  3.727000e+001  1.347090e+002  1.442442e+001
    endloop
  endfacet
  facet normal -9.999999e-001  -0.000000e+000  -0.000000e+000
    outer loop
      vertex  3.727000e+001  1.340773e+002  1.442442e+001
      vertex  3.727000e+001  1.347090e+002  1.442442e+001
      vertex  3.727000e+001  1.347090e+002  1.435716e+001
    endloop
  endfacet
  facet normal -1.000000e+000  0.000000e+000  -0.000000e+000
    outer loop
      vertex  3.727000e+001  1.352921e+002  1.642442e+001
      vertex  3.727000e+001  1.356711e+002  1.682397e+001
      vertex  3.727000e+001  1.360090e+002  1.642442e+001
    endloop
  endfacet
  facet normal -9.999999e-001  -0.000000e+000  0.000000e+000
    outer loop
      vertex  3.727000e+001  1.336407e+002  1.854832e+001
      vertex  3.727000e+001  1.347090e+002  1.845716e+001
      vertex  3.727000e+001  1.339311e+002  1.813498e+001
    endloop
  endfacet
  facet normal -1.000000e+000  0.000000e+000  0.000000e+000
    outer loop
      vertex  3.727000e+001  1.357772e+002  1.854832e+001
      vertex  3.727000e+001  1.362995e+002  1.753072e+001
      vertex  3.727000e+001  1.354868e+002  1.813498e+001
    endloop
  endfacet
  facet normal -9.999999e-001  0.000000e+000  0.000000e+000
    outer loop
      vertex  3.727000e+001  1.357772e+002  1.854832e+001
      vertex  3.727000e+001  1.354868e+002  1.813498e+001
      vertex  3.727000e+001  1.347090e+002  1.845716e+001
    endloop
  endfacet
  facet normal -1.000000e+000  0.000000e+000  0.000000e+000
    outer loop
      vertex  3.727000e+001  1.357772e+002  1.854832e+001
      vertex  3.727000e+001  1.347090e+002  1.845716e+001
      vertex  3.727000e+001  1.336407e+002  1.854832e+001
    endloop
  endfacet
  facet normal -1.000000e+000  0.000000e+000  0.000000e+000
    outer loop
      vertex  3.727000e+001  1.357772e+002  1.854832e+001
      vertex  3.727000e+001  1.336407e+002  1.854832e+001
      vertex  3.727000e+001  1.347090e+002  1.895716e+001
    endloop
  endfacet
  facet normal -9.999999e-001  0.000000e+000  0.000000e+000
    outer loop
      vertex  3.727000e+001  1.360090e+002  1.642442e+001
      vertex  3.727000e+001  1.356711e+002  1.682397e+001
      vertex  3.727000e+001  1.362995e+002  1.753072e+001
    endloop
  endfacet
  facet normal -1.000000e+000  0.000000e+000  0.000000e+000
    outer loop
      vertex  3.727000e+001  1.362995e+002  1.753072e+001
      vertex  3.727000e+001  1.356711e+002  1.682397e+001
      vertex  3.727000e+001  1.358090e+002  1.735716e+001
    endloop
  endfacet
  facet normal -1.000000e+000  0.000000e+000  0.000000e+000
    outer loop
      vertex  3.727000e+001  1.362995e+002  1.753072e+001
      vertex  3.727000e+001  1.358090e+002  1.735716e+001
      vertex  3.727000e+001  1.354868e+002  1.813498e+001
    endloop
  endfacet
  facet normal -1.000000e+000  -0.000000e+000  0.000000e+000
    outer loop
      vertex  3.727000e+001  1.336407e+002  1.854832e+001
      vertex  3.727000e+001  1.339311e+002  1.813498e+001
      vertex  3.727000e+001  1.331184e+002  1.753072e+001
    endloop
  endfacet
  facet normal -1.000000e+000  0.000000e+000  0.000000e+000
    outer loop
      vertex  3.727000e+001  1.331184e+002  1.753072e+001
      vertex  3.727000e+001  1.339311e+002  1.813498e+001
      vertex  3.727000e+001  1.336089e+002  1.735716e+001
    endloop
  endfacet
  facet normal -1.000000e+000  -0.000000e+000  0.000000e+000
    outer loop
      vertex  3.727000e+001  1.331184e+002  1.753072e+001
      vertex  3.727000e+001  1.336089e+002  1.735716e+001
      vertex  3.727000e+001  1.334090e+002  1.642442e+001
    endloop
  endfacet
  facet normal -1.000000e+000  0.000000e+000  0.000000e+000
    outer loop
      vertex  3.727000e+001  1.334090e+002  1.642442e+001
      vertex  3.727000e+001  1.336089e+002  1.735716e+001
      vertex  3.727000e+001  1.337468e+002  1.682397e+001
    endloop
  endfacet
  facet normal -1.000000e+000  0.000000e+000  -0.000000e+000
    outer loop
      vertex  3.727000e+001  1.334090e+002  1.642442e+001
      vertex  3.727000e+001  1.337468e+002  1.682397e+001
      vertex  3.727000e+001  1.341259e+002  1.642442e+001
    endloop
  endfacet
  facet normal  4.329660e-003 -7.254650e-001  6.882454e-001
    outer loop
      vertex  3.727000e+001  1.352921e+002  1.642442e+001
      vertex  4.527000e+001  1.354868e+002  1.657934e+001
      vertex  3.727000e+001  1.356711e+002  1.682397e+001
    endloop
  endfacet
  facet normal -9.584604e-003 -9.238340e-001  3.826730e-001
    outer loop
      vertex  3.727000e+001  1.356711e+002  1.682397e+001
      vertex  4.527000e+001  1.354868e+002  1.657934e+001
      vertex  4.527000e+001  1.358090e+002  1.735716e+001
    endloop
  endfacet
  facet normal  0.000000e+000 -9.681610e-001  2.503279e-001
    outer loop
      vertex  3.727000e+001  1.356711e+002  1.682397e+001
      vertex  4.527000e+001  1.358090e+002  1.735716e+001
      vertex  3.727000e+001  1.358090e+002  1.735716e+001
    endloop
  endfacet
  facet normal  4.330279e-003  7.254788e-001  6.882308e-001
    outer loop
      vertex  3.727000e+001  1.337468e+002  1.682397e+001
      vertex  4.527000e+001  1.339311e+002  1.657934e+001
      vertex  3.727000e+001  1.341259e+002  1.642442e+001
    endloop
  endfacet
  facet normal -8.576306e-003  3.826688e-001  9.238458e-001
    outer loop
      vertex  3.727000e+001  1.341259e+002  1.642442e+001
      vertex  4.527000e+001  1.339311e+002  1.657934e+001
      vertex  4.527000e+001  1.347090e+002  1.625716e+001
    endloop
  endfacet
  facet normal  0.000000e+000  2.757289e-001  9.612355e-001
    outer loop
      vertex  3.727000e+001  1.341259e+002  1.642442e+001
      vertex  4.527000e+001  1.347090e+002  1.625716e+001
      vertex  3.727000e+001  1.347090e+002  1.625716e+001
    endloop
  endfacet
  facet normal  0.000000e+000 -3.826829e-001  9.238797e-001
    outer loop
      vertex  3.727000e+001  1.347090e+002  1.625716e+001
      vertex  4.527000e+001  1.347090e+002  1.625716e+001
      vertex  4.527000e+001  1.354868e+002  1.657934e+001
    endloop
  endfacet
  facet normal -1.190240e-002 -2.757093e-001  9.611674e-001
    outer loop
      vertex  3.727000e+001  1.347090e+002  1.625716e+001
      vertex  4.527000e+001  1.354868e+002  1.657934e+001
      vertex  3.727000e+001  1.352921e+002  1.642442e+001
    endloop
  endfacet
  facet normal  0.000000e+000  9.681544e-001  2.503539e-001
    outer loop
      vertex  3.727000e+001  1.336089e+002  1.735716e+001
      vertex  4.527000e+001  1.336089e+002  1.735716e+001
      vertex  3.727000e+001  1.337468e+002  1.682397e+001
    endloop
  endfacet
  facet normal -9.582843e-003  9.238341e-001  3.826730e-001
    outer loop
      vertex  3.727000e+001  1.337468e+002  1.682397e+001
      vertex  4.527000e+001  1.336089e+002  1.735716e+001
      vertex  4.527000e+001  1.339311e+002  1.657934e+001
    endloop
  endfacet
  facet normal  5.443969e-003 -5.877764e-001 -8.090052e-001
    outer loop
      vertex  4.527000e+001  1.337819e+002  1.450399e+001
      vertex  4.527000e+001  1.322819e+002  1.559381e+001
      vertex  3.727000e+001  1.323750e+002  1.547237e+001
    endloop
  endfacet
  facet normal -1.088349e-002 -5.242025e-001 -8.515241e-001
    outer loop
      vertex  4.527000e+001  1.337819e+002  1.450399e+001
      vertex  3.727000e+001  1.323750e+002  1.547237e+001
      vertex  3.727000e+001  1.340773e+002  1.442442e+001
    endloop
  endfacet
  facet normal  5.981185e-003 -1.058771e-001 -9.943612e-001
    outer loop
      vertex  4.527000e+001  1.337819e+002  1.450399e+001
      vertex  3.727000e+001  1.340773e+002  1.442442e+001
      vertex  3.727000e+001  1.347090e+002  1.435716e+001
    endloop
  endfacet
  facet normal  3.050581e-002  1.058297e-001 -9.939163e-001
    outer loop
      vertex  4.527000e+001  1.337819e+002  1.450399e+001
      vertex  3.727000e+001  1.347090e+002  1.435716e+001
      vertex  3.727000e+001  1.353407e+002  1.442442e+001
    endloop
  endfacet
  facet normal  9.945616e-003  0.000000e+000 -9.999505e-001
    outer loop
      vertex  4.527000e+001  1.337819e+002  1.450399e+001
      vertex  3.727000e+001  1.353407e+002  1.442442e+001
      vertex  4.527000e+001  1.356360e+002  1.450399e+001
    endloop
  endfacet
  facet normal  0.000000e+000  9.428679e-001 -3.331669e-001
    outer loop
      vertex  3.727000e+001  1.377090e+002  1.735716e+001
      vertex  4.527000e+001  1.377090e+002  1.735716e+001
      vertex  3.727000e+001  1.370430e+002  1.547237e+001
    endloop
  endfacet
  facet normal -6.370825e-003  9.510367e-001 -3.090124e-001
    outer loop
      vertex  3.727000e+001  1.370430e+002  1.547237e+001
      vertex  4.527000e+001  1.377090e+002  1.735716e+001
      vertex  4.527000e+001  1.371360e+002  1.559381e+001
    endloop
  endfacet
  facet normal  6.829064e-003  5.242213e-001 -8.515546e-001
    outer loop
      vertex  3.727000e+001  1.370430e+002  1.547237e+001
      vertex  4.527000e+001  1.371360e+002  1.559381e+001
      vertex  3.727000e+001  1.353407e+002  1.442442e+001
    endloop
  endfacet
  facet normal -1.365238e-002  5.877303e-001 -8.089417e-001
    outer loop
      vertex  3.727000e+001  1.353407e+002  1.442442e+001
      vertex  4.527000e+001  1.371360e+002  1.559381e+001
      vertex  4.527000e+001  1.356360e+002  1.450399e+001
    endloop
  endfacet
  facet normal -6.370818e-003 -9.510367e-001 -3.090124e-001
    outer loop
      vertex  4.527000e+001  1.322819e+002  1.559381e+001
      vertex  4.527000e+001  1.317090e+002  1.735716e+001
      vertex  3.727000e+001  1.323750e+002  1.547237e+001
    endloop
  endfacet
  facet normal  0.000000e+000 -9.428679e-001 -3.331669e-001
    outer loop
      vertex  3.727000e+001  1.323750e+002  1.547237e+001
      vertex  4.527000e+001  1.317090e+002  1.735716e+001
      vertex  3.727000e+001  1.317090e+002  1.735716e+001
    endloop
  endfacet
  facet normal  0.000000e+000 -9.510561e-001  3.090184e-001
    outer loop
      vertex  3.727000e+001  1.317090e+002  1.735716e+001
      vertex  4.527000e+001  1.317090e+002  1.735716e+001
      vertex  3.727000e+001  1.322819e+002  1.912052e+001
    endloop
  endfacet
  facet normal  0.000000e+000 -9.510561e-001  3.090184e-001
    outer loop
      vertex  3.727000e+001  1.322819e+002  1.912052e+001
      vertex  4.527000e+001  1.317090e+002  1.735716e+001
      vertex  4.527000e+001  1.322819e+002  1.912052e+001
    endloop
  endfacet
  facet normal  0.000000e+000 -5.877850e-001  8.090171e-001
    outer loop
      vertex  3.727000e+001  1.322819e+002  1.912052e+001
      vertex  4.527000e+001  1.322819e+002  1.912052e+001
      vertex  3.727000e+001  1.337819e+002  2.021033e+001
    endloop
  endfacet
  facet normal  0.000000e+000 -5.877850e-001  8.090171e-001
    outer loop
      vertex  3.727000e+001  1.337819e+002  2.021033e+001
      vertex  4.527000e+001  1.322819e+002  1.912052e+001
      vertex  4.527000e+001  1.337819e+002  2.021033e+001
    endloop
  endfacet
  facet normal  0.000000e+000  0.000000e+000  1.000000e+000
    outer loop
      vertex  3.727000e+001  1.337819e+002  2.021033e+001
      vertex  4.527000e+001  1.337819e+002  2.021033e+001
      vertex  3.727000e+001  1.356360e+002  2.021033e+001
    endloop
  endfacet
  facet normal  -0.000000e+000  0.000000e+000  1.000000e+000
    outer loop
      vertex  3.727000e+001  1.356360e+002  2.021033e+001
      vertex  4.527000e+001  1.337819e+002  2.021033e+001
      vertex  4.527000e+001  1.356360e+002  2.021033e+001
    endloop
  endfacet
  facet normal  0.000000e+000  5.877850e-001  8.090171e-001
    outer loop
      vertex  3.727000e+001  1.356360e+002  2.021033e+001
      vertex  4.527000e+001  1.356360e+002  2.021033e+001
      vertex  3.727000e+001  1.371360e+002  1.912052e+001
    endloop
  endfacet
  facet normal  -0.000000e+000  5.877850e-001  8.090171e-001
    outer loop
      vertex  3.727000e+001  1.371360e+002  1.912052e+001
      vertex  4.527000e+001  1.356360e+002  2.021033e+001
      vertex  4.527000e+001  1.371360e+002  1.912052e+001
    endloop
  endfacet
  facet normal  0.000000e+000  9.510561e-001  3.090184e-001
    outer loop
      vertex  3.727000e+001  1.371360e+002  1.912052e+001
      vertex  4.527000e+001  1.371360e+002  1.912052e+001
      vertex  3.727000e+001  1.377090e+002  1.735716e+001
    endloop
  endfacet
  facet normal  -0.000000e+000  9.510561e-001  3.090184e-001
    outer loop
      vertex  3.727000e+001  1.377090e+002  1.735716e+001
      vertex  4.527000e+001  1.371360e+002  1.912052e+001
      vertex  4.527000e+001  1.377090e+002  1.735716e+001
    endloop
  endfacet
  facet normal  0.000000e+000  0.000000e+000  9.999999e-001
    outer loop
      vertex  3.727000e+001  1.334090e+002  1.642442e+001
      vertex  3.227000e+001  1.347090e+002  1.642442e+001
      vertex  3.227000e+001  1.334090e+002  1.642442e+001
    endloop
  endfacet
  facet normal  -0.000000e+000  0.000000e+000  9.999999e-001
    outer loop
      vertex  3.227000e+001  1.360090e+002  1.642442e+001
      vertex  3.227000e+001  1.347090e+002  1.642442e+001
      vertex  3.727000e+001  1.334090e+002  1.642442e+001
    endloop
  endfacet
  facet normal  0.000000e+000  -0.000000e+000  1.000000e+000
    outer loop
      vertex  3.227000e+001  1.360090e+002  1.642442e+001
      vertex  3.727000e+001  1.334090e+002  1.642442e+001
      vertex  3.727000e+001  1.341259e+002  1.642442e+001
    endloop
  endfacet
  facet normal  0.000000e+000  -0.000000e+000  1.000000e+000
    outer loop
      vertex  3.227000e+001  1.360090e+002  1.642442e+001
      vertex  3.727000e+001  1.341259e+002  1.642442e+001
      vertex  3.727000e+001  1.347090e+002  1.642442e+001
    endloop
  endfacet
  facet normal  0.000000e+000  -0.000000e+000  1.000000e+000
    outer loop
      vertex  3.227000e+001  1.360090e+002  1.642442e+001
      vertex  3.727000e+001  1.347090e+002  1.642442e+001
      vertex  3.727000e+001  1.352921e+002  1.642442e+001
    endloop
  endfacet
  facet normal  0.000000e+000  -0.000000e+000  1.000000e+000
    outer loop
      vertex  3.227000e+001  1.360090e+002  1.642442e+001
      vertex  3.727000e+001  1.352921e+002  1.642442e+001
      vertex  3.727000e+001  1.360090e+002  1.642442e+001
    endloop
  endfacet
  facet normal  0.000000e+000 -3.574398e-001 -9.339362e-001
    outer loop
      vertex  3.727000e+001  1.347090e+002  1.895716e+001
      vertex  3.227000e+001  1.357772e+002  1.854832e+001
      vertex  3.727000e+001  1.357772e+002  1.854832e+001
    endloop
  endfacet
  facet normal  -0.000000e+000 -8.896528e-001 -4.566376e-001
    outer loop
      vertex  3.727000e+001  1.357772e+002  1.854832e+001
      vertex  3.227000e+001  1.357772e+002  1.854832e+001
      vertex  3.227000e+001  1.362995e+002  1.753072e+001
    endloop
  endfacet
  facet normal  0.000000e+000 -8.896528e-001 -4.566376e-001
    outer loop
      vertex  3.727000e+001  1.357772e+002  1.854832e+001
      vertex  3.227000e+001  1.362995e+002  1.753072e+001
      vertex  3.727000e+001  1.362995e+002  1.753072e+001
    endloop
  endfacet
  facet normal  0.000000e+000 -9.671977e-001  2.540253e-001
    outer loop
      vertex  3.727000e+001  1.362995e+002  1.753072e+001
      vertex  3.227000e+001  1.362995e+002  1.753072e+001
      vertex  3.227000e+001  1.360090e+002  1.642442e+001
    endloop
  endfacet
  facet normal  0.000000e+000 -9.671977e-001  2.540253e-001
    outer loop
      vertex  3.727000e+001  1.362995e+002  1.753072e+001
      vertex  3.227000e+001  1.360090e+002  1.642442e+001
      vertex  3.727000e+001  1.360090e+002  1.642442e+001
    endloop
  endfacet
  facet normal  -0.000000e+000 -3.574398e-001 -9.339362e-001
    outer loop
      vertex  3.227000e+001  1.357772e+002  1.854832e+001
      vertex  3.727000e+001  1.347090e+002  1.895716e+001
      vertex  3.227000e+001  1.347090e+002  1.895716e+001
    endloop
  endfacet
  facet normal  0.000000e+000  3.574398e-001 -9.339362e-001
    outer loop
      vertex  3.227000e+001  1.347090e+002  1.895716e+001
      vertex  3.727000e+001  1.347090e+002  1.895716e+001
      vertex  3.727000e+001  1.336407e+002  1.854832e+001
    endloop
  endfacet
  facet normal  0.000000e+000  3.574398e-001 -9.339362e-001
    outer loop
      vertex  3.227000e+001  1.347090e+002  1.895716e+001
      vertex  3.727000e+001  1.336407e+002  1.854832e+001
      vertex  3.227000e+001  1.336407e+002  1.854832e+001
    endloop
  endfacet
  facet normal  0.000000e+000  8.896528e-001 -4.566376e-001
    outer loop
      vertex  3.227000e+001  1.336407e+002  1.854832e+001
      vertex  3.727000e+001  1.336407e+002  1.854832e+001
      vertex  3.727000e+001  1.331184e+002  1.753072e+001
    endloop
  endfacet
  facet normal  0.000000e+000  8.896528e-001 -4.566376e-001
    outer loop
      vertex  3.227000e+001  1.336407e+002  1.854832e+001
      vertex  3.727000e+001  1.331184e+002  1.753072e+001
      vertex  3.227000e+001  1.331184e+002  1.753072e+001
    endloop
  endfacet
  facet normal  -0.000000e+000  9.671977e-001  2.540253e-001
    outer loop
      vertex  3.227000e+001  1.331184e+002  1.753072e+001
      vertex  3.727000e+001  1.331184e+002  1.753072e+001
      vertex  3.727000e+001  1.334090e+002  1.642442e+001
    endloop
  endfacet
  facet normal  0.000000e+000  9.671977e-001  2.540253e-001
    outer loop
      vertex  3.227000e+001  1.331184e+002  1.753072e+001
      vertex  3.727000e+001  1.334090e+002  1.642442e+001
      vertex  3.227000e+001  1.334090e+002  1.642442e+001
    endloop
  endfacet
  facet normal  0.000000e+000  0.000000e+000 -1.000000e+000
    outer loop
      vertex  3.727000e+001  1.364199e+002  1.442442e+001
      vertex  3.227000e+001  1.347090e+002  1.442442e+001
      vertex  3.227000e+001  1.364199e+002  1.442442e+001
    endloop
  endfacet
  facet normal  0.000000e+000  0.000000e+000 -1.000000e+000
    outer loop
      vertex  3.227000e+001  1.329980e+002  1.442442e+001
      vertex  3.227000e+001  1.347090e+002  1.442442e+001
      vertex  3.727000e+001  1.364199e+002  1.442442e+001
    endloop
  endfacet
  facet normal  0.000000e+000  -0.000000e+000 -1.000000e+000
    outer loop
      vertex  3.227000e+001  1.329980e+002  1.442442e+001
      vertex  3.727000e+001  1.364199e+002  1.442442e+001
      vertex  3.727000e+001  1.353407e+002  1.442442e+001
    endloop
  endfacet
  facet normal  0.000000e+000  -0.000000e+000 -9.999999e-001
    outer loop
      vertex  3.227000e+001  1.329980e+002  1.442442e+001
      vertex  3.727000e+001  1.353407e+002  1.442442e+001
      vertex  3.727000e+001  1.347090e+002  1.442442e+001
    endloop
  endfacet
  facet normal  0.000000e+000  -0.000000e+000 -9.999999e-001
    outer loop
      vertex  3.227000e+001  1.329980e+002  1.442442e+001
      vertex  3.727000e+001  1.347090e+002  1.442442e+001
      vertex  3.727000e+001  1.340773e+002  1.442442e+001
    endloop
  endfacet
  facet normal  0.000000e+000  -0.000000e+000 -1.000000e+000
    outer loop
      vertex  3.227000e+001  1.329980e+002  1.442442e+001
      vertex  3.727000e+001  1.340773e+002  1.442442e+001
      vertex  3.727000e+001  1.329980e+002  1.442442e+001
    endloop
  endfacet
  facet normal  9.999999e-001  0.000000e+000  0.000000e+000
    outer loop
      vertex  4.527000e+001  1.347090e+002  1.845716e+001
      vertex  4.527000e+001  1.371360e+002  1.912052e+001
      vertex  4.527000e+001  1.356360e+002  2.021033e+001
    endloop
  endfacet
  facet normal  1.000000e+000  0.000000e+000  -0.000000e+000
    outer loop
      vertex  4.527000e+001  1.322819e+002  1.559381e+001
      vertex  4.527000e+001  1.337819e+002  1.450399e+001
      vertex  4.527000e+001  1.347090e+002  1.625716e+001
    endloop
  endfacet
  facet normal  1.000000e+000  0.000000e+000  0.000000e+000
    outer loop
      vertex  4.527000e+001  1.322819e+002  1.559381e+001
      vertex  4.527000e+001  1.347090e+002  1.625716e+001
      vertex  4.527000e+001  1.339311e+002  1.657934e+001
    endloop
  endfacet
  facet normal  1.000000e+000  0.000000e+000  0.000000e+000
    outer loop
      vertex  4.527000e+001  1.322819e+002  1.559381e+001
      vertex  4.527000e+001  1.339311e+002  1.657934e+001
      vertex  4.527000e+001  1.336089e+002  1.735716e+001
    endloop
  endfacet
  facet normal  1.000000e+000  0.000000e+000  0.000000e+000
    outer loop
      vertex  4.527000e+001  1.322819e+002  1.559381e+001
      vertex  4.527000e+001  1.336089e+002  1.735716e+001
      vertex  4.527000e+001  1.317090e+002  1.735716e+001
    endloop
  endfacet
  facet normal  1.000000e+000  0.000000e+000  0.000000e+000
    outer loop
      vertex  4.527000e+001  1.337819e+002  1.450399e+001
      vertex  4.527000e+001  1.356360e+002  1.450399e+001
      vertex  4.527000e+001  1.347090e+002  1.625716e+001
    endloop
  endfacet
  facet normal  1.000000e+000  0.000000e+000  0.000000e+000
    outer loop
      vertex  4.527000e+001  1.347090e+002  1.625716e+001
      vertex  4.527000e+001  1.356360e+002  1.450399e+001
      vertex  4.527000e+001  1.371360e+002  1.559381e+001
    endloop
  endfacet
  facet normal  1.000000e+000  0.000000e+000  0.000000e+000
    outer loop
      vertex  4.527000e+001  1.347090e+002  1.625716e+001
      vertex  4.527000e+001  1.371360e+002  1.559381e+001
      vertex  4.527000e+001  1.354868e+002  1.657934e+001
    endloop
  endfacet
  facet normal  1.000000e+000  -0.000000e+000  0.000000e+000
    outer loop
      vertex  4.527000e+001  1.356360e+002  2.021033e+001
      vertex  4.527000e+001  1.337819e+002  2.021033e+001
      vertex  4.527000e+001  1.347090e+002  1.845716e+001
    endloop
  endfacet
  facet normal  1.000000e+000  0.000000e+000  0.000000e+000
    outer loop
      vertex  4.527000e+001  1.347090e+002  1.845716e+001
      vertex  4.527000e+001  1.337819e+002  2.021033e+001
      vertex  4.527000e+001  1.322819e+002  1.912052e+001
    endloop
  endfacet
  facet normal  1.000000e+000  0.000000e+000  0.000000e+000
    outer loop
      vertex  4.527000e+001  1.347090e+002  1.845716e+001
      vertex  4.527000e+001  1.322819e+002  1.912052e+001
      vertex  4.527000e+001  1.339311e+002  1.813498e+001
    endloop
  endfacet
  facet normal  1.000000e+000  0.000000e+000  0.000000e+000
    outer loop
      vertex  4.527000e+001  1.339311e+002  1.813498e+001
      vertex  4.527000e+001  1.322819e+002  1.912052e+001
      vertex  4.527000e+001  1.317090e+002  1.735716e+001
    endloop
  endfacet
  facet normal  9.999999e-001  0.000000e+000  0.000000e+000
    outer loop
      vertex  4.527000e+001  1.339311e+002  1.813498e+001
      vertex  4.527000e+001  1.317090e+002  1.735716e+001
      vertex  4.527000e+001  1.336089e+002  1.735716e+001
    endloop
  endfacet
  facet normal  9.999999e-001  -0.000000e+000  0.000000e+000
    outer loop
      vertex  4.527000e+001  1.371360e+002  1.912052e+001
      vertex  4.527000e+001  1.347090e+002  1.845716e+001
      vertex  4.527000e+001  1.377090e+002  1.735716e+001
    endloop
  endfacet
  facet normal  1.000000e+000  0.000000e+000  0.000000e+000
    outer loop
      vertex  4.527000e+001  1.377090e+002  1.735716e+001
      vertex  4.527000e+001  1.347090e+002  1.845716e+001
      vertex  4.527000e+001  1.354868e+002  1.813498e+001
    endloop
  endfacet
  facet normal  9.999999e-001  0.000000e+000  0.000000e+000
    outer loop
      vertex  4.527000e+001  1.377090e+002  1.735716e+001
      vertex  4.527000e+001  1.354868e+002  1.813498e+001
      vertex  4.527000e+001  1.358090e+002  1.735716e+001
    endloop
  endfacet
  facet normal  1.000000e+000  0.000000e+000  0.000000e+000
    outer loop
      vertex  4.527000e+001  1.354868e+002  1.657934e+001
      vertex  4.527000e+001  1.371360e+002  1.559381e+001
      vertex  4.527000e+001  1.358090e+002  1.735716e+001
    endloop
  endfacet
  facet normal  1.000000e+000  -0.000000e+000  0.000000e+000
    outer loop
      vertex  4.527000e+001  1.358090e+002  1.735716e+001
      vertex  4.527000e+001  1.371360e+002  1.559381e+001
      vertex  4.527000e+001  1.377090e+002  1.735716e+001
    endloop
  endfacet
  facet normal  0.000000e+000  3.826829e-001 -9.238797e-001
    outer loop
      vertex  3.727000e+001  1.347090e+002  1.845716e+001
      vertex  4.527000e+001  1.339311e+002  1.813498e+001
      vertex  3.727000e+001  1.339311e+002  1.813498e+001
    endloop
  endfacet
  facet normal  0.000000e+000  9.238769e-001 -3.826898e-001
    outer loop
      vertex  3.727000e+001  1.339311e+002  1.813498e+001
      vertex  4.527000e+001  1.339311e+002  1.813498e+001
      vertex  4.527000e+001  1.336089e+002  1.735716e+001
    endloop
  endfacet
  facet normal  0.000000e+000  9.238769e-001 -3.826898e-001
    outer loop
      vertex  3.727000e+001  1.339311e+002  1.813498e+001
      vertex  4.527000e+001  1.336089e+002  1.735716e+001
      vertex  3.727000e+001  1.336089e+002  1.735716e+001
    endloop
  endfacet
  facet normal  0.000000e+000  3.826829e-001 -9.238797e-001
    outer loop
      vertex  4.527000e+001  1.339311e+002  1.813498e+001
      vertex  3.727000e+001  1.347090e+002  1.845716e+001
      vertex  4.527000e+001  1.347090e+002  1.845716e+001
    endloop
  endfacet
  facet normal  -0.000000e+000 -3.826829e-001 -9.238797e-001
    outer loop
      vertex  4.527000e+001  1.347090e+002  1.845716e+001
      vertex  3.727000e+001  1.347090e+002  1.845716e+001
      vertex  3.727000e+001  1.354868e+002  1.813498e+001
    endloop
  endfacet
  facet normal  0.000000e+000 -3.826829e-001 -9.238797e-001
    outer loop
      vertex  4.527000e+001  1.347090e+002  1.845716e+001
      vertex  3.727000e+001  1.354868e+002  1.813498e+001
      vertex  4.527000e+001  1.354868e+002  1.813498e+001
    endloop
  endfacet
  facet normal  -0.000000e+000 -9.238769e-001 -3.826898e-001
    outer loop
      vertex  4.527000e+001  1.354868e+002  1.813498e+001
      vertex  3.727000e+001  1.354868e+002  1.813498e+001
      vertex  3.727000e+001  1.358090e+002  1.735716e+001
    endloop
  endfacet
  facet normal  0.000000e+000 -9.238769e-001 -3.826898e-001
    outer loop
      vertex  4.527000e+001  1.354868e+002  1.813498e+001
      vertex  3.727000e+001  1.358090e+002  1.735716e+001
      vertex  4.527000e+001  1.358090e+002  1.735716e+001
    endloop
  endfacet
  facet normal -1.000000e+000  0.000000e+000  0.000000e+000
    outer loop
      vertex  3.227000e+001  1.334090e+002  1.642442e+001
      vertex  3.227000e+001  1.315677e+002  1.606847e+001
      vertex  3.227000e+001  1.331184e+002  1.753072e+001
    endloop
  endfacet
  facet normal -1.000000e+000  -0.000000e+000  0.000000e+000
    outer loop
      vertex  3.227000e+001  1.334090e+002  1.642442e+001
      vertex  3.227000e+001  1.347090e+002  1.642442e+001
      vertex  3.227000e+001  1.315677e+002  1.606847e+001
    endloop
  endfacet
  facet normal -1.000000e+000  0.000000e+000  0.000000e+000
    outer loop
      vertex  3.227000e+001  1.360090e+002  1.642442e+001
      vertex  3.227000e+001  1.378502e+002  1.606847e+001
      vertex  3.227000e+001  1.347090e+002  1.642442e+001
    endloop
  endfacet
  facet normal -1.000000e+000  0.000000e+000  -0.000000e+000
    outer loop
      vertex  3.227000e+001  1.360090e+002  1.642442e+001
      vertex  3.227000e+001  1.362995e+002  1.753072e+001
      vertex  3.227000e+001  1.378502e+002  1.606847e+001
    endloop
  endfacet
  facet normal -9.999999e-001  0.000000e+000  0.000000e+000
    outer loop
      vertex  3.227000e+001  1.367729e+002  2.005319e+001
      vertex  3.227000e+001  1.379866e+002  1.824335e+001
      vertex  3.227000e+001  1.347090e+002  2.075249e+001
    endloop
  endfacet
  facet normal -1.000000e+000  0.000000e+000  0.000000e+000
    outer loop
      vertex  3.227000e+001  1.347090e+002  2.075249e+001
      vertex  3.227000e+001  1.379866e+002  1.824335e+001
      vertex  3.227000e+001  1.347090e+002  1.895716e+001
    endloop
  endfacet
  facet normal -1.000000e+000  0.000000e+000  0.000000e+000
    outer loop
      vertex  3.227000e+001  1.347090e+002  2.075249e+001
      vertex  3.227000e+001  1.347090e+002  1.895716e+001
      vertex  3.227000e+001  1.326451e+002  2.005319e+001
    endloop
  endfacet
  facet normal -9.999999e-001  0.000000e+000  -0.000000e+000
    outer loop
      vertex  3.227000e+001  1.326451e+002  2.005319e+001
      vertex  3.227000e+001  1.347090e+002  1.895716e+001
      vertex  3.227000e+001  1.314313e+002  1.824335e+001
    endloop
  endfacet
  facet normal -9.999999e-001  0.000000e+000  0.000000e+000
    outer loop
      vertex  3.227000e+001  1.378502e+002  1.606847e+001
      vertex  3.227000e+001  1.362995e+002  1.753072e+001
      vertex  3.227000e+001  1.379866e+002  1.824335e+001
    endloop
  endfacet
  facet normal -1.000000e+000  -0.000000e+000  0.000000e+000
    outer loop
      vertex  3.227000e+001  1.379866e+002  1.824335e+001
      vertex  3.227000e+001  1.362995e+002  1.753072e+001
      vertex  3.227000e+001  1.357772e+002  1.854832e+001
    endloop
  endfacet
  facet normal -1.000000e+000  0.000000e+000  0.000000e+000
    outer loop
      vertex  3.227000e+001  1.379866e+002  1.824335e+001
      vertex  3.227000e+001  1.357772e+002  1.854832e+001
      vertex  3.227000e+001  1.347090e+002  1.895716e+001
    endloop
  endfacet
  facet normal -1.000000e+000  0.000000e+000  0.000000e+000
    outer loop
      vertex  3.227000e+001  1.329980e+002  1.442442e+001
      vertex  3.227000e+001  1.315677e+002  1.606847e+001
      vertex  3.227000e+001  1.347090e+002  1.442442e+001
    endloop
  endfacet
  facet normal -1.000000e+000  0.000000e+000  0.000000e+000
    outer loop
      vertex  3.227000e+001  1.347090e+002  1.442442e+001
      vertex  3.227000e+001  1.315677e+002  1.606847e+001
      vertex  3.227000e+001  1.347090e+002  1.642442e+001
    endloop
  endfacet
  facet normal -9.999999e-001  0.000000e+000  0.000000e+000
    outer loop
      vertex  3.227000e+001  1.347090e+002  1.442442e+001
      vertex  3.227000e+001  1.347090e+002  1.642442e+001
      vertex  3.227000e+001  1.364199e+002  1.442442e+001
    endloop
  endfacet
  facet normal -1.000000e+000  0.000000e+000  0.000000e+000
    outer loop
      vertex  3.227000e+001  1.364199e+002  1.442442e+001
      vertex  3.227000e+001  1.347090e+002  1.642442e+001
      vertex  3.227000e+001  1.378502e+002  1.606847e+001
    endloop
  endfacet
  facet normal -9.999999e-001  0.000000e+000  0.000000e+000
    outer loop
      vertex  3.227000e+001  1.331184e+002  1.753072e+001
      vertex  3.227000e+001  1.315677e+002  1.606847e+001
      vertex  3.227000e+001  1.336407e+002  1.854832e+001
    endloop
  endfacet
  facet normal -1.000000e+000  0.000000e+000  0.000000e+000
    outer loop
      vertex  3.227000e+001  1.336407e+002  1.854832e+001
      vertex  3.227000e+001  1.315677e+002  1.606847e+001
      vertex  3.227000e+001  1.314313e+002  1.824335e+001
    endloop
  endfacet
  facet normal -1.000000e+000  0.000000e+000  0.000000e+000
    outer loop
      vertex  3.227000e+001  1.336407e+002  1.854832e+001
      vertex  3.227000e+001  1.314313e+002  1.824335e+001
      vertex  3.227000e+001  1.347090e+002  1.895716e+001
    endloop
  endfacet
  facet normal  0.000000e+000  7.544406e-001 -6.563684e-001
    outer loop
      vertex  3.727000e+001  1.364199e+002  1.442442e+001
      vertex  3.227000e+001  1.364199e+002  1.442442e+001
      vertex  3.727000e+001  1.378502e+002  1.606847e+001
    endloop
  endfacet
  facet normal  0.000000e+000  7.544406e-001 -6.563684e-001
    outer loop
      vertex  3.727000e+001  1.378502e+002  1.606847e+001
      vertex  3.227000e+001  1.364199e+002  1.442442e+001
      vertex  3.227000e+001  1.378502e+002  1.606847e+001
    endloop
  endfacet
  facet normal  0.000000e+000  9.980396e-001 -6.258535e-002
    outer loop
      vertex  3.727000e+001  1.378502e+002  1.606847e+001
      vertex  3.227000e+001  1.378502e+002  1.606847e+001
      vertex  3.727000e+001  1.379866e+002  1.824335e+001
    endloop
  endfacet
  facet normal  0.000000e+000  9.980396e-001 -6.258535e-002
    outer loop
      vertex  3.727000e+001  1.379866e+002  1.824335e+001
      vertex  3.227000e+001  1.378502e+002  1.606847e+001
      vertex  3.227000e+001  1.379866e+002  1.824335e+001
    endloop
  endfacet
  facet normal  -0.000000e+000  8.305259e-001  5.569802e-001
    outer loop
      vertex  3.727000e+001  1.379866e+002  1.824335e+001
      vertex  3.227000e+001  1.379866e+002  1.824335e+001
      vertex  3.727000e+001  1.367729e+002  2.005319e+001
    endloop
  endfacet
  facet normal  0.000000e+000  8.305259e-001  5.569802e-001
    outer loop
      vertex  3.727000e+001  1.367729e+002  2.005319e+001
      vertex  3.227000e+001  1.379866e+002  1.824335e+001
      vertex  3.227000e+001  1.367729e+002  2.005319e+001
    endloop
  endfacet
  facet normal  -0.000000e+000  3.209044e-001  9.471116e-001
    outer loop
      vertex  3.727000e+001  1.367729e+002  2.005319e+001
      vertex  3.227000e+001  1.367729e+002  2.005319e+001
      vertex  3.727000e+001  1.347090e+002  2.075249e+001
    endloop
  endfacet
  facet normal  0.000000e+000  3.209044e-001  9.471116e-001
    outer loop
      vertex  3.727000e+001  1.347090e+002  2.075249e+001
      vertex  3.227000e+001  1.367729e+002  2.005319e+001
      vertex  3.227000e+001  1.347090e+002  2.075249e+001
    endloop
  endfacet
  facet normal  0.000000e+000 -3.209044e-001  9.471116e-001
    outer loop
      vertex  3.727000e+001  1.347090e+002  2.075249e+001
      vertex  3.227000e+001  1.347090e+002  2.075249e+001
      vertex  3.727000e+001  1.326451e+002  2.005319e+001
    endloop
  endfacet
  facet normal  0.000000e+000 -3.209044e-001  9.471116e-001
    outer loop
      vertex  3.727000e+001  1.326451e+002  2.005319e+001
      vertex  3.227000e+001  1.347090e+002  2.075249e+001
      vertex  3.227000e+001  1.326451e+002  2.005319e+001
    endloop
  endfacet
  facet normal  0.000000e+000 -8.305291e-001  5.569754e-001
    outer loop
      vertex  3.727000e+001  1.326451e+002  2.005319e+001
      vertex  3.227000e+001  1.326451e+002  2.005319e+001
      vertex  3.727000e+001  1.314313e+002  1.824335e+001
    endloop
  endfacet
  facet normal  0.000000e+000 -8.305291e-001  5.569754e-001
    outer loop
      vertex  3.727000e+001  1.314313e+002  1.824335e+001
      vertex  3.227000e+001  1.326451e+002  2.005319e+001
      vertex  3.227000e+001  1.314313e+002  1.824335e+001
    endloop
  endfacet
  facet normal  0.000000e+000 -9.980400e-001 -6.257837e-002
    outer loop
      vertex  3.727000e+001  1.314313e+002  1.824335e+001
      vertex  3.227000e+001  1.314313e+002  1.824335e+001
      vertex  3.727000e+001  1.315677e+002  1.606847e+001
    endloop
  endfacet
  facet normal  -0.000000e+000 -9.980400e-001 -6.257837e-002
    outer loop
      vertex  3.727000e+001  1.315677e+002  1.606847e+001
      vertex  3.227000e+001  1.314313e+002  1.824335e+001
      vertex  3.227000e+001  1.315677e+002  1.606847e+001
    endloop
  endfacet
  facet normal  0.000000e+000 -7.544406e-001 -6.563684e-001
    outer loop
      vertex  3.727000e+001  1.315677e+002  1.606847e+001
      vertex  3.227000e+001  1.315677e+002  1.606847e+001
      vertex  3.727000e+001  1.329980e+002  1.442442e+001
    endloop
  endfacet
  facet normal  -0.000000e+000 -7.544406e-001 -6.563684e-001
    outer loop
      vertex  3.727000e+001  1.329980e+002  1.442442e+001
      vertex  3.227000e+001  1.315677e+002  1.606847e+001
      vertex  3.227000e+001  1.329980e+002  1.442442e+001
    endloop
  endfacet
endsolid CATIA STL
