solid CATIA STL
  facet normal  0.000000e+000 -2.859924e-001  9.582319e-001
    outer loop
      vertex  4.700000e+001 -3.194094e+001  3.152100e+001
      vertex  4.700000e+001  2.267827e+001  4.782256e+001
      vertex -4.700000e+001 -3.194094e+001  3.152100e+001
    endloop
  endfacet
  facet normal  0.000000e+000 -2.859924e-001  9.582319e-001
    outer loop
      vertex -4.700000e+001 -3.194094e+001  3.152100e+001
      vertex  4.700000e+001  2.267827e+001  4.782256e+001
      vertex -4.700000e+001  2.267827e+001  4.782256e+001
    endloop
  endfacet
  facet normal -9.999999e-001  0.000000e+000  0.000000e+000
    outer loop
      vertex -4.700000e+001  2.325026e+001  4.590610e+001
      vertex -4.700000e+001 -3.232719e+001  2.931854e+001
      vertex -4.700000e+001  2.267827e+001  4.782256e+001
    endloop
  endfacet
  facet normal -1.000000e+000  0.000000e+000  0.000000e+000
    outer loop
      vertex -4.700000e+001  2.267827e+001  4.782256e+001
      vertex -4.700000e+001 -3.232719e+001  2.931854e+001
      vertex -4.700000e+001 -3.194094e+001  3.152100e+001
    endloop
  endfacet
  facet normal -1.000000e+000  0.000000e+000  0.000000e+000
    outer loop
      vertex -4.700000e+001 -3.232719e+001  2.931854e+001
      vertex -4.700000e+001 -3.261318e+001  3.027677e+001
      vertex -4.700000e+001 -3.194094e+001  3.152100e+001
    endloop
  endfacet
  facet normal -1.000000e+000  0.000000e+000  0.000000e+000
    outer loop
      vertex -4.700000e+001 -3.194094e+001  3.152100e+001
      vertex -4.700000e+001 -3.261318e+001  3.027677e+001
      vertex -4.700000e+001 -3.253475e+001  3.103811e+001
    endloop
  endfacet
  facet normal  1.000000e+000  0.000000e+000  0.000000e+000
    outer loop
      vertex  4.700000e+001 -3.261318e+001  3.027677e+001
      vertex  4.700000e+001 -3.232719e+001  2.931854e+001
      vertex  4.700000e+001 -3.253475e+001  3.103811e+001
    endloop
  endfacet
  facet normal  1.000000e+000  -0.000000e+000  0.000000e+000
    outer loop
      vertex  4.700000e+001 -3.253475e+001  3.103811e+001
      vertex  4.700000e+001 -3.232719e+001  2.931854e+001
      vertex  4.700000e+001 -3.194094e+001  3.152100e+001
    endloop
  endfacet
  facet normal  1.000000e+000  0.000000e+000  0.000000e+000
    outer loop
      vertex  4.700000e+001 -3.232719e+001  2.931854e+001
      vertex  4.700000e+001  2.325026e+001  4.590610e+001
      vertex  4.700000e+001 -3.194094e+001  3.152100e+001
    endloop
  endfacet
  facet normal  1.000000e+000  0.000000e+000  0.000000e+000
    outer loop
      vertex  4.700000e+001 -3.194094e+001  3.152100e+001
      vertex  4.700000e+001  2.325026e+001  4.590610e+001
      vertex  4.700000e+001  2.267827e+001  4.782256e+001
    endloop
  endfacet
  facet normal  0.000000e+000 -9.582322e-001 -2.859915e-001
    outer loop
      vertex  4.700000e+001 -3.261318e+001  3.027677e+001
      vertex -4.700000e+001 -3.261318e+001  3.027677e+001
      vertex -4.700000e+001 -3.232719e+001  2.931854e+001
    endloop
  endfacet
  facet normal  0.000000e+000 -9.582322e-001 -2.859915e-001
    outer loop
      vertex  4.700000e+001 -3.261318e+001  3.027677e+001
      vertex -4.700000e+001 -3.232719e+001  2.931854e+001
      vertex -5.000000e+000 -3.232719e+001  2.931854e+001
    endloop
  endfacet
  facet normal  0.000000e+000 -9.582322e-001 -2.859915e-001
    outer loop
      vertex  4.700000e+001 -3.261318e+001  3.027677e+001
      vertex -5.000000e+000 -3.232719e+001  2.931854e+001
      vertex  5.000000e+000 -3.232719e+001  2.931854e+001
    endloop
  endfacet
  facet normal  0.000000e+000 -9.582322e-001 -2.859915e-001
    outer loop
      vertex  4.700000e+001 -3.261318e+001  3.027677e+001
      vertex  5.000000e+000 -3.232719e+001  2.931854e+001
      vertex  4.700000e+001 -3.232719e+001  2.931854e+001
    endloop
  endfacet
  facet normal  0.000000e+000 -6.309211e-001  7.758471e-001
    outer loop
      vertex  4.700000e+001 -3.194094e+001  3.152100e+001
      vertex -4.700000e+001 -3.194094e+001  3.152100e+001
      vertex  4.700000e+001 -3.253475e+001  3.103811e+001
    endloop
  endfacet
  facet normal  0.000000e+000 -6.309211e-001  7.758471e-001
    outer loop
      vertex  4.700000e+001 -3.253475e+001  3.103811e+001
      vertex -4.700000e+001 -3.194094e+001  3.152100e+001
      vertex -4.700000e+001 -3.253475e+001  3.103811e+001
    endloop
  endfacet
  facet normal  0.000000e+000 -9.947357e-001  1.024740e-001
    outer loop
      vertex  4.700000e+001 -3.253475e+001  3.103811e+001
      vertex -4.700000e+001 -3.253475e+001  3.103811e+001
      vertex  4.700000e+001 -3.261318e+001  3.027677e+001
    endloop
  endfacet
  facet normal  0.000000e+000 -9.947357e-001  1.024740e-001
    outer loop
      vertex  4.700000e+001 -3.261318e+001  3.027677e+001
      vertex -4.700000e+001 -3.253475e+001  3.103811e+001
      vertex -4.700000e+001 -3.261318e+001  3.027677e+001
    endloop
  endfacet
  facet normal -1.000000e+000  0.000000e+000  0.000000e+000
    outer loop
      vertex -5.000000e+000 -2.060622e+001  2.519511e+001
      vertex -5.000000e+000 -3.232719e+001  2.931854e+001
      vertex -5.000000e+000 -2.097896e+001  2.644398e+001
    endloop
  endfacet
  facet normal -1.000000e+000  0.000000e+000  0.000000e+000
    outer loop
      vertex -5.000000e+000  3.270360e+001  4.382256e+001
      vertex -5.000000e+000  3.270360e+001  3.982256e+001
      vertex -5.000000e+000  2.387211e+001  4.382256e+001
    endloop
  endfacet
  facet normal -1.000000e+000  0.000000e+000  0.000000e+000
    outer loop
      vertex -5.000000e+000  2.387211e+001  3.983016e+001
      vertex -5.000000e+000 -2.097896e+001  2.644398e+001
      vertex -5.000000e+000 -3.232719e+001  2.931854e+001
    endloop
  endfacet
  facet normal -1.000000e+000  0.000000e+000  0.000000e+000
    outer loop
      vertex -5.000000e+000  2.387211e+001  3.983016e+001
      vertex -5.000000e+000 -3.232719e+001  2.931854e+001
      vertex -5.000000e+000  2.325026e+001  4.590610e+001
    endloop
  endfacet
  facet normal -1.000000e+000  0.000000e+000  0.000000e+000
    outer loop
      vertex -5.000000e+000  2.387211e+001  3.983016e+001
      vertex -5.000000e+000  2.325026e+001  4.590610e+001
      vertex -5.000000e+000  2.387211e+001  4.382256e+001
    endloop
  endfacet
  facet normal -1.000000e+000  0.000000e+000  0.000000e+000
    outer loop
      vertex -5.000000e+000  2.387211e+001  3.983016e+001
      vertex -5.000000e+000  2.387211e+001  4.382256e+001
      vertex -5.000000e+000  3.270360e+001  3.982256e+001
    endloop
  endfacet
  facet normal -1.000000e+000  0.000000e+000  0.000000e+000
    outer loop
      vertex -5.000000e+000  2.387211e+001  3.983016e+001
      vertex -5.000000e+000  3.270360e+001  3.982256e+001
      vertex -5.000000e+000  2.387211e+001  3.982256e+001
    endloop
  endfacet
  facet normal  1.000000e+000  0.000000e+000  0.000000e+000
    outer loop
      vertex  5.000000e+000  2.387211e+001  4.382256e+001
      vertex  5.000000e+000  2.325026e+001  4.590610e+001
      vertex  5.000000e+000  2.387211e+001  3.983016e+001
    endloop
  endfacet
  facet normal  1.000000e+000  0.000000e+000  0.000000e+000
    outer loop
      vertex  5.000000e+000  3.270360e+001  3.982256e+001
      vertex  5.000000e+000  3.270360e+001  4.382256e+001
      vertex  5.000000e+000  2.387211e+001  4.382256e+001
    endloop
  endfacet
  facet normal  1.000000e+000  0.000000e+000  0.000000e+000
    outer loop
      vertex  5.000000e+000  3.270360e+001  3.982256e+001
      vertex  5.000000e+000  2.387211e+001  4.382256e+001
      vertex  5.000000e+000  2.387211e+001  3.983016e+001
    endloop
  endfacet
  facet normal  1.000000e+000  0.000000e+000  0.000000e+000
    outer loop
      vertex  5.000000e+000  3.270360e+001  3.982256e+001
      vertex  5.000000e+000  2.387211e+001  3.983016e+001
      vertex  5.000000e+000  2.387211e+001  3.982256e+001
    endloop
  endfacet
  facet normal  1.000000e+000  0.000000e+000  0.000000e+000
    outer loop
      vertex  5.000000e+000 -2.060622e+001  2.519511e+001
      vertex  5.000000e+000 -2.097896e+001  2.644398e+001
      vertex  5.000000e+000 -3.232719e+001  2.931854e+001
    endloop
  endfacet
  facet normal  1.000000e+000  -0.000000e+000  0.000000e+000
    outer loop
      vertex  5.000000e+000 -3.232719e+001  2.931854e+001
      vertex  5.000000e+000 -2.097896e+001  2.644398e+001
      vertex  5.000000e+000  2.387211e+001  3.983016e+001
    endloop
  endfacet
  facet normal  1.000000e+000  0.000000e+000  0.000000e+000
    outer loop
      vertex  5.000000e+000 -3.232719e+001  2.931854e+001
      vertex  5.000000e+000  2.387211e+001  3.983016e+001
      vertex  5.000000e+000  2.325026e+001  4.590610e+001
    endloop
  endfacet
  facet normal  0.000000e+000 -1.000000e+000  -0.000000e+000
    outer loop
      vertex  5.000000e+000  2.387211e+001  3.982256e+001
      vertex  5.000000e+000  2.387211e+001  3.983016e+001
      vertex -5.000000e+000  2.387211e+001  3.982256e+001
    endloop
  endfacet
  facet normal  0.000000e+000 -1.000000e+000  0.000000e+000
    outer loop
      vertex -5.000000e+000  2.387211e+001  3.982256e+001
      vertex  5.000000e+000  2.387211e+001  3.983016e+001
      vertex -5.000000e+000  2.387211e+001  3.983016e+001
    endloop
  endfacet
  facet normal  0.000000e+000  0.000000e+000  1.000000e+000
    outer loop
      vertex -5.000000e+000  3.270360e+001  4.382256e+001
      vertex -5.000000e+000  2.387211e+001  4.382256e+001
      vertex  5.000000e+000  3.270360e+001  4.382256e+001
    endloop
  endfacet
  facet normal  0.000000e+000  0.000000e+000  1.000000e+000
    outer loop
      vertex  5.000000e+000  3.270360e+001  4.382256e+001
      vertex -5.000000e+000  2.387211e+001  4.382256e+001
      vertex  5.000000e+000  2.387211e+001  4.382256e+001
    endloop
  endfacet
  facet normal  0.000000e+000  2.859924e-001 -9.582319e-001
    outer loop
      vertex  5.000000e+000 -2.097896e+001  2.644398e+001
      vertex -5.000000e+000 -2.097896e+001  2.644398e+001
      vertex  5.000000e+000  2.387211e+001  3.983016e+001
    endloop
  endfacet
  facet normal  0.000000e+000  2.859924e-001 -9.582319e-001
    outer loop
      vertex  5.000000e+000  2.387211e+001  3.983016e+001
      vertex -5.000000e+000 -2.097896e+001  2.644398e+001
      vertex -5.000000e+000  2.387211e+001  3.983016e+001
    endloop
  endfacet
  facet normal  0.000000e+000  9.582318e-001  2.859927e-001
    outer loop
      vertex  5.000000e+000  2.325026e+001  4.590610e+001
      vertex  5.000000e+000  2.387211e+001  4.382256e+001
      vertex -5.000000e+000  2.387211e+001  4.382256e+001
    endloop
  endfacet
  facet normal  0.000000e+000  9.582318e-001  2.859927e-001
    outer loop
      vertex  5.000000e+000  2.325026e+001  4.590610e+001
      vertex -5.000000e+000  2.387211e+001  4.382256e+001
      vertex -5.000000e+000  2.325026e+001  4.590610e+001
    endloop
  endfacet
  facet normal  -0.000000e+000  9.582320e-001  2.859924e-001
    outer loop
      vertex  5.000000e+000  2.325026e+001  4.590610e+001
      vertex -5.000000e+000  2.325026e+001  4.590610e+001
      vertex  4.700000e+001  2.267827e+001  4.782256e+001
    endloop
  endfacet
  facet normal  0.000000e+000  9.582319e-001  2.859923e-001
    outer loop
      vertex  5.000000e+000  2.325026e+001  4.590610e+001
      vertex  4.700000e+001  2.267827e+001  4.782256e+001
      vertex  4.700000e+001  2.325026e+001  4.590610e+001
    endloop
  endfacet
  facet normal  0.000000e+000  9.582319e-001  2.859923e-001
    outer loop
      vertex -4.700000e+001  2.267827e+001  4.782256e+001
      vertex  4.700000e+001  2.267827e+001  4.782256e+001
      vertex -4.700000e+001  2.325026e+001  4.590610e+001
    endloop
  endfacet
  facet normal  -0.000000e+000  9.582319e-001  2.859923e-001
    outer loop
      vertex -4.700000e+001  2.325026e+001  4.590610e+001
      vertex  4.700000e+001  2.267827e+001  4.782256e+001
      vertex -5.000000e+000  2.325026e+001  4.590610e+001
    endloop
  endfacet
  facet normal  -0.000000e+000  0.000000e+000 -1.000000e+000
    outer loop
      vertex -5.000000e+000  3.270360e+001  3.982256e+001
      vertex  5.000000e+000  3.270360e+001  3.982256e+001
      vertex -5.000000e+000  2.387211e+001  3.982256e+001
    endloop
  endfacet
  facet normal  0.000000e+000  0.000000e+000 -1.000000e+000
    outer loop
      vertex -5.000000e+000  2.387211e+001  3.982256e+001
      vertex  5.000000e+000  3.270360e+001  3.982256e+001
      vertex  5.000000e+000  2.387211e+001  3.982256e+001
    endloop
  endfacet
  facet normal  0.000000e+000  1.000000e+000  0.000000e+000
    outer loop
      vertex -5.000000e+000  3.270360e+001  3.982256e+001
      vertex -5.000000e+000  3.270360e+001  4.382256e+001
      vertex  5.000000e+000  3.270360e+001  3.982256e+001
    endloop
  endfacet
  facet normal  0.000000e+000  1.000000e+000  -0.000000e+000
    outer loop
      vertex  5.000000e+000  3.270360e+001  3.982256e+001
      vertex -5.000000e+000  3.270360e+001  4.382256e+001
      vertex  5.000000e+000  3.270360e+001  4.382256e+001
    endloop
  endfacet
  facet normal  0.000000e+000 -3.318619e-001 -9.433280e-001
    outer loop
      vertex  5.000000e+000 -3.232719e+001  2.931854e+001
      vertex -5.000000e+000 -3.232719e+001  2.931854e+001
      vertex  5.000000e+000 -2.060622e+001  2.519511e+001
    endloop
  endfacet
  facet normal  -0.000000e+000 -3.318619e-001 -9.433280e-001
    outer loop
      vertex  5.000000e+000 -2.060622e+001  2.519511e+001
      vertex -5.000000e+000 -3.232719e+001  2.931854e+001
      vertex -5.000000e+000 -2.060622e+001  2.519511e+001
    endloop
  endfacet
  facet normal  0.000000e+000  2.859924e-001 -9.582319e-001
    outer loop
      vertex -5.000000e+000 -3.232719e+001  2.931854e+001
      vertex -4.700000e+001 -3.232719e+001  2.931854e+001
      vertex -5.000000e+000  2.325026e+001  4.590610e+001
    endloop
  endfacet
  facet normal  0.000000e+000  2.859924e-001 -9.582319e-001
    outer loop
      vertex -5.000000e+000  2.325026e+001  4.590610e+001
      vertex -4.700000e+001 -3.232719e+001  2.931854e+001
      vertex -4.700000e+001  2.325026e+001  4.590610e+001
    endloop
  endfacet
  facet normal  0.000000e+000  2.859924e-001 -9.582319e-001
    outer loop
      vertex  4.700000e+001 -3.232719e+001  2.931854e+001
      vertex  5.000000e+000 -3.232719e+001  2.931854e+001
      vertex  4.700000e+001  2.325026e+001  4.590610e+001
    endloop
  endfacet
  facet normal  0.000000e+000  2.859924e-001 -9.582319e-001
    outer loop
      vertex  4.700000e+001  2.325026e+001  4.590610e+001
      vertex  5.000000e+000 -3.232719e+001  2.931854e+001
      vertex  5.000000e+000  2.325026e+001  4.590610e+001
    endloop
  endfacet
  facet normal  0.000000e+000  9.582320e-001  2.859924e-001
    outer loop
      vertex -5.000000e+000 -2.097896e+001  2.644398e+001
      vertex  5.000000e+000 -2.097896e+001  2.644398e+001
      vertex -5.000000e+000 -2.060622e+001  2.519511e+001
    endloop
  endfacet
  facet normal  -0.000000e+000  9.582320e-001  2.859924e-001
    outer loop
      vertex -5.000000e+000 -2.060622e+001  2.519511e+001
      vertex  5.000000e+000 -2.097896e+001  2.644398e+001
      vertex  5.000000e+000 -2.060622e+001  2.519511e+001
    endloop
  endfacet
endsolid CATIA STL
