solid CATIA STL
  facet normal  0.000000e+000  -0.000000e+000 -1.000000e+000
    outer loop
      vertex -6.000000e+000  8.111435e+000  1.969961e+000
      vertex -5.405813e+000  1.071474e+001  1.969961e+000
      vertex -3.740939e+000  1.280242e+001  1.969961e+000
    endloop
  endfacet
  facet normal  0.000000e+000  -0.000000e+000 -1.000000e+000
    outer loop
      vertex -6.000000e+000  8.111435e+000  1.969961e+000
      vertex -3.740939e+000  1.280242e+001  1.969961e+000
      vertex -1.750000e+000  8.111435e+000  1.969961e+000
    endloop
  endfacet
  facet normal  -0.000000e+000  0.000000e+000 -1.000000e+000
    outer loop
      vertex -6.000000e+000  8.111435e+000  1.969961e+000
      vertex -1.750000e+000  8.111435e+000  1.969961e+000
      vertex -5.000000e+000  4.794811e+000  1.969961e+000
    endloop
  endfacet
  facet normal  0.000000e+000  0.000000e+000 -1.000000e+000
    outer loop
      vertex -6.000000e+000  8.111435e+000  1.969961e+000
      vertex -5.000000e+000  4.794811e+000  1.969961e+000
      vertex -5.744563e+000  6.379385e+000  1.969961e+000
    endloop
  endfacet
  facet normal  -0.000000e+000  0.000000e+000 -9.999999e-001
    outer loop
      vertex -1.335126e+000  1.396100e+001  1.969961e+000
      vertex  1.335126e+000  1.396100e+001  1.969961e+000
      vertex  1.237437e+000  9.348872e+000  1.969961e+000
    endloop
  endfacet
  facet normal  0.000000e+000  0.000000e+000 -1.000000e+000
    outer loop
      vertex -1.335126e+000  1.396100e+001  1.969961e+000
      vertex  1.237437e+000  9.348872e+000  1.969961e+000
      vertex  0.000000e+000  9.861435e+000  1.969961e+000
    endloop
  endfacet
  facet normal  -0.000000e+000  0.000000e+000 -1.000000e+000
    outer loop
      vertex -1.335126e+000  1.396100e+001  1.969961e+000
      vertex  0.000000e+000  9.861435e+000  1.969961e+000
      vertex -1.237437e+000  9.348872e+000  1.969961e+000
    endloop
  endfacet
  facet normal  -0.000000e+000  0.000000e+000 -1.000000e+000
    outer loop
      vertex -1.335126e+000  1.396100e+001  1.969961e+000
      vertex -1.237437e+000  9.348872e+000  1.969961e+000
      vertex -1.750000e+000  8.111435e+000  1.969961e+000
    endloop
  endfacet
  facet normal  0.000000e+000  0.000000e+000 -1.000000e+000
    outer loop
      vertex -1.335126e+000  1.396100e+001  1.969961e+000
      vertex -1.750000e+000  8.111435e+000  1.969961e+000
      vertex -3.740939e+000  1.280242e+001  1.969961e+000
    endloop
  endfacet
  facet normal  0.000000e+000  0.000000e+000 -1.000000e+000
    outer loop
      vertex -5.000000e+000 -1.888565e+000  1.969961e+000
      vertex -5.000000e+000  4.794811e+000  1.969961e+000
      vertex -1.750000e+000  8.111435e+000  1.969961e+000
    endloop
  endfacet
  facet normal  0.000000e+000  -0.000000e+000 -1.000000e+000
    outer loop
      vertex -5.000000e+000 -1.888565e+000  1.969961e+000
      vertex -1.750000e+000  8.111435e+000  1.969961e+000
      vertex -1.237437e+000  6.873999e+000  1.969961e+000
    endloop
  endfacet
  facet normal  0.000000e+000  -0.000000e+000 -9.999999e-001
    outer loop
      vertex -5.000000e+000 -1.888565e+000  1.969961e+000
      vertex -1.237437e+000  6.873999e+000  1.969961e+000
      vertex  0.000000e+000  6.361435e+000  1.969961e+000
    endloop
  endfacet
  facet normal  0.000000e+000  -0.000000e+000 -1.000000e+000
    outer loop
      vertex -5.000000e+000 -1.888565e+000  1.969961e+000
      vertex  0.000000e+000  6.361435e+000  1.969961e+000
      vertex  1.237437e+000  6.873999e+000  1.969961e+000
    endloop
  endfacet
  facet normal  0.000000e+000  -0.000000e+000 -1.000000e+000
    outer loop
      vertex -5.000000e+000 -1.888565e+000  1.969961e+000
      vertex  1.237437e+000  6.873999e+000  1.969961e+000
      vertex  5.000000e+000 -1.888565e+000  1.969961e+000
    endloop
  endfacet
  facet normal  0.000000e+000  0.000000e+000 -1.000000e+000
    outer loop
      vertex  1.750000e+000  8.111435e+000  1.969961e+000
      vertex  1.237437e+000  9.348872e+000  1.969961e+000
      vertex  1.335126e+000  1.396100e+001  1.969961e+000
    endloop
  endfacet
  facet normal  0.000000e+000  0.000000e+000 -1.000000e+000
    outer loop
      vertex  1.750000e+000  8.111435e+000  1.969961e+000
      vertex  1.335126e+000  1.396100e+001  1.969961e+000
      vertex  3.740939e+000  1.280242e+001  1.969961e+000
    endloop
  endfacet
  facet normal  0.000000e+000  -0.000000e+000 -1.000000e+000
    outer loop
      vertex  1.750000e+000  8.111435e+000  1.969961e+000
      vertex  3.740939e+000  1.280242e+001  1.969961e+000
      vertex  5.405813e+000  1.071474e+001  1.969961e+000
    endloop
  endfacet
  facet normal  0.000000e+000  -0.000000e+000 -1.000000e+000
    outer loop
      vertex  1.750000e+000  8.111435e+000  1.969961e+000
      vertex  5.405813e+000  1.071474e+001  1.969961e+000
      vertex  6.000000e+000  8.111435e+000  1.969961e+000
    endloop
  endfacet
  facet normal  -0.000000e+000  0.000000e+000 -1.000000e+000
    outer loop
      vertex  1.750000e+000  8.111435e+000  1.969961e+000
      vertex  6.000000e+000  8.111435e+000  1.969961e+000
      vertex  5.744563e+000  6.379385e+000  1.969961e+000
    endloop
  endfacet
  facet normal  -0.000000e+000  0.000000e+000 -1.000000e+000
    outer loop
      vertex  1.750000e+000  8.111435e+000  1.969961e+000
      vertex  5.744563e+000  6.379385e+000  1.969961e+000
      vertex  5.000000e+000  4.794811e+000  1.969961e+000
    endloop
  endfacet
  facet normal  -0.000000e+000  -0.000000e+000 -1.000000e+000
    outer loop
      vertex  1.750000e+000  8.111435e+000  1.969961e+000
      vertex  5.000000e+000  4.794811e+000  1.969961e+000
      vertex  5.000000e+000 -1.888565e+000  1.969961e+000
    endloop
  endfacet
  facet normal  0.000000e+000  0.000000e+000 -1.000000e+000
    outer loop
      vertex  1.750000e+000  8.111435e+000  1.969961e+000
      vertex  5.000000e+000 -1.888565e+000  1.969961e+000
      vertex  1.237437e+000  6.873999e+000  1.969961e+000
    endloop
  endfacet
  facet normal  0.000000e+000  0.000000e+000  1.000000e+000
    outer loop
      vertex  2.115667e+000  4.005673e+000  3.969961e+000
      vertex  4.613528e+000  7.890776e+000  3.969961e+000
      vertex  1.750000e+000  8.111435e+000  3.969961e+000
    endloop
  endfacet
  facet normal  0.000000e+000  0.000000e+000  1.000000e+000
    outer loop
      vertex  2.115667e+000  4.005673e+000  3.969961e+000
      vertex  1.750000e+000  8.111435e+000  3.969961e+000
      vertex  1.237437e+000  6.873999e+000  3.969961e+000
    endloop
  endfacet
  facet normal  0.000000e+000  0.000000e+000  1.000000e+000
    outer loop
      vertex  2.115667e+000  4.005673e+000  3.969961e+000
      vertex  1.237437e+000  6.873999e+000  3.969961e+000
      vertex -3.214698e-016  6.361435e+000  3.969961e+000
    endloop
  endfacet
  facet normal  0.000000e+000  0.000000e+000  1.000000e+000
    outer loop
      vertex  2.115667e+000  4.005673e+000  3.969961e+000
      vertex -3.214698e-016  6.361435e+000  3.969961e+000
      vertex -2.497861e+000  4.226333e+000  3.969961e+000
    endloop
  endfacet
  facet normal  0.000000e+000  -0.000000e+000  1.000000e+000
    outer loop
      vertex -4.613528e+000  8.332095e+000  3.969961e+000
      vertex -1.750000e+000  8.111435e+000  3.969961e+000
      vertex -1.237437e+000  9.348872e+000  3.969961e+000
    endloop
  endfacet
  facet normal  0.000000e+000  -0.000000e+000  9.999999e-001
    outer loop
      vertex -4.613528e+000  8.332095e+000  3.969961e+000
      vertex -1.237437e+000  9.348872e+000  3.969961e+000
      vertex  1.071566e-016  9.861435e+000  3.969961e+000
    endloop
  endfacet
  facet normal  0.000000e+000  -0.000000e+000  1.000000e+000
    outer loop
      vertex -4.613528e+000  8.332095e+000  3.969961e+000
      vertex  1.071566e-016  9.861435e+000  3.969961e+000
      vertex  2.497860e+000  1.199654e+001  3.969961e+000
    endloop
  endfacet
  facet normal  0.000000e+000  0.000000e+000  1.000000e+000
    outer loop
      vertex -4.613528e+000  8.332095e+000  3.969961e+000
      vertex  2.497860e+000  1.199654e+001  3.969961e+000
      vertex -2.115670e+000  1.221719e+001  3.969961e+000
    endloop
  endfacet
  facet normal  0.000000e+000  0.000000e+000  9.999999e-001
    outer loop
      vertex -2.497861e+000  4.226333e+000  3.969961e+000
      vertex -3.214698e-016  6.361435e+000  3.969961e+000
      vertex -1.237437e+000  6.873999e+000  3.969961e+000
    endloop
  endfacet
  facet normal  0.000000e+000  0.000000e+000  1.000000e+000
    outer loop
      vertex -2.497861e+000  4.226333e+000  3.969961e+000
      vertex -1.237437e+000  6.873999e+000  3.969961e+000
      vertex -1.750000e+000  8.111435e+000  3.969961e+000
    endloop
  endfacet
  facet normal  0.000000e+000  0.000000e+000  1.000000e+000
    outer loop
      vertex -2.497861e+000  4.226333e+000  3.969961e+000
      vertex -1.750000e+000  8.111435e+000  3.969961e+000
      vertex -4.613528e+000  8.332095e+000  3.969961e+000
    endloop
  endfacet
  facet normal  0.000000e+000  0.000000e+000  9.999999e-001
    outer loop
      vertex  1.750000e+000  8.111435e+000  3.969961e+000
      vertex  4.613528e+000  7.890776e+000  3.969961e+000
      vertex  1.237437e+000  9.348872e+000  3.969961e+000
    endloop
  endfacet
  facet normal  -0.000000e+000  0.000000e+000  9.999999e-001
    outer loop
      vertex  1.237437e+000  9.348872e+000  3.969961e+000
      vertex  4.613528e+000  7.890776e+000  3.969961e+000
      vertex  2.497860e+000  1.199654e+001  3.969961e+000
    endloop
  endfacet
  facet normal  0.000000e+000  0.000000e+000  1.000000e+000
    outer loop
      vertex  1.237437e+000  9.348872e+000  3.969961e+000
      vertex  2.497860e+000  1.199654e+001  3.969961e+000
      vertex  1.071566e-016  9.861435e+000  3.969961e+000
    endloop
  endfacet
  facet normal  3.826832e-001 -9.238796e-001  0.000000e+000
    outer loop
      vertex  0.000000e+000  9.861435e+000  1.969961e+000
      vertex -1.237437e+000  9.348872e+000  3.969961e+000
      vertex -1.237437e+000  9.348872e+000  1.969961e+000
    endloop
  endfacet
  facet normal  9.238796e-001 -3.826833e-001  0.000000e+000
    outer loop
      vertex -1.237437e+000  9.348872e+000  1.969961e+000
      vertex -1.237437e+000  9.348872e+000  3.969961e+000
      vertex -1.750000e+000  8.111435e+000  3.969961e+000
    endloop
  endfacet
  facet normal  9.238796e-001 -3.826833e-001  0.000000e+000
    outer loop
      vertex -1.237437e+000  9.348872e+000  1.969961e+000
      vertex -1.750000e+000  8.111435e+000  3.969961e+000
      vertex -1.750000e+000  8.111435e+000  1.969961e+000
    endloop
  endfacet
  facet normal  3.826832e-001 -9.238796e-001 -2.050351e-017
    outer loop
      vertex -1.237437e+000  9.348872e+000  3.969961e+000
      vertex  0.000000e+000  9.861435e+000  1.969961e+000
      vertex  1.071566e-016  9.861435e+000  3.969961e+000
    endloop
  endfacet
  facet normal -3.826832e-001 -9.238796e-001  2.050351e-017
    outer loop
      vertex  1.071566e-016  9.861435e+000  3.969961e+000
      vertex  0.000000e+000  9.861435e+000  1.969961e+000
      vertex  1.237437e+000  9.348872e+000  1.969961e+000
    endloop
  endfacet
  facet normal -3.826832e-001 -9.238796e-001  0.000000e+000
    outer loop
      vertex  1.071566e-016  9.861435e+000  3.969961e+000
      vertex  1.237437e+000  9.348872e+000  1.969961e+000
      vertex  1.237437e+000  9.348872e+000  3.969961e+000
    endloop
  endfacet
  facet normal -9.238796e-001 -3.826833e-001  -0.000000e+000
    outer loop
      vertex  1.237437e+000  9.348872e+000  3.969961e+000
      vertex  1.237437e+000  9.348872e+000  1.969961e+000
      vertex  1.750000e+000  8.111435e+000  1.969961e+000
    endloop
  endfacet
  facet normal -9.238796e-001 -3.826833e-001  0.000000e+000
    outer loop
      vertex  1.237437e+000  9.348872e+000  3.969961e+000
      vertex  1.750000e+000  8.111435e+000  1.969961e+000
      vertex  1.750000e+000  8.111435e+000  3.969961e+000
    endloop
  endfacet
  facet normal -3.826835e-001  9.238795e-001  0.000000e+000
    outer loop
      vertex  0.000000e+000  6.361435e+000  1.969961e+000
      vertex  1.237437e+000  6.873999e+000  3.969961e+000
      vertex  1.237437e+000  6.873999e+000  1.969961e+000
    endloop
  endfacet
  facet normal -9.238795e-001  3.826836e-001  0.000000e+000
    outer loop
      vertex  1.237437e+000  6.873999e+000  1.969961e+000
      vertex  1.237437e+000  6.873999e+000  3.969961e+000
      vertex  1.750000e+000  8.111435e+000  3.969961e+000
    endloop
  endfacet
  facet normal -9.238795e-001  3.826836e-001  0.000000e+000
    outer loop
      vertex  1.237437e+000  6.873999e+000  1.969961e+000
      vertex  1.750000e+000  8.111435e+000  3.969961e+000
      vertex  1.750000e+000  8.111435e+000  1.969961e+000
    endloop
  endfacet
  facet normal -3.826835e-001  9.238795e-001 -6.151059e-017
    outer loop
      vertex  1.237437e+000  6.873999e+000  3.969961e+000
      vertex  0.000000e+000  6.361435e+000  1.969961e+000
      vertex -3.214698e-016  6.361435e+000  3.969961e+000
    endloop
  endfacet
  facet normal  3.826835e-001  9.238795e-001  6.151059e-017
    outer loop
      vertex -3.214698e-016  6.361435e+000  3.969961e+000
      vertex  0.000000e+000  6.361435e+000  1.969961e+000
      vertex -1.237437e+000  6.873999e+000  1.969961e+000
    endloop
  endfacet
  facet normal  3.826835e-001  9.238795e-001  -0.000000e+000
    outer loop
      vertex -3.214698e-016  6.361435e+000  3.969961e+000
      vertex -1.237437e+000  6.873999e+000  1.969961e+000
      vertex -1.237437e+000  6.873999e+000  3.969961e+000
    endloop
  endfacet
  facet normal  9.238795e-001  3.826836e-001  0.000000e+000
    outer loop
      vertex -1.237437e+000  6.873999e+000  3.969961e+000
      vertex -1.237437e+000  6.873999e+000  1.969961e+000
      vertex -1.750000e+000  8.111435e+000  1.969961e+000
    endloop
  endfacet
  facet normal  9.238795e-001  3.826836e-001  -0.000000e+000
    outer loop
      vertex -1.237437e+000  6.873999e+000  3.969961e+000
      vertex -1.750000e+000  8.111435e+000  1.969961e+000
      vertex -1.750000e+000  8.111435e+000  3.969961e+000
    endloop
  endfacet
  facet normal  -0.000000e+000  0.000000e+000  1.000000e+000
    outer loop
      vertex  5.000000e+000  4.794811e+000  8.969961e+000
      vertex  2.115667e+000  4.005673e+000  8.969961e+000
      vertex  5.000000e+000 -9.595979e+000  8.969961e+000
    endloop
  endfacet
  facet normal  0.000000e+000  0.000000e+000  1.000000e+000
    outer loop
      vertex  5.000000e+000 -9.595979e+000  8.969961e+000
      vertex  2.115667e+000  4.005673e+000  8.969961e+000
      vertex -5.000000e+000 -9.595979e+000  8.969961e+000
    endloop
  endfacet
  facet normal  0.000000e+000  0.000000e+000  1.000000e+000
    outer loop
      vertex -5.000000e+000 -9.595979e+000  8.969961e+000
      vertex  2.115667e+000  4.005673e+000  8.969961e+000
      vertex -2.497859e+000  4.226363e+000  8.969961e+000
    endloop
  endfacet
  facet normal  0.000000e+000  0.000000e+000  9.999999e-001
    outer loop
      vertex -5.000000e+000 -9.595979e+000  8.969961e+000
      vertex -2.497859e+000  4.226363e+000  8.969961e+000
      vertex -5.000000e+000  4.794811e+000  8.969961e+000
    endloop
  endfacet
  facet normal  0.000000e+000  0.000000e+000  1.000000e+000
    outer loop
      vertex -1.335126e+000  1.396100e+001  8.969961e+000
      vertex -3.740939e+000  1.280242e+001  8.969961e+000
      vertex  1.335126e+000  1.396100e+001  8.969961e+000
    endloop
  endfacet
  facet normal  0.000000e+000  0.000000e+000  1.000000e+000
    outer loop
      vertex  1.335126e+000  1.396100e+001  8.969961e+000
      vertex -3.740939e+000  1.280242e+001  8.969961e+000
      vertex -2.115667e+000  1.221720e+001  8.969961e+000
    endloop
  endfacet
  facet normal  0.000000e+000  0.000000e+000  1.000000e+000
    outer loop
      vertex  1.335126e+000  1.396100e+001  8.969961e+000
      vertex -2.115667e+000  1.221720e+001  8.969961e+000
      vertex  3.740939e+000  1.280242e+001  8.969961e+000
    endloop
  endfacet
  facet normal  0.000000e+000  0.000000e+000  1.000000e+000
    outer loop
      vertex  3.740939e+000  1.280242e+001  8.969961e+000
      vertex -2.115667e+000  1.221720e+001  8.969961e+000
      vertex  2.497861e+000  1.199653e+001  8.969961e+000
    endloop
  endfacet
  facet normal  -0.000000e+000  0.000000e+000  1.000000e+000
    outer loop
      vertex  3.740939e+000  1.280242e+001  8.969961e+000
      vertex  2.497861e+000  1.199653e+001  8.969961e+000
      vertex  5.405813e+000  1.071474e+001  8.969961e+000
    endloop
  endfacet
  facet normal  0.000000e+000  0.000000e+000  1.000000e+000
    outer loop
      vertex  5.405813e+000  1.071474e+001  8.969961e+000
      vertex  2.497861e+000  1.199653e+001  8.969961e+000
      vertex  4.613528e+000  7.890776e+000  8.969961e+000
    endloop
  endfacet
  facet normal  0.000000e+000  0.000000e+000  1.000000e+000
    outer loop
      vertex  5.405813e+000  1.071474e+001  8.969961e+000
      vertex  4.613528e+000  7.890776e+000  8.969961e+000
      vertex  6.000000e+000  8.111435e+000  8.969961e+000
    endloop
  endfacet
  facet normal  0.000000e+000  0.000000e+000  1.000000e+000
    outer loop
      vertex -2.115667e+000  1.221720e+001  8.969961e+000
      vertex -3.740939e+000  1.280242e+001  8.969961e+000
      vertex -4.613528e+000  8.332095e+000  8.969961e+000
    endloop
  endfacet
  facet normal  0.000000e+000  -0.000000e+000  1.000000e+000
    outer loop
      vertex -4.613528e+000  8.332095e+000  8.969961e+000
      vertex -3.740939e+000  1.280242e+001  8.969961e+000
      vertex -5.405813e+000  1.071474e+001  8.969961e+000
    endloop
  endfacet
  facet normal  0.000000e+000  0.000000e+000  1.000000e+000
    outer loop
      vertex -4.613528e+000  8.332095e+000  8.969961e+000
      vertex -5.405813e+000  1.071474e+001  8.969961e+000
      vertex -6.000000e+000  8.111435e+000  8.969961e+000
    endloop
  endfacet
  facet normal  -0.000000e+000  0.000000e+000  1.000000e+000
    outer loop
      vertex -4.613528e+000  8.332095e+000  8.969961e+000
      vertex -6.000000e+000  8.111435e+000  8.969961e+000
      vertex -2.497859e+000  4.226363e+000  8.969961e+000
    endloop
  endfacet
  facet normal  0.000000e+000  0.000000e+000  1.000000e+000
    outer loop
      vertex -2.497859e+000  4.226363e+000  8.969961e+000
      vertex -6.000000e+000  8.111435e+000  8.969961e+000
      vertex -5.744563e+000  6.379385e+000  8.969961e+000
    endloop
  endfacet
  facet normal  0.000000e+000  0.000000e+000  9.999999e-001
    outer loop
      vertex -2.497859e+000  4.226363e+000  8.969961e+000
      vertex -5.744563e+000  6.379385e+000  8.969961e+000
      vertex -5.000000e+000  4.794811e+000  8.969961e+000
    endloop
  endfacet
  facet normal  -0.000000e+000  0.000000e+000  1.000000e+000
    outer loop
      vertex  6.000000e+000  8.111435e+000  8.969961e+000
      vertex  4.613528e+000  7.890776e+000  8.969961e+000
      vertex  5.744563e+000  6.379385e+000  8.969961e+000
    endloop
  endfacet
  facet normal  0.000000e+000  0.000000e+000  1.000000e+000
    outer loop
      vertex  5.744563e+000  6.379385e+000  8.969961e+000
      vertex  4.613528e+000  7.890776e+000  8.969961e+000
      vertex  2.115667e+000  4.005673e+000  8.969961e+000
    endloop
  endfacet
  facet normal  0.000000e+000  0.000000e+000  1.000000e+000
    outer loop
      vertex  5.744563e+000  6.379385e+000  8.969961e+000
      vertex  2.115667e+000  4.005673e+000  8.969961e+000
      vertex  5.000000e+000  4.794811e+000  8.969961e+000
    endloop
  endfacet
  facet normal  4.778085e-002  9.988579e-001 -6.116868e-006
    outer loop
      vertex -2.497859e+000  4.226363e+000  8.969961e+000
      vertex  2.115667e+000  4.005673e+000  8.969961e+000
      vertex -2.497861e+000  4.226333e+000  3.969961e+000
    endloop
  endfacet
  facet normal  4.777423e-002  9.988582e-001  0.000000e+000
    outer loop
      vertex -2.497861e+000  4.226333e+000  3.969961e+000
      vertex  2.115667e+000  4.005673e+000  8.969961e+000
      vertex  2.115667e+000  4.005673e+000  3.969961e+000
    endloop
  endfacet
  facet normal  8.889221e-001  4.580583e-001  0.000000e+000
    outer loop
      vertex -4.613528e+000  8.332095e+000  8.969961e+000
      vertex -2.497859e+000  4.226363e+000  8.969961e+000
      vertex -4.613528e+000  8.332095e+000  3.969961e+000
    endloop
  endfacet
  facet normal  8.889237e-001  4.580554e-001 -3.055853e-006
    outer loop
      vertex -4.613528e+000  8.332095e+000  3.969961e+000
      vertex -2.497859e+000  4.226363e+000  8.969961e+000
      vertex -2.497861e+000  4.226333e+000  3.969961e+000
    endloop
  endfacet
  facet normal  8.411494e-001 -5.408027e-001  2.064765e-007
    outer loop
      vertex -2.115667e+000  1.221720e+001  8.969961e+000
      vertex -4.613528e+000  8.332095e+000  8.969961e+000
      vertex -2.115670e+000  1.221719e+001  3.969961e+000
    endloop
  endfacet
  facet normal  8.411493e-001 -5.408029e-001  0.000000e+000
    outer loop
      vertex -2.115670e+000  1.221719e+001  3.969961e+000
      vertex -4.613528e+000  8.332095e+000  8.969961e+000
      vertex -4.613528e+000  8.332095e+000  3.969961e+000
    endloop
  endfacet
  facet normal -4.777578e-002 -9.988581e-001 -1.889260e-006
    outer loop
      vertex  2.497861e+000  1.199653e+001  8.969961e+000
      vertex -2.115667e+000  1.221720e+001  8.969961e+000
      vertex  2.497860e+000  1.199654e+001  3.969961e+000
    endloop
  endfacet
  facet normal -4.777226e-002 -9.988583e-001  1.362745e-006
    outer loop
      vertex  2.497860e+000  1.199654e+001  3.969961e+000
      vertex -2.115667e+000  1.221720e+001  8.969961e+000
      vertex -2.115670e+000  1.221719e+001  3.969961e+000
    endloop
  endfacet
  facet normal -8.889233e-001 -4.580560e-001  0.000000e+000
    outer loop
      vertex  4.613528e+000  7.890776e+000  8.969961e+000
      vertex  2.497861e+000  1.199653e+001  8.969961e+000
      vertex  4.613528e+000  7.890776e+000  3.969961e+000
    endloop
  endfacet
  facet normal -8.889237e-001 -4.580553e-001 -6.607245e-007
    outer loop
      vertex  4.613528e+000  7.890776e+000  3.969961e+000
      vertex  2.497861e+000  1.199653e+001  8.969961e+000
      vertex  2.497860e+000  1.199654e+001  3.969961e+000
    endloop
  endfacet
  facet normal -8.411494e-001  5.408028e-001  0.000000e+000
    outer loop
      vertex  2.115667e+000  4.005673e+000  8.969961e+000
      vertex  4.613528e+000  7.890776e+000  8.969961e+000
      vertex  2.115667e+000  4.005673e+000  3.969961e+000
    endloop
  endfacet
  facet normal -8.411494e-001  5.408028e-001  0.000000e+000
    outer loop
      vertex  2.115667e+000  4.005673e+000  3.969961e+000
      vertex  4.613528e+000  7.890776e+000  8.969961e+000
      vertex  4.613528e+000  7.890776e+000  3.969961e+000
    endloop
  endfacet
  facet normal -9.050648e-001 -4.252736e-001  -0.000000e+000
    outer loop
      vertex -5.000000e+000  4.794811e+000  1.969961e+000
      vertex -5.000000e+000  4.794811e+000  8.969961e+000
      vertex -5.744563e+000  6.379385e+000  1.969961e+000
    endloop
  endfacet
  facet normal -9.050648e-001 -4.252736e-001  0.000000e+000
    outer loop
      vertex -5.744563e+000  6.379385e+000  1.969961e+000
      vertex -5.000000e+000  4.794811e+000  8.969961e+000
      vertex -5.744563e+000  6.379385e+000  8.969961e+000
    endloop
  endfacet
  facet normal -9.892996e-001 -1.458988e-001  -0.000000e+000
    outer loop
      vertex -5.744563e+000  6.379385e+000  1.969961e+000
      vertex -5.744563e+000  6.379385e+000  8.969961e+000
      vertex -6.000000e+000  8.111435e+000  1.969961e+000
    endloop
  endfacet
  facet normal -9.892996e-001 -1.458988e-001  0.000000e+000
    outer loop
      vertex -6.000000e+000  8.111435e+000  1.969961e+000
      vertex -5.744563e+000  6.379385e+000  8.969961e+000
      vertex -6.000000e+000  8.111435e+000  8.969961e+000
    endloop
  endfacet
  facet normal  9.892996e-001 -1.458988e-001  0.000000e+000
    outer loop
      vertex  6.000000e+000  8.111435e+000  1.969961e+000
      vertex  6.000000e+000  8.111435e+000  8.969961e+000
      vertex  5.744563e+000  6.379385e+000  1.969961e+000
    endloop
  endfacet
  facet normal  9.892996e-001 -1.458988e-001  0.000000e+000
    outer loop
      vertex  5.744563e+000  6.379385e+000  1.969961e+000
      vertex  6.000000e+000  8.111435e+000  8.969961e+000
      vertex  5.744563e+000  6.379385e+000  8.969961e+000
    endloop
  endfacet
  facet normal  9.050648e-001 -4.252736e-001  0.000000e+000
    outer loop
      vertex  5.744563e+000  6.379385e+000  1.969961e+000
      vertex  5.744563e+000  6.379385e+000  8.969961e+000
      vertex  5.000000e+000  4.794811e+000  1.969961e+000
    endloop
  endfacet
  facet normal  9.050648e-001 -4.252736e-001  0.000000e+000
    outer loop
      vertex  5.000000e+000  4.794811e+000  1.969961e+000
      vertex  5.744563e+000  6.379385e+000  8.969961e+000
      vertex  5.000000e+000  4.794811e+000  8.969961e+000
    endloop
  endfacet
  facet normal  1.000000e+000  0.000000e+000  0.000000e+000
    outer loop
      vertex  5.000000e+000  4.794811e+000  1.969961e+000
      vertex  5.000000e+000  4.794811e+000  8.969961e+000
      vertex  5.000000e+000 -1.888565e+000  1.969961e+000
    endloop
  endfacet
  facet normal  1.000000e+000  0.000000e+000  -0.000000e+000
    outer loop
      vertex  5.000000e+000 -1.888565e+000  1.969961e+000
      vertex  5.000000e+000  4.794811e+000  8.969961e+000
      vertex  5.000000e+000 -9.595979e+000  8.969961e+000
    endloop
  endfacet
  facet normal  9.999999e-001  0.000000e+000  0.000000e+000
    outer loop
      vertex  5.000000e+000 -1.888565e+000  1.969961e+000
      vertex  5.000000e+000 -9.595979e+000  8.969961e+000
      vertex  5.000000e+000 -1.026386e+001  1.969961e+000
    endloop
  endfacet
  facet normal  1.000000e+000  -0.000000e+000  0.000000e+000
    outer loop
      vertex  5.000000e+000 -2.992441e+001  2.422262e+001
      vertex  5.000000e+000 -3.352536e+001  1.942334e+001
      vertex  5.000000e+000 -9.595979e+000  8.969961e+000
    endloop
  endfacet
  facet normal  1.000000e+000  0.000000e+000  0.000000e+000
    outer loop
      vertex  5.000000e+000 -9.595979e+000  8.969961e+000
      vertex  5.000000e+000 -3.352536e+001  1.942334e+001
      vertex  5.000000e+000 -1.026386e+001  1.969961e+000
    endloop
  endfacet
  facet normal -1.000000e+000  0.000000e+000  -0.000000e+000
    outer loop
      vertex -5.000000e+000 -3.352536e+001  1.942334e+001
      vertex -5.000000e+000 -2.992441e+001  2.422262e+001
      vertex -5.000000e+000 -1.026386e+001  1.969961e+000
    endloop
  endfacet
  facet normal -1.000000e+000  0.000000e+000  0.000000e+000
    outer loop
      vertex -5.000000e+000 -1.026386e+001  1.969961e+000
      vertex -5.000000e+000 -2.992441e+001  2.422262e+001
      vertex -5.000000e+000 -9.595979e+000  8.969961e+000
    endloop
  endfacet
  facet normal -9.999999e-001  0.000000e+000  -0.000000e+000
    outer loop
      vertex -5.000000e+000 -1.026386e+001  1.969961e+000
      vertex -5.000000e+000 -9.595979e+000  8.969961e+000
      vertex -5.000000e+000 -1.888565e+000  1.969961e+000
    endloop
  endfacet
  facet normal -1.000000e+000  0.000000e+000  0.000000e+000
    outer loop
      vertex -5.000000e+000 -1.888565e+000  1.969961e+000
      vertex -5.000000e+000 -9.595979e+000  8.969961e+000
      vertex -5.000000e+000  4.794811e+000  8.969961e+000
    endloop
  endfacet
  facet normal -1.000000e+000  0.000000e+000  -0.000000e+000
    outer loop
      vertex -5.000000e+000 -1.888565e+000  1.969961e+000
      vertex -5.000000e+000  4.794811e+000  8.969961e+000
      vertex -5.000000e+000  4.794811e+000  1.969961e+000
    endloop
  endfacet
  facet normal -9.749279e-001  2.225209e-001  0.000000e+000
    outer loop
      vertex -6.000000e+000  8.111435e+000  1.969961e+000
      vertex -6.000000e+000  8.111435e+000  8.969961e+000
      vertex -5.405813e+000  1.071474e+001  1.969961e+000
    endloop
  endfacet
  facet normal -9.749279e-001  2.225209e-001  0.000000e+000
    outer loop
      vertex -5.405813e+000  1.071474e+001  1.969961e+000
      vertex -6.000000e+000  8.111435e+000  8.969961e+000
      vertex -5.405813e+000  1.071474e+001  8.969961e+000
    endloop
  endfacet
  facet normal -7.818315e-001  6.234897e-001  0.000000e+000
    outer loop
      vertex -5.405813e+000  1.071474e+001  1.969961e+000
      vertex -5.405813e+000  1.071474e+001  8.969961e+000
      vertex -3.740939e+000  1.280242e+001  1.969961e+000
    endloop
  endfacet
  facet normal -7.818315e-001  6.234897e-001  0.000000e+000
    outer loop
      vertex -3.740939e+000  1.280242e+001  1.969961e+000
      vertex -5.405813e+000  1.071474e+001  8.969961e+000
      vertex -3.740939e+000  1.280242e+001  8.969961e+000
    endloop
  endfacet
  facet normal -4.338838e-001  9.009688e-001  0.000000e+000
    outer loop
      vertex -3.740939e+000  1.280242e+001  1.969961e+000
      vertex -3.740939e+000  1.280242e+001  8.969961e+000
      vertex -1.335126e+000  1.396100e+001  1.969961e+000
    endloop
  endfacet
  facet normal -4.338838e-001  9.009688e-001  0.000000e+000
    outer loop
      vertex -1.335126e+000  1.396100e+001  1.969961e+000
      vertex -3.740939e+000  1.280242e+001  8.969961e+000
      vertex -1.335126e+000  1.396100e+001  8.969961e+000
    endloop
  endfacet
  facet normal  0.000000e+000  9.999999e-001  0.000000e+000
    outer loop
      vertex -1.335126e+000  1.396100e+001  1.969961e+000
      vertex -1.335126e+000  1.396100e+001  8.969961e+000
      vertex  1.335126e+000  1.396100e+001  1.969961e+000
    endloop
  endfacet
  facet normal  0.000000e+000  9.999999e-001  -0.000000e+000
    outer loop
      vertex  1.335126e+000  1.396100e+001  1.969961e+000
      vertex -1.335126e+000  1.396100e+001  8.969961e+000
      vertex  1.335126e+000  1.396100e+001  8.969961e+000
    endloop
  endfacet
  facet normal  4.338838e-001  9.009688e-001  0.000000e+000
    outer loop
      vertex  1.335126e+000  1.396100e+001  1.969961e+000
      vertex  1.335126e+000  1.396100e+001  8.969961e+000
      vertex  3.740939e+000  1.280242e+001  1.969961e+000
    endloop
  endfacet
  facet normal  4.338838e-001  9.009688e-001  -0.000000e+000
    outer loop
      vertex  3.740939e+000  1.280242e+001  1.969961e+000
      vertex  1.335126e+000  1.396100e+001  8.969961e+000
      vertex  3.740939e+000  1.280242e+001  8.969961e+000
    endloop
  endfacet
  facet normal  7.818315e-001  6.234897e-001  0.000000e+000
    outer loop
      vertex  3.740939e+000  1.280242e+001  1.969961e+000
      vertex  3.740939e+000  1.280242e+001  8.969961e+000
      vertex  5.405813e+000  1.071474e+001  1.969961e+000
    endloop
  endfacet
  facet normal  7.818315e-001  6.234897e-001  -0.000000e+000
    outer loop
      vertex  5.405813e+000  1.071474e+001  1.969961e+000
      vertex  3.740939e+000  1.280242e+001  8.969961e+000
      vertex  5.405813e+000  1.071474e+001  8.969961e+000
    endloop
  endfacet
  facet normal  9.749279e-001  2.225209e-001  0.000000e+000
    outer loop
      vertex  5.405813e+000  1.071474e+001  1.969961e+000
      vertex  5.405813e+000  1.071474e+001  8.969961e+000
      vertex  6.000000e+000  8.111435e+000  1.969961e+000
    endloop
  endfacet
  facet normal  9.749279e-001  2.225209e-001  -0.000000e+000
    outer loop
      vertex  6.000000e+000  8.111435e+000  1.969961e+000
      vertex  5.405813e+000  1.071474e+001  8.969961e+000
      vertex  6.000000e+000  8.111435e+000  8.969961e+000
    endloop
  endfacet
  facet normal  -0.000000e+000  6.001595e-001  7.998803e-001
    outer loop
      vertex  5.000000e+000 -9.595979e+000  8.969961e+000
      vertex -5.000000e+000 -9.595979e+000  8.969961e+000
      vertex  5.000000e+000 -2.992441e+001  2.422262e+001
    endloop
  endfacet
  facet normal  0.000000e+000  6.001595e-001  7.998803e-001
    outer loop
      vertex  5.000000e+000 -2.992441e+001  2.422262e+001
      vertex -5.000000e+000 -9.595979e+000  8.969961e+000
      vertex -5.000000e+000 -2.992441e+001  2.422262e+001
    endloop
  endfacet
  facet normal  0.000000e+000 -7.998803e-001  6.001596e-001
    outer loop
      vertex -5.000000e+000 -2.992441e+001  2.422262e+001
      vertex -5.000000e+000 -3.352536e+001  1.942334e+001
      vertex  5.000000e+000 -2.992441e+001  2.422262e+001
    endloop
  endfacet
  facet normal  0.000000e+000 -7.998803e-001  6.001596e-001
    outer loop
      vertex  5.000000e+000 -2.992441e+001  2.422262e+001
      vertex -5.000000e+000 -3.352536e+001  1.942334e+001
      vertex  5.000000e+000 -3.352536e+001  1.942334e+001
    endloop
  endfacet
  facet normal  0.000000e+000  6.001596e-001  7.998803e-001
    outer loop
      vertex  5.000000e+000 -1.026386e+001  1.969961e+000
      vertex  5.000000e+000 -3.352536e+001  1.942334e+001
      vertex  4.800000e+001 -1.026386e+001  1.969961e+000
    endloop
  endfacet
  facet normal  0.000000e+000  6.001596e-001  7.998803e-001
    outer loop
      vertex  4.800000e+001 -1.026386e+001  1.969961e+000
      vertex  5.000000e+000 -3.352536e+001  1.942334e+001
      vertex  4.800000e+001 -3.352536e+001  1.942334e+001
    endloop
  endfacet
  facet normal  0.000000e+000  6.001596e-001  7.998803e-001
    outer loop
      vertex -4.800000e+001 -1.026386e+001  1.969961e+000
      vertex -4.800000e+001 -3.352536e+001  1.942334e+001
      vertex -5.000000e+000 -1.026386e+001  1.969961e+000
    endloop
  endfacet
  facet normal  0.000000e+000  6.001596e-001  7.998803e-001
    outer loop
      vertex -5.000000e+000 -1.026386e+001  1.969961e+000
      vertex -4.800000e+001 -3.352536e+001  1.942334e+001
      vertex -5.000000e+000 -3.352536e+001  1.942334e+001
    endloop
  endfacet
  facet normal  0.000000e+000 -9.433278e-001  3.318624e-001
    outer loop
      vertex -5.000000e+000 -3.352536e+001  1.942334e+001
      vertex -4.800000e+001 -3.352536e+001  1.942334e+001
      vertex -4.800000e+001 -3.408203e+001  1.784101e+001
    endloop
  endfacet
  facet normal  0.000000e+000 -9.433278e-001  3.318625e-001
    outer loop
      vertex  4.800000e+001 -3.408203e+001  1.784101e+001
      vertex  4.800000e+001 -3.352536e+001  1.942334e+001
      vertex -4.800000e+001 -3.408203e+001  1.784101e+001
    endloop
  endfacet
  facet normal  0.000000e+000 -9.433278e-001  3.318624e-001
    outer loop
      vertex -4.800000e+001 -3.408203e+001  1.784101e+001
      vertex  4.800000e+001 -3.352536e+001  1.942334e+001
      vertex  5.000000e+000 -3.352536e+001  1.942334e+001
    endloop
  endfacet
  facet normal  0.000000e+000 -9.433278e-001  3.318625e-001
    outer loop
      vertex -4.800000e+001 -3.408203e+001  1.784101e+001
      vertex  5.000000e+000 -3.352536e+001  1.942334e+001
      vertex -5.000000e+000 -3.352536e+001  1.942334e+001
    endloop
  endfacet
  facet normal  0.000000e+000  0.000000e+000  1.000000e+000
    outer loop
      vertex -4.800000e+001 -1.888565e+000  1.969961e+000
      vertex -4.800000e+001 -1.026386e+001  1.969961e+000
      vertex -5.000000e+000 -1.888565e+000  1.969961e+000
    endloop
  endfacet
  facet normal  0.000000e+000  0.000000e+000  1.000000e+000
    outer loop
      vertex -5.000000e+000 -1.888565e+000  1.969961e+000
      vertex -4.800000e+001 -1.026386e+001  1.969961e+000
      vertex -5.000000e+000 -1.026386e+001  1.969961e+000
    endloop
  endfacet
  facet normal  0.000000e+000  0.000000e+000  1.000000e+000
    outer loop
      vertex  5.000000e+000 -1.888565e+000  1.969961e+000
      vertex  5.000000e+000 -1.026386e+001  1.969961e+000
      vertex  4.800000e+001 -1.888565e+000  1.969961e+000
    endloop
  endfacet
  facet normal  0.000000e+000  0.000000e+000  1.000000e+000
    outer loop
      vertex  4.800000e+001 -1.888565e+000  1.969961e+000
      vertex  5.000000e+000 -1.026386e+001  1.969961e+000
      vertex  4.800000e+001 -1.026386e+001  1.969961e+000
    endloop
  endfacet
  facet normal  -0.000000e+000  1.000000e+000  0.000000e+000
    outer loop
      vertex -4.800000e+001 -1.888565e+000 -4.030039e+000
      vertex -4.800000e+001 -1.888565e+000  1.969961e+000
      vertex -5.000000e+000 -1.888565e+000  1.969961e+000
    endloop
  endfacet
  facet normal  -0.000000e+000  1.000000e+000  0.000000e+000
    outer loop
      vertex -4.800000e+001 -1.888565e+000 -4.030039e+000
      vertex -5.000000e+000 -1.888565e+000  1.969961e+000
      vertex  5.000000e+000 -1.888565e+000  1.969961e+000
    endloop
  endfacet
  facet normal  -0.000000e+000  1.000000e+000  0.000000e+000
    outer loop
      vertex -4.800000e+001 -1.888565e+000 -4.030039e+000
      vertex  5.000000e+000 -1.888565e+000  1.969961e+000
      vertex  4.800000e+001 -1.888565e+000  1.969961e+000
    endloop
  endfacet
  facet normal  0.000000e+000  1.000000e+000  0.000000e+000
    outer loop
      vertex -4.800000e+001 -1.888565e+000 -4.030039e+000
      vertex  4.800000e+001 -1.888565e+000  1.969961e+000
      vertex  4.800000e+001 -1.888565e+000 -4.030039e+000
    endloop
  endfacet
  facet normal  1.000000e+000  0.000000e+000  0.000000e+000
    outer loop
      vertex  4.800000e+001 -1.888565e+000 -4.030039e+000
      vertex  4.800000e+001 -1.888565e+000  1.969961e+000
      vertex  4.800000e+001 -2.267188e+000 -4.030039e+000
    endloop
  endfacet
  facet normal  1.000000e+000  0.000000e+000  -0.000000e+000
    outer loop
      vertex  4.800000e+001 -2.267188e+000 -4.030039e+000
      vertex  4.800000e+001 -1.888565e+000  1.969961e+000
      vertex  4.800000e+001 -1.026386e+001  1.969961e+000
    endloop
  endfacet
  facet normal  9.999999e-001  0.000000e+000  0.000000e+000
    outer loop
      vertex  4.800000e+001 -2.267188e+000 -4.030039e+000
      vertex  4.800000e+001 -1.026386e+001  1.969961e+000
      vertex  4.800000e+001 -2.267188e+000 -6.030039e+000
    endloop
  endfacet
  facet normal  9.999999e-001  0.000000e+000  0.000000e+000
    outer loop
      vertex  4.800000e+001 -2.267188e+000 -6.030039e+000
      vertex  4.800000e+001 -1.026386e+001  1.969961e+000
      vertex  4.800000e+001 -3.408203e+001  1.784101e+001
    endloop
  endfacet
  facet normal  1.000000e+000  -0.000000e+000  0.000000e+000
    outer loop
      vertex  4.800000e+001 -3.408203e+001  1.784101e+001
      vertex  4.800000e+001 -1.026386e+001  1.969961e+000
      vertex  4.800000e+001 -3.352536e+001  1.942334e+001
    endloop
  endfacet
  facet normal -9.999999e-001  0.000000e+000  0.000000e+000
    outer loop
      vertex -4.800000e+001 -2.267188e+000 -6.030039e+000
      vertex -4.800000e+001 -1.026386e+001  1.969961e+000
      vertex -4.800000e+001 -2.267188e+000 -4.030039e+000
    endloop
  endfacet
  facet normal -1.000000e+000  0.000000e+000  0.000000e+000
    outer loop
      vertex -4.800000e+001 -2.267188e+000 -4.030039e+000
      vertex -4.800000e+001 -1.026386e+001  1.969961e+000
      vertex -4.800000e+001 -1.888565e+000  1.969961e+000
    endloop
  endfacet
  facet normal -1.000000e+000  0.000000e+000  -0.000000e+000
    outer loop
      vertex -4.800000e+001 -2.267188e+000 -4.030039e+000
      vertex -4.800000e+001 -1.888565e+000  1.969961e+000
      vertex -4.800000e+001 -1.888565e+000 -4.030039e+000
    endloop
  endfacet
  facet normal -9.999999e-001  0.000000e+000  0.000000e+000
    outer loop
      vertex -4.800000e+001 -2.267188e+000 -6.030039e+000
      vertex -4.800000e+001 -3.408203e+001  1.784101e+001
      vertex -4.800000e+001 -1.026386e+001  1.969961e+000
    endloop
  endfacet
  facet normal -1.000000e+000  0.000000e+000  0.000000e+000
    outer loop
      vertex -4.800000e+001 -1.026386e+001  1.969961e+000
      vertex -4.800000e+001 -3.408203e+001  1.784101e+001
      vertex -4.800000e+001 -3.352536e+001  1.942334e+001
    endloop
  endfacet
  facet normal  0.000000e+000  0.000000e+000 -1.000000e+000
    outer loop
      vertex -4.800000e+001 -2.267188e+000 -4.030039e+000
      vertex -4.800000e+001 -1.888565e+000 -4.030039e+000
      vertex  4.800000e+001 -2.267188e+000 -4.030039e+000
    endloop
  endfacet
  facet normal  0.000000e+000  0.000000e+000 -1.000000e+000
    outer loop
      vertex  4.800000e+001 -2.267188e+000 -4.030039e+000
      vertex -4.800000e+001 -1.888565e+000 -4.030039e+000
      vertex  4.800000e+001 -1.888565e+000 -4.030039e+000
    endloop
  endfacet
  facet normal  0.000000e+000  1.000000e+000  0.000000e+000
    outer loop
      vertex -4.800000e+001 -2.267188e+000 -6.030039e+000
      vertex -4.800000e+001 -2.267188e+000 -4.030039e+000
      vertex  4.800000e+001 -2.267188e+000 -6.030039e+000
    endloop
  endfacet
  facet normal  0.000000e+000  1.000000e+000  -0.000000e+000
    outer loop
      vertex  4.800000e+001 -2.267188e+000 -6.030039e+000
      vertex -4.800000e+001 -2.267188e+000 -4.030039e+000
      vertex  4.800000e+001 -2.267188e+000 -4.030039e+000
    endloop
  endfacet
  facet normal  0.000000e+000 -6.001595e-001 -7.998803e-001
    outer loop
      vertex -4.800000e+001 -3.408203e+001  1.784101e+001
      vertex -4.800000e+001 -2.267188e+000 -6.030039e+000
      vertex  4.800000e+001 -3.408203e+001  1.784101e+001
    endloop
  endfacet
  facet normal  0.000000e+000 -6.001595e-001 -7.998803e-001
    outer loop
      vertex  4.800000e+001 -3.408203e+001  1.784101e+001
      vertex -4.800000e+001 -2.267188e+000 -6.030039e+000
      vertex  4.800000e+001 -2.267188e+000 -6.030039e+000
    endloop
  endfacet
endsolid CATIA STL
