solid CATIA STL
  facet normal  1.000000e+000  0.000000e+000  0.000000e+000
    outer loop
      vertex -7.898325e+001  3.587292e+001  1.900473e+001
      vertex -7.898325e+001 -1.582850e+002  2.479924e+001
      vertex -7.898325e+001 -5.132476e+001  1.900473e+001
    endloop
  endfacet
  facet normal  1.000000e+000  0.000000e+000  -0.000000e+000
    outer loop
      vertex -7.898325e+001 -1.582850e+002  2.479924e+001
      vertex -7.898325e+001 -1.096991e+002  1.900473e+001
      vertex -7.898325e+001 -5.132476e+001  1.900473e+001
    endloop
  endfacet
  facet normal  1.000000e+000  0.000000e+000  0.000000e+000
    outer loop
      vertex -7.898325e+001  4.545061e+001  3.252586e+001
      vertex -7.898325e+001  2.900834e+001  4.632256e+001
      vertex -7.898325e+001 -1.623254e+002  4.632256e+001
    endloop
  endfacet
  facet normal  1.000000e+000  0.000000e+000  0.000000e+000
    outer loop
      vertex -7.898325e+001  4.545061e+001  3.252586e+001
      vertex -7.898325e+001 -1.623254e+002  4.632256e+001
      vertex -7.898325e+001 -1.676358e+002  4.101218e+001
    endloop
  endfacet
  facet normal  1.000000e+000  0.000000e+000  0.000000e+000
    outer loop
      vertex -7.898325e+001  4.545061e+001  3.252586e+001
      vertex -7.898325e+001 -1.676358e+002  4.101218e+001
      vertex -7.898325e+001 -1.675847e+002  3.790516e+001
    endloop
  endfacet
  facet normal  1.000000e+000  0.000000e+000  0.000000e+000
    outer loop
      vertex -7.898325e+001  4.545061e+001  3.252586e+001
      vertex -7.898325e+001 -1.675847e+002  3.790516e+001
      vertex -7.898325e+001 -1.582850e+002  2.479924e+001
    endloop
  endfacet
  facet normal  1.000000e+000  -0.000000e+000  0.000000e+000
    outer loop
      vertex -7.898325e+001  4.545061e+001  3.252586e+001
      vertex -7.898325e+001 -1.582850e+002  2.479924e+001
      vertex -7.898325e+001  3.587292e+001  1.900473e+001
    endloop
  endfacet
  facet normal -1.000000e+000  0.000000e+000  0.000000e+000
    outer loop
      vertex -7.998325e+001 -5.132476e+001  1.900473e+001
      vertex -7.998325e+001 -1.582850e+002  2.479924e+001
      vertex -7.998325e+001  3.587292e+001  1.900473e+001
    endloop
  endfacet
  facet normal -1.000000e+000  0.000000e+000  0.000000e+000
    outer loop
      vertex -7.998325e+001 -5.132476e+001  1.900473e+001
      vertex -7.998325e+001 -1.096991e+002  1.900473e+001
      vertex -7.998325e+001 -1.582850e+002  2.479924e+001
    endloop
  endfacet
  facet normal -1.000000e+000  0.000000e+000  0.000000e+000
    outer loop
      vertex -7.998325e+001  4.545061e+001  3.252586e+001
      vertex -7.998325e+001  3.587292e+001  1.900473e+001
      vertex -7.998325e+001 -1.582850e+002  2.479924e+001
    endloop
  endfacet
  facet normal -1.000000e+000  0.000000e+000  0.000000e+000
    outer loop
      vertex -7.998325e+001  4.545061e+001  3.252586e+001
      vertex -7.998325e+001 -1.582850e+002  2.479924e+001
      vertex -7.998325e+001 -1.675847e+002  3.790516e+001
    endloop
  endfacet
  facet normal -1.000000e+000  0.000000e+000  0.000000e+000
    outer loop
      vertex -7.998325e+001  4.545061e+001  3.252586e+001
      vertex -7.998325e+001 -1.675847e+002  3.790516e+001
      vertex -7.998325e+001 -1.676358e+002  4.101218e+001
    endloop
  endfacet
  facet normal -1.000000e+000  0.000000e+000  0.000000e+000
    outer loop
      vertex -7.998325e+001  4.545061e+001  3.252586e+001
      vertex -7.998325e+001 -1.676358e+002  4.101218e+001
      vertex -7.998325e+001 -1.623254e+002  4.632256e+001
    endloop
  endfacet
  facet normal -1.000000e+000  0.000000e+000  0.000000e+000
    outer loop
      vertex -7.998325e+001  4.545061e+001  3.252586e+001
      vertex -7.998325e+001 -1.623254e+002  4.632256e+001
      vertex -7.998325e+001  2.900834e+001  4.632256e+001
    endloop
  endfacet
  facet normal  1.566222e-001 -1.169622e-001 -9.807086e-001
    outer loop
      vertex -7.948325e+001 -1.578947e+002  2.424914e+001
      vertex -7.948325e+001 -1.097288e+002  1.850473e+001
      vertex -7.932855e+001 -1.579139e+002  2.427613e+001
    endloop
  endfacet
  facet normal  1.901864e-001 -1.161530e-001 -9.748526e-001
    outer loop
      vertex -7.932855e+001 -1.579139e+002  2.427613e+001
      vertex -7.948325e+001 -1.097288e+002  1.850473e+001
      vertex -7.929653e+001 -1.097266e+002  1.854090e+001
    endloop
  endfacet
  facet normal  5.202925e-001 -1.012699e-001 -8.479623e-001
    outer loop
      vertex -7.932855e+001 -1.579139e+002  2.427613e+001
      vertex -7.929653e+001 -1.097266e+002  1.854090e+001
      vertex -7.913161e+001 -1.580076e+002  2.440816e+001
    endloop
  endfacet
  facet normal  5.427599e-001 -9.949327e-002 -8.339741e-001
    outer loop
      vertex -7.913161e+001 -1.580076e+002  2.440816e+001
      vertex -7.929653e+001 -1.097266e+002  1.854090e+001
      vertex -7.913706e+001 -1.097205e+002  1.864396e+001
    endloop
  endfacet
  facet normal  8.868850e-001 -5.466191e-002 -4.587451e-001
    outer loop
      vertex -7.913161e+001 -1.580076e+002  2.440816e+001
      vertex -7.913706e+001 -1.097205e+002  1.864396e+001
      vertex -7.899043e+001 -1.582191e+002  2.470630e+001
    endloop
  endfacet
  facet normal  9.114316e-001 -4.832009e-002 -4.086043e-001
    outer loop
      vertex -7.899043e+001 -1.582191e+002  2.470630e+001
      vertex -7.913706e+001 -1.097205e+002  1.864396e+001
      vertex -7.898369e+001 -1.097003e+002  1.898368e+001
    endloop
  endfacet
  facet normal  9.963984e-001 -1.006896e-002 -8.419470e-002
    outer loop
      vertex -7.899043e+001 -1.582191e+002  2.470630e+001
      vertex -7.898369e+001 -1.097003e+002  1.898368e+001
      vertex -7.898325e+001 -1.582850e+002  2.479924e+001
    endloop
  endfacet
  facet normal  9.997791e-001 -2.489236e-003 -2.087183e-002
    outer loop
      vertex -7.898325e+001 -1.582850e+002  2.479924e+001
      vertex -7.898369e+001 -1.097003e+002  1.898368e+001
      vertex -7.898325e+001 -1.096991e+002  1.900473e+001
    endloop
  endfacet
  facet normal -7.343833e-001 -8.000553e-002 -6.740032e-001
    outer loop
      vertex -7.992874e+001 -1.097126e+002  1.877772e+001
      vertex -7.974458e+001 -1.097244e+002  1.857846e+001
      vertex -7.983488e+001 -1.580076e+002  2.440816e+001
    endloop
  endfacet
  facet normal -9.964005e-001 -1.003886e-002 -8.417423e-002
    outer loop
      vertex -7.998325e+001 -1.582850e+002  2.479924e+001
      vertex -7.998325e+001 -1.096991e+002  1.900473e+001
      vertex -7.997606e+001 -1.582191e+002  2.470630e+001
    endloop
  endfacet
  facet normal -9.723696e-001 -2.738686e-002 -2.318351e-001
    outer loop
      vertex -7.997606e+001 -1.582191e+002  2.470630e+001
      vertex -7.998325e+001 -1.096991e+002  1.900473e+001
      vertex -7.992874e+001 -1.097126e+002  1.877772e+001
    endloop
  endfacet
  facet normal -8.866751e-001 -5.524496e-002 -4.590811e-001
    outer loop
      vertex -7.997606e+001 -1.582191e+002  2.470630e+001
      vertex -7.992874e+001 -1.097126e+002  1.877772e+001
      vertex -7.983488e+001 -1.580076e+002  2.440816e+001
    endloop
  endfacet
  facet normal -5.202366e-001 -1.014119e-001 -8.479797e-001
    outer loop
      vertex -7.983488e+001 -1.580076e+002  2.440816e+001
      vertex -7.974458e+001 -1.097244e+002  1.857846e+001
      vertex -7.963793e+001 -1.579139e+002  2.427613e+001
    endloop
  endfacet
  facet normal -2.715421e-001 -1.135977e-001 -9.556989e-001
    outer loop
      vertex -7.963793e+001 -1.579139e+002  2.427613e+001
      vertex -7.974458e+001 -1.097244e+002  1.857846e+001
      vertex -7.948325e+001 -1.097288e+002  1.850473e+001
    endloop
  endfacet
  facet normal -1.566297e-001 -1.169620e-001 -9.807075e-001
    outer loop
      vertex -7.963793e+001 -1.579139e+002  2.427613e+001
      vertex -7.948325e+001 -1.097288e+002  1.850473e+001
      vertex -7.948325e+001 -1.578947e+002  2.424914e+001
    endloop
  endfacet
  facet normal  1.901878e-001  0.000000e+000 -9.817477e-001
    outer loop
      vertex -7.948325e+001 -1.097288e+002  1.850473e+001
      vertex -7.948325e+001 -5.132476e+001  1.850473e+001
      vertex -7.929653e+001 -1.097266e+002  1.854090e+001
    endloop
  endfacet
  facet normal  3.826821e-001  6.512556e-004 -9.238798e-001
    outer loop
      vertex -7.929653e+001 -1.097266e+002  1.854090e+001
      vertex -7.948325e+001 -5.132476e+001  1.850473e+001
      vertex -7.912969e+001 -5.132476e+001  1.865118e+001
    endloop
  endfacet
  facet normal  5.427595e-001  3.536016e-005 -8.398881e-001
    outer loop
      vertex -7.929653e+001 -1.097266e+002  1.854090e+001
      vertex -7.912969e+001 -5.132476e+001  1.865118e+001
      vertex -7.913706e+001 -1.097205e+002  1.864396e+001
    endloop
  endfacet
  facet normal  9.238800e-001  0.000000e+000 -3.826822e-001
    outer loop
      vertex -7.898325e+001 -5.132476e+001  1.900473e+001
      vertex -7.898325e+001 -1.096991e+002  1.900473e+001
      vertex -7.912969e+001 -5.132476e+001  1.865118e+001
    endloop
  endfacet
  facet normal  9.997732e-001  2.380010e-003 -2.116086e-002
    outer loop
      vertex -7.912969e+001 -5.132476e+001  1.865118e+001
      vertex -7.898325e+001 -1.096991e+002  1.900473e+001
      vertex -7.898369e+001 -1.097003e+002  1.898368e+001
    endloop
  endfacet
  facet normal  9.114239e-001 -6.414644e-005 -4.114687e-001
    outer loop
      vertex -7.912969e+001 -5.132476e+001  1.865118e+001
      vertex -7.898369e+001 -1.097003e+002  1.898368e+001
      vertex -7.913706e+001 -1.097205e+002  1.864396e+001
    endloop
  endfacet
  facet normal -9.723661e-001  -0.000000e+000 -2.334613e-001
    outer loop
      vertex -7.998325e+001 -1.096991e+002  1.900473e+001
      vertex -7.998325e+001 -5.132476e+001  1.900473e+001
      vertex -7.992874e+001 -1.097126e+002  1.877772e+001
    endloop
  endfacet
  facet normal -9.238798e-001  6.254292e-004 -3.826821e-001
    outer loop
      vertex -7.992874e+001 -1.097126e+002  1.877772e+001
      vertex -7.998325e+001 -5.132476e+001  1.900473e+001
      vertex -7.983680e+001 -5.132476e+001  1.865118e+001
    endloop
  endfacet
  facet normal -7.343814e-001 -3.146047e-004 -6.787370e-001
    outer loop
      vertex -7.992874e+001 -1.097126e+002  1.877772e+001
      vertex -7.983680e+001 -5.132476e+001  1.865118e+001
      vertex -7.974458e+001 -1.097244e+002  1.857846e+001
    endloop
  endfacet
  facet normal -3.826822e-001  0.000000e+000 -9.238800e-001
    outer loop
      vertex -7.948325e+001 -5.132476e+001  1.850473e+001
      vertex -7.948325e+001 -1.097288e+002  1.850473e+001
      vertex -7.983680e+001 -5.132476e+001  1.865118e+001
    endloop
  endfacet
  facet normal -2.715235e-001  7.695751e-004 -9.624315e-001
    outer loop
      vertex -7.983680e+001 -5.132476e+001  1.865118e+001
      vertex -7.948325e+001 -1.097288e+002  1.850473e+001
      vertex -7.974458e+001 -1.097244e+002  1.857846e+001
    endloop
  endfacet
  facet normal  3.826822e-001  0.000000e+000 -9.238800e-001
    outer loop
      vertex -7.948325e+001 -5.132476e+001  1.850473e+001
      vertex -7.948325e+001  3.613148e+001  1.850473e+001
      vertex -7.912969e+001 -5.132476e+001  1.865118e+001
    endloop
  endfacet
  facet normal  1.958163e-001 -8.504767e-004 -9.806402e-001
    outer loop
      vertex -7.912969e+001 -5.132476e+001  1.865118e+001
      vertex -7.948325e+001  3.613148e+001  1.850473e+001
      vertex -7.929114e+001  3.611163e+001  1.854311e+001
    endloop
  endfacet
  facet normal  5.523070e-001 -1.055316e-005 -8.336408e-001
    outer loop
      vertex -7.912969e+001 -5.132476e+001  1.865118e+001
      vertex -7.929114e+001  3.611163e+001  1.854311e+001
      vertex -7.913305e+001  3.605747e+001  1.864785e+001
    endloop
  endfacet
  facet normal  9.806492e-001  0.000000e+000 -1.957733e-001
    outer loop
      vertex -7.898325e+001  3.587292e+001  1.900473e+001
      vertex -7.898325e+001 -5.132476e+001  1.900473e+001
      vertex -7.902158e+001  3.597221e+001  1.881273e+001
    endloop
  endfacet
  facet normal  9.238800e-001 -4.360103e-004 -3.826822e-001
    outer loop
      vertex -7.902158e+001  3.597221e+001  1.881273e+001
      vertex -7.898325e+001 -5.132476e+001  1.900473e+001
      vertex -7.912969e+001 -5.132476e+001  1.865118e+001
    endloop
  endfacet
  facet normal  8.284409e-001  1.048082e-005 -5.600765e-001
    outer loop
      vertex -7.902158e+001  3.597221e+001  1.881273e+001
      vertex -7.912969e+001 -5.132476e+001  1.865118e+001
      vertex -7.913305e+001  3.605747e+001  1.864785e+001
    endloop
  endfacet
  facet normal -9.238800e-001  -0.000000e+000 -3.826822e-001
    outer loop
      vertex -7.998325e+001 -5.132476e+001  1.900473e+001
      vertex -7.998325e+001  3.587292e+001  1.900473e+001
      vertex -7.983680e+001 -5.132476e+001  1.865118e+001
    endloop
  endfacet
  facet normal -9.400833e-001 -1.964422e-004 -3.409448e-001
    outer loop
      vertex -7.983680e+001 -5.132476e+001  1.865118e+001
      vertex -7.998325e+001  3.587292e+001  1.900473e+001
      vertex -7.986707e+001  3.603862e+001  1.868429e+001
    endloop
  endfacet
  facet normal -5.564577e-001  1.221695e-004 -8.308760e-001
    outer loop
      vertex -7.983680e+001 -5.132476e+001  1.865118e+001
      vertex -7.986707e+001  3.603862e+001  1.868429e+001
      vertex -7.963339e+001  3.611954e+001  1.852781e+001
    endloop
  endfacet
  facet normal -1.519128e-001  0.000000e+000 -9.883939e-001
    outer loop
      vertex -7.948325e+001  3.613148e+001  1.850473e+001
      vertex -7.948325e+001 -5.132476e+001  1.850473e+001
      vertex -7.963339e+001  3.611954e+001  1.852781e+001
    endloop
  endfacet
  facet normal -3.826822e-001 -4.132687e-004 -9.238799e-001
    outer loop
      vertex -7.963339e+001  3.611954e+001  1.852781e+001
      vertex -7.948325e+001 -5.132476e+001  1.850473e+001
      vertex -7.983680e+001 -5.132476e+001  1.865118e+001
    endloop
  endfacet
  facet normal  1.958924e-001  8.002080e-001 -5.668274e-001
    outer loop
      vertex -7.948325e+001  3.613148e+001  1.850473e+001
      vertex -7.948325e+001  4.583492e+001  3.220338e+001
      vertex -7.929114e+001  3.611163e+001  1.854311e+001
    endloop
  endfacet
  facet normal  2.343732e-001  7.935551e-001 -5.615508e-001
    outer loop
      vertex -7.929114e+001  3.611163e+001  1.854311e+001
      vertex -7.948325e+001  4.583492e+001  3.220338e+001
      vertex -7.925539e+001  4.579269e+001  3.223882e+001
    endloop
  endfacet
  facet normal  5.523928e-001  6.800145e-001 -4.821227e-001
    outer loop
      vertex -7.929114e+001  3.611163e+001  1.854311e+001
      vertex -7.925539e+001  4.579269e+001  3.223882e+001
      vertex -7.913305e+001  3.605747e+001  1.864785e+001
    endloop
  endfacet
  facet normal  6.517922e-001  6.193106e-001 -4.377457e-001
    outer loop
      vertex -7.913305e+001  3.605747e+001  1.864785e+001
      vertex -7.925539e+001  4.579269e+001  3.223882e+001
      vertex -7.907748e+001  4.567517e+001  3.233743e+001
    endloop
  endfacet
  facet normal  8.285815e-001  4.565239e-001 -3.240966e-001
    outer loop
      vertex -7.913305e+001  3.605747e+001  1.864785e+001
      vertex -7.907748e+001  4.567517e+001  3.233743e+001
      vertex -7.902158e+001  3.597221e+001  1.881273e+001
    endloop
  endfacet
  facet normal  9.806492e-001  1.597547e-001 -1.131623e-001
    outer loop
      vertex -7.898325e+001  3.587292e+001  1.900473e+001
      vertex -7.902158e+001  3.597221e+001  1.881273e+001
      vertex -7.898325e+001  4.545061e+001  3.252586e+001
    endloop
  endfacet
  facet normal  9.516805e-001  2.513680e-001 -1.764037e-001
    outer loop
      vertex -7.898325e+001  4.545061e+001  3.252586e+001
      vertex -7.902158e+001  3.597221e+001  1.881273e+001
      vertex -7.907748e+001  4.567517e+001  3.233743e+001
    endloop
  endfacet
  facet normal -9.401158e-001  2.781439e-001 -1.970233e-001
    outer loop
      vertex -7.998325e+001  3.587292e+001  1.900473e+001
      vertex -7.998325e+001  4.545061e+001  3.252586e+001
      vertex -7.986707e+001  3.603862e+001  1.868429e+001
    endloop
  endfacet
  facet normal -9.517309e-001  2.500407e-001 -1.780112e-001
    outer loop
      vertex -7.986707e+001  3.603862e+001  1.868429e+001
      vertex -7.998325e+001  4.545061e+001  3.252586e+001
      vertex -7.988901e+001  4.567517e+001  3.233743e+001
    endloop
  endfacet
  facet normal -5.562699e-001  6.785028e-001 -4.797891e-001
    outer loop
      vertex -7.986707e+001  3.603862e+001  1.868429e+001
      vertex -7.988901e+001  4.567517e+001  3.233743e+001
      vertex -7.963339e+001  3.611954e+001  1.852781e+001
    endloop
  endfacet
  facet normal -6.518698e-001  6.178977e-001 -4.396227e-001
    outer loop
      vertex -7.963339e+001  3.611954e+001  1.852781e+001
      vertex -7.988901e+001  4.567517e+001  3.233743e+001
      vertex -7.971110e+001  4.579269e+001  3.223882e+001
    endloop
  endfacet
  facet normal -1.518194e-001  8.072368e-001 -5.703679e-001
    outer loop
      vertex -7.963339e+001  3.611954e+001  1.852781e+001
      vertex -7.971110e+001  4.579269e+001  3.223882e+001
      vertex -7.948325e+001  3.613148e+001  1.850473e+001
    endloop
  endfacet
  facet normal -2.343888e-001  7.932861e-001 -5.619243e-001
    outer loop
      vertex -7.948325e+001  3.613148e+001  1.850473e+001
      vertex -7.971110e+001  4.579269e+001  3.223882e+001
      vertex -7.948325e+001  4.583492e+001  3.220338e+001
    endloop
  endfacet
  facet normal  -0.000000e+000  6.427878e-001  7.660442e-001
    outer loop
      vertex -7.948325e+001  4.583492e+001  3.220338e+001
      vertex -7.971110e+001  4.579269e+001  3.223882e+001
      vertex -7.925539e+001  4.579269e+001  3.223882e+001
    endloop
  endfacet
  facet normal  0.000000e+000  6.427902e-001  7.660423e-001
    outer loop
      vertex -7.925539e+001  4.579269e+001  3.223882e+001
      vertex -7.971110e+001  4.579269e+001  3.223882e+001
      vertex -7.988901e+001  4.567517e+001  3.233743e+001
    endloop
  endfacet
  facet normal  -0.000000e+000  6.427903e-001  7.660423e-001
    outer loop
      vertex -7.925539e+001  4.579269e+001  3.223882e+001
      vertex -7.988901e+001  4.567517e+001  3.233743e+001
      vertex -7.907748e+001  4.567517e+001  3.233743e+001
    endloop
  endfacet
  facet normal  0.000000e+000  6.427842e-001  7.660472e-001
    outer loop
      vertex -7.907748e+001  4.567517e+001  3.233743e+001
      vertex -7.988901e+001  4.567517e+001  3.233743e+001
      vertex -7.998325e+001  4.545061e+001  3.252586e+001
    endloop
  endfacet
  facet normal  -0.000000e+000  6.427843e-001  7.660473e-001
    outer loop
      vertex -7.907748e+001  4.567517e+001  3.233743e+001
      vertex -7.998325e+001  4.545061e+001  3.252586e+001
      vertex -7.898325e+001  4.545061e+001  3.252586e+001
    endloop
  endfacet
  facet normal  0.000000e+000  6.427877e-001  7.660444e-001
    outer loop
      vertex -7.898325e+001  4.545061e+001  3.252586e+001
      vertex -7.998325e+001  4.545061e+001  3.252586e+001
      vertex -7.998325e+001  2.900834e+001  4.632256e+001
    endloop
  endfacet
  facet normal  -0.000000e+000  6.427877e-001  7.660444e-001
    outer loop
      vertex -7.898325e+001  4.545061e+001  3.252586e+001
      vertex -7.998325e+001  2.900834e+001  4.632256e+001
      vertex -7.898325e+001  2.900834e+001  4.632256e+001
    endloop
  endfacet
  facet normal  0.000000e+000  0.000000e+000  1.000000e+000
    outer loop
      vertex -7.898325e+001 -1.623254e+002  4.632256e+001
      vertex -7.898325e+001  2.900834e+001  4.632256e+001
      vertex -7.998325e+001 -1.623254e+002  4.632256e+001
    endloop
  endfacet
  facet normal  0.000000e+000  0.000000e+000  1.000000e+000
    outer loop
      vertex -7.998325e+001 -1.623254e+002  4.632256e+001
      vertex -7.898325e+001  2.900834e+001  4.632256e+001
      vertex -7.998325e+001  2.900834e+001  4.632256e+001
    endloop
  endfacet
  facet normal  0.000000e+000 -7.071068e-001  7.071068e-001
    outer loop
      vertex -7.898325e+001 -1.676358e+002  4.101218e+001
      vertex -7.898325e+001 -1.623254e+002  4.632256e+001
      vertex -7.998325e+001 -1.676358e+002  4.101218e+001
    endloop
  endfacet
  facet normal  0.000000e+000 -7.071068e-001  7.071068e-001
    outer loop
      vertex -7.998325e+001 -1.676358e+002  4.101218e+001
      vertex -7.898325e+001 -1.623254e+002  4.632256e+001
      vertex -7.998325e+001 -1.623254e+002  4.632256e+001
    endloop
  endfacet
  facet normal  0.000000e+000 -9.998649e-001 -1.643510e-002
    outer loop
      vertex -7.898325e+001 -1.675847e+002  3.790516e+001
      vertex -7.898325e+001 -1.676358e+002  4.101218e+001
      vertex -7.998325e+001 -1.675847e+002  3.790516e+001
    endloop
  endfacet
  facet normal  0.000000e+000 -9.998649e-001 -1.643510e-002
    outer loop
      vertex -7.998325e+001 -1.675847e+002  3.790516e+001
      vertex -7.898325e+001 -1.676358e+002  4.101218e+001
      vertex -7.998325e+001 -1.676358e+002  4.101218e+001
    endloop
  endfacet
  facet normal  -0.000000e+000 -8.155598e-001 -5.786728e-001
    outer loop
      vertex -7.948325e+001 -1.578947e+002  2.424914e+001
      vertex -7.932855e+001 -1.579139e+002  2.427613e+001
      vertex -7.963793e+001 -1.579139e+002  2.427613e+001
    endloop
  endfacet
  facet normal  0.000000e+000 -8.155366e-001 -5.787055e-001
    outer loop
      vertex -7.963793e+001 -1.579139e+002  2.427613e+001
      vertex -7.932855e+001 -1.579139e+002  2.427613e+001
      vertex -7.913161e+001 -1.580076e+002  2.440816e+001
    endloop
  endfacet
  facet normal  -0.000000e+000 -8.155366e-001 -5.787055e-001
    outer loop
      vertex -7.963793e+001 -1.579139e+002  2.427613e+001
      vertex -7.913161e+001 -1.580076e+002  2.440816e+001
      vertex -7.983488e+001 -1.580076e+002  2.440816e+001
    endloop
  endfacet
  facet normal  0.000000e+000 -8.155507e-001 -5.786857e-001
    outer loop
      vertex -7.983488e+001 -1.580076e+002  2.440816e+001
      vertex -7.913161e+001 -1.580076e+002  2.440816e+001
      vertex -7.899043e+001 -1.582191e+002  2.470630e+001
    endloop
  endfacet
  facet normal  -0.000000e+000 -8.155507e-001 -5.786857e-001
    outer loop
      vertex -7.983488e+001 -1.580076e+002  2.440816e+001
      vertex -7.899043e+001 -1.582191e+002  2.470630e+001
      vertex -7.997606e+001 -1.582191e+002  2.470630e+001
    endloop
  endfacet
  facet normal  0.000000e+000 -8.155423e-001 -5.786974e-001
    outer loop
      vertex -7.997606e+001 -1.582191e+002  2.470630e+001
      vertex -7.899043e+001 -1.582191e+002  2.470630e+001
      vertex -7.898325e+001 -1.582850e+002  2.479924e+001
    endloop
  endfacet
  facet normal  -0.000000e+000 -8.155423e-001 -5.786974e-001
    outer loop
      vertex -7.997606e+001 -1.582191e+002  2.470630e+001
      vertex -7.898325e+001 -1.582850e+002  2.479924e+001
      vertex -7.998325e+001 -1.582850e+002  2.479924e+001
    endloop
  endfacet
  facet normal  0.000000e+000 -8.155465e-001 -5.786915e-001
    outer loop
      vertex -7.998325e+001 -1.582850e+002  2.479924e+001
      vertex -7.898325e+001 -1.582850e+002  2.479924e+001
      vertex -7.898325e+001 -1.675847e+002  3.790516e+001
    endloop
  endfacet
  facet normal  -0.000000e+000 -8.155465e-001 -5.786915e-001
    outer loop
      vertex -7.998325e+001 -1.582850e+002  2.479924e+001
      vertex -7.898325e+001 -1.675847e+002  3.790516e+001
      vertex -7.998325e+001 -1.675847e+002  3.790516e+001
    endloop
  endfacet
endsolid CATIA STL
