solid CATIA STL
  facet normal  1.000000e+000  0.000000e+000  0.000000e+000
    outer loop
      vertex  4.600000e+001  1.395146e+001  1.696996e+001
      vertex  4.600000e+001  2.725824e+001  2.000715e+001
      vertex  4.600000e+001  1.464468e+001  2.000715e+001
    endloop
  endfacet
  facet normal  1.000000e+000  0.000000e+000  0.000000e+000
    outer loop
      vertex  4.600000e+001  1.464468e+001  2.000715e+001
      vertex  4.600000e+001  2.725824e+001  2.000715e+001
      vertex  4.600000e+001  2.531589e+001  2.244278e+001
    endloop
  endfacet
  facet normal  1.000000e+000  0.000000e+000  0.000000e+000
    outer loop
      vertex  4.600000e+001  1.464468e+001  2.000715e+001
      vertex  4.600000e+001  2.531589e+001  2.244278e+001
      vertex  4.600000e+001  1.658703e+001  2.244278e+001
    endloop
  endfacet
  facet normal  9.999999e-001  0.000000e+000  0.000000e+000
    outer loop
      vertex  4.600000e+001  1.658703e+001  2.244278e+001
      vertex  4.600000e+001  2.531589e+001  2.244278e+001
      vertex  4.600000e+001  2.250911e+001  2.379446e+001
    endloop
  endfacet
  facet normal  1.000000e+000  0.000000e+000  0.000000e+000
    outer loop
      vertex  4.600000e+001  1.658703e+001  2.244278e+001
      vertex  4.600000e+001  2.250911e+001  2.379446e+001
      vertex  4.600000e+001  1.939381e+001  2.379446e+001
    endloop
  endfacet
  facet normal  1.000000e+000  0.000000e+000  0.000000e+000
    outer loop
      vertex  4.600000e+001  2.725824e+001  2.000715e+001
      vertex  4.600000e+001  1.395146e+001  1.696996e+001
      vertex  4.600000e+001  2.795146e+001  1.696996e+001
    endloop
  endfacet
  facet normal  9.999999e-001  0.000000e+000  0.000000e+000
    outer loop
      vertex  4.600000e+001  2.795146e+001  1.696996e+001
      vertex  4.600000e+001  1.395146e+001  1.696996e+001
      vertex  4.600000e+001  1.464468e+001  1.393277e+001
    endloop
  endfacet
  facet normal  1.000000e+000  0.000000e+000  0.000000e+000
    outer loop
      vertex  4.600000e+001  2.795146e+001  1.696996e+001
      vertex  4.600000e+001  1.464468e+001  1.393277e+001
      vertex  4.600000e+001  2.725824e+001  1.393277e+001
    endloop
  endfacet
  facet normal  1.000000e+000  0.000000e+000  0.000000e+000
    outer loop
      vertex  4.600000e+001  2.725824e+001  1.393277e+001
      vertex  4.600000e+001  1.464468e+001  1.393277e+001
      vertex  4.600000e+001  1.658703e+001  1.149714e+001
    endloop
  endfacet
  facet normal  1.000000e+000  0.000000e+000  0.000000e+000
    outer loop
      vertex  4.600000e+001  2.725824e+001  1.393277e+001
      vertex  4.600000e+001  1.658703e+001  1.149714e+001
      vertex  4.600000e+001  2.531589e+001  1.149714e+001
    endloop
  endfacet
  facet normal  9.999999e-001  0.000000e+000  0.000000e+000
    outer loop
      vertex  4.600000e+001  2.531589e+001  1.149714e+001
      vertex  4.600000e+001  1.658703e+001  1.149714e+001
      vertex  4.600000e+001  1.939381e+001  1.014547e+001
    endloop
  endfacet
  facet normal  1.000000e+000  0.000000e+000  0.000000e+000
    outer loop
      vertex  4.600000e+001  2.531589e+001  1.149714e+001
      vertex  4.600000e+001  1.939381e+001  1.014547e+001
      vertex  4.600000e+001  2.250911e+001  1.014547e+001
    endloop
  endfacet
  facet normal  -0.000000e+000  9.749278e-001  2.225211e-001
    outer loop
      vertex  4.600000e+001  2.795146e+001  1.696996e+001
      vertex  4.500000e+001  2.795146e+001  1.696996e+001
      vertex  4.600000e+001  2.725824e+001  2.000715e+001
    endloop
  endfacet
  facet normal  0.000000e+000  9.749278e-001  2.225211e-001
    outer loop
      vertex  4.600000e+001  2.725824e+001  2.000715e+001
      vertex  4.500000e+001  2.795146e+001  1.696996e+001
      vertex  4.500000e+001  2.725824e+001  2.000715e+001
    endloop
  endfacet
  facet normal  -0.000000e+000  7.818315e-001  6.234899e-001
    outer loop
      vertex  4.600000e+001  2.725824e+001  2.000715e+001
      vertex  4.500000e+001  2.725824e+001  2.000715e+001
      vertex  4.600000e+001  2.531589e+001  2.244278e+001
    endloop
  endfacet
  facet normal  0.000000e+000  7.818315e-001  6.234899e-001
    outer loop
      vertex  4.600000e+001  2.531589e+001  2.244278e+001
      vertex  4.500000e+001  2.725824e+001  2.000715e+001
      vertex  4.500000e+001  2.531589e+001  2.244278e+001
    endloop
  endfacet
  facet normal  -0.000000e+000  4.338838e-001  9.009688e-001
    outer loop
      vertex  4.600000e+001  2.531589e+001  2.244278e+001
      vertex  4.500000e+001  2.531589e+001  2.244278e+001
      vertex  4.600000e+001  2.250911e+001  2.379446e+001
    endloop
  endfacet
  facet normal  0.000000e+000  4.338838e-001  9.009688e-001
    outer loop
      vertex  4.600000e+001  2.250911e+001  2.379446e+001
      vertex  4.500000e+001  2.531589e+001  2.244278e+001
      vertex  4.500000e+001  2.250911e+001  2.379446e+001
    endloop
  endfacet
  facet normal  -0.000000e+000  0.000000e+000  9.999999e-001
    outer loop
      vertex  4.600000e+001  2.250911e+001  2.379446e+001
      vertex  4.500000e+001  2.250911e+001  2.379446e+001
      vertex  4.600000e+001  1.939381e+001  2.379446e+001
    endloop
  endfacet
  facet normal  0.000000e+000  0.000000e+000  9.999999e-001
    outer loop
      vertex  4.600000e+001  1.939381e+001  2.379446e+001
      vertex  4.500000e+001  2.250911e+001  2.379446e+001
      vertex  4.500000e+001  1.939381e+001  2.379446e+001
    endloop
  endfacet
  facet normal  0.000000e+000 -4.338838e-001  9.009688e-001
    outer loop
      vertex  4.600000e+001  1.939381e+001  2.379446e+001
      vertex  4.500000e+001  1.939381e+001  2.379446e+001
      vertex  4.600000e+001  1.658703e+001  2.244278e+001
    endloop
  endfacet
  facet normal  0.000000e+000 -4.338838e-001  9.009688e-001
    outer loop
      vertex  4.600000e+001  1.658703e+001  2.244278e+001
      vertex  4.500000e+001  1.939381e+001  2.379446e+001
      vertex  4.500000e+001  1.658703e+001  2.244278e+001
    endloop
  endfacet
  facet normal  0.000000e+000 -7.818316e-001  6.234897e-001
    outer loop
      vertex  4.600000e+001  1.658703e+001  2.244278e+001
      vertex  4.500000e+001  1.658703e+001  2.244278e+001
      vertex  4.600000e+001  1.464468e+001  2.000715e+001
    endloop
  endfacet
  facet normal  0.000000e+000 -7.818316e-001  6.234897e-001
    outer loop
      vertex  4.600000e+001  1.464468e+001  2.000715e+001
      vertex  4.500000e+001  1.658703e+001  2.244278e+001
      vertex  4.500000e+001  1.464468e+001  2.000715e+001
    endloop
  endfacet
  facet normal  0.000000e+000 -9.749278e-001  2.225211e-001
    outer loop
      vertex  4.600000e+001  1.464468e+001  2.000715e+001
      vertex  4.500000e+001  1.464468e+001  2.000715e+001
      vertex  4.600000e+001  1.395146e+001  1.696996e+001
    endloop
  endfacet
  facet normal  0.000000e+000 -9.749278e-001  2.225211e-001
    outer loop
      vertex  4.600000e+001  1.395146e+001  1.696996e+001
      vertex  4.500000e+001  1.464468e+001  2.000715e+001
      vertex  4.500000e+001  1.395146e+001  1.696996e+001
    endloop
  endfacet
  facet normal  0.000000e+000 -9.749279e-001 -2.225210e-001
    outer loop
      vertex  4.600000e+001  1.395146e+001  1.696996e+001
      vertex  4.500000e+001  1.395146e+001  1.696996e+001
      vertex  4.600000e+001  1.464468e+001  1.393277e+001
    endloop
  endfacet
  facet normal  -0.000000e+000 -9.749279e-001 -2.225210e-001
    outer loop
      vertex  4.600000e+001  1.464468e+001  1.393277e+001
      vertex  4.500000e+001  1.395146e+001  1.696996e+001
      vertex  4.500000e+001  1.464468e+001  1.393277e+001
    endloop
  endfacet
  facet normal  0.000000e+000 -7.818314e-001 -6.234899e-001
    outer loop
      vertex  4.600000e+001  1.464468e+001  1.393277e+001
      vertex  4.500000e+001  1.464468e+001  1.393277e+001
      vertex  4.600000e+001  1.658703e+001  1.149714e+001
    endloop
  endfacet
  facet normal  -0.000000e+000 -7.818314e-001 -6.234899e-001
    outer loop
      vertex  4.600000e+001  1.658703e+001  1.149714e+001
      vertex  4.500000e+001  1.464468e+001  1.393277e+001
      vertex  4.500000e+001  1.658703e+001  1.149714e+001
    endloop
  endfacet
  facet normal  0.000000e+000 -4.338838e-001 -9.009688e-001
    outer loop
      vertex  4.600000e+001  1.658703e+001  1.149714e+001
      vertex  4.500000e+001  1.658703e+001  1.149714e+001
      vertex  4.600000e+001  1.939381e+001  1.014547e+001
    endloop
  endfacet
  facet normal  -0.000000e+000 -4.338838e-001 -9.009688e-001
    outer loop
      vertex  4.600000e+001  1.939381e+001  1.014547e+001
      vertex  4.500000e+001  1.658703e+001  1.149714e+001
      vertex  4.500000e+001  1.939381e+001  1.014547e+001
    endloop
  endfacet
  facet normal  0.000000e+000  0.000000e+000 -9.999999e-001
    outer loop
      vertex  4.600000e+001  1.939381e+001  1.014547e+001
      vertex  4.500000e+001  1.939381e+001  1.014547e+001
      vertex  4.600000e+001  2.250911e+001  1.014547e+001
    endloop
  endfacet
  facet normal  -0.000000e+000  0.000000e+000 -9.999999e-001
    outer loop
      vertex  4.600000e+001  2.250911e+001  1.014547e+001
      vertex  4.500000e+001  1.939381e+001  1.014547e+001
      vertex  4.500000e+001  2.250911e+001  1.014547e+001
    endloop
  endfacet
  facet normal  0.000000e+000  4.338838e-001 -9.009688e-001
    outer loop
      vertex  4.600000e+001  2.250911e+001  1.014547e+001
      vertex  4.500000e+001  2.250911e+001  1.014547e+001
      vertex  4.600000e+001  2.531589e+001  1.149714e+001
    endloop
  endfacet
  facet normal  0.000000e+000  4.338838e-001 -9.009688e-001
    outer loop
      vertex  4.600000e+001  2.531589e+001  1.149714e+001
      vertex  4.500000e+001  2.250911e+001  1.014547e+001
      vertex  4.500000e+001  2.531589e+001  1.149714e+001
    endloop
  endfacet
  facet normal  0.000000e+000  7.818313e-001 -6.234900e-001
    outer loop
      vertex  4.600000e+001  2.531589e+001  1.149714e+001
      vertex  4.500000e+001  2.531589e+001  1.149714e+001
      vertex  4.600000e+001  2.725824e+001  1.393277e+001
    endloop
  endfacet
  facet normal  0.000000e+000  7.818313e-001 -6.234900e-001
    outer loop
      vertex  4.600000e+001  2.725824e+001  1.393277e+001
      vertex  4.500000e+001  2.531589e+001  1.149714e+001
      vertex  4.500000e+001  2.725824e+001  1.393277e+001
    endloop
  endfacet
  facet normal  0.000000e+000  9.749279e-001 -2.225210e-001
    outer loop
      vertex  4.600000e+001  2.725824e+001  1.393277e+001
      vertex  4.500000e+001  2.725824e+001  1.393277e+001
      vertex  4.600000e+001  2.795146e+001  1.696996e+001
    endloop
  endfacet
  facet normal  0.000000e+000  9.749279e-001 -2.225210e-001
    outer loop
      vertex  4.600000e+001  2.795146e+001  1.696996e+001
      vertex  4.500000e+001  2.725824e+001  1.393277e+001
      vertex  4.500000e+001  2.795146e+001  1.696996e+001
    endloop
  endfacet
  facet normal -1.000000e+000  0.000000e+000  0.000000e+000
    outer loop
      vertex  4.500000e+001  2.250911e+001  1.014547e+001
      vertex  4.500000e+001  1.939381e+001  1.014547e+001
      vertex  4.500000e+001  2.095146e+001  1.246996e+001
    endloop
  endfacet
  facet normal -1.000000e+000  0.000000e+000  0.000000e+000
    outer loop
      vertex  4.500000e+001  2.095146e+001  1.246996e+001
      vertex  4.500000e+001  1.939381e+001  1.014547e+001
      vertex  4.500000e+001  1.658703e+001  1.149714e+001
    endloop
  endfacet
  facet normal -9.999999e-001  0.000000e+000  0.000000e+000
    outer loop
      vertex  4.500000e+001  2.095146e+001  1.246996e+001
      vertex  4.500000e+001  1.658703e+001  1.149714e+001
      vertex  4.500000e+001  1.870146e+001  1.307285e+001
    endloop
  endfacet
  facet normal -1.000000e+000  -0.000000e+000  0.000000e+000
    outer loop
      vertex  4.500000e+001  1.939381e+001  2.379446e+001
      vertex  4.500000e+001  2.250911e+001  2.379446e+001
      vertex  4.500000e+001  2.095146e+001  2.146996e+001
    endloop
  endfacet
  facet normal -1.000000e+000  0.000000e+000  0.000000e+000
    outer loop
      vertex  4.500000e+001  2.095146e+001  2.146996e+001
      vertex  4.500000e+001  2.250911e+001  2.379446e+001
      vertex  4.500000e+001  2.531589e+001  2.244278e+001
    endloop
  endfacet
  facet normal -1.000000e+000  0.000000e+000  0.000000e+000
    outer loop
      vertex  4.500000e+001  2.095146e+001  2.146996e+001
      vertex  4.500000e+001  2.531589e+001  2.244278e+001
      vertex  4.500000e+001  2.320146e+001  2.086707e+001
    endloop
  endfacet
  facet normal -1.000000e+000  0.000000e+000  0.000000e+000
    outer loop
      vertex  4.500000e+001  2.320146e+001  2.086707e+001
      vertex  4.500000e+001  2.531589e+001  2.244278e+001
      vertex  4.500000e+001  2.725824e+001  2.000715e+001
    endloop
  endfacet
  facet normal -1.000000e+000  -0.000000e+000  0.000000e+000
    outer loop
      vertex  4.500000e+001  2.320146e+001  2.086707e+001
      vertex  4.500000e+001  2.725824e+001  2.000715e+001
      vertex  4.500000e+001  2.484858e+001  1.921996e+001
    endloop
  endfacet
  facet normal -1.000000e+000  0.000000e+000  0.000000e+000
    outer loop
      vertex  4.500000e+001  2.484858e+001  1.921996e+001
      vertex  4.500000e+001  2.725824e+001  2.000715e+001
      vertex  4.500000e+001  2.545146e+001  1.696996e+001
    endloop
  endfacet
  facet normal -1.000000e+000  0.000000e+000  0.000000e+000
    outer loop
      vertex  4.500000e+001  2.545146e+001  1.696996e+001
      vertex  4.500000e+001  2.725824e+001  2.000715e+001
      vertex  4.500000e+001  2.795146e+001  1.696996e+001
    endloop
  endfacet
  facet normal -1.000000e+000  -0.000000e+000  0.000000e+000
    outer loop
      vertex  4.500000e+001  2.545146e+001  1.696996e+001
      vertex  4.500000e+001  2.795146e+001  1.696996e+001
      vertex  4.500000e+001  2.484858e+001  1.471996e+001
    endloop
  endfacet
  facet normal -1.000000e+000  0.000000e+000  0.000000e+000
    outer loop
      vertex  4.500000e+001  2.484858e+001  1.471996e+001
      vertex  4.500000e+001  2.795146e+001  1.696996e+001
      vertex  4.500000e+001  2.725824e+001  1.393277e+001
    endloop
  endfacet
  facet normal -1.000000e+000  -0.000000e+000  0.000000e+000
    outer loop
      vertex  4.500000e+001  2.484858e+001  1.471996e+001
      vertex  4.500000e+001  2.725824e+001  1.393277e+001
      vertex  4.500000e+001  2.320146e+001  1.307285e+001
    endloop
  endfacet
  facet normal -1.000000e+000  0.000000e+000  0.000000e+000
    outer loop
      vertex  4.500000e+001  2.320146e+001  1.307285e+001
      vertex  4.500000e+001  2.725824e+001  1.393277e+001
      vertex  4.500000e+001  2.531589e+001  1.149714e+001
    endloop
  endfacet
  facet normal -1.000000e+000  0.000000e+000  0.000000e+000
    outer loop
      vertex  4.500000e+001  2.320146e+001  1.307285e+001
      vertex  4.500000e+001  2.531589e+001  1.149714e+001
      vertex  4.500000e+001  2.095146e+001  1.246996e+001
    endloop
  endfacet
  facet normal -1.000000e+000  0.000000e+000  0.000000e+000
    outer loop
      vertex  4.500000e+001  2.095146e+001  1.246996e+001
      vertex  4.500000e+001  2.531589e+001  1.149714e+001
      vertex  4.500000e+001  2.250911e+001  1.014547e+001
    endloop
  endfacet
  facet normal -1.000000e+000  0.000000e+000  0.000000e+000
    outer loop
      vertex  4.500000e+001  1.870146e+001  2.086707e+001
      vertex  4.500000e+001  1.464468e+001  2.000715e+001
      vertex  4.500000e+001  2.095146e+001  2.146996e+001
    endloop
  endfacet
  facet normal -1.000000e+000  -0.000000e+000  0.000000e+000
    outer loop
      vertex  4.500000e+001  2.095146e+001  2.146996e+001
      vertex  4.500000e+001  1.464468e+001  2.000715e+001
      vertex  4.500000e+001  1.658703e+001  2.244278e+001
    endloop
  endfacet
  facet normal -1.000000e+000  0.000000e+000  0.000000e+000
    outer loop
      vertex  4.500000e+001  2.095146e+001  2.146996e+001
      vertex  4.500000e+001  1.658703e+001  2.244278e+001
      vertex  4.500000e+001  1.939381e+001  2.379446e+001
    endloop
  endfacet
  facet normal -1.000000e+000  0.000000e+000  0.000000e+000
    outer loop
      vertex  4.500000e+001  1.870146e+001  1.307285e+001
      vertex  4.500000e+001  1.658703e+001  1.149714e+001
      vertex  4.500000e+001  1.705435e+001  1.471996e+001
    endloop
  endfacet
  facet normal -1.000000e+000  0.000000e+000  0.000000e+000
    outer loop
      vertex  4.500000e+001  1.705435e+001  1.471996e+001
      vertex  4.500000e+001  1.658703e+001  1.149714e+001
      vertex  4.500000e+001  1.464468e+001  1.393277e+001
    endloop
  endfacet
  facet normal -1.000000e+000  0.000000e+000  0.000000e+000
    outer loop
      vertex  4.500000e+001  1.705435e+001  1.471996e+001
      vertex  4.500000e+001  1.464468e+001  1.393277e+001
      vertex  4.500000e+001  1.645146e+001  1.696996e+001
    endloop
  endfacet
  facet normal -1.000000e+000  -0.000000e+000  0.000000e+000
    outer loop
      vertex  4.500000e+001  1.645146e+001  1.696996e+001
      vertex  4.500000e+001  1.464468e+001  1.393277e+001
      vertex  4.500000e+001  1.395146e+001  1.696996e+001
    endloop
  endfacet
  facet normal -1.000000e+000  0.000000e+000  0.000000e+000
    outer loop
      vertex  4.500000e+001  1.645146e+001  1.696996e+001
      vertex  4.500000e+001  1.395146e+001  1.696996e+001
      vertex  4.500000e+001  1.705435e+001  1.921996e+001
    endloop
  endfacet
  facet normal -9.999999e-001  -0.000000e+000  0.000000e+000
    outer loop
      vertex  4.500000e+001  1.705435e+001  1.921996e+001
      vertex  4.500000e+001  1.395146e+001  1.696996e+001
      vertex  4.500000e+001  1.464468e+001  2.000715e+001
    endloop
  endfacet
  facet normal -1.000000e+000  0.000000e+000  0.000000e+000
    outer loop
      vertex  4.500000e+001  1.705435e+001  1.921996e+001
      vertex  4.500000e+001  1.464468e+001  2.000715e+001
      vertex  4.500000e+001  1.870146e+001  2.086707e+001
    endloop
  endfacet
  facet normal  0.000000e+000 -3.826835e-001 -9.238796e-001
    outer loop
      vertex  4.500000e+001  2.095146e+001  1.946996e+001
      vertex  2.600000e+001  2.271923e+001  1.873773e+001
      vertex  4.500000e+001  2.271923e+001  1.873773e+001
    endloop
  endfacet
  facet normal  -0.000000e+000 -9.238796e-001 -3.826835e-001
    outer loop
      vertex  4.500000e+001  2.271923e+001  1.873773e+001
      vertex  2.600000e+001  2.271923e+001  1.873773e+001
      vertex  2.600000e+001  2.345146e+001  1.696996e+001
    endloop
  endfacet
  facet normal  0.000000e+000 -9.238796e-001 -3.826835e-001
    outer loop
      vertex  4.500000e+001  2.271923e+001  1.873773e+001
      vertex  2.600000e+001  2.345146e+001  1.696996e+001
      vertex  4.500000e+001  2.345146e+001  1.696996e+001
    endloop
  endfacet
  facet normal  -0.000000e+000 -3.826835e-001 -9.238796e-001
    outer loop
      vertex  2.600000e+001  2.271923e+001  1.873773e+001
      vertex  4.500000e+001  2.095146e+001  1.946996e+001
      vertex  2.600000e+001  2.095146e+001  1.946996e+001
    endloop
  endfacet
  facet normal  0.000000e+000  3.826835e-001 -9.238796e-001
    outer loop
      vertex  2.600000e+001  2.095146e+001  1.946996e+001
      vertex  4.500000e+001  2.095146e+001  1.946996e+001
      vertex  4.500000e+001  1.918369e+001  1.873773e+001
    endloop
  endfacet
  facet normal  0.000000e+000  3.826835e-001 -9.238796e-001
    outer loop
      vertex  2.600000e+001  2.095146e+001  1.946996e+001
      vertex  4.500000e+001  1.918369e+001  1.873773e+001
      vertex  2.600000e+001  1.918369e+001  1.873773e+001
    endloop
  endfacet
  facet normal  0.000000e+000  9.238796e-001 -3.826835e-001
    outer loop
      vertex  2.600000e+001  1.918369e+001  1.873773e+001
      vertex  4.500000e+001  1.918369e+001  1.873773e+001
      vertex  4.500000e+001  1.845146e+001  1.696996e+001
    endloop
  endfacet
  facet normal  0.000000e+000  9.238796e-001 -3.826835e-001
    outer loop
      vertex  2.600000e+001  1.918369e+001  1.873773e+001
      vertex  4.500000e+001  1.845146e+001  1.696996e+001
      vertex  2.600000e+001  1.845146e+001  1.696996e+001
    endloop
  endfacet
  facet normal  -0.000000e+000  3.826835e-001  9.238796e-001
    outer loop
      vertex  4.500000e+001  2.095146e+001  1.446996e+001
      vertex  2.600000e+001  1.918369e+001  1.520219e+001
      vertex  4.500000e+001  1.918369e+001  1.520219e+001
    endloop
  endfacet
  facet normal  0.000000e+000  9.238796e-001  3.826835e-001
    outer loop
      vertex  4.500000e+001  1.918369e+001  1.520219e+001
      vertex  2.600000e+001  1.918369e+001  1.520219e+001
      vertex  2.600000e+001  1.845146e+001  1.696996e+001
    endloop
  endfacet
  facet normal  -0.000000e+000  9.238796e-001  3.826835e-001
    outer loop
      vertex  4.500000e+001  1.918369e+001  1.520219e+001
      vertex  2.600000e+001  1.845146e+001  1.696996e+001
      vertex  4.500000e+001  1.845146e+001  1.696996e+001
    endloop
  endfacet
  facet normal  0.000000e+000  3.826835e-001  9.238796e-001
    outer loop
      vertex  2.600000e+001  1.918369e+001  1.520219e+001
      vertex  4.500000e+001  2.095146e+001  1.446996e+001
      vertex  2.600000e+001  2.095146e+001  1.446996e+001
    endloop
  endfacet
  facet normal  0.000000e+000 -3.826835e-001  9.238796e-001
    outer loop
      vertex  2.600000e+001  2.095146e+001  1.446996e+001
      vertex  4.500000e+001  2.095146e+001  1.446996e+001
      vertex  4.500000e+001  2.271923e+001  1.520219e+001
    endloop
  endfacet
  facet normal  0.000000e+000 -3.826835e-001  9.238796e-001
    outer loop
      vertex  2.600000e+001  2.095146e+001  1.446996e+001
      vertex  4.500000e+001  2.271923e+001  1.520219e+001
      vertex  2.600000e+001  2.271923e+001  1.520219e+001
    endloop
  endfacet
  facet normal  0.000000e+000 -9.238796e-001  3.826835e-001
    outer loop
      vertex  2.600000e+001  2.271923e+001  1.520219e+001
      vertex  4.500000e+001  2.271923e+001  1.520219e+001
      vertex  4.500000e+001  2.345146e+001  1.696996e+001
    endloop
  endfacet
  facet normal  0.000000e+000 -9.238796e-001  3.826835e-001
    outer loop
      vertex  2.600000e+001  2.271923e+001  1.520219e+001
      vertex  4.500000e+001  2.345146e+001  1.696996e+001
      vertex  2.600000e+001  2.345146e+001  1.696996e+001
    endloop
  endfacet
  facet normal  0.000000e+000 -9.659259e-001 -2.588185e-001
    outer loop
      vertex  4.500000e+001  1.645146e+001  1.696996e+001
      vertex  2.600000e+001  1.645146e+001  1.696996e+001
      vertex  4.500000e+001  1.705435e+001  1.471996e+001
    endloop
  endfacet
  facet normal  -0.000000e+000 -9.659259e-001 -2.588185e-001
    outer loop
      vertex  4.500000e+001  1.705435e+001  1.471996e+001
      vertex  2.600000e+001  1.645146e+001  1.696996e+001
      vertex  2.600000e+001  1.705435e+001  1.471996e+001
    endloop
  endfacet
  facet normal  0.000000e+000 -7.071066e-001 -7.071069e-001
    outer loop
      vertex  4.500000e+001  1.705435e+001  1.471996e+001
      vertex  2.600000e+001  1.705435e+001  1.471996e+001
      vertex  4.500000e+001  1.870146e+001  1.307285e+001
    endloop
  endfacet
  facet normal  -0.000000e+000 -7.071066e-001 -7.071069e-001
    outer loop
      vertex  4.500000e+001  1.870146e+001  1.307285e+001
      vertex  2.600000e+001  1.705435e+001  1.471996e+001
      vertex  2.600000e+001  1.870146e+001  1.307285e+001
    endloop
  endfacet
  facet normal  0.000000e+000 -2.588189e-001 -9.659259e-001
    outer loop
      vertex  4.500000e+001  1.870146e+001  1.307285e+001
      vertex  2.600000e+001  1.870146e+001  1.307285e+001
      vertex  4.500000e+001  2.095146e+001  1.246996e+001
    endloop
  endfacet
  facet normal  -0.000000e+000 -2.588189e-001 -9.659259e-001
    outer loop
      vertex  4.500000e+001  2.095146e+001  1.246996e+001
      vertex  2.600000e+001  1.870146e+001  1.307285e+001
      vertex  2.600000e+001  2.095146e+001  1.246996e+001
    endloop
  endfacet
  facet normal  0.000000e+000  2.588189e-001 -9.659259e-001
    outer loop
      vertex  4.500000e+001  2.095146e+001  1.246996e+001
      vertex  2.600000e+001  2.095146e+001  1.246996e+001
      vertex  4.500000e+001  2.320146e+001  1.307285e+001
    endloop
  endfacet
  facet normal  0.000000e+000  2.588189e-001 -9.659259e-001
    outer loop
      vertex  4.500000e+001  2.320146e+001  1.307285e+001
      vertex  2.600000e+001  2.095146e+001  1.246996e+001
      vertex  2.600000e+001  2.320146e+001  1.307285e+001
    endloop
  endfacet
  facet normal  0.000000e+000  7.071069e-001 -7.071065e-001
    outer loop
      vertex  4.500000e+001  2.320146e+001  1.307285e+001
      vertex  2.600000e+001  2.320146e+001  1.307285e+001
      vertex  4.500000e+001  2.484858e+001  1.471996e+001
    endloop
  endfacet
  facet normal  0.000000e+000  7.071069e-001 -7.071065e-001
    outer loop
      vertex  4.500000e+001  2.484858e+001  1.471996e+001
      vertex  2.600000e+001  2.320146e+001  1.307285e+001
      vertex  2.600000e+001  2.484858e+001  1.471996e+001
    endloop
  endfacet
  facet normal  0.000000e+000  9.659257e-001 -2.588193e-001
    outer loop
      vertex  4.500000e+001  2.484858e+001  1.471996e+001
      vertex  2.600000e+001  2.484858e+001  1.471996e+001
      vertex  4.500000e+001  2.545146e+001  1.696996e+001
    endloop
  endfacet
  facet normal  0.000000e+000  9.659257e-001 -2.588193e-001
    outer loop
      vertex  4.500000e+001  2.545146e+001  1.696996e+001
      vertex  2.600000e+001  2.484858e+001  1.471996e+001
      vertex  2.600000e+001  2.545146e+001  1.696996e+001
    endloop
  endfacet
  facet normal  -0.000000e+000  9.659257e-001  2.588193e-001
    outer loop
      vertex  4.500000e+001  2.545146e+001  1.696996e+001
      vertex  2.600000e+001  2.545146e+001  1.696996e+001
      vertex  4.500000e+001  2.484858e+001  1.921996e+001
    endloop
  endfacet
  facet normal  0.000000e+000  9.659257e-001  2.588193e-001
    outer loop
      vertex  4.500000e+001  2.484858e+001  1.921996e+001
      vertex  2.600000e+001  2.545146e+001  1.696996e+001
      vertex  2.600000e+001  2.484858e+001  1.921996e+001
    endloop
  endfacet
  facet normal  -0.000000e+000  7.071068e-001  7.071068e-001
    outer loop
      vertex  4.500000e+001  2.484858e+001  1.921996e+001
      vertex  2.600000e+001  2.484858e+001  1.921996e+001
      vertex  4.500000e+001  2.320146e+001  2.086707e+001
    endloop
  endfacet
  facet normal  0.000000e+000  7.071068e-001  7.071068e-001
    outer loop
      vertex  4.500000e+001  2.320146e+001  2.086707e+001
      vertex  2.600000e+001  2.484858e+001  1.921996e+001
      vertex  2.600000e+001  2.320146e+001  2.086707e+001
    endloop
  endfacet
  facet normal  -0.000000e+000  2.588193e-001  9.659257e-001
    outer loop
      vertex  4.500000e+001  2.320146e+001  2.086707e+001
      vertex  2.600000e+001  2.320146e+001  2.086707e+001
      vertex  4.500000e+001  2.095146e+001  2.146996e+001
    endloop
  endfacet
  facet normal  0.000000e+000  2.588193e-001  9.659257e-001
    outer loop
      vertex  4.500000e+001  2.095146e+001  2.146996e+001
      vertex  2.600000e+001  2.320146e+001  2.086707e+001
      vertex  2.600000e+001  2.095146e+001  2.146996e+001
    endloop
  endfacet
  facet normal  0.000000e+000 -2.588193e-001  9.659257e-001
    outer loop
      vertex  4.500000e+001  2.095146e+001  2.146996e+001
      vertex  2.600000e+001  2.095146e+001  2.146996e+001
      vertex  4.500000e+001  1.870146e+001  2.086707e+001
    endloop
  endfacet
  facet normal  0.000000e+000 -2.588193e-001  9.659257e-001
    outer loop
      vertex  4.500000e+001  1.870146e+001  2.086707e+001
      vertex  2.600000e+001  2.095146e+001  2.146996e+001
      vertex  2.600000e+001  1.870146e+001  2.086707e+001
    endloop
  endfacet
  facet normal  0.000000e+000 -7.071064e-001  7.071072e-001
    outer loop
      vertex  4.500000e+001  1.870146e+001  2.086707e+001
      vertex  2.600000e+001  1.870146e+001  2.086707e+001
      vertex  4.500000e+001  1.705435e+001  1.921996e+001
    endloop
  endfacet
  facet normal  0.000000e+000 -7.071064e-001  7.071072e-001
    outer loop
      vertex  4.500000e+001  1.705435e+001  1.921996e+001
      vertex  2.600000e+001  1.870146e+001  2.086707e+001
      vertex  2.600000e+001  1.705435e+001  1.921996e+001
    endloop
  endfacet
  facet normal  0.000000e+000 -9.659259e-001  2.588185e-001
    outer loop
      vertex  4.500000e+001  1.705435e+001  1.921996e+001
      vertex  2.600000e+001  1.705435e+001  1.921996e+001
      vertex  4.500000e+001  1.645146e+001  1.696996e+001
    endloop
  endfacet
  facet normal  0.000000e+000 -9.659259e-001  2.588185e-001
    outer loop
      vertex  4.500000e+001  1.645146e+001  1.696996e+001
      vertex  2.600000e+001  1.705435e+001  1.921996e+001
      vertex  2.600000e+001  1.645146e+001  1.696996e+001
    endloop
  endfacet
  facet normal -1.000000e+000  -0.000000e+000  0.000000e+000
    outer loop
      vertex  2.600000e+001  2.271923e+001  1.520219e+001
      vertex  2.600000e+001  2.484858e+001  1.471996e+001
      vertex  2.600000e+001  2.095146e+001  1.446996e+001
    endloop
  endfacet
  facet normal -1.000000e+000  0.000000e+000  0.000000e+000
    outer loop
      vertex  2.600000e+001  1.705435e+001  1.921996e+001
      vertex  2.600000e+001  2.095146e+001  1.946996e+001
      vertex  2.600000e+001  1.918369e+001  1.873773e+001
    endloop
  endfacet
  facet normal -1.000000e+000  0.000000e+000  -0.000000e+000
    outer loop
      vertex  2.600000e+001  1.705435e+001  1.921996e+001
      vertex  2.600000e+001  1.870146e+001  2.086707e+001
      vertex  2.600000e+001  2.095146e+001  1.946996e+001
    endloop
  endfacet
  facet normal -1.000000e+000  0.000000e+000  0.000000e+000
    outer loop
      vertex  2.600000e+001  2.095146e+001  1.946996e+001
      vertex  2.600000e+001  1.870146e+001  2.086707e+001
      vertex  2.600000e+001  2.095146e+001  2.146996e+001
    endloop
  endfacet
  facet normal -9.999999e-001  0.000000e+000  0.000000e+000
    outer loop
      vertex  2.600000e+001  2.095146e+001  1.946996e+001
      vertex  2.600000e+001  2.095146e+001  2.146996e+001
      vertex  2.600000e+001  2.484858e+001  1.921996e+001
    endloop
  endfacet
  facet normal -1.000000e+000  0.000000e+000  0.000000e+000
    outer loop
      vertex  2.600000e+001  2.484858e+001  1.921996e+001
      vertex  2.600000e+001  2.095146e+001  2.146996e+001
      vertex  2.600000e+001  2.320146e+001  2.086707e+001
    endloop
  endfacet
  facet normal -1.000000e+000  0.000000e+000  0.000000e+000
    outer loop
      vertex  2.600000e+001  2.484858e+001  1.471996e+001
      vertex  2.600000e+001  2.271923e+001  1.520219e+001
      vertex  2.600000e+001  2.545146e+001  1.696996e+001
    endloop
  endfacet
  facet normal -1.000000e+000  -0.000000e+000  0.000000e+000
    outer loop
      vertex  2.600000e+001  2.545146e+001  1.696996e+001
      vertex  2.600000e+001  2.271923e+001  1.520219e+001
      vertex  2.600000e+001  2.345146e+001  1.696996e+001
    endloop
  endfacet
  facet normal -1.000000e+000  0.000000e+000  0.000000e+000
    outer loop
      vertex  2.600000e+001  2.545146e+001  1.696996e+001
      vertex  2.600000e+001  2.345146e+001  1.696996e+001
      vertex  2.600000e+001  2.484858e+001  1.921996e+001
    endloop
  endfacet
  facet normal -1.000000e+000  0.000000e+000  0.000000e+000
    outer loop
      vertex  2.600000e+001  2.484858e+001  1.921996e+001
      vertex  2.600000e+001  2.345146e+001  1.696996e+001
      vertex  2.600000e+001  2.271923e+001  1.873773e+001
    endloop
  endfacet
  facet normal -1.000000e+000  0.000000e+000  0.000000e+000
    outer loop
      vertex  2.600000e+001  2.484858e+001  1.921996e+001
      vertex  2.600000e+001  2.271923e+001  1.873773e+001
      vertex  2.600000e+001  2.095146e+001  1.946996e+001
    endloop
  endfacet
  facet normal -1.000000e+000  0.000000e+000  0.000000e+000
    outer loop
      vertex  2.600000e+001  2.484858e+001  1.471996e+001
      vertex  2.600000e+001  2.320146e+001  1.307285e+001
      vertex  2.600000e+001  2.095146e+001  1.446996e+001
    endloop
  endfacet
  facet normal -1.000000e+000  0.000000e+000  0.000000e+000
    outer loop
      vertex  2.600000e+001  2.095146e+001  1.446996e+001
      vertex  2.600000e+001  2.320146e+001  1.307285e+001
      vertex  2.600000e+001  2.095146e+001  1.246996e+001
    endloop
  endfacet
  facet normal -1.000000e+000  0.000000e+000  0.000000e+000
    outer loop
      vertex  2.600000e+001  2.095146e+001  1.446996e+001
      vertex  2.600000e+001  2.095146e+001  1.246996e+001
      vertex  2.600000e+001  1.705435e+001  1.471996e+001
    endloop
  endfacet
  facet normal -9.999999e-001  0.000000e+000  0.000000e+000
    outer loop
      vertex  2.600000e+001  1.705435e+001  1.471996e+001
      vertex  2.600000e+001  2.095146e+001  1.246996e+001
      vertex  2.600000e+001  1.870146e+001  1.307285e+001
    endloop
  endfacet
  facet normal -1.000000e+000  -0.000000e+000  0.000000e+000
    outer loop
      vertex  2.600000e+001  1.705435e+001  1.921996e+001
      vertex  2.600000e+001  1.918369e+001  1.873773e+001
      vertex  2.600000e+001  1.645146e+001  1.696996e+001
    endloop
  endfacet
  facet normal -1.000000e+000  0.000000e+000  0.000000e+000
    outer loop
      vertex  2.600000e+001  1.645146e+001  1.696996e+001
      vertex  2.600000e+001  1.918369e+001  1.873773e+001
      vertex  2.600000e+001  1.845146e+001  1.696996e+001
    endloop
  endfacet
  facet normal -1.000000e+000  -0.000000e+000  0.000000e+000
    outer loop
      vertex  2.600000e+001  1.645146e+001  1.696996e+001
      vertex  2.600000e+001  1.845146e+001  1.696996e+001
      vertex  2.600000e+001  1.705435e+001  1.471996e+001
    endloop
  endfacet
  facet normal -1.000000e+000  0.000000e+000  0.000000e+000
    outer loop
      vertex  2.600000e+001  1.705435e+001  1.471996e+001
      vertex  2.600000e+001  1.845146e+001  1.696996e+001
      vertex  2.600000e+001  1.918369e+001  1.520219e+001
    endloop
  endfacet
  facet normal -1.000000e+000  0.000000e+000  -0.000000e+000
    outer loop
      vertex  2.600000e+001  1.705435e+001  1.471996e+001
      vertex  2.600000e+001  1.918369e+001  1.520219e+001
      vertex  2.600000e+001  2.095146e+001  1.446996e+001
    endloop
  endfacet
  facet normal -1.000000e+000  0.000000e+000  0.000000e+000
    outer loop
      vertex  4.500000e+001  2.271923e+001  1.873773e+001
      vertex  4.500000e+001  1.918369e+001  1.873773e+001
      vertex  4.500000e+001  2.095146e+001  1.946996e+001
    endloop
  endfacet
  facet normal -1.000000e+000  -0.000000e+000  0.000000e+000
    outer loop
      vertex  4.500000e+001  1.918369e+001  1.873773e+001
      vertex  4.500000e+001  2.271923e+001  1.873773e+001
      vertex  4.500000e+001  1.845146e+001  1.696996e+001
    endloop
  endfacet
  facet normal -1.000000e+000  0.000000e+000  0.000000e+000
    outer loop
      vertex  4.500000e+001  1.845146e+001  1.696996e+001
      vertex  4.500000e+001  2.271923e+001  1.873773e+001
      vertex  4.500000e+001  2.345146e+001  1.696996e+001
    endloop
  endfacet
  facet normal -1.000000e+000  -0.000000e+000  0.000000e+000
    outer loop
      vertex  4.500000e+001  1.845146e+001  1.696996e+001
      vertex  4.500000e+001  2.345146e+001  1.696996e+001
      vertex  4.500000e+001  1.918369e+001  1.520219e+001
    endloop
  endfacet
  facet normal -1.000000e+000  0.000000e+000  0.000000e+000
    outer loop
      vertex  4.500000e+001  1.918369e+001  1.520219e+001
      vertex  4.500000e+001  2.345146e+001  1.696996e+001
      vertex  4.500000e+001  2.271923e+001  1.520219e+001
    endloop
  endfacet
  facet normal -1.000000e+000  -0.000000e+000  0.000000e+000
    outer loop
      vertex  4.500000e+001  1.918369e+001  1.520219e+001
      vertex  4.500000e+001  2.271923e+001  1.520219e+001
      vertex  4.500000e+001  2.095146e+001  1.446996e+001
    endloop
  endfacet
endsolid CATIA STL
