solid CATIA STL
  facet normal  0.000000e+000  0.000000e+000  1.000000e+000
    outer loop
      vertex -7.150000e+001 -1.625224e+002  4.782256e+001
      vertex -4.750000e+001 -1.625224e+002  4.782256e+001
      vertex -7.150000e+001  2.955429e+001  4.782256e+001
    endloop
  endfacet
  facet normal  -0.000000e+000  0.000000e+000  1.000000e+000
    outer loop
      vertex -7.150000e+001  2.955429e+001  4.782256e+001
      vertex -4.750000e+001 -1.625224e+002  4.782256e+001
      vertex -4.750000e+001  2.955429e+001  4.782256e+001
    endloop
  endfacet
  facet normal  0.000000e+000  6.427877e-001  7.660444e-001
    outer loop
      vertex -4.750000e+001  2.955429e+001  4.782256e+001
      vertex -4.750000e+001  4.691442e+001  3.325569e+001
      vertex -7.150000e+001  2.955429e+001  4.782256e+001
    endloop
  endfacet
  facet normal  0.000000e+000  6.427877e-001  7.660444e-001
    outer loop
      vertex -7.150000e+001  2.955429e+001  4.782256e+001
      vertex -4.750000e+001  4.691442e+001  3.325569e+001
      vertex -7.150000e+001  4.691442e+001  3.325569e+001
    endloop
  endfacet
  facet normal  0.000000e+000  8.776913e-001  4.792262e-001
    outer loop
      vertex -7.150000e+001  4.691442e+001  3.325569e+001
      vertex -4.750000e+001  4.691442e+001  3.325569e+001
      vertex -7.150000e+001  4.708901e+001  3.293593e+001
    endloop
  endfacet
  facet normal  -0.000000e+000  8.776913e-001  4.792262e-001
    outer loop
      vertex -7.150000e+001  4.708901e+001  3.293593e+001
      vertex -4.750000e+001  4.691442e+001  3.325569e+001
      vertex -4.750000e+001  4.708901e+001  3.293593e+001
    endloop
  endfacet
  facet normal  0.000000e+000  9.698851e-001 -2.435629e-001
    outer loop
      vertex -7.150000e+001  4.708901e+001  3.293593e+001
      vertex -4.750000e+001  4.708901e+001  3.293593e+001
      vertex -7.150000e+001  4.700027e+001  3.258258e+001
    endloop
  endfacet
  facet normal  0.000000e+000  9.698851e-001 -2.435629e-001
    outer loop
      vertex -7.150000e+001  4.700027e+001  3.258258e+001
      vertex -4.750000e+001  4.708901e+001  3.293593e+001
      vertex -4.750000e+001  4.700027e+001  3.258258e+001
    endloop
  endfacet
  facet normal  0.000000e+000  5.471628e-001 -8.370262e-001
    outer loop
      vertex -7.150000e+001  4.700027e+001  3.258258e+001
      vertex -4.750000e+001  4.700027e+001  3.258258e+001
      vertex -7.150000e+001  4.669533e+001  3.238324e+001
    endloop
  endfacet
  facet normal  0.000000e+000  5.471628e-001 -8.370262e-001
    outer loop
      vertex -7.150000e+001  4.669533e+001  3.238324e+001
      vertex -4.750000e+001  4.700027e+001  3.258258e+001
      vertex -4.750000e+001  4.669533e+001  3.238324e+001
    endloop
  endfacet
  facet normal  0.000000e+000  2.046141e-001 -9.788427e-001
    outer loop
      vertex -4.750000e+001  4.607261e+001  3.225307e+001
      vertex -7.150000e+001  4.607261e+001  3.225307e+001
      vertex -4.750000e+001  4.669533e+001  3.238324e+001
    endloop
  endfacet
  facet normal  0.000000e+000  2.046141e-001 -9.788427e-001
    outer loop
      vertex -4.750000e+001  4.669533e+001  3.238324e+001
      vertex -7.150000e+001  4.607261e+001  3.225307e+001
      vertex -7.150000e+001  4.669533e+001  3.238324e+001
    endloop
  endfacet
  facet normal  -0.000000e+000 -1.010258e-001 -9.948838e-001
    outer loop
      vertex -7.150000e+001  4.607261e+001  3.225307e+001
      vertex -4.750000e+001  4.607261e+001  3.225307e+001
      vertex -7.178829e+001  4.577170e+001  3.228363e+001
    endloop
  endfacet
  facet normal  0.000000e+000 -1.010258e-001 -9.948838e-001
    outer loop
      vertex -7.178829e+001  4.577170e+001  3.228363e+001
      vertex -4.750000e+001  4.607261e+001  3.225307e+001
      vertex -4.721171e+001  4.577170e+001  3.228363e+001
    endloop
  endfacet
  facet normal  -0.000000e+000 -5.254918e-001 -8.507987e-001
    outer loop
      vertex -7.178829e+001  4.577170e+001  3.228363e+001
      vertex -4.721171e+001  4.577170e+001  3.228363e+001
      vertex -7.189297e+001  4.564890e+001  3.235947e+001
    endloop
  endfacet
  facet normal  0.000000e+000 -5.254917e-001 -8.507987e-001
    outer loop
      vertex -7.189297e+001  4.564890e+001  3.235947e+001
      vertex -4.721171e+001  4.577170e+001  3.228363e+001
      vertex -4.710703e+001  4.564890e+001  3.235947e+001
    endloop
  endfacet
  facet normal -2.318455e-005 -6.427876e-001 -7.660445e-001
    outer loop
      vertex -7.200000e+001  4.534757e+001  3.261232e+001
      vertex -7.189297e+001  4.564890e+001  3.235947e+001
      vertex -7.200000e+001  2.900834e+001  4.632256e+001
    endloop
  endfacet
  facet normal  0.000000e+000 -6.427877e-001 -7.660444e-001
    outer loop
      vertex -7.200000e+001  2.900834e+001  4.632256e+001
      vertex -7.189297e+001  4.564890e+001  3.235947e+001
      vertex -4.700000e+001  2.900834e+001  4.632256e+001
    endloop
  endfacet
  facet normal  0.000000e+000 -6.427877e-001 -7.660444e-001
    outer loop
      vertex -4.700000e+001  2.900834e+001  4.632256e+001
      vertex -7.189297e+001  4.564890e+001  3.235947e+001
      vertex -4.710703e+001  4.564890e+001  3.235947e+001
    endloop
  endfacet
  facet normal  2.318455e-005 -6.427876e-001 -7.660445e-001
    outer loop
      vertex -4.700000e+001  2.900834e+001  4.632256e+001
      vertex -4.710703e+001  4.564890e+001  3.235947e+001
      vertex -4.700000e+001  4.534757e+001  3.261232e+001
    endloop
  endfacet
  facet normal  0.000000e+000  7.071068e-001 -7.071068e-001
    outer loop
      vertex -4.700000e+001 -1.623254e+002  4.632256e+001
      vertex -4.700000e+001 -1.676358e+002  4.101218e+001
      vertex -7.200000e+001 -1.623254e+002  4.632256e+001
    endloop
  endfacet
  facet normal  0.000000e+000  7.071068e-001 -7.071068e-001
    outer loop
      vertex -7.200000e+001 -1.623254e+002  4.632256e+001
      vertex -4.700000e+001 -1.676358e+002  4.101218e+001
      vertex -7.200000e+001 -1.676358e+002  4.101218e+001
    endloop
  endfacet
  facet normal  0.000000e+000  9.998649e-001  1.643510e-002
    outer loop
      vertex -4.700000e+001 -1.676358e+002  4.101218e+001
      vertex -4.700000e+001 -1.675847e+002  3.790516e+001
      vertex -7.200000e+001 -1.676358e+002  4.101218e+001
    endloop
  endfacet
  facet normal  0.000000e+000  9.998649e-001  1.643510e-002
    outer loop
      vertex -7.200000e+001 -1.676358e+002  4.101218e+001
      vertex -4.700000e+001 -1.675847e+002  3.790516e+001
      vertex -7.200000e+001 -1.675847e+002  3.790516e+001
    endloop
  endfacet
  facet normal  0.000000e+000  8.155465e-001  5.786915e-001
    outer loop
      vertex -4.700000e+001 -1.675847e+002  3.790516e+001
      vertex -4.700000e+001 -1.578947e+002  2.424914e+001
      vertex -7.200000e+001 -1.675847e+002  3.790516e+001
    endloop
  endfacet
  facet normal  0.000000e+000  8.155465e-001  5.786915e-001
    outer loop
      vertex -7.200000e+001 -1.675847e+002  3.790516e+001
      vertex -4.700000e+001 -1.578947e+002  2.424914e+001
      vertex -7.200000e+001 -1.578947e+002  2.424914e+001
    endloop
  endfacet
  facet normal  0.000000e+000  0.000000e+000 -1.000000e+000
    outer loop
      vertex -4.700000e+001 -1.578947e+002  2.424914e+001
      vertex -4.700000e+001 -1.594757e+002  2.424914e+001
      vertex -7.200000e+001 -1.578947e+002  2.424914e+001
    endloop
  endfacet
  facet normal  0.000000e+000  0.000000e+000 -1.000000e+000
    outer loop
      vertex -7.200000e+001 -1.578947e+002  2.424914e+001
      vertex -4.700000e+001 -1.594757e+002  2.424914e+001
      vertex -7.190778e+001 -1.594757e+002  2.424914e+001
    endloop
  endfacet
  facet normal  0.000000e+000  0.000000e+000 -9.999999e-001
    outer loop
      vertex -7.200000e+001 -1.578947e+002  2.424914e+001
      vertex -7.190778e+001 -1.594757e+002  2.424914e+001
      vertex -7.200000e+001 -1.591209e+002  2.424914e+001
    endloop
  endfacet
  facet normal  -0.000000e+000 -1.530814e-001 -9.882136e-001
    outer loop
      vertex -7.190778e+001 -1.594757e+002  2.424914e+001
      vertex -4.700000e+001 -1.594757e+002  2.424914e+001
      vertex -7.180112e+001 -1.596270e+002  2.427257e+001
    endloop
  endfacet
  facet normal  5.223364e-004 -2.361607e-001 -9.717138e-001
    outer loop
      vertex -7.180112e+001 -1.596270e+002  2.427257e+001
      vertex -4.700000e+001 -1.594757e+002  2.424914e+001
      vertex -4.700000e+001 -1.597052e+002  2.430491e+001
    endloop
  endfacet
  facet normal -8.085954e-004 -5.901818e-001 -8.072699e-001
    outer loop
      vertex -7.180112e+001 -1.596270e+002  2.427257e+001
      vertex -4.700000e+001 -1.597052e+002  2.430491e+001
      vertex -7.150000e+001 -1.598835e+002  2.445979e+001
    endloop
  endfacet
  facet normal  0.000000e+000 -6.558199e-001 -7.549173e-001
    outer loop
      vertex -7.150000e+001 -1.598835e+002  2.445979e+001
      vertex -4.700000e+001 -1.597052e+002  2.430491e+001
      vertex -4.700000e+001 -1.598835e+002  2.445979e+001
    endloop
  endfacet
  facet normal  6.874400e-005 -8.155467e-001 -5.786913e-001
    outer loop
      vertex -4.700000e+001 -1.598835e+002  2.445979e+001
      vertex -4.700000e+001 -1.685649e+002  3.669455e+001
      vertex -4.710149e+001 -1.688741e+002  3.713028e+001
    endloop
  endfacet
  facet normal -2.170077e-005 -8.155463e-001 -5.786918e-001
    outer loop
      vertex -4.700000e+001 -1.598835e+002  2.445979e+001
      vertex -4.710149e+001 -1.688741e+002  3.713028e+001
      vertex -4.727500e+001 -1.690221e+002  3.733883e+001
    endloop
  endfacet
  facet normal  6.058172e-006 -8.155466e-001 -5.786914e-001
    outer loop
      vertex -4.700000e+001 -1.598835e+002  2.445979e+001
      vertex -4.727500e+001 -1.690221e+002  3.733883e+001
      vertex -4.742162e+001 -1.690705e+002  3.740708e+001
    endloop
  endfacet
  facet normal  4.037019e-005 -8.155471e-001 -5.786906e-001
    outer loop
      vertex -4.700000e+001 -1.598835e+002  2.445979e+001
      vertex -4.742162e+001 -1.690705e+002  3.740708e+001
      vertex -4.750000e+001 -1.690769e+002  3.741600e+001
    endloop
  endfacet
  facet normal  -0.000000e+000 -8.155464e-001 -5.786917e-001
    outer loop
      vertex -4.700000e+001 -1.598835e+002  2.445979e+001
      vertex -4.750000e+001 -1.690769e+002  3.741600e+001
      vertex -7.150000e+001 -1.690769e+002  3.741600e+001
    endloop
  endfacet
  facet normal  0.000000e+000 -8.155464e-001 -5.786917e-001
    outer loop
      vertex -4.700000e+001 -1.598835e+002  2.445979e+001
      vertex -7.150000e+001 -1.690769e+002  3.741600e+001
      vertex -7.150000e+001 -1.598835e+002  2.445979e+001
    endloop
  endfacet
  facet normal  0.000000e+000 -9.998649e-001 -1.643280e-002
    outer loop
      vertex -4.750000e+001 -1.690769e+002  3.741600e+001
      vertex -4.750000e+001 -1.691391e+002  4.120586e+001
      vertex -7.150000e+001 -1.690769e+002  3.741600e+001
    endloop
  endfacet
  facet normal  0.000000e+000 -9.998649e-001 -1.643280e-002
    outer loop
      vertex -7.150000e+001 -1.690769e+002  3.741600e+001
      vertex -4.750000e+001 -1.691391e+002  4.120586e+001
      vertex -7.150000e+001 -1.691391e+002  4.120586e+001
    endloop
  endfacet
  facet normal  0.000000e+000 -7.071072e-001  7.071064e-001
    outer loop
      vertex -4.750000e+001 -1.625224e+002  4.782256e+001
      vertex -7.150000e+001 -1.625224e+002  4.782256e+001
      vertex -4.750000e+001 -1.691391e+002  4.120586e+001
    endloop
  endfacet
  facet normal  0.000000e+000 -7.071072e-001  7.071064e-001
    outer loop
      vertex -4.750000e+001 -1.691391e+002  4.120586e+001
      vertex -7.150000e+001 -1.625224e+002  4.782256e+001
      vertex -7.150000e+001 -1.691391e+002  4.120586e+001
    endloop
  endfacet
  facet normal  3.120809e-001  -0.000000e+000  9.500555e-001
    outer loop
      vertex -4.750000e+001  2.955429e+001  4.782256e+001
      vertex -4.750000e+001 -1.625224e+002  4.782256e+001
      vertex -4.720351e+001  2.951885e+001  4.772517e+001
    endloop
  endfacet
  facet normal  2.346986e-001  1.306331e-004  9.720683e-001
    outer loop
      vertex -4.720351e+001  2.951885e+001  4.772517e+001
      vertex -4.750000e+001 -1.625224e+002  4.782256e+001
      vertex -4.727185e+001 -1.624996e+002  4.776748e+001
    endloop
  endfacet
  facet normal  8.087060e-001 -1.582288e-004  5.882131e-001
    outer loop
      vertex -4.720351e+001  2.951885e+001  4.772517e+001
      vertex -4.727185e+001 -1.624996e+002  4.776748e+001
      vertex -4.702563e+001  2.942982e+001  4.748058e+001
    endloop
  endfacet
  facet normal  6.472591e-001  3.090655e-004  7.622700e-001
    outer loop
      vertex -4.702563e+001  2.942982e+001  4.748058e+001
      vertex -4.727185e+001 -1.624996e+002  4.776748e+001
      vertex -4.709792e+001 -1.624384e+002  4.761976e+001
    endloop
  endfacet
  facet normal  9.870884e-001 -2.557101e-004  1.601757e-001
    outer loop
      vertex -4.702563e+001  2.942982e+001  4.748058e+001
      vertex -4.709792e+001 -1.624384e+002  4.761976e+001
      vertex -4.700000e+001  2.937231e+001  4.732256e+001
    endloop
  endfacet
  facet normal  9.497796e-001  0.000000e+000  3.129196e-001
    outer loop
      vertex -4.700000e+001  2.937231e+001  4.732256e+001
      vertex -4.709792e+001 -1.624384e+002  4.761976e+001
      vertex -4.700000e+001 -1.623153e+002  4.732256e+001
    endloop
  endfacet
  facet normal  3.826824e-001  5.938587e-001  7.077330e-001
    outer loop
      vertex -4.750000e+001  4.691442e+001  3.325569e+001
      vertex -4.750000e+001  2.955429e+001  4.782256e+001
      vertex -4.714645e+001  4.682029e+001  3.314350e+001
    endloop
  endfacet
  facet normal  3.119435e-001  6.116877e-001  7.270003e-001
    outer loop
      vertex -4.714645e+001  4.682029e+001  3.314350e+001
      vertex -4.750000e+001  2.955429e+001  4.782256e+001
      vertex -4.720351e+001  2.951885e+001  4.772517e+001
    endloop
  endfacet
  facet normal  8.088651e-001  3.773690e-001  4.509213e-001
    outer loop
      vertex -4.714645e+001  4.682029e+001  3.314350e+001
      vertex -4.720351e+001  2.951885e+001  4.772517e+001
      vertex -4.702563e+001  2.942982e+001  4.748058e+001
    endloop
  endfacet
  facet normal  9.871034e-001  1.028999e-001  1.226314e-001
    outer loop
      vertex -4.700000e+001  2.937231e+001  4.732256e+001
      vertex -4.700000e+001  4.659303e+001  3.287267e+001
      vertex -4.702563e+001  2.942982e+001  4.748058e+001
    endloop
  endfacet
  facet normal  9.238784e-001  2.472344e-001  2.921025e-001
    outer loop
      vertex -4.702563e+001  2.942982e+001  4.748058e+001
      vertex -4.700000e+001  4.659303e+001  3.287267e+001
      vertex -4.714645e+001  4.682029e+001  3.314350e+001
    endloop
  endfacet
  facet normal  3.795650e-001  3.122098e-001 -8.708935e-001
    outer loop
      vertex -4.750000e+001  4.669533e+001  3.238324e+001
      vertex -4.726009e+001  4.690300e+001  3.256225e+001
      vertex -4.714645e+001  4.666537e+001  3.252659e+001
    endloop
  endfacet
  facet normal  3.598958e-001  8.188795e-001  4.471145e-001
    outer loop
      vertex -4.750000e+001  4.691442e+001  3.325569e+001
      vertex -4.714645e+001  4.682029e+001  3.314350e+001
      vertex -4.750000e+001  4.708901e+001  3.293593e+001
    endloop
  endfacet
  facet normal  3.699003e-001  8.216513e-001  4.336624e-001
    outer loop
      vertex -4.750000e+001  4.708901e+001  3.293593e+001
      vertex -4.714645e+001  4.682029e+001  3.314350e+001
      vertex -4.714756e+001  4.694611e+001  3.290606e+001
    endloop
  endfacet
  facet normal  3.491588e-001  9.088439e-001 -2.282339e-001
    outer loop
      vertex -4.750000e+001  4.708901e+001  3.293593e+001
      vertex -4.714756e+001  4.694611e+001  3.290606e+001
      vertex -4.750000e+001  4.700027e+001  3.258258e+001
    endloop
  endfacet
  facet normal  3.491534e-001  9.088477e-001 -2.282273e-001
    outer loop
      vertex -4.750000e+001  4.700027e+001  3.258258e+001
      vertex -4.714756e+001  4.694611e+001  3.290606e+001
      vertex -4.726009e+001  4.690300e+001  3.256225e+001
    endloop
  endfacet
  facet normal  1.492207e-001  5.410366e-001 -8.276547e-001
    outer loop
      vertex -4.750000e+001  4.700027e+001  3.258258e+001
      vertex -4.726009e+001  4.690300e+001  3.256225e+001
      vertex -4.750000e+001  4.669533e+001  3.238324e+001
    endloop
  endfacet
  facet normal  8.530818e-001  4.480935e-001 -2.673269e-001
    outer loop
      vertex -4.714645e+001  4.666537e+001  3.252659e+001
      vertex -4.726009e+001  4.690300e+001  3.256225e+001
      vertex -4.700000e+001  4.659303e+001  3.287267e+001
    endloop
  endfacet
  facet normal  8.593857e-001  3.903804e-001 -3.302412e-001
    outer loop
      vertex -4.700000e+001  4.659303e+001  3.287267e+001
      vertex -4.726009e+001  4.690300e+001  3.256225e+001
      vertex -4.714756e+001  4.694611e+001  3.290606e+001
    endloop
  endfacet
  facet normal  9.123672e-001  3.634754e-001  1.883396e-001
    outer loop
      vertex -4.700000e+001  4.659303e+001  3.287267e+001
      vertex -4.714756e+001  4.694611e+001  3.290606e+001
      vertex -4.714645e+001  4.682029e+001  3.314350e+001
    endloop
  endfacet
  facet normal  9.238798e-001  7.830226e-002 -3.745861e-001
    outer loop
      vertex -4.700000e+001  4.659303e+001  3.287267e+001
      vertex -4.700000e+001  4.534757e+001  3.261232e+001
      vertex -4.714645e+001  4.666537e+001  3.252659e+001
    endloop
  endfacet
  facet normal  9.501710e-001  8.610199e-002 -2.996021e-001
    outer loop
      vertex -4.714645e+001  4.666537e+001  3.252659e+001
      vertex -4.700000e+001  4.534757e+001  3.261232e+001
      vertex -4.710703e+001  4.564890e+001  3.235947e+001
    endloop
  endfacet
  facet normal  6.857548e-001  1.438947e-001 -7.134665e-001
    outer loop
      vertex -4.714645e+001  4.666537e+001  3.252659e+001
      vertex -4.710703e+001  4.564890e+001  3.235947e+001
      vertex -4.721171e+001  4.577170e+001  3.228363e+001
    endloop
  endfacet
  facet normal  3.024525e-001  1.950309e-001 -9.329981e-001
    outer loop
      vertex -4.750000e+001  4.607261e+001  3.225307e+001
      vertex -4.750000e+001  4.669533e+001  3.238324e+001
      vertex -4.721171e+001  4.577170e+001  3.228363e+001
    endloop
  endfacet
  facet normal  3.825348e-001  2.162813e-001 -8.982703e-001
    outer loop
      vertex -4.721171e+001  4.577170e+001  3.228363e+001
      vertex -4.750000e+001  4.669533e+001  3.238324e+001
      vertex -4.714645e+001  4.666537e+001  3.252659e+001
    endloop
  endfacet
  facet normal  2.348769e-001 -9.718939e-001 -1.597310e-002
    outer loop
      vertex -4.750000e+001 -1.691391e+002  4.120586e+001
      vertex -4.750000e+001 -1.690769e+002  3.741600e+001
      vertex -4.727170e+001 -1.690836e+002  4.118338e+001
    endloop
  endfacet
  facet normal  7.978179e-002 -9.967903e-001 -6.619123e-003
    outer loop
      vertex -4.727170e+001 -1.690836e+002  4.118338e+001
      vertex -4.750000e+001 -1.690769e+002  3.741600e+001
      vertex -4.742162e+001 -1.690705e+002  3.740708e+001
    endloop
  endfacet
  facet normal  3.071024e-001 -9.515504e-001 -1.548722e-002
    outer loop
      vertex -4.727170e+001 -1.690836e+002  4.118338e+001
      vertex -4.742162e+001 -1.690705e+002  3.740708e+001
      vertex -4.727500e+001 -1.690221e+002  3.733883e+001
    endloop
  endfacet
  facet normal  6.474066e-001 -7.620382e-001 -1.274734e-002
    outer loop
      vertex -4.727170e+001 -1.690836e+002  4.118338e+001
      vertex -4.727500e+001 -1.690221e+002  3.733883e+001
      vertex -4.709790e+001 -1.689349e+002  4.112323e+001
    endloop
  endfacet
  facet normal  6.402762e-001 -7.680467e-001 -1.227526e-002
    outer loop
      vertex -4.709790e+001 -1.689349e+002  4.112323e+001
      vertex -4.727500e+001 -1.690221e+002  3.733883e+001
      vertex -4.710149e+001 -1.688741e+002  3.713028e+001
    endloop
  endfacet
  facet normal  9.497325e-001 -3.130122e-001 -5.622577e-003
    outer loop
      vertex -4.709790e+001 -1.689349e+002  4.112323e+001
      vertex -4.710149e+001 -1.688741e+002  3.713028e+001
      vertex -4.700000e+001 -1.686357e+002  4.100216e+001
    endloop
  endfacet
  facet normal  9.479008e-001 -3.185226e-001 -5.235300e-003
    outer loop
      vertex -4.700000e+001 -1.686357e+002  4.100216e+001
      vertex -4.710149e+001 -1.688741e+002  3.713028e+001
      vertex -4.700000e+001 -1.685649e+002  3.669455e+001
    endloop
  endfacet
  facet normal  9.497930e-001 -2.212389e-001  2.212385e-001
    outer loop
      vertex -4.700000e+001 -1.686357e+002  4.100216e+001
      vertex -4.700000e+001 -1.623153e+002  4.732256e+001
      vertex -4.709790e+001 -1.689349e+002  4.112323e+001
    endloop
  endfacet
  facet normal  9.497777e-001 -2.212708e-001  2.212728e-001
    outer loop
      vertex -4.709790e+001 -1.689349e+002  4.112323e+001
      vertex -4.700000e+001 -1.623153e+002  4.732256e+001
      vertex -4.709792e+001 -1.624384e+002  4.761976e+001
    endloop
  endfacet
  facet normal  6.474544e-001 -5.388891e-001  5.388891e-001
    outer loop
      vertex -4.709790e+001 -1.689349e+002  4.112323e+001
      vertex -4.709792e+001 -1.624384e+002  4.761976e+001
      vertex -4.727170e+001 -1.690836e+002  4.118338e+001
    endloop
  endfacet
  facet normal  6.473255e-001 -5.389636e-001  5.389694e-001
    outer loop
      vertex -4.727170e+001 -1.690836e+002  4.118338e+001
      vertex -4.709792e+001 -1.624384e+002  4.761976e+001
      vertex -4.727185e+001 -1.624996e+002  4.776748e+001
    endloop
  endfacet
  facet normal  2.348750e-001 -6.873288e-001  6.873230e-001
    outer loop
      vertex -4.727170e+001 -1.690836e+002  4.118338e+001
      vertex -4.727185e+001 -1.624996e+002  4.776748e+001
      vertex -4.750000e+001 -1.691391e+002  4.120586e+001
    endloop
  endfacet
  facet normal  2.347361e-001 -6.873500e-001  6.873492e-001
    outer loop
      vertex -4.750000e+001 -1.691391e+002  4.120586e+001
      vertex -4.727185e+001 -1.624996e+002  4.776748e+001
      vertex -4.750000e+001 -1.625224e+002  4.782256e+001
    endloop
  endfacet
  facet normal  1.000000e+000  0.000000e+000  -0.000000e+000
    outer loop
      vertex -4.700000e+001 -1.623254e+002  4.632256e+001
      vertex -4.700000e+001  2.900834e+001  4.632256e+001
      vertex -4.700000e+001  2.937231e+001  4.732256e+001
    endloop
  endfacet
  facet normal  1.000000e+000  0.000000e+000  0.000000e+000
    outer loop
      vertex -4.700000e+001 -1.623254e+002  4.632256e+001
      vertex -4.700000e+001  2.937231e+001  4.732256e+001
      vertex -4.700000e+001 -1.623153e+002  4.732256e+001
    endloop
  endfacet
  facet normal  1.000000e+000  0.000000e+000  0.000000e+000
    outer loop
      vertex -4.700000e+001 -1.623254e+002  4.632256e+001
      vertex -4.700000e+001 -1.623153e+002  4.732256e+001
      vertex -4.700000e+001 -1.686357e+002  4.100216e+001
    endloop
  endfacet
  facet normal  1.000000e+000  0.000000e+000  0.000000e+000
    outer loop
      vertex -4.700000e+001 -1.623254e+002  4.632256e+001
      vertex -4.700000e+001 -1.686357e+002  4.100216e+001
      vertex -4.700000e+001 -1.676358e+002  4.101218e+001
    endloop
  endfacet
  facet normal  9.999999e-001  0.000000e+000  0.000000e+000
    outer loop
      vertex -4.700000e+001 -1.578947e+002  2.424914e+001
      vertex -4.700000e+001 -1.675847e+002  3.790516e+001
      vertex -4.700000e+001 -1.685649e+002  3.669455e+001
    endloop
  endfacet
  facet normal  9.999999e-001  0.000000e+000  0.000000e+000
    outer loop
      vertex -4.700000e+001 -1.578947e+002  2.424914e+001
      vertex -4.700000e+001 -1.685649e+002  3.669455e+001
      vertex -4.700000e+001 -1.598835e+002  2.445979e+001
    endloop
  endfacet
  facet normal  1.000000e+000  0.000000e+000  0.000000e+000
    outer loop
      vertex -4.700000e+001 -1.578947e+002  2.424914e+001
      vertex -4.700000e+001 -1.598835e+002  2.445979e+001
      vertex -4.700000e+001 -1.597052e+002  2.430491e+001
    endloop
  endfacet
  facet normal  1.000000e+000  0.000000e+000  0.000000e+000
    outer loop
      vertex -4.700000e+001 -1.578947e+002  2.424914e+001
      vertex -4.700000e+001 -1.597052e+002  2.430491e+001
      vertex -4.700000e+001 -1.594757e+002  2.424914e+001
    endloop
  endfacet
  facet normal  1.000000e+000  0.000000e+000  0.000000e+000
    outer loop
      vertex -4.700000e+001  4.659303e+001  3.287267e+001
      vertex -4.700000e+001  2.937231e+001  4.732256e+001
      vertex -4.700000e+001  4.534757e+001  3.261232e+001
    endloop
  endfacet
  facet normal  9.999999e-001  0.000000e+000  0.000000e+000
    outer loop
      vertex -4.700000e+001  4.534757e+001  3.261232e+001
      vertex -4.700000e+001  2.937231e+001  4.732256e+001
      vertex -4.700000e+001  2.900834e+001  4.632256e+001
    endloop
  endfacet
  facet normal  1.000000e+000  0.000000e+000  0.000000e+000
    outer loop
      vertex -4.700000e+001 -1.675847e+002  3.790516e+001
      vertex -4.700000e+001 -1.676358e+002  4.101218e+001
      vertex -4.700000e+001 -1.685649e+002  3.669455e+001
    endloop
  endfacet
  facet normal  1.000000e+000  0.000000e+000  -0.000000e+000
    outer loop
      vertex -4.700000e+001 -1.685649e+002  3.669455e+001
      vertex -4.700000e+001 -1.676358e+002  4.101218e+001
      vertex -4.700000e+001 -1.686357e+002  4.100216e+001
    endloop
  endfacet
  facet normal -9.511597e-001  0.000000e+000  3.086993e-001
    outer loop
      vertex -7.200000e+001  2.937231e+001  4.732256e+001
      vertex -7.200000e+001 -1.623153e+002  4.732256e+001
      vertex -7.190471e+001  2.947918e+001  4.761617e+001
    endloop
  endfacet
  facet normal -9.625405e-001  6.315512e-005  2.711382e-001
    outer loop
      vertex -7.190471e+001  2.947918e+001  4.761617e+001
      vertex -7.200000e+001 -1.623153e+002  4.732256e+001
      vertex -7.192650e+001 -1.624234e+002  4.758352e+001
    endloop
  endfacet
  facet normal -5.832518e-001 -7.199285e-005  8.122915e-001
    outer loop
      vertex -7.190471e+001  2.947918e+001  4.761617e+001
      vertex -7.192650e+001 -1.624234e+002  4.758352e+001
      vertex -7.164886e+001  2.954604e+001  4.779989e+001
    endloop
  endfacet
  facet normal -6.748235e-001  1.442029e-004  7.379793e-001
    outer loop
      vertex -7.164886e+001  2.954604e+001  4.779989e+001
      vertex -7.192650e+001 -1.624234e+002  4.758352e+001
      vertex -7.172190e+001 -1.625009e+002  4.777062e+001
    endloop
  endfacet
  facet normal -1.505823e-001 -9.338103e-005  9.885975e-001
    outer loop
      vertex -7.164886e+001  2.954604e+001  4.779989e+001
      vertex -7.172190e+001 -1.625009e+002  4.777062e+001
      vertex -7.150000e+001  2.955429e+001  4.782256e+001
    endloop
  endfacet
  facet normal -2.279121e-001  0.000000e+000  9.736817e-001
    outer loop
      vertex -7.150000e+001  2.955429e+001  4.782256e+001
      vertex -7.172190e+001 -1.625009e+002  4.777062e+001
      vertex -7.150000e+001 -1.625224e+002  4.782256e+001
    endloop
  endfacet
  facet normal -9.238797e-001  2.459838e-001  2.931520e-001
    outer loop
      vertex -7.200000e+001  4.659303e+001  3.287267e+001
      vertex -7.200000e+001  2.937231e+001  4.732256e+001
      vertex -7.185355e+001  4.682029e+001  3.314350e+001
    endloop
  endfacet
  facet normal -9.510165e-001  1.997309e-001  2.359555e-001
    outer loop
      vertex -7.185355e+001  4.682029e+001  3.314350e+001
      vertex -7.200000e+001  2.937231e+001  4.732256e+001
      vertex -7.190471e+001  2.947918e+001  4.761617e+001
    endloop
  endfacet
  facet normal -5.834088e-001  5.214192e-001  6.227007e-001
    outer loop
      vertex -7.185355e+001  4.682029e+001  3.314350e+001
      vertex -7.190471e+001  2.947918e+001  4.761617e+001
      vertex -7.164886e+001  2.954604e+001  4.779989e+001
    endloop
  endfacet
  facet normal -1.505839e-001  6.354582e-001  7.573094e-001
    outer loop
      vertex -7.150000e+001  2.955429e+001  4.782256e+001
      vertex -7.150000e+001  4.691442e+001  3.325569e+001
      vertex -7.164886e+001  2.954604e+001  4.779989e+001
    endloop
  endfacet
  facet normal -3.826823e-001  5.950758e-001  7.067101e-001
    outer loop
      vertex -7.164886e+001  2.954604e+001  4.779989e+001
      vertex -7.150000e+001  4.691442e+001  3.325569e+001
      vertex -7.185355e+001  4.682029e+001  3.314350e+001
    endloop
  endfacet
  facet normal -9.123693e-001  3.634655e-001  1.883490e-001
    outer loop
      vertex -7.200000e+001  4.659303e+001  3.287267e+001
      vertex -7.185355e+001  4.682029e+001  3.314350e+001
      vertex -7.185245e+001  4.694611e+001  3.290606e+001
    endloop
  endfacet
  facet normal -3.581381e-001  8.256882e-001  4.358624e-001
    outer loop
      vertex -7.185355e+001  4.682029e+001  3.314350e+001
      vertex -7.150000e+001  4.691442e+001  3.325569e+001
      vertex -7.185245e+001  4.694611e+001  3.290606e+001
    endloop
  endfacet
  facet normal -3.685678e-001  8.159027e-001  4.454891e-001
    outer loop
      vertex -7.185245e+001  4.694611e+001  3.290606e+001
      vertex -7.150000e+001  4.691442e+001  3.325569e+001
      vertex -7.150000e+001  4.708901e+001  3.293593e+001
    endloop
  endfacet
  facet normal -3.491559e-001  9.088457e-001 -2.282318e-001
    outer loop
      vertex -7.185245e+001  4.694611e+001  3.290606e+001
      vertex -7.150000e+001  4.708901e+001  3.293593e+001
      vertex -7.173991e+001  4.690300e+001  3.256225e+001
    endloop
  endfacet
  facet normal -3.491522e-001  9.088463e-001 -2.282345e-001
    outer loop
      vertex -7.173991e+001  4.690300e+001  3.256225e+001
      vertex -7.150000e+001  4.708901e+001  3.293593e+001
      vertex -7.150000e+001  4.700027e+001  3.258258e+001
    endloop
  endfacet
  facet normal -1.492208e-001  5.410366e-001 -8.276548e-001
    outer loop
      vertex -7.173991e+001  4.690300e+001  3.256225e+001
      vertex -7.150000e+001  4.700027e+001  3.258258e+001
      vertex -7.150000e+001  4.669533e+001  3.238324e+001
    endloop
  endfacet
  facet normal -8.736778e-001  3.923204e-001 -2.877010e-001
    outer loop
      vertex -7.200000e+001  4.659303e+001  3.287267e+001
      vertex -7.185245e+001  4.694611e+001  3.290606e+001
      vertex -7.185355e+001  4.666537e+001  3.252659e+001
    endloop
  endfacet
  facet normal -8.319825e-001  4.471675e-001 -3.283998e-001
    outer loop
      vertex -7.185355e+001  4.666537e+001  3.252659e+001
      vertex -7.185245e+001  4.694611e+001  3.290606e+001
      vertex -7.173991e+001  4.690300e+001  3.256225e+001
    endloop
  endfacet
  facet normal -3.795650e-001  3.122098e-001 -8.708935e-001
    outer loop
      vertex -7.185355e+001  4.666537e+001  3.252659e+001
      vertex -7.173991e+001  4.690300e+001  3.256225e+001
      vertex -7.150000e+001  4.669533e+001  3.238324e+001
    endloop
  endfacet
  facet normal -3.826839e-001  1.890388e-001 -9.043326e-001
    outer loop
      vertex -7.150000e+001  4.669533e+001  3.238324e+001
      vertex -7.150000e+001  4.607261e+001  3.225307e+001
      vertex -7.185355e+001  4.666537e+001  3.252659e+001
    endloop
  endfacet
  facet normal -3.317936e-001  2.248514e-001 -9.161631e-001
    outer loop
      vertex -7.185355e+001  4.666537e+001  3.252659e+001
      vertex -7.150000e+001  4.607261e+001  3.225307e+001
      vertex -7.178829e+001  4.577170e+001  3.228363e+001
    endloop
  endfacet
  facet normal -6.857548e-001  1.438947e-001 -7.134665e-001
    outer loop
      vertex -7.185355e+001  4.666537e+001  3.252659e+001
      vertex -7.178829e+001  4.577170e+001  3.228363e+001
      vertex -7.189297e+001  4.564890e+001  3.235947e+001
    endloop
  endfacet
  facet normal -9.501711e-001  8.610200e-002 -2.996022e-001
    outer loop
      vertex -7.189297e+001  4.564890e+001  3.235947e+001
      vertex -7.200000e+001  4.534757e+001  3.261232e+001
      vertex -7.185355e+001  4.666537e+001  3.252659e+001
    endloop
  endfacet
  facet normal -9.238798e-001  7.830226e-002 -3.745860e-001
    outer loop
      vertex -7.185355e+001  4.666537e+001  3.252659e+001
      vertex -7.200000e+001  4.534757e+001  3.261232e+001
      vertex -7.200000e+001  4.659303e+001  3.287267e+001
    endloop
  endfacet
  facet normal -9.506688e-001 -2.529890e-001 -1.795146e-001
    outer loop
      vertex -7.200000e+001 -1.685795e+002  3.757906e+001
      vertex -7.200000e+001 -1.591209e+002  2.424914e+001
      vertex -7.190377e+001 -1.688728e+002  3.748288e+001
    endloop
  endfacet
  facet normal -9.527994e-001 -2.476764e-001 -1.755843e-001
    outer loop
      vertex -7.190377e+001 -1.688728e+002  3.748288e+001
      vertex -7.200000e+001 -1.591209e+002  2.424914e+001
      vertex -7.190778e+001 -1.594757e+002  2.424914e+001
    endloop
  endfacet
  facet normal -5.819687e-001 -6.631334e-001 -4.707085e-001
    outer loop
      vertex -7.190377e+001 -1.688728e+002  3.748288e+001
      vertex -7.190778e+001 -1.594757e+002  2.424914e+001
      vertex -7.164890e+001 -1.690543e+002  3.742340e+001
    endloop
  endfacet
  facet normal -7.189766e-001 -5.687974e-001 -3.994274e-001
    outer loop
      vertex -7.164890e+001 -1.690543e+002  3.742340e+001
      vertex -7.190778e+001 -1.594757e+002  2.424914e+001
      vertex -7.180112e+001 -1.596270e+002  2.427257e+001
    endloop
  endfacet
  facet normal -1.504799e-001 -8.043110e-001 -5.748388e-001
    outer loop
      vertex -7.164890e+001 -1.690543e+002  3.742340e+001
      vertex -7.180112e+001 -1.596270e+002  2.427257e+001
      vertex -7.150000e+001 -1.690769e+002  3.741600e+001
    endloop
  endfacet
  facet normal -3.175651e-001 -7.733309e-001 -5.487366e-001
    outer loop
      vertex -7.150000e+001 -1.690769e+002  3.741600e+001
      vertex -7.180112e+001 -1.596270e+002  2.427257e+001
      vertex -7.150000e+001 -1.598835e+002  2.445979e+001
    endloop
  endfacet
  facet normal -9.626016e-001 -2.708846e-001 -4.452019e-003
    outer loop
      vertex -7.200000e+001 -1.686357e+002  4.100216e+001
      vertex -7.200000e+001 -1.685795e+002  3.757906e+001
      vertex -7.192661e+001 -1.688983e+002  4.110840e+001
    endloop
  endfacet
  facet normal -9.509448e-001 -3.092532e-001 -8.160383e-003
    outer loop
      vertex -7.192661e+001 -1.688983e+002  4.110840e+001
      vertex -7.200000e+001 -1.685795e+002  3.757906e+001
      vertex -7.190377e+001 -1.688728e+002  3.748288e+001
    endloop
  endfacet
  facet normal -6.755513e-001 -7.372525e-001 -9.430476e-003
    outer loop
      vertex -7.192661e+001 -1.688983e+002  4.110840e+001
      vertex -7.190377e+001 -1.688728e+002  3.748288e+001
      vertex -7.172186e+001 -1.690869e+002  4.118470e+001
    endloop
  endfacet
  facet normal -5.827152e-001 -8.124693e-001 -1.834139e-002
    outer loop
      vertex -7.172186e+001 -1.690869e+002  4.118470e+001
      vertex -7.190377e+001 -1.688728e+002  3.748288e+001
      vertex -7.164890e+001 -1.690543e+002  3.742340e+001
    endloop
  endfacet
  facet normal -2.281647e-001 -9.735377e-001 -1.285833e-002
    outer loop
      vertex -7.172186e+001 -1.690869e+002  4.118470e+001
      vertex -7.164890e+001 -1.690543e+002  3.742340e+001
      vertex -7.150000e+001 -1.691391e+002  4.120586e+001
    endloop
  endfacet
  facet normal -1.506259e-001 -9.884574e-001 -1.624532e-002
    outer loop
      vertex -7.150000e+001 -1.691391e+002  4.120586e+001
      vertex -7.164890e+001 -1.690543e+002  3.742340e+001
      vertex -7.150000e+001 -1.690769e+002  3.741600e+001
    endloop
  endfacet
  facet normal -2.278716e-001 -6.885040e-001  6.885032e-001
    outer loop
      vertex -7.150000e+001 -1.691391e+002  4.120586e+001
      vertex -7.150000e+001 -1.625224e+002  4.782256e+001
      vertex -7.172186e+001 -1.690869e+002  4.118470e+001
    endloop
  endfacet
  facet normal -2.279135e-001 -6.884964e-001  6.884971e-001
    outer loop
      vertex -7.172186e+001 -1.690869e+002  4.118470e+001
      vertex -7.150000e+001 -1.625224e+002  4.782256e+001
      vertex -7.172190e+001 -1.625009e+002  4.777062e+001
    endloop
  endfacet
  facet normal -6.749830e-001 -5.217282e-001  5.217258e-001
    outer loop
      vertex -7.172186e+001 -1.690869e+002  4.118470e+001
      vertex -7.172190e+001 -1.625009e+002  4.777062e+001
      vertex -7.192661e+001 -1.688983e+002  4.110840e+001
    endloop
  endfacet
  facet normal -6.748497e-001 -5.218182e-001  5.218080e-001
    outer loop
      vertex -7.192661e+001 -1.688983e+002  4.110840e+001
      vertex -7.172190e+001 -1.625009e+002  4.777062e+001
      vertex -7.192650e+001 -1.624234e+002  4.758352e+001
    endloop
  endfacet
  facet normal -9.626015e-001 -1.915661e-001  1.915742e-001
    outer loop
      vertex -7.192661e+001 -1.688983e+002  4.110840e+001
      vertex -7.192650e+001 -1.624234e+002  4.758352e+001
      vertex -7.200000e+001 -1.686357e+002  4.100216e+001
    endloop
  endfacet
  facet normal -9.625477e-001 -1.917059e-001  1.917055e-001
    outer loop
      vertex -7.200000e+001 -1.686357e+002  4.100216e+001
      vertex -7.192650e+001 -1.624234e+002  4.758352e+001
      vertex -7.200000e+001 -1.623153e+002  4.732256e+001
    endloop
  endfacet
  facet normal -1.000000e+000  -0.000000e+000  0.000000e+000
    outer loop
      vertex -7.200000e+001 -1.623254e+002  4.632256e+001
      vertex -7.200000e+001 -1.676358e+002  4.101218e+001
      vertex -7.200000e+001 -1.686357e+002  4.100216e+001
    endloop
  endfacet
  facet normal -1.000000e+000  0.000000e+000  0.000000e+000
    outer loop
      vertex -7.200000e+001 -1.623254e+002  4.632256e+001
      vertex -7.200000e+001 -1.686357e+002  4.100216e+001
      vertex -7.200000e+001 -1.623153e+002  4.732256e+001
    endloop
  endfacet
  facet normal -1.000000e+000  0.000000e+000  -0.000000e+000
    outer loop
      vertex -7.200000e+001 -1.623254e+002  4.632256e+001
      vertex -7.200000e+001 -1.623153e+002  4.732256e+001
      vertex -7.200000e+001  2.937231e+001  4.732256e+001
    endloop
  endfacet
  facet normal -1.000000e+000  0.000000e+000  0.000000e+000
    outer loop
      vertex -7.200000e+001 -1.623254e+002  4.632256e+001
      vertex -7.200000e+001  2.937231e+001  4.732256e+001
      vertex -7.200000e+001  2.900834e+001  4.632256e+001
    endloop
  endfacet
  facet normal -1.000000e+000  0.000000e+000  0.000000e+000
    outer loop
      vertex -7.200000e+001  4.659303e+001  3.287267e+001
      vertex -7.200000e+001  4.534757e+001  3.261232e+001
      vertex -7.200000e+001  2.937231e+001  4.732256e+001
    endloop
  endfacet
  facet normal -1.000000e+000  0.000000e+000  -0.000000e+000
    outer loop
      vertex -7.200000e+001  2.937231e+001  4.732256e+001
      vertex -7.200000e+001  4.534757e+001  3.261232e+001
      vertex -7.200000e+001  2.900834e+001  4.632256e+001
    endloop
  endfacet
  facet normal -9.999999e-001  0.000000e+000  0.000000e+000
    outer loop
      vertex -7.200000e+001 -1.686357e+002  4.100216e+001
      vertex -7.200000e+001 -1.676358e+002  4.101218e+001
      vertex -7.200000e+001 -1.685795e+002  3.757906e+001
    endloop
  endfacet
  facet normal -9.999999e-001  0.000000e+000  0.000000e+000
    outer loop
      vertex -7.200000e+001 -1.685795e+002  3.757906e+001
      vertex -7.200000e+001 -1.676358e+002  4.101218e+001
      vertex -7.200000e+001 -1.675847e+002  3.790516e+001
    endloop
  endfacet
  facet normal -1.000000e+000  0.000000e+000  -0.000000e+000
    outer loop
      vertex -7.200000e+001 -1.685795e+002  3.757906e+001
      vertex -7.200000e+001 -1.675847e+002  3.790516e+001
      vertex -7.200000e+001 -1.591209e+002  2.424914e+001
    endloop
  endfacet
  facet normal -1.000000e+000  0.000000e+000  0.000000e+000
    outer loop
      vertex -7.200000e+001 -1.591209e+002  2.424914e+001
      vertex -7.200000e+001 -1.675847e+002  3.790516e+001
      vertex -7.200000e+001 -1.578947e+002  2.424914e+001
    endloop
  endfacet
  facet normal  -0.000000e+000  -0.000000e+000 -1.000000e+000
    outer loop
      vertex -4.899661e+001 -6.985274e+001  4.632256e+001
      vertex -4.800000e+001 -6.985274e+001  4.632256e+001
      vertex -4.800000e+001 -1.334930e+002  4.632256e+001
    endloop
  endfacet
  facet normal  0.000000e+000  0.000000e+000 -1.000000e+000
    outer loop
      vertex -4.899661e+001 -6.985274e+001  4.632256e+001
      vertex -4.800000e+001 -1.334930e+002  4.632256e+001
      vertex -4.900000e+001 -1.334930e+002  4.632256e+001
    endloop
  endfacet
  facet normal  0.000000e+000  0.000000e+000 -9.999999e-001
    outer loop
      vertex -4.899661e+001 -6.985274e+001  4.632256e+001
      vertex -4.900000e+001 -1.334930e+002  4.632256e+001
      vertex -7.000000e+001 -1.333318e+002  4.632256e+001
    endloop
  endfacet
  facet normal  0.000000e+000  0.000000e+000 -1.000000e+000
    outer loop
      vertex -4.899661e+001 -6.985274e+001  4.632256e+001
      vertex -7.000000e+001 -1.333318e+002  4.632256e+001
      vertex -7.000000e+001 -6.985274e+001  4.632256e+001
    endloop
  endfacet
  facet normal  0.000000e+000  0.000000e+000 -9.999999e-001
    outer loop
      vertex -4.899661e+001 -6.985274e+001  4.632256e+001
      vertex -7.000000e+001 -6.985274e+001  4.632256e+001
      vertex -7.000000e+001 -4.985274e+001  4.632256e+001
    endloop
  endfacet
  facet normal  0.000000e+000  0.000000e+000 -9.999999e-001
    outer loop
      vertex -4.899661e+001 -6.985274e+001  4.632256e+001
      vertex -7.000000e+001 -4.985274e+001  4.632256e+001
      vertex -4.899661e+001 -4.985274e+001  4.632256e+001
    endloop
  endfacet
  facet normal  0.000000e+000  0.000000e+000 -1.000000e+000
    outer loop
      vertex -4.899661e+001 -4.985274e+001  4.632256e+001
      vertex -7.000000e+001 -4.985274e+001  4.632256e+001
      vertex -7.000000e+001  2.173621e+000  4.632256e+001
    endloop
  endfacet
  facet normal  0.000000e+000  0.000000e+000 -1.000000e+000
    outer loop
      vertex -4.899661e+001 -4.985274e+001  4.632256e+001
      vertex -7.000000e+001  2.173621e+000  4.632256e+001
      vertex -4.900000e+001  2.173621e+000  4.632256e+001
    endloop
  endfacet
  facet normal  0.000000e+000  0.000000e+000 -1.000000e+000
    outer loop
      vertex -4.899661e+001 -4.985274e+001  4.632256e+001
      vertex -4.900000e+001  2.173621e+000  4.632256e+001
      vertex -4.800000e+001  2.173621e+000  4.632256e+001
    endloop
  endfacet
  facet normal  0.000000e+000  -0.000000e+000 -1.000000e+000
    outer loop
      vertex -4.899661e+001 -4.985274e+001  4.632256e+001
      vertex -4.800000e+001  2.173621e+000  4.632256e+001
      vertex -4.800000e+001 -4.985274e+001  4.632256e+001
    endloop
  endfacet
  facet normal  -0.000000e+000  0.000000e+000 -9.999999e-001
    outer loop
      vertex -7.200000e+001  2.900834e+001  4.632256e+001
      vertex -4.700000e+001  2.900834e+001  4.632256e+001
      vertex -7.000000e+001  2.217362e+001  4.632256e+001
    endloop
  endfacet
  facet normal  0.000000e+000  0.000000e+000 -9.999999e-001
    outer loop
      vertex -7.200000e+001  2.900834e+001  4.632256e+001
      vertex -7.000000e+001  2.217362e+001  4.632256e+001
      vertex -7.100000e+001  2.217362e+001  4.632256e+001
    endloop
  endfacet
  facet normal  -0.000000e+000  -0.000000e+000 -1.000000e+000
    outer loop
      vertex -7.200000e+001  2.900834e+001  4.632256e+001
      vertex -7.100000e+001  2.217362e+001  4.632256e+001
      vertex -7.100000e+001  2.173621e+000  4.632256e+001
    endloop
  endfacet
  facet normal  -0.000000e+000  0.000000e+000 -1.000000e+000
    outer loop
      vertex -7.200000e+001  2.900834e+001  4.632256e+001
      vertex -7.100000e+001  2.173621e+000  4.632256e+001
      vertex -7.200000e+001 -1.623254e+002  4.632256e+001
    endloop
  endfacet
  facet normal  0.000000e+000  0.000000e+000 -1.000000e+000
    outer loop
      vertex -4.700000e+001 -1.623254e+002  4.632256e+001
      vertex -7.200000e+001 -1.623254e+002  4.632256e+001
      vertex -7.100000e+001 -1.533318e+002  4.632256e+001
    endloop
  endfacet
  facet normal  0.000000e+000  0.000000e+000 -1.000000e+000
    outer loop
      vertex -4.700000e+001 -1.623254e+002  4.632256e+001
      vertex -7.100000e+001 -1.533318e+002  4.632256e+001
      vertex -7.000000e+001 -1.533318e+002  4.632256e+001
    endloop
  endfacet
  facet normal  0.000000e+000  0.000000e+000 -1.000000e+000
    outer loop
      vertex -4.700000e+001 -1.623254e+002  4.632256e+001
      vertex -7.000000e+001 -1.533318e+002  4.632256e+001
      vertex -4.900000e+001 -1.534930e+002  4.632256e+001
    endloop
  endfacet
  facet normal  0.000000e+000  0.000000e+000 -1.000000e+000
    outer loop
      vertex -4.700000e+001 -1.623254e+002  4.632256e+001
      vertex -4.900000e+001 -1.534930e+002  4.632256e+001
      vertex -4.800000e+001 -1.534930e+002  4.632256e+001
    endloop
  endfacet
  facet normal  0.000000e+000  0.000000e+000 -1.000000e+000
    outer loop
      vertex -4.700000e+001 -1.623254e+002  4.632256e+001
      vertex -4.800000e+001 -1.534930e+002  4.632256e+001
      vertex -4.800000e+001 -1.334930e+002  4.632256e+001
    endloop
  endfacet
  facet normal  0.000000e+000  0.000000e+000 -1.000000e+000
    outer loop
      vertex -4.700000e+001 -1.623254e+002  4.632256e+001
      vertex -4.800000e+001 -1.334930e+002  4.632256e+001
      vertex -4.800000e+001 -6.985274e+001  4.632256e+001
    endloop
  endfacet
  facet normal  0.000000e+000  0.000000e+000 -1.000000e+000
    outer loop
      vertex -4.700000e+001 -1.623254e+002  4.632256e+001
      vertex -4.800000e+001 -6.985274e+001  4.632256e+001
      vertex -4.800000e+001 -4.985274e+001  4.632256e+001
    endloop
  endfacet
  facet normal  0.000000e+000  0.000000e+000 -1.000000e+000
    outer loop
      vertex -4.700000e+001 -1.623254e+002  4.632256e+001
      vertex -4.800000e+001 -4.985274e+001  4.632256e+001
      vertex -4.800000e+001  2.173621e+000  4.632256e+001
    endloop
  endfacet
  facet normal  0.000000e+000  0.000000e+000 -1.000000e+000
    outer loop
      vertex -4.700000e+001  2.900834e+001  4.632256e+001
      vertex -4.700000e+001 -1.623254e+002  4.632256e+001
      vertex -4.800000e+001  2.173621e+000  4.632256e+001
    endloop
  endfacet
  facet normal  0.000000e+000  0.000000e+000 -1.000000e+000
    outer loop
      vertex -4.700000e+001  2.900834e+001  4.632256e+001
      vertex -4.800000e+001  2.173621e+000  4.632256e+001
      vertex -4.800000e+001  2.217362e+001  4.632256e+001
    endloop
  endfacet
  facet normal  0.000000e+000  0.000000e+000 -9.999999e-001
    outer loop
      vertex -4.700000e+001  2.900834e+001  4.632256e+001
      vertex -4.800000e+001  2.217362e+001  4.632256e+001
      vertex -4.900000e+001  2.217362e+001  4.632256e+001
    endloop
  endfacet
  facet normal  0.000000e+000  0.000000e+000 -1.000000e+000
    outer loop
      vertex -4.700000e+001  2.900834e+001  4.632256e+001
      vertex -4.900000e+001  2.217362e+001  4.632256e+001
      vertex -7.000000e+001  2.217362e+001  4.632256e+001
    endloop
  endfacet
  facet normal  0.000000e+000  -0.000000e+000 -1.000000e+000
    outer loop
      vertex -7.200000e+001 -1.623254e+002  4.632256e+001
      vertex -7.100000e+001  2.173621e+000  4.632256e+001
      vertex -7.100000e+001 -4.985274e+001  4.632256e+001
    endloop
  endfacet
  facet normal  0.000000e+000  -0.000000e+000 -1.000000e+000
    outer loop
      vertex -7.200000e+001 -1.623254e+002  4.632256e+001
      vertex -7.100000e+001 -4.985274e+001  4.632256e+001
      vertex -7.100000e+001 -6.985274e+001  4.632256e+001
    endloop
  endfacet
  facet normal  0.000000e+000  -0.000000e+000 -9.999999e-001
    outer loop
      vertex -7.200000e+001 -1.623254e+002  4.632256e+001
      vertex -7.100000e+001 -6.985274e+001  4.632256e+001
      vertex -7.100000e+001 -1.333318e+002  4.632256e+001
    endloop
  endfacet
  facet normal  0.000000e+000  -0.000000e+000 -1.000000e+000
    outer loop
      vertex -7.200000e+001 -1.623254e+002  4.632256e+001
      vertex -7.100000e+001 -1.333318e+002  4.632256e+001
      vertex -7.100000e+001 -1.533318e+002  4.632256e+001
    endloop
  endfacet
  facet normal  0.000000e+000  0.000000e+000 -9.999999e-001
    outer loop
      vertex -7.000000e+001 -6.985274e+001  4.632256e+001
      vertex -7.000000e+001 -1.333318e+002  4.632256e+001
      vertex -7.100000e+001 -6.985274e+001  4.632256e+001
    endloop
  endfacet
  facet normal  0.000000e+000  0.000000e+000 -9.999999e-001
    outer loop
      vertex -7.100000e+001 -6.985274e+001  4.632256e+001
      vertex -7.000000e+001 -1.333318e+002  4.632256e+001
      vertex -7.100000e+001 -1.333318e+002  4.632256e+001
    endloop
  endfacet
  facet normal  0.000000e+000  0.000000e+000 -1.000000e+000
    outer loop
      vertex -7.000000e+001  2.173621e+000  4.632256e+001
      vertex -7.000000e+001 -4.985274e+001  4.632256e+001
      vertex -7.100000e+001  2.173621e+000  4.632256e+001
    endloop
  endfacet
  facet normal  0.000000e+000  0.000000e+000 -1.000000e+000
    outer loop
      vertex -7.100000e+001  2.173621e+000  4.632256e+001
      vertex -7.000000e+001 -4.985274e+001  4.632256e+001
      vertex -7.100000e+001 -4.985274e+001  4.632256e+001
    endloop
  endfacet
  facet normal  -0.000000e+000  0.000000e+000 -1.000000e+000
    outer loop
      vertex -7.000000e+001 -1.333318e+002  4.632256e+001
      vertex -4.900000e+001 -1.334930e+002  4.632256e+001
      vertex -7.000000e+001 -1.533318e+002  4.632256e+001
    endloop
  endfacet
  facet normal  0.000000e+000  0.000000e+000 -1.000000e+000
    outer loop
      vertex -7.000000e+001 -1.533318e+002  4.632256e+001
      vertex -4.900000e+001 -1.334930e+002  4.632256e+001
      vertex -4.900000e+001 -1.534930e+002  4.632256e+001
    endloop
  endfacet
  facet normal  -0.000000e+000  0.000000e+000 -1.000000e+000
    outer loop
      vertex -7.000000e+001  2.217362e+001  4.632256e+001
      vertex -4.900000e+001  2.217362e+001  4.632256e+001
      vertex -7.000000e+001  2.173621e+000  4.632256e+001
    endloop
  endfacet
  facet normal  0.000000e+000  0.000000e+000 -1.000000e+000
    outer loop
      vertex -7.000000e+001  2.173621e+000  4.632256e+001
      vertex -4.900000e+001  2.217362e+001  4.632256e+001
      vertex -4.900000e+001  2.173621e+000  4.632256e+001
    endloop
  endfacet
  facet normal  0.000000e+000  1.000000e+000  0.000000e+000
    outer loop
      vertex -7.100000e+001  2.217362e+001  3.832256e+001
      vertex -7.100000e+001  2.217362e+001  4.632256e+001
      vertex -7.000000e+001  2.217362e+001  3.832256e+001
    endloop
  endfacet
  facet normal  0.000000e+000  1.000000e+000  -0.000000e+000
    outer loop
      vertex -7.000000e+001  2.217362e+001  3.832256e+001
      vertex -7.100000e+001  2.217362e+001  4.632256e+001
      vertex -7.000000e+001  2.217362e+001  4.632256e+001
    endloop
  endfacet
  facet normal  0.000000e+000  0.000000e+000 -1.000000e+000
    outer loop
      vertex -7.100000e+001  2.173621e+000  3.832256e+001
      vertex -7.100000e+001  2.217362e+001  3.832256e+001
      vertex -7.000000e+001  2.173621e+000  3.832256e+001
    endloop
  endfacet
  facet normal  0.000000e+000  0.000000e+000 -1.000000e+000
    outer loop
      vertex -7.000000e+001  2.173621e+000  3.832256e+001
      vertex -7.100000e+001  2.217362e+001  3.832256e+001
      vertex -7.000000e+001  2.217362e+001  3.832256e+001
    endloop
  endfacet
  facet normal  1.000000e+000  0.000000e+000  0.000000e+000
    outer loop
      vertex -7.000000e+001  2.173621e+000  3.832256e+001
      vertex -7.000000e+001  2.217362e+001  3.832256e+001
      vertex -7.000000e+001  2.173621e+000  4.632256e+001
    endloop
  endfacet
  facet normal  1.000000e+000  -0.000000e+000  0.000000e+000
    outer loop
      vertex -7.000000e+001  2.173621e+000  4.632256e+001
      vertex -7.000000e+001  2.217362e+001  3.832256e+001
      vertex -7.000000e+001  2.217362e+001  4.632256e+001
    endloop
  endfacet
  facet normal -1.000000e+000  0.000000e+000  0.000000e+000
    outer loop
      vertex -7.100000e+001  2.217362e+001  3.832256e+001
      vertex -7.100000e+001  2.173621e+000  3.832256e+001
      vertex -7.100000e+001  2.217362e+001  4.632256e+001
    endloop
  endfacet
  facet normal -1.000000e+000  -0.000000e+000  0.000000e+000
    outer loop
      vertex -7.100000e+001  2.217362e+001  4.632256e+001
      vertex -7.100000e+001  2.173621e+000  3.832256e+001
      vertex -7.100000e+001  2.173621e+000  4.632256e+001
    endloop
  endfacet
  facet normal  0.000000e+000 -1.000000e+000  -0.000000e+000
    outer loop
      vertex -7.000000e+001  2.173621e+000  3.832256e+001
      vertex -7.000000e+001  2.173621e+000  4.632256e+001
      vertex -7.100000e+001  2.173621e+000  3.832256e+001
    endloop
  endfacet
  facet normal  0.000000e+000 -1.000000e+000  0.000000e+000
    outer loop
      vertex -7.100000e+001  2.173621e+000  3.832256e+001
      vertex -7.000000e+001  2.173621e+000  4.632256e+001
      vertex -7.100000e+001  2.173621e+000  4.632256e+001
    endloop
  endfacet
  facet normal  0.000000e+000  1.000000e+000  0.000000e+000
    outer loop
      vertex -7.100000e+001 -4.985274e+001  3.832256e+001
      vertex -7.100000e+001 -4.985274e+001  4.632256e+001
      vertex -7.000000e+001 -4.985274e+001  3.832256e+001
    endloop
  endfacet
  facet normal  0.000000e+000  1.000000e+000  -0.000000e+000
    outer loop
      vertex -7.000000e+001 -4.985274e+001  3.832256e+001
      vertex -7.100000e+001 -4.985274e+001  4.632256e+001
      vertex -7.000000e+001 -4.985274e+001  4.632256e+001
    endloop
  endfacet
  facet normal  0.000000e+000  0.000000e+000 -1.000000e+000
    outer loop
      vertex -7.100000e+001 -6.985274e+001  3.832256e+001
      vertex -7.100000e+001 -4.985274e+001  3.832256e+001
      vertex -7.000000e+001 -6.985274e+001  3.832256e+001
    endloop
  endfacet
  facet normal  0.000000e+000  0.000000e+000 -1.000000e+000
    outer loop
      vertex -7.000000e+001 -6.985274e+001  3.832256e+001
      vertex -7.100000e+001 -4.985274e+001  3.832256e+001
      vertex -7.000000e+001 -4.985274e+001  3.832256e+001
    endloop
  endfacet
  facet normal  1.000000e+000  0.000000e+000  0.000000e+000
    outer loop
      vertex -7.000000e+001 -6.985274e+001  3.832256e+001
      vertex -7.000000e+001 -4.985274e+001  3.832256e+001
      vertex -7.000000e+001 -6.985274e+001  4.632256e+001
    endloop
  endfacet
  facet normal  1.000000e+000  -0.000000e+000  0.000000e+000
    outer loop
      vertex -7.000000e+001 -6.985274e+001  4.632256e+001
      vertex -7.000000e+001 -4.985274e+001  3.832256e+001
      vertex -7.000000e+001 -4.985274e+001  4.632256e+001
    endloop
  endfacet
  facet normal -1.000000e+000  0.000000e+000  0.000000e+000
    outer loop
      vertex -7.100000e+001 -4.985274e+001  3.832256e+001
      vertex -7.100000e+001 -6.985274e+001  3.832256e+001
      vertex -7.100000e+001 -4.985274e+001  4.632256e+001
    endloop
  endfacet
  facet normal -1.000000e+000  -0.000000e+000  0.000000e+000
    outer loop
      vertex -7.100000e+001 -4.985274e+001  4.632256e+001
      vertex -7.100000e+001 -6.985274e+001  3.832256e+001
      vertex -7.100000e+001 -6.985274e+001  4.632256e+001
    endloop
  endfacet
  facet normal  0.000000e+000 -1.000000e+000  -0.000000e+000
    outer loop
      vertex -7.000000e+001 -6.985274e+001  3.832256e+001
      vertex -7.000000e+001 -6.985274e+001  4.632256e+001
      vertex -7.100000e+001 -6.985274e+001  3.832256e+001
    endloop
  endfacet
  facet normal  0.000000e+000 -1.000000e+000  0.000000e+000
    outer loop
      vertex -7.100000e+001 -6.985274e+001  3.832256e+001
      vertex -7.000000e+001 -6.985274e+001  4.632256e+001
      vertex -7.100000e+001 -6.985274e+001  4.632256e+001
    endloop
  endfacet
  facet normal  0.000000e+000  1.000000e+000  -0.000000e+000
    outer loop
      vertex -7.000000e+001 -1.333318e+002  4.632256e+001
      vertex -7.000000e+001 -1.333318e+002  3.832256e+001
      vertex -7.100000e+001 -1.333318e+002  4.632256e+001
    endloop
  endfacet
  facet normal  0.000000e+000  1.000000e+000  0.000000e+000
    outer loop
      vertex -7.100000e+001 -1.333318e+002  4.632256e+001
      vertex -7.000000e+001 -1.333318e+002  3.832256e+001
      vertex -7.100000e+001 -1.333318e+002  3.832256e+001
    endloop
  endfacet
  facet normal  0.000000e+000  0.000000e+000 -1.000000e+000
    outer loop
      vertex -7.100000e+001 -1.533318e+002  3.832256e+001
      vertex -7.100000e+001 -1.333318e+002  3.832256e+001
      vertex -7.000000e+001 -1.533318e+002  3.832256e+001
    endloop
  endfacet
  facet normal  0.000000e+000  0.000000e+000 -1.000000e+000
    outer loop
      vertex -7.000000e+001 -1.533318e+002  3.832256e+001
      vertex -7.100000e+001 -1.333318e+002  3.832256e+001
      vertex -7.000000e+001 -1.333318e+002  3.832256e+001
    endloop
  endfacet
  facet normal  1.000000e+000  0.000000e+000  0.000000e+000
    outer loop
      vertex -7.000000e+001 -1.533318e+002  3.832256e+001
      vertex -7.000000e+001 -1.333318e+002  3.832256e+001
      vertex -7.000000e+001 -1.533318e+002  4.632256e+001
    endloop
  endfacet
  facet normal  1.000000e+000  -0.000000e+000  0.000000e+000
    outer loop
      vertex -7.000000e+001 -1.533318e+002  4.632256e+001
      vertex -7.000000e+001 -1.333318e+002  3.832256e+001
      vertex -7.000000e+001 -1.333318e+002  4.632256e+001
    endloop
  endfacet
  facet normal -1.000000e+000  0.000000e+000  0.000000e+000
    outer loop
      vertex -7.100000e+001 -1.333318e+002  3.832256e+001
      vertex -7.100000e+001 -1.533318e+002  3.832256e+001
      vertex -7.100000e+001 -1.333318e+002  4.632256e+001
    endloop
  endfacet
  facet normal -1.000000e+000  -0.000000e+000  0.000000e+000
    outer loop
      vertex -7.100000e+001 -1.333318e+002  4.632256e+001
      vertex -7.100000e+001 -1.533318e+002  3.832256e+001
      vertex -7.100000e+001 -1.533318e+002  4.632256e+001
    endloop
  endfacet
  facet normal  0.000000e+000 -1.000000e+000  0.000000e+000
    outer loop
      vertex -7.100000e+001 -1.533318e+002  4.632256e+001
      vertex -7.100000e+001 -1.533318e+002  3.832256e+001
      vertex -7.000000e+001 -1.533318e+002  4.632256e+001
    endloop
  endfacet
  facet normal  0.000000e+000 -1.000000e+000  -0.000000e+000
    outer loop
      vertex -7.000000e+001 -1.533318e+002  4.632256e+001
      vertex -7.100000e+001 -1.533318e+002  3.832256e+001
      vertex -7.000000e+001 -1.533318e+002  3.832256e+001
    endloop
  endfacet
  facet normal  1.000000e+000  0.000000e+000  0.000000e+000
    outer loop
      vertex -4.800000e+001 -1.534930e+002  3.832256e+001
      vertex -4.800000e+001 -1.334930e+002  3.832256e+001
      vertex -4.800000e+001 -1.534930e+002  4.632256e+001
    endloop
  endfacet
  facet normal  1.000000e+000  -0.000000e+000  0.000000e+000
    outer loop
      vertex -4.800000e+001 -1.534930e+002  4.632256e+001
      vertex -4.800000e+001 -1.334930e+002  3.832256e+001
      vertex -4.800000e+001 -1.334930e+002  4.632256e+001
    endloop
  endfacet
  facet normal  0.000000e+000  0.000000e+000 -1.000000e+000
    outer loop
      vertex -4.900000e+001 -1.534930e+002  3.832256e+001
      vertex -4.900000e+001 -1.334930e+002  3.832256e+001
      vertex -4.800000e+001 -1.534930e+002  3.832256e+001
    endloop
  endfacet
  facet normal  0.000000e+000  0.000000e+000 -1.000000e+000
    outer loop
      vertex -4.800000e+001 -1.534930e+002  3.832256e+001
      vertex -4.900000e+001 -1.334930e+002  3.832256e+001
      vertex -4.800000e+001 -1.334930e+002  3.832256e+001
    endloop
  endfacet
  facet normal  0.000000e+000 -1.000000e+000  0.000000e+000
    outer loop
      vertex -4.800000e+001 -1.534930e+002  4.632256e+001
      vertex -4.900000e+001 -1.534930e+002  4.632256e+001
      vertex -4.800000e+001 -1.534930e+002  3.832256e+001
    endloop
  endfacet
  facet normal  0.000000e+000 -1.000000e+000  0.000000e+000
    outer loop
      vertex -4.800000e+001 -1.534930e+002  3.832256e+001
      vertex -4.900000e+001 -1.534930e+002  4.632256e+001
      vertex -4.900000e+001 -1.534930e+002  3.832256e+001
    endloop
  endfacet
  facet normal  0.000000e+000  1.000000e+000  0.000000e+000
    outer loop
      vertex -4.900000e+001 -1.334930e+002  4.632256e+001
      vertex -4.800000e+001 -1.334930e+002  4.632256e+001
      vertex -4.900000e+001 -1.334930e+002  3.832256e+001
    endloop
  endfacet
  facet normal  0.000000e+000  1.000000e+000  0.000000e+000
    outer loop
      vertex -4.900000e+001 -1.334930e+002  3.832256e+001
      vertex -4.800000e+001 -1.334930e+002  4.632256e+001
      vertex -4.800000e+001 -1.334930e+002  3.832256e+001
    endloop
  endfacet
  facet normal -1.000000e+000  0.000000e+000  0.000000e+000
    outer loop
      vertex -4.900000e+001 -1.334930e+002  3.832256e+001
      vertex -4.900000e+001 -1.534930e+002  3.832256e+001
      vertex -4.900000e+001 -1.334930e+002  4.632256e+001
    endloop
  endfacet
  facet normal -1.000000e+000  -0.000000e+000  0.000000e+000
    outer loop
      vertex -4.900000e+001 -1.334930e+002  4.632256e+001
      vertex -4.900000e+001 -1.534930e+002  3.832256e+001
      vertex -4.900000e+001 -1.534930e+002  4.632256e+001
    endloop
  endfacet
  facet normal  1.000000e+000  0.000000e+000  0.000000e+000
    outer loop
      vertex -4.800000e+001 -6.985274e+001  3.832256e+001
      vertex -4.800000e+001 -4.985274e+001  3.832256e+001
      vertex -4.800000e+001 -6.985274e+001  4.632256e+001
    endloop
  endfacet
  facet normal  1.000000e+000  -0.000000e+000  0.000000e+000
    outer loop
      vertex -4.800000e+001 -6.985274e+001  4.632256e+001
      vertex -4.800000e+001 -4.985274e+001  3.832256e+001
      vertex -4.800000e+001 -4.985274e+001  4.632256e+001
    endloop
  endfacet
  facet normal  0.000000e+000  0.000000e+000 -1.000000e+000
    outer loop
      vertex -4.899661e+001 -6.985274e+001  3.832256e+001
      vertex -4.899661e+001 -4.985274e+001  3.832256e+001
      vertex -4.800000e+001 -6.985274e+001  3.832256e+001
    endloop
  endfacet
  facet normal  0.000000e+000  0.000000e+000 -1.000000e+000
    outer loop
      vertex -4.800000e+001 -6.985274e+001  3.832256e+001
      vertex -4.899661e+001 -4.985274e+001  3.832256e+001
      vertex -4.800000e+001 -4.985274e+001  3.832256e+001
    endloop
  endfacet
  facet normal  0.000000e+000 -1.000000e+000  -0.000000e+000
    outer loop
      vertex -4.800000e+001 -6.985274e+001  3.832256e+001
      vertex -4.800000e+001 -6.985274e+001  4.632256e+001
      vertex -4.899661e+001 -6.985274e+001  3.832256e+001
    endloop
  endfacet
  facet normal  0.000000e+000 -1.000000e+000  0.000000e+000
    outer loop
      vertex -4.899661e+001 -6.985274e+001  3.832256e+001
      vertex -4.800000e+001 -6.985274e+001  4.632256e+001
      vertex -4.899661e+001 -6.985274e+001  4.632256e+001
    endloop
  endfacet
  facet normal  0.000000e+000  1.000000e+000  0.000000e+000
    outer loop
      vertex -4.899661e+001 -4.985274e+001  3.832256e+001
      vertex -4.899661e+001 -4.985274e+001  4.632256e+001
      vertex -4.800000e+001 -4.985274e+001  3.832256e+001
    endloop
  endfacet
  facet normal  0.000000e+000  1.000000e+000  -0.000000e+000
    outer loop
      vertex -4.800000e+001 -4.985274e+001  3.832256e+001
      vertex -4.899661e+001 -4.985274e+001  4.632256e+001
      vertex -4.800000e+001 -4.985274e+001  4.632256e+001
    endloop
  endfacet
  facet normal -1.000000e+000  0.000000e+000  0.000000e+000
    outer loop
      vertex -4.899661e+001 -4.985274e+001  3.832256e+001
      vertex -4.899661e+001 -6.985274e+001  3.832256e+001
      vertex -4.899661e+001 -4.985274e+001  4.632256e+001
    endloop
  endfacet
  facet normal -1.000000e+000  -0.000000e+000  0.000000e+000
    outer loop
      vertex -4.899661e+001 -4.985274e+001  4.632256e+001
      vertex -4.899661e+001 -6.985274e+001  3.832256e+001
      vertex -4.899661e+001 -6.985274e+001  4.632256e+001
    endloop
  endfacet
  facet normal  1.000000e+000  0.000000e+000  0.000000e+000
    outer loop
      vertex -4.800000e+001  2.173621e+000  3.832256e+001
      vertex -4.800000e+001  2.217362e+001  3.832256e+001
      vertex -4.800000e+001  2.173621e+000  4.632256e+001
    endloop
  endfacet
  facet normal  1.000000e+000  -0.000000e+000  0.000000e+000
    outer loop
      vertex -4.800000e+001  2.173621e+000  4.632256e+001
      vertex -4.800000e+001  2.217362e+001  3.832256e+001
      vertex -4.800000e+001  2.217362e+001  4.632256e+001
    endloop
  endfacet
  facet normal  0.000000e+000  0.000000e+000 -1.000000e+000
    outer loop
      vertex -4.900000e+001  2.173621e+000  3.832256e+001
      vertex -4.900000e+001  2.217362e+001  3.832256e+001
      vertex -4.800000e+001  2.173621e+000  3.832256e+001
    endloop
  endfacet
  facet normal  0.000000e+000  0.000000e+000 -1.000000e+000
    outer loop
      vertex -4.800000e+001  2.173621e+000  3.832256e+001
      vertex -4.900000e+001  2.217362e+001  3.832256e+001
      vertex -4.800000e+001  2.217362e+001  3.832256e+001
    endloop
  endfacet
  facet normal  0.000000e+000 -1.000000e+000  -0.000000e+000
    outer loop
      vertex -4.800000e+001  2.173621e+000  3.832256e+001
      vertex -4.800000e+001  2.173621e+000  4.632256e+001
      vertex -4.900000e+001  2.173621e+000  3.832256e+001
    endloop
  endfacet
  facet normal  0.000000e+000 -1.000000e+000  0.000000e+000
    outer loop
      vertex -4.900000e+001  2.173621e+000  3.832256e+001
      vertex -4.800000e+001  2.173621e+000  4.632256e+001
      vertex -4.900000e+001  2.173621e+000  4.632256e+001
    endloop
  endfacet
  facet normal  0.000000e+000  1.000000e+000  0.000000e+000
    outer loop
      vertex -4.900000e+001  2.217362e+001  3.832256e+001
      vertex -4.900000e+001  2.217362e+001  4.632256e+001
      vertex -4.800000e+001  2.217362e+001  3.832256e+001
    endloop
  endfacet
  facet normal  0.000000e+000  1.000000e+000  -0.000000e+000
    outer loop
      vertex -4.800000e+001  2.217362e+001  3.832256e+001
      vertex -4.900000e+001  2.217362e+001  4.632256e+001
      vertex -4.800000e+001  2.217362e+001  4.632256e+001
    endloop
  endfacet
  facet normal -1.000000e+000  0.000000e+000  0.000000e+000
    outer loop
      vertex -4.900000e+001  2.217362e+001  3.832256e+001
      vertex -4.900000e+001  2.173621e+000  3.832256e+001
      vertex -4.900000e+001  2.217362e+001  4.632256e+001
    endloop
  endfacet
  facet normal -1.000000e+000  -0.000000e+000  0.000000e+000
    outer loop
      vertex -4.900000e+001  2.217362e+001  4.632256e+001
      vertex -4.900000e+001  2.173621e+000  3.832256e+001
      vertex -4.900000e+001  2.173621e+000  4.632256e+001
    endloop
  endfacet
endsolid CATIA STL
