solid CATIA STL
  facet normal  0.000000e+000  0.000000e+000  1.000000e+000
    outer loop
      vertex -4.800000e+001 -1.623254e+002  4.632256e+001
      vertex -4.700000e+001 -1.623254e+002  4.632256e+001
      vertex -4.800000e+001  2.900834e+001  4.632256e+001
    endloop
  endfacet
  facet normal  -0.000000e+000  0.000000e+000  1.000000e+000
    outer loop
      vertex -4.800000e+001  2.900834e+001  4.632256e+001
      vertex -4.700000e+001 -1.623254e+002  4.632256e+001
      vertex -4.700000e+001  2.900834e+001  4.632256e+001
    endloop
  endfacet
  facet normal  0.000000e+000  6.427877e-001  7.660444e-001
    outer loop
      vertex -4.800000e+001  2.900834e+001  4.632256e+001
      vertex -4.700000e+001  2.900834e+001  4.632256e+001
      vertex -4.800000e+001  4.545061e+001  3.252586e+001
    endloop
  endfacet
  facet normal  -0.000000e+000  6.427877e-001  7.660444e-001
    outer loop
      vertex -4.800000e+001  4.545061e+001  3.252586e+001
      vertex -4.700000e+001  2.900834e+001  4.632256e+001
      vertex -4.700000e+001  4.545061e+001  3.252586e+001
    endloop
  endfacet
  facet normal  0.000000e+000  6.427843e-001  7.660473e-001
    outer loop
      vertex -4.800000e+001  4.545061e+001  3.252586e+001
      vertex -4.700000e+001  4.545061e+001  3.252586e+001
      vertex -4.790577e+001  4.567517e+001  3.233743e+001
    endloop
  endfacet
  facet normal  -0.000000e+000  6.427842e-001  7.660472e-001
    outer loop
      vertex -4.790577e+001  4.567517e+001  3.233743e+001
      vertex -4.700000e+001  4.545061e+001  3.252586e+001
      vertex -4.709423e+001  4.567517e+001  3.233743e+001
    endloop
  endfacet
  facet normal  0.000000e+000  6.427903e-001  7.660423e-001
    outer loop
      vertex -4.790577e+001  4.567517e+001  3.233743e+001
      vertex -4.709423e+001  4.567517e+001  3.233743e+001
      vertex -4.772786e+001  4.579269e+001  3.223882e+001
    endloop
  endfacet
  facet normal  -0.000000e+000  6.427902e-001  7.660423e-001
    outer loop
      vertex -4.772786e+001  4.579269e+001  3.223882e+001
      vertex -4.709423e+001  4.567517e+001  3.233743e+001
      vertex -4.727214e+001  4.579269e+001  3.223882e+001
    endloop
  endfacet
  facet normal  0.000000e+000  6.427878e-001  7.660442e-001
    outer loop
      vertex -4.772786e+001  4.579269e+001  3.223882e+001
      vertex -4.727214e+001  4.579269e+001  3.223882e+001
      vertex -4.750000e+001  4.583492e+001  3.220338e+001
    endloop
  endfacet
  facet normal -1.654382e-005  3.318357e-001 -9.433371e-001
    outer loop
      vertex -4.750000e+001  3.613148e+001  1.850473e+001
      vertex -4.734577e+001  3.609169e+001  1.849073e+001
      vertex -4.727485e+001  3.604406e+001  1.847398e+001
    endloop
  endfacet
  facet normal -8.137574e-006  3.318550e-001 -9.433304e-001
    outer loop
      vertex -4.750000e+001  3.613148e+001  1.850473e+001
      vertex -4.727485e+001  3.604406e+001  1.847398e+001
      vertex -4.710118e+001  3.580760e+001  1.839079e+001
    endloop
  endfacet
  facet normal -3.545611e-006  3.318600e-001 -9.433286e-001
    outer loop
      vertex -4.750000e+001  3.613148e+001  1.850473e+001
      vertex -4.710118e+001  3.580760e+001  1.839079e+001
      vertex -4.700000e+001  3.531538e+001  1.821763e+001
    endloop
  endfacet
  facet normal  2.415974e-006  3.318633e-001 -9.433275e-001
    outer loop
      vertex -4.750000e+001  3.613148e+001  1.850473e+001
      vertex -4.700000e+001  3.531538e+001  1.821763e+001
      vertex -4.700000e+001  3.424482e+001  1.784101e+001
    endloop
  endfacet
  facet normal  0.000000e+000  3.318627e-001 -9.433277e-001
    outer loop
      vertex -4.750000e+001  3.613148e+001  1.850473e+001
      vertex -4.700000e+001  3.424482e+001  1.784101e+001
      vertex -4.750000e+001  3.424482e+001  1.784101e+001
    endloop
  endfacet
  facet normal  0.000000e+000 -9.433280e-001 -3.318619e-001
    outer loop
      vertex -4.700000e+001  3.053359e+001  2.839029e+001
      vertex -4.800000e+001  3.053359e+001  2.839029e+001
      vertex -4.700000e+001  3.424482e+001  1.784101e+001
    endloop
  endfacet
  facet normal  5.690952e-007 -9.433280e-001 -3.318619e-001
    outer loop
      vertex -4.700000e+001  3.424482e+001  1.784101e+001
      vertex -4.800000e+001  3.053359e+001  2.839029e+001
      vertex -4.800000e+001  3.407889e+001  1.831267e+001
    endloop
  endfacet
  facet normal  0.000000e+000 -9.433276e-001 -3.318630e-001
    outer loop
      vertex -4.700000e+001  3.424482e+001  1.784101e+001
      vertex -4.800000e+001  3.407889e+001  1.831267e+001
      vertex -4.750000e+001  3.424482e+001  1.784101e+001
    endloop
  endfacet
  facet normal -4.748624e-006 -9.433261e-001 -3.318675e-001
    outer loop
      vertex -4.750000e+001  3.424482e+001  1.784101e+001
      vertex -4.800000e+001  3.407889e+001  1.831267e+001
      vertex -4.785355e+001  3.419622e+001  1.797915e+001
    endloop
  endfacet
  facet normal  -0.000000e+000 -3.386125e-001 -9.409259e-001
    outer loop
      vertex -4.800000e+001  3.053359e+001  2.839029e+001
      vertex -4.700000e+001  3.053359e+001  2.839029e+001
      vertex -4.800000e+001  1.698921e+001  3.326453e+001
    endloop
  endfacet
  facet normal  0.000000e+000 -3.386125e-001 -9.409259e-001
    outer loop
      vertex -4.800000e+001  1.698921e+001  3.326453e+001
      vertex -4.700000e+001  3.053359e+001  2.839029e+001
      vertex -4.700000e+001  1.698921e+001  3.326453e+001
    endloop
  endfacet
  facet normal  0.000000e+000  0.000000e+000 -1.000000e+000
    outer loop
      vertex -4.800000e+001 -1.612264e+002  3.326453e+001
      vertex -4.800000e+001  1.698921e+001  3.326453e+001
      vertex -4.700000e+001 -1.612264e+002  3.326453e+001
    endloop
  endfacet
  facet normal  0.000000e+000  0.000000e+000 -1.000000e+000
    outer loop
      vertex -4.700000e+001 -1.612264e+002  3.326453e+001
      vertex -4.800000e+001  1.698921e+001  3.326453e+001
      vertex -4.700000e+001  1.698921e+001  3.326453e+001
    endloop
  endfacet
  facet normal  -0.000000e+000 -8.155460e-001 -5.786922e-001
    outer loop
      vertex -4.800000e+001 -1.612264e+002  3.326453e+001
      vertex -4.700000e+001 -1.612264e+002  3.326453e+001
      vertex -4.800000e+001 -1.641722e+002  3.741600e+001
    endloop
  endfacet
  facet normal  0.000000e+000 -8.155460e-001 -5.786922e-001
    outer loop
      vertex -4.800000e+001 -1.641722e+002  3.741600e+001
      vertex -4.700000e+001 -1.612264e+002  3.326453e+001
      vertex -4.700000e+001 -1.641722e+002  3.741600e+001
    endloop
  endfacet
  facet normal  0.000000e+000 -9.879380e-001 -1.548505e-001
    outer loop
      vertex -4.700000e+001 -1.642898e+002  3.816628e+001
      vertex -4.800000e+001 -1.642898e+002  3.816628e+001
      vertex -4.700000e+001 -1.641722e+002  3.741600e+001
    endloop
  endfacet
  facet normal  -0.000000e+000 -9.879380e-001 -1.548505e-001
    outer loop
      vertex -4.700000e+001 -1.641722e+002  3.741600e+001
      vertex -4.800000e+001 -1.642898e+002  3.816628e+001
      vertex -4.800000e+001 -1.641722e+002  3.741600e+001
    endloop
  endfacet
  facet normal  0.000000e+000  1.548389e-001 -9.879397e-001
    outer loop
      vertex -4.800000e+001 -1.675805e+002  3.765052e+001
      vertex -4.800000e+001 -1.642898e+002  3.816628e+001
      vertex -4.700000e+001 -1.675805e+002  3.765052e+001
    endloop
  endfacet
  facet normal  0.000000e+000  1.548389e-001 -9.879397e-001
    outer loop
      vertex -4.700000e+001 -1.675805e+002  3.765052e+001
      vertex -4.800000e+001 -1.642898e+002  3.816628e+001
      vertex -4.700000e+001 -1.642898e+002  3.816628e+001
    endloop
  endfacet
  facet normal  0.000000e+000 -9.998649e-001 -1.643373e-002
    outer loop
      vertex -4.800000e+001 -1.676358e+002  4.101218e+001
      vertex -4.800000e+001 -1.675805e+002  3.765052e+001
      vertex -4.700000e+001 -1.676358e+002  4.101218e+001
    endloop
  endfacet
  facet normal  0.000000e+000 -9.998649e-001 -1.643373e-002
    outer loop
      vertex -4.700000e+001 -1.676358e+002  4.101218e+001
      vertex -4.800000e+001 -1.675805e+002  3.765052e+001
      vertex -4.700000e+001 -1.675805e+002  3.765052e+001
    endloop
  endfacet
  facet normal  0.000000e+000 -7.071068e-001  7.071068e-001
    outer loop
      vertex -4.800000e+001 -1.623254e+002  4.632256e+001
      vertex -4.800000e+001 -1.676358e+002  4.101218e+001
      vertex -4.700000e+001 -1.623254e+002  4.632256e+001
    endloop
  endfacet
  facet normal  0.000000e+000 -7.071068e-001  7.071068e-001
    outer loop
      vertex -4.700000e+001 -1.623254e+002  4.632256e+001
      vertex -4.800000e+001 -1.676358e+002  4.101218e+001
      vertex -4.700000e+001 -1.676358e+002  4.101218e+001
    endloop
  endfacet
  facet normal -6.517771e-001  6.193005e-001 -4.377825e-001
    outer loop
      vertex -4.785573e+001  3.603753e+001  1.862925e+001
      vertex -4.790577e+001  4.567517e+001  3.233743e+001
      vertex -4.772786e+001  4.579269e+001  3.223882e+001
    endloop
  endfacet
  facet normal -9.969149e-001  6.404974e-002 -4.536964e-002
    outer loop
      vertex -4.800000e+001  3.581544e+001  1.892359e+001
      vertex -4.800000e+001  4.545061e+001  3.252586e+001
      vertex -4.799384e+001  3.586490e+001  1.885804e+001
    endloop
  endfacet
  facet normal -9.516909e-001  2.511921e-001 -1.765986e-001
    outer loop
      vertex -4.799384e+001  3.586490e+001  1.885804e+001
      vertex -4.800000e+001  4.545061e+001  3.252586e+001
      vertex -4.790577e+001  4.567517e+001  3.233743e+001
    endloop
  endfacet
  facet normal -8.925267e-001  3.673992e-001 -2.615604e-001
    outer loop
      vertex -4.799384e+001  3.586490e+001  1.885804e+001
      vertex -4.790577e+001  4.567517e+001  3.233743e+001
      vertex -4.785573e+001  3.603753e+001  1.862925e+001
    endloop
  endfacet
  facet normal -2.343850e-001  7.932869e-001 -5.619248e-001
    outer loop
      vertex -4.750000e+001  4.583492e+001  3.220338e+001
      vertex -4.750000e+001  3.613148e+001  1.850473e+001
      vertex -4.772786e+001  4.579269e+001  3.223882e+001
    endloop
  endfacet
  facet normal -7.630608e-002  8.149240e-001 -5.745227e-001
    outer loop
      vertex -4.772786e+001  4.579269e+001  3.223882e+001
      vertex -4.750000e+001  3.613148e+001  1.850473e+001
      vertex -4.757614e+001  3.612779e+001  1.850962e+001
    endloop
  endfacet
  facet normal -4.550529e-001  7.257625e-001 -5.159416e-001
    outer loop
      vertex -4.772786e+001  4.579269e+001  3.223882e+001
      vertex -4.757614e+001  3.612779e+001  1.850962e+001
      vertex -4.785573e+001  3.603753e+001  1.862925e+001
    endloop
  endfacet
  facet normal -9.238802e-001  1.269976e-001 -3.609945e-001
    outer loop
      vertex -4.800000e+001  3.407889e+001  1.831267e+001
      vertex -4.800000e+001  3.581544e+001  1.892359e+001
      vertex -4.785355e+001  3.419622e+001  1.797915e+001
    endloop
  endfacet
  facet normal -9.934146e-001 -2.457463e-002 -1.119082e-001
    outer loop
      vertex -4.785355e+001  3.419622e+001  1.797915e+001
      vertex -4.800000e+001  3.581544e+001  1.892359e+001
      vertex -4.799384e+001  3.586490e+001  1.885804e+001
    endloop
  endfacet
  facet normal -8.923264e-001  1.493393e-001 -4.259712e-001
    outer loop
      vertex -4.785355e+001  3.419622e+001  1.797915e+001
      vertex -4.799384e+001  3.586490e+001  1.885804e+001
      vertex -4.785573e+001  3.603753e+001  1.862925e+001
    endloop
  endfacet
  facet normal -7.635847e-002  3.308938e-001 -9.405736e-001
    outer loop
      vertex -4.750000e+001  3.613148e+001  1.850473e+001
      vertex -4.750000e+001  3.424482e+001  1.784101e+001
      vertex -4.757614e+001  3.612779e+001  1.850962e+001
    endloop
  endfacet
  facet normal -3.826559e-001  2.953682e-001 -8.754041e-001
    outer loop
      vertex -4.757614e+001  3.612779e+001  1.850962e+001
      vertex -4.750000e+001  3.424482e+001  1.784101e+001
      vertex -4.785355e+001  3.419622e+001  1.797915e+001
    endloop
  endfacet
  facet normal -4.549246e-001  2.959968e-001 -8.398985e-001
    outer loop
      vertex -4.757614e+001  3.612779e+001  1.850962e+001
      vertex -4.785355e+001  3.419622e+001  1.797915e+001
      vertex -4.785573e+001  3.603753e+001  1.862925e+001
    endloop
  endfacet
  facet normal -1.000000e+000  -0.000000e+000  0.000000e+000
    outer loop
      vertex -4.800000e+001 -1.676358e+002  4.101218e+001
      vertex -4.800000e+001 -1.642898e+002  3.816628e+001
      vertex -4.800000e+001 -1.675805e+002  3.765052e+001
    endloop
  endfacet
  facet normal -1.000000e+000  -0.000000e+000  0.000000e+000
    outer loop
      vertex -4.800000e+001  4.545061e+001  3.252586e+001
      vertex -4.800000e+001  3.581544e+001  1.892359e+001
      vertex -4.800000e+001  3.407889e+001  1.831267e+001
    endloop
  endfacet
  facet normal -1.000000e+000  0.000000e+000  0.000000e+000
    outer loop
      vertex -4.800000e+001  4.545061e+001  3.252586e+001
      vertex -4.800000e+001  3.407889e+001  1.831267e+001
      vertex -4.800000e+001  3.053359e+001  2.839029e+001
    endloop
  endfacet
  facet normal -1.000000e+000  0.000000e+000  0.000000e+000
    outer loop
      vertex -4.800000e+001  4.545061e+001  3.252586e+001
      vertex -4.800000e+001  3.053359e+001  2.839029e+001
      vertex -4.800000e+001  1.698921e+001  3.326453e+001
    endloop
  endfacet
  facet normal -1.000000e+000  0.000000e+000  0.000000e+000
    outer loop
      vertex -4.800000e+001  4.545061e+001  3.252586e+001
      vertex -4.800000e+001  1.698921e+001  3.326453e+001
      vertex -4.800000e+001 -1.642898e+002  3.816628e+001
    endloop
  endfacet
  facet normal -1.000000e+000  0.000000e+000  0.000000e+000
    outer loop
      vertex -4.800000e+001  4.545061e+001  3.252586e+001
      vertex -4.800000e+001 -1.642898e+002  3.816628e+001
      vertex -4.800000e+001 -1.676358e+002  4.101218e+001
    endloop
  endfacet
  facet normal -1.000000e+000  0.000000e+000  0.000000e+000
    outer loop
      vertex -4.800000e+001  4.545061e+001  3.252586e+001
      vertex -4.800000e+001 -1.676358e+002  4.101218e+001
      vertex -4.800000e+001 -1.623254e+002  4.632256e+001
    endloop
  endfacet
  facet normal -1.000000e+000  0.000000e+000  0.000000e+000
    outer loop
      vertex -4.800000e+001  4.545061e+001  3.252586e+001
      vertex -4.800000e+001 -1.623254e+002  4.632256e+001
      vertex -4.800000e+001  2.900834e+001  4.632256e+001
    endloop
  endfacet
  facet normal -1.000000e+000  0.000000e+000  0.000000e+000
    outer loop
      vertex -4.800000e+001  1.698921e+001  3.326453e+001
      vertex -4.800000e+001 -1.612264e+002  3.326453e+001
      vertex -4.800000e+001 -1.642898e+002  3.816628e+001
    endloop
  endfacet
  facet normal -1.000000e+000  0.000000e+000  0.000000e+000
    outer loop
      vertex -4.800000e+001 -1.642898e+002  3.816628e+001
      vertex -4.800000e+001 -1.612264e+002  3.326453e+001
      vertex -4.800000e+001 -1.641722e+002  3.741600e+001
    endloop
  endfacet
  facet normal  6.518009e-001  6.189485e-001 -4.382449e-001
    outer loop
      vertex -4.727214e+001  4.579269e+001  3.223882e+001
      vertex -4.709423e+001  4.567517e+001  3.233743e+001
      vertex -4.710118e+001  3.580760e+001  1.839079e+001
    endloop
  endfacet
  facet normal  6.405410e-001  6.266167e-001 -4.439130e-001
    outer loop
      vertex -4.727214e+001  4.579269e+001  3.223882e+001
      vertex -4.710118e+001  3.580760e+001  1.839079e+001
      vertex -4.727485e+001  3.604406e+001  1.847398e+001
    endloop
  endfacet
  facet normal  3.805141e-001  7.546415e-001 -5.345327e-001
    outer loop
      vertex -4.727214e+001  4.579269e+001  3.223882e+001
      vertex -4.727485e+001  3.604406e+001  1.847398e+001
      vertex -4.734577e+001  3.609169e+001  1.849073e+001
    endloop
  endfacet
  facet normal  1.563672e-001  8.066211e-001 -5.700104e-001
    outer loop
      vertex -4.727214e+001  4.579269e+001  3.223882e+001
      vertex -4.734577e+001  3.609169e+001  1.849073e+001
      vertex -4.750000e+001  3.613148e+001  1.850473e+001
    endloop
  endfacet
  facet normal  2.343850e-001  7.932869e-001 -5.619248e-001
    outer loop
      vertex -4.727214e+001  4.579269e+001  3.223882e+001
      vertex -4.750000e+001  3.613148e+001  1.850473e+001
      vertex -4.750000e+001  4.583492e+001  3.220338e+001
    endloop
  endfacet
  facet normal  9.517225e-001  2.503586e-001 -1.776085e-001
    outer loop
      vertex -4.709423e+001  4.567517e+001  3.233743e+001
      vertex -4.700000e+001  4.545061e+001  3.252586e+001
      vertex -4.710118e+001  3.580760e+001  1.839079e+001
    endloop
  endfacet
  facet normal  9.480610e-001  2.595660e-001 -1.838636e-001
    outer loop
      vertex -4.710118e+001  3.580760e+001  1.839079e+001
      vertex -4.700000e+001  4.545061e+001  3.252586e+001
      vertex -4.700000e+001  3.531538e+001  1.821763e+001
    endloop
  endfacet
  facet normal  9.999999e-001  0.000000e+000  0.000000e+000
    outer loop
      vertex -4.700000e+001 -4.203865e+001  4.502172e+001
      vertex -4.700000e+001  2.900834e+001  4.632256e+001
      vertex -4.700000e+001 -5.703865e+001  4.502172e+001
    endloop
  endfacet
  facet normal  1.000000e+000  0.000000e+000  0.000000e+000
    outer loop
      vertex -4.700000e+001 -1.675805e+002  3.765052e+001
      vertex -4.700000e+001 -1.642898e+002  3.816628e+001
      vertex -4.700000e+001 -1.676358e+002  4.101218e+001
    endloop
  endfacet
  facet normal  1.000000e+000  -0.000000e+000  0.000000e+000
    outer loop
      vertex -4.700000e+001 -1.623254e+002  4.632256e+001
      vertex -4.700000e+001 -1.676358e+002  4.101218e+001
      vertex -4.700000e+001 -1.384813e+002  3.999256e+001
    endloop
  endfacet
  facet normal  9.999999e-001  0.000000e+000  -0.000000e+000
    outer loop
      vertex -4.700000e+001 -1.623254e+002  4.632256e+001
      vertex -4.700000e+001 -1.384813e+002  3.999256e+001
      vertex -4.700000e+001 -9.608486e+001  4.430023e+001
    endloop
  endfacet
  facet normal  1.000000e+000  0.000000e+000  -0.000000e+000
    outer loop
      vertex -4.700000e+001 -1.623254e+002  4.632256e+001
      vertex -4.700000e+001 -9.608486e+001  4.430023e+001
      vertex -4.700000e+001 -5.703865e+001  4.502172e+001
    endloop
  endfacet
  facet normal  1.000000e+000  0.000000e+000  -0.000000e+000
    outer loop
      vertex -4.700000e+001 -1.623254e+002  4.632256e+001
      vertex -4.700000e+001 -5.703865e+001  4.502172e+001
      vertex -4.700000e+001  2.900834e+001  4.632256e+001
    endloop
  endfacet
  facet normal  1.000000e+000  0.000000e+000  -0.000000e+000
    outer loop
      vertex -4.700000e+001  1.698921e+001  3.326453e+001
      vertex -4.700000e+001  3.053359e+001  2.839029e+001
      vertex -4.700000e+001  4.545061e+001  3.252586e+001
    endloop
  endfacet
  facet normal  1.000000e+000  0.000000e+000  0.000000e+000
    outer loop
      vertex -4.700000e+001  1.698921e+001  3.326453e+001
      vertex -4.700000e+001  4.545061e+001  3.252586e+001
      vertex -4.700000e+001 -1.524699e+001  3.443647e+001
    endloop
  endfacet
  facet normal  1.000000e+000  0.000000e+000  0.000000e+000
    outer loop
      vertex -4.700000e+001  1.698921e+001  3.326453e+001
      vertex -4.700000e+001 -1.524699e+001  3.443647e+001
      vertex -4.700000e+001 -3.024699e+001  3.443647e+001
    endloop
  endfacet
  facet normal  1.000000e+000  0.000000e+000  0.000000e+000
    outer loop
      vertex -4.700000e+001  1.698921e+001  3.326453e+001
      vertex -4.700000e+001 -3.024699e+001  3.443647e+001
      vertex -4.700000e+001 -5.703865e+001  3.502172e+001
    endloop
  endfacet
  facet normal  1.000000e+000  0.000000e+000  0.000000e+000
    outer loop
      vertex -4.700000e+001  1.698921e+001  3.326453e+001
      vertex -4.700000e+001 -5.703865e+001  3.502172e+001
      vertex -4.700000e+001 -8.108486e+001  3.430023e+001
    endloop
  endfacet
  facet normal  9.999999e-001  0.000000e+000  0.000000e+000
    outer loop
      vertex -4.700000e+001  1.698921e+001  3.326453e+001
      vertex -4.700000e+001 -8.108486e+001  3.430023e+001
      vertex -4.700000e+001 -9.608486e+001  3.430023e+001
    endloop
  endfacet
  facet normal  9.999999e-001  0.000000e+000  0.000000e+000
    outer loop
      vertex -4.700000e+001  1.698921e+001  3.326453e+001
      vertex -4.700000e+001 -9.608486e+001  3.430023e+001
      vertex -4.700000e+001 -1.234813e+002  3.424135e+001
    endloop
  endfacet
  facet normal  1.000000e+000  0.000000e+000  0.000000e+000
    outer loop
      vertex -4.700000e+001  1.698921e+001  3.326453e+001
      vertex -4.700000e+001 -1.234813e+002  3.424135e+001
      vertex -4.700000e+001 -1.384813e+002  3.424135e+001
    endloop
  endfacet
  facet normal  1.000000e+000  0.000000e+000  0.000000e+000
    outer loop
      vertex -4.700000e+001  1.698921e+001  3.326453e+001
      vertex -4.700000e+001 -1.384813e+002  3.424135e+001
      vertex -4.700000e+001 -1.612264e+002  3.326453e+001
    endloop
  endfacet
  facet normal  1.000000e+000  0.000000e+000  0.000000e+000
    outer loop
      vertex -4.700000e+001 -5.703865e+001  3.502172e+001
      vertex -4.700000e+001 -3.024699e+001  3.443647e+001
      vertex -4.700000e+001 -4.203865e+001  3.502172e+001
    endloop
  endfacet
  facet normal  1.000000e+000  -0.000000e+000  0.000000e+000
    outer loop
      vertex -4.700000e+001 -4.203865e+001  3.502172e+001
      vertex -4.700000e+001 -3.024699e+001  3.443647e+001
      vertex -4.700000e+001 -3.024699e+001  4.243647e+001
    endloop
  endfacet
  facet normal  1.000000e+000  0.000000e+000  0.000000e+000
    outer loop
      vertex -4.700000e+001 -4.203865e+001  3.502172e+001
      vertex -4.700000e+001 -3.024699e+001  4.243647e+001
      vertex -4.700000e+001 -4.203865e+001  4.502172e+001
    endloop
  endfacet
  facet normal  1.000000e+000  0.000000e+000  0.000000e+000
    outer loop
      vertex -4.700000e+001 -4.203865e+001  4.502172e+001
      vertex -4.700000e+001 -3.024699e+001  4.243647e+001
      vertex -4.700000e+001 -1.524699e+001  4.243647e+001
    endloop
  endfacet
  facet normal  1.000000e+000  0.000000e+000  -0.000000e+000
    outer loop
      vertex -4.700000e+001 -4.203865e+001  4.502172e+001
      vertex -4.700000e+001 -1.524699e+001  4.243647e+001
      vertex -4.700000e+001  2.900834e+001  4.632256e+001
    endloop
  endfacet
  facet normal  1.000000e+000  0.000000e+000  0.000000e+000
    outer loop
      vertex -4.700000e+001  2.900834e+001  4.632256e+001
      vertex -4.700000e+001 -1.524699e+001  4.243647e+001
      vertex -4.700000e+001 -1.524699e+001  3.443647e+001
    endloop
  endfacet
  facet normal  1.000000e+000  -0.000000e+000  0.000000e+000
    outer loop
      vertex -4.700000e+001  2.900834e+001  4.632256e+001
      vertex -4.700000e+001 -1.524699e+001  3.443647e+001
      vertex -4.700000e+001  4.545061e+001  3.252586e+001
    endloop
  endfacet
  facet normal  9.999999e-001  0.000000e+000  0.000000e+000
    outer loop
      vertex -4.700000e+001  3.424482e+001  1.784101e+001
      vertex -4.700000e+001  3.531538e+001  1.821763e+001
      vertex -4.700000e+001  3.053359e+001  2.839029e+001
    endloop
  endfacet
  facet normal  9.999999e-001  -0.000000e+000  0.000000e+000
    outer loop
      vertex -4.700000e+001  3.053359e+001  2.839029e+001
      vertex -4.700000e+001  3.531538e+001  1.821763e+001
      vertex -4.700000e+001  4.545061e+001  3.252586e+001
    endloop
  endfacet
  facet normal  1.000000e+000  0.000000e+000  -0.000000e+000
    outer loop
      vertex -4.700000e+001 -9.608486e+001  4.430023e+001
      vertex -4.700000e+001 -8.108486e+001  4.430023e+001
      vertex -4.700000e+001 -5.703865e+001  4.502172e+001
    endloop
  endfacet
  facet normal  1.000000e+000  0.000000e+000  0.000000e+000
    outer loop
      vertex -4.700000e+001 -5.703865e+001  4.502172e+001
      vertex -4.700000e+001 -8.108486e+001  4.430023e+001
      vertex -4.700000e+001 -8.108486e+001  3.430023e+001
    endloop
  endfacet
  facet normal  1.000000e+000  0.000000e+000  0.000000e+000
    outer loop
      vertex -4.700000e+001 -5.703865e+001  4.502172e+001
      vertex -4.700000e+001 -8.108486e+001  3.430023e+001
      vertex -4.700000e+001 -5.703865e+001  3.502172e+001
    endloop
  endfacet
  facet normal  1.000000e+000  0.000000e+000  -0.000000e+000
    outer loop
      vertex -4.700000e+001 -1.384813e+002  3.999256e+001
      vertex -4.700000e+001 -1.234813e+002  3.999256e+001
      vertex -4.700000e+001 -9.608486e+001  4.430023e+001
    endloop
  endfacet
  facet normal  1.000000e+000  0.000000e+000  0.000000e+000
    outer loop
      vertex -4.700000e+001 -9.608486e+001  4.430023e+001
      vertex -4.700000e+001 -1.234813e+002  3.999256e+001
      vertex -4.700000e+001 -1.234813e+002  3.424135e+001
    endloop
  endfacet
  facet normal  1.000000e+000  0.000000e+000  0.000000e+000
    outer loop
      vertex -4.700000e+001 -9.608486e+001  4.430023e+001
      vertex -4.700000e+001 -1.234813e+002  3.424135e+001
      vertex -4.700000e+001 -9.608486e+001  3.430023e+001
    endloop
  endfacet
  facet normal  1.000000e+000  0.000000e+000  -0.000000e+000
    outer loop
      vertex -4.700000e+001 -1.676358e+002  4.101218e+001
      vertex -4.700000e+001 -1.642898e+002  3.816628e+001
      vertex -4.700000e+001 -1.384813e+002  3.999256e+001
    endloop
  endfacet
  facet normal  1.000000e+000  0.000000e+000  0.000000e+000
    outer loop
      vertex -4.700000e+001 -1.384813e+002  3.999256e+001
      vertex -4.700000e+001 -1.642898e+002  3.816628e+001
      vertex -4.700000e+001 -1.384813e+002  3.424135e+001
    endloop
  endfacet
  facet normal  1.000000e+000  -0.000000e+000  -0.000000e+000
    outer loop
      vertex -4.700000e+001 -1.642898e+002  3.816628e+001
      vertex -4.700000e+001 -1.641722e+002  3.741600e+001
      vertex -4.700000e+001 -1.384813e+002  3.424135e+001
    endloop
  endfacet
  facet normal  1.000000e+000  0.000000e+000  0.000000e+000
    outer loop
      vertex -4.700000e+001 -1.384813e+002  3.424135e+001
      vertex -4.700000e+001 -1.641722e+002  3.741600e+001
      vertex -4.700000e+001 -1.612264e+002  3.326453e+001
    endloop
  endfacet
  facet normal  0.000000e+000  1.000000e+000  0.000000e+000
    outer loop
      vertex -4.600000e+001 -1.524699e+001  3.443647e+001
      vertex -4.700000e+001 -1.524699e+001  3.443647e+001
      vertex -4.600000e+001 -1.524699e+001  4.243647e+001
    endloop
  endfacet
  facet normal  0.000000e+000  1.000000e+000  0.000000e+000
    outer loop
      vertex -4.600000e+001 -1.524699e+001  4.243647e+001
      vertex -4.700000e+001 -1.524699e+001  3.443647e+001
      vertex -4.700000e+001 -1.524699e+001  4.243647e+001
    endloop
  endfacet
  facet normal  0.000000e+000  0.000000e+000 -1.000000e+000
    outer loop
      vertex -4.600000e+001 -1.524699e+001  3.443647e+001
      vertex -4.600000e+001 -3.024699e+001  3.443647e+001
      vertex -4.700000e+001 -1.524699e+001  3.443647e+001
    endloop
  endfacet
  facet normal  0.000000e+000  0.000000e+000 -1.000000e+000
    outer loop
      vertex -4.700000e+001 -1.524699e+001  3.443647e+001
      vertex -4.600000e+001 -3.024699e+001  3.443647e+001
      vertex -4.700000e+001 -3.024699e+001  3.443647e+001
    endloop
  endfacet
  facet normal  0.000000e+000  0.000000e+000  1.000000e+000
    outer loop
      vertex -4.600000e+001 -3.024699e+001  4.243647e+001
      vertex -4.600000e+001 -1.524699e+001  4.243647e+001
      vertex -4.700000e+001 -3.024699e+001  4.243647e+001
    endloop
  endfacet
  facet normal  0.000000e+000  0.000000e+000  1.000000e+000
    outer loop
      vertex -4.700000e+001 -3.024699e+001  4.243647e+001
      vertex -4.600000e+001 -1.524699e+001  4.243647e+001
      vertex -4.700000e+001 -1.524699e+001  4.243647e+001
    endloop
  endfacet
  facet normal  1.000000e+000  0.000000e+000  0.000000e+000
    outer loop
      vertex -4.600000e+001 -1.524699e+001  3.443647e+001
      vertex -4.600000e+001 -1.524699e+001  4.243647e+001
      vertex -4.600000e+001 -3.024699e+001  3.443647e+001
    endloop
  endfacet
  facet normal  1.000000e+000  0.000000e+000  0.000000e+000
    outer loop
      vertex -4.600000e+001 -3.024699e+001  3.443647e+001
      vertex -4.600000e+001 -1.524699e+001  4.243647e+001
      vertex -4.600000e+001 -3.024699e+001  4.243647e+001
    endloop
  endfacet
  facet normal  0.000000e+000 -1.000000e+000  0.000000e+000
    outer loop
      vertex -4.600000e+001 -3.024699e+001  4.243647e+001
      vertex -4.700000e+001 -3.024699e+001  4.243647e+001
      vertex -4.600000e+001 -3.024699e+001  3.443647e+001
    endloop
  endfacet
  facet normal  0.000000e+000 -1.000000e+000  0.000000e+000
    outer loop
      vertex -4.600000e+001 -3.024699e+001  3.443647e+001
      vertex -4.700000e+001 -3.024699e+001  4.243647e+001
      vertex -4.700000e+001 -3.024699e+001  3.443647e+001
    endloop
  endfacet
  facet normal  0.000000e+000 -1.000000e+000  -0.000000e+000
    outer loop
      vertex -4.600000e+001 -5.703865e+001  3.502172e+001
      vertex -4.600000e+001 -5.703865e+001  4.502172e+001
      vertex -4.700000e+001 -5.703865e+001  3.502172e+001
    endloop
  endfacet
  facet normal  0.000000e+000 -1.000000e+000  0.000000e+000
    outer loop
      vertex -4.700000e+001 -5.703865e+001  3.502172e+001
      vertex -4.600000e+001 -5.703865e+001  4.502172e+001
      vertex -4.700000e+001 -5.703865e+001  4.502172e+001
    endloop
  endfacet
  facet normal  1.000000e+000  0.000000e+000  0.000000e+000
    outer loop
      vertex -4.600000e+001 -4.203865e+001  3.502172e+001
      vertex -4.600000e+001 -4.203865e+001  4.502172e+001
      vertex -4.600000e+001 -5.703865e+001  3.502172e+001
    endloop
  endfacet
  facet normal  1.000000e+000  0.000000e+000  0.000000e+000
    outer loop
      vertex -4.600000e+001 -5.703865e+001  3.502172e+001
      vertex -4.600000e+001 -4.203865e+001  4.502172e+001
      vertex -4.600000e+001 -5.703865e+001  4.502172e+001
    endloop
  endfacet
  facet normal  0.000000e+000  0.000000e+000 -1.000000e+000
    outer loop
      vertex -4.600000e+001 -5.703865e+001  3.502172e+001
      vertex -4.700000e+001 -5.703865e+001  3.502172e+001
      vertex -4.600000e+001 -4.203865e+001  3.502172e+001
    endloop
  endfacet
  facet normal  -0.000000e+000  0.000000e+000 -1.000000e+000
    outer loop
      vertex -4.600000e+001 -4.203865e+001  3.502172e+001
      vertex -4.700000e+001 -5.703865e+001  3.502172e+001
      vertex -4.700000e+001 -4.203865e+001  3.502172e+001
    endloop
  endfacet
  facet normal  -0.000000e+000  0.000000e+000  1.000000e+000
    outer loop
      vertex -4.600000e+001 -4.203865e+001  4.502172e+001
      vertex -4.700000e+001 -4.203865e+001  4.502172e+001
      vertex -4.600000e+001 -5.703865e+001  4.502172e+001
    endloop
  endfacet
  facet normal  0.000000e+000  0.000000e+000  1.000000e+000
    outer loop
      vertex -4.600000e+001 -5.703865e+001  4.502172e+001
      vertex -4.700000e+001 -4.203865e+001  4.502172e+001
      vertex -4.700000e+001 -5.703865e+001  4.502172e+001
    endloop
  endfacet
  facet normal  0.000000e+000  1.000000e+000  -0.000000e+000
    outer loop
      vertex -4.600000e+001 -4.203865e+001  4.502172e+001
      vertex -4.600000e+001 -4.203865e+001  3.502172e+001
      vertex -4.700000e+001 -4.203865e+001  4.502172e+001
    endloop
  endfacet
  facet normal  0.000000e+000  1.000000e+000  0.000000e+000
    outer loop
      vertex -4.700000e+001 -4.203865e+001  4.502172e+001
      vertex -4.600000e+001 -4.203865e+001  3.502172e+001
      vertex -4.700000e+001 -4.203865e+001  3.502172e+001
    endloop
  endfacet
  facet normal  0.000000e+000 -1.000000e+000  -0.000000e+000
    outer loop
      vertex -4.600000e+001 -9.608486e+001  3.430023e+001
      vertex -4.600000e+001 -9.608486e+001  4.430023e+001
      vertex -4.700000e+001 -9.608486e+001  3.430023e+001
    endloop
  endfacet
  facet normal  0.000000e+000 -1.000000e+000  0.000000e+000
    outer loop
      vertex -4.700000e+001 -9.608486e+001  3.430023e+001
      vertex -4.600000e+001 -9.608486e+001  4.430023e+001
      vertex -4.700000e+001 -9.608486e+001  4.430023e+001
    endloop
  endfacet
  facet normal  1.000000e+000  0.000000e+000  0.000000e+000
    outer loop
      vertex -4.600000e+001 -8.108486e+001  3.430023e+001
      vertex -4.600000e+001 -8.108486e+001  4.430023e+001
      vertex -4.600000e+001 -9.608486e+001  3.430023e+001
    endloop
  endfacet
  facet normal  1.000000e+000  0.000000e+000  0.000000e+000
    outer loop
      vertex -4.600000e+001 -9.608486e+001  3.430023e+001
      vertex -4.600000e+001 -8.108486e+001  4.430023e+001
      vertex -4.600000e+001 -9.608486e+001  4.430023e+001
    endloop
  endfacet
  facet normal  0.000000e+000  0.000000e+000 -1.000000e+000
    outer loop
      vertex -4.600000e+001 -9.608486e+001  3.430023e+001
      vertex -4.700000e+001 -9.608486e+001  3.430023e+001
      vertex -4.600000e+001 -8.108486e+001  3.430023e+001
    endloop
  endfacet
  facet normal  -0.000000e+000  0.000000e+000 -1.000000e+000
    outer loop
      vertex -4.600000e+001 -8.108486e+001  3.430023e+001
      vertex -4.700000e+001 -9.608486e+001  3.430023e+001
      vertex -4.700000e+001 -8.108486e+001  3.430023e+001
    endloop
  endfacet
  facet normal  -0.000000e+000  0.000000e+000  1.000000e+000
    outer loop
      vertex -4.600000e+001 -8.108486e+001  4.430023e+001
      vertex -4.700000e+001 -8.108486e+001  4.430023e+001
      vertex -4.600000e+001 -9.608486e+001  4.430023e+001
    endloop
  endfacet
  facet normal  0.000000e+000  0.000000e+000  1.000000e+000
    outer loop
      vertex -4.600000e+001 -9.608486e+001  4.430023e+001
      vertex -4.700000e+001 -8.108486e+001  4.430023e+001
      vertex -4.700000e+001 -9.608486e+001  4.430023e+001
    endloop
  endfacet
  facet normal  0.000000e+000  1.000000e+000  -0.000000e+000
    outer loop
      vertex -4.600000e+001 -8.108486e+001  4.430023e+001
      vertex -4.600000e+001 -8.108486e+001  3.430023e+001
      vertex -4.700000e+001 -8.108486e+001  4.430023e+001
    endloop
  endfacet
  facet normal  0.000000e+000  1.000000e+000  0.000000e+000
    outer loop
      vertex -4.700000e+001 -8.108486e+001  4.430023e+001
      vertex -4.600000e+001 -8.108486e+001  3.430023e+001
      vertex -4.700000e+001 -8.108486e+001  3.430023e+001
    endloop
  endfacet
  facet normal  0.000000e+000 -1.000000e+000  -0.000000e+000
    outer loop
      vertex -4.600000e+001 -1.384813e+002  3.424135e+001
      vertex -4.600000e+001 -1.384813e+002  3.999256e+001
      vertex -4.700000e+001 -1.384813e+002  3.424135e+001
    endloop
  endfacet
  facet normal  0.000000e+000 -1.000000e+000  0.000000e+000
    outer loop
      vertex -4.700000e+001 -1.384813e+002  3.424135e+001
      vertex -4.600000e+001 -1.384813e+002  3.999256e+001
      vertex -4.700000e+001 -1.384813e+002  3.999256e+001
    endloop
  endfacet
  facet normal  1.000000e+000  0.000000e+000  0.000000e+000
    outer loop
      vertex -4.600000e+001 -1.234813e+002  3.424135e+001
      vertex -4.600000e+001 -1.234813e+002  3.999256e+001
      vertex -4.600000e+001 -1.384813e+002  3.424135e+001
    endloop
  endfacet
  facet normal  1.000000e+000  0.000000e+000  0.000000e+000
    outer loop
      vertex -4.600000e+001 -1.384813e+002  3.424135e+001
      vertex -4.600000e+001 -1.234813e+002  3.999256e+001
      vertex -4.600000e+001 -1.384813e+002  3.999256e+001
    endloop
  endfacet
  facet normal  0.000000e+000  0.000000e+000 -1.000000e+000
    outer loop
      vertex -4.600000e+001 -1.384813e+002  3.424135e+001
      vertex -4.700000e+001 -1.384813e+002  3.424135e+001
      vertex -4.600000e+001 -1.234813e+002  3.424135e+001
    endloop
  endfacet
  facet normal  -0.000000e+000  0.000000e+000 -1.000000e+000
    outer loop
      vertex -4.600000e+001 -1.234813e+002  3.424135e+001
      vertex -4.700000e+001 -1.384813e+002  3.424135e+001
      vertex -4.700000e+001 -1.234813e+002  3.424135e+001
    endloop
  endfacet
  facet normal  -0.000000e+000  0.000000e+000  1.000000e+000
    outer loop
      vertex -4.600000e+001 -1.234813e+002  3.999256e+001
      vertex -4.700000e+001 -1.234813e+002  3.999256e+001
      vertex -4.600000e+001 -1.384813e+002  3.999256e+001
    endloop
  endfacet
  facet normal  0.000000e+000  0.000000e+000  1.000000e+000
    outer loop
      vertex -4.600000e+001 -1.384813e+002  3.999256e+001
      vertex -4.700000e+001 -1.234813e+002  3.999256e+001
      vertex -4.700000e+001 -1.384813e+002  3.999256e+001
    endloop
  endfacet
  facet normal  0.000000e+000  1.000000e+000  -0.000000e+000
    outer loop
      vertex -4.600000e+001 -1.234813e+002  3.999256e+001
      vertex -4.600000e+001 -1.234813e+002  3.424135e+001
      vertex -4.700000e+001 -1.234813e+002  3.999256e+001
    endloop
  endfacet
  facet normal  0.000000e+000  1.000000e+000  0.000000e+000
    outer loop
      vertex -4.700000e+001 -1.234813e+002  3.999256e+001
      vertex -4.600000e+001 -1.234813e+002  3.424135e+001
      vertex -4.700000e+001 -1.234813e+002  3.424135e+001
    endloop
  endfacet
endsolid CATIA STL
