solid CATIA STL
  facet normal  1.000000e+000  0.000000e+000  0.000000e+000
    outer loop
      vertex -4.500000e+001 -1.403712e+002  2.200702e+001
      vertex -4.500000e+001 -1.403712e+002  1.750702e+001
      vertex -4.500000e+001 -1.366272e+002  1.750702e+001
    endloop
  endfacet
  facet normal  1.000000e+000  0.000000e+000  -0.000000e+000
    outer loop
      vertex -4.500000e+001 -1.403712e+002  2.200702e+001
      vertex -4.500000e+001 -1.366272e+002  1.750702e+001
      vertex -4.500000e+001 -1.366272e+002  1.844116e+001
    endloop
  endfacet
  facet normal  1.000000e+000  0.000000e+000  -0.000000e+000
    outer loop
      vertex -4.500000e+001 -1.403712e+002  2.200702e+001
      vertex -4.500000e+001 -1.366272e+002  1.844116e+001
      vertex -4.500000e+001 -1.360221e+002  1.990194e+001
    endloop
  endfacet
  facet normal  1.000000e+000  0.000000e+000  -0.000000e+000
    outer loop
      vertex -4.500000e+001 -1.403712e+002  2.200702e+001
      vertex -4.500000e+001 -1.360221e+002  1.990194e+001
      vertex -4.500000e+001 -1.345613e+002  2.050702e+001
    endloop
  endfacet
  facet normal  1.000000e+000  -0.000000e+000  0.000000e+000
    outer loop
      vertex -4.500000e+001 -1.258712e+002  2.200702e+001
      vertex -4.500000e+001 -1.403712e+002  2.200702e+001
      vertex -4.500000e+001 -1.345613e+002  2.050702e+001
    endloop
  endfacet
  facet normal  1.000000e+000  -0.000000e+000  0.000000e+000
    outer loop
      vertex -4.500000e+001 -1.258712e+002  2.200702e+001
      vertex -4.500000e+001 -1.345613e+002  2.050702e+001
      vertex -4.500000e+001 -1.331006e+002  1.990194e+001
    endloop
  endfacet
  facet normal  1.000000e+000  -0.000000e+000  0.000000e+000
    outer loop
      vertex -4.500000e+001 -1.258712e+002  2.200702e+001
      vertex -4.500000e+001 -1.331006e+002  1.990194e+001
      vertex -4.500000e+001 -1.324955e+002  1.844116e+001
    endloop
  endfacet
  facet normal  1.000000e+000  -0.000000e+000  0.000000e+000
    outer loop
      vertex -4.500000e+001 -1.258712e+002  2.200702e+001
      vertex -4.500000e+001 -1.324955e+002  1.844116e+001
      vertex -4.500000e+001 -1.324955e+002  1.750702e+001
    endloop
  endfacet
  facet normal  1.000000e+000  0.000000e+000  0.000000e+000
    outer loop
      vertex -4.500000e+001 -1.258712e+002  2.200702e+001
      vertex -4.500000e+001 -1.324955e+002  1.750702e+001
      vertex -4.500000e+001 -1.258712e+002  1.750702e+001
    endloop
  endfacet
  facet normal -1.000000e+000  -0.000000e+000  0.000000e+000
    outer loop
      vertex -4.600000e+001 -1.403712e+002  2.200702e+001
      vertex -4.600000e+001 -1.345613e+002  2.050702e+001
      vertex -4.600000e+001 -1.360221e+002  1.990194e+001
    endloop
  endfacet
  facet normal -1.000000e+000  -0.000000e+000  0.000000e+000
    outer loop
      vertex -4.600000e+001 -1.403712e+002  2.200702e+001
      vertex -4.600000e+001 -1.360221e+002  1.990194e+001
      vertex -4.600000e+001 -1.366272e+002  1.844116e+001
    endloop
  endfacet
  facet normal -1.000000e+000  -0.000000e+000  -0.000000e+000
    outer loop
      vertex -4.600000e+001 -1.403712e+002  2.200702e+001
      vertex -4.600000e+001 -1.366272e+002  1.844116e+001
      vertex -4.600000e+001 -1.366272e+002  1.750702e+001
    endloop
  endfacet
  facet normal -1.000000e+000  0.000000e+000  0.000000e+000
    outer loop
      vertex -4.600000e+001 -1.403712e+002  2.200702e+001
      vertex -4.600000e+001 -1.366272e+002  1.750702e+001
      vertex -4.600000e+001 -1.403712e+002  1.750702e+001
    endloop
  endfacet
  facet normal -1.000000e+000  0.000000e+000  0.000000e+000
    outer loop
      vertex -4.600000e+001 -1.258712e+002  2.200702e+001
      vertex -4.600000e+001 -1.258712e+002  1.750702e+001
      vertex -4.600000e+001 -1.324955e+002  1.750702e+001
    endloop
  endfacet
  facet normal -1.000000e+000  0.000000e+000  0.000000e+000
    outer loop
      vertex -4.600000e+001 -1.258712e+002  2.200702e+001
      vertex -4.600000e+001 -1.324955e+002  1.750702e+001
      vertex -4.600000e+001 -1.324955e+002  1.844116e+001
    endloop
  endfacet
  facet normal -1.000000e+000  0.000000e+000  0.000000e+000
    outer loop
      vertex -4.600000e+001 -1.258712e+002  2.200702e+001
      vertex -4.600000e+001 -1.324955e+002  1.844116e+001
      vertex -4.600000e+001 -1.331006e+002  1.990194e+001
    endloop
  endfacet
  facet normal -1.000000e+000  0.000000e+000  0.000000e+000
    outer loop
      vertex -4.600000e+001 -1.258712e+002  2.200702e+001
      vertex -4.600000e+001 -1.331006e+002  1.990194e+001
      vertex -4.600000e+001 -1.345613e+002  2.050702e+001
    endloop
  endfacet
  facet normal -1.000000e+000  0.000000e+000  0.000000e+000
    outer loop
      vertex -4.600000e+001 -1.258712e+002  2.200702e+001
      vertex -4.600000e+001 -1.345613e+002  2.050702e+001
      vertex -4.600000e+001 -1.403712e+002  2.200702e+001
    endloop
  endfacet
  facet normal  9.747980e-001  0.000000e+000  2.230889e-001
    outer loop
      vertex -4.500000e+001 -1.403712e+002  2.200702e+001
      vertex -4.500000e+001 -1.258712e+002  2.200702e+001
      vertex -4.504977e+001 -1.403214e+002  2.222449e+001
    endloop
  endfacet
  facet normal  9.238769e-001  2.577224e-003  3.826810e-001
    outer loop
      vertex -4.504977e+001 -1.403214e+002  2.222449e+001
      vertex -4.500000e+001 -1.258712e+002  2.200702e+001
      vertex -4.514645e+001 -1.258712e+002  2.236057e+001
    endloop
  endfacet
  facet normal  8.105766e-001 -9.201056e-005  5.856327e-001
    outer loop
      vertex -4.504977e+001 -1.403214e+002  2.222449e+001
      vertex -4.514645e+001 -1.258712e+002  2.236057e+001
      vertex -4.515208e+001 -1.402191e+002  2.236611e+001
    endloop
  endfacet
  facet normal  4.472228e-001  1.697853e-004  8.944226e-001
    outer loop
      vertex -4.515208e+001 -1.402191e+002  2.236611e+001
      vertex -4.514645e+001 -1.258712e+002  2.236057e+001
      vertex -4.542162e+001 -1.399495e+002  2.250084e+001
    endloop
  endfacet
  facet normal  3.826817e-001  1.724786e-003  9.238787e-001
    outer loop
      vertex -4.542162e+001 -1.399495e+002  2.250084e+001
      vertex -4.514645e+001 -1.258712e+002  2.236057e+001
      vertex -4.550000e+001 -1.258712e+002  2.250702e+001
    endloop
  endfacet
  facet normal  7.862761e-002  0.000000e+000  9.969040e-001
    outer loop
      vertex -4.542162e+001 -1.399495e+002  2.250084e+001
      vertex -4.550000e+001 -1.258712e+002  2.250702e+001
      vertex -4.550000e+001 -1.398712e+002  2.250702e+001
    endloop
  endfacet
  facet normal -9.238800e-001  0.000000e+000  3.826822e-001
    outer loop
      vertex -4.585355e+001 -1.258712e+002  2.236057e+001
      vertex -4.600000e+001 -1.258712e+002  2.200702e+001
      vertex -4.600000e+001 -1.403712e+002  2.200702e+001
    endloop
  endfacet
  facet normal -9.750085e-001  4.431305e-003  2.221229e-001
    outer loop
      vertex -4.585355e+001 -1.258712e+002  2.236057e+001
      vertex -4.600000e+001 -1.403712e+002  2.200702e+001
      vertex -4.595023e+001 -1.403214e+002  2.222449e+001
    endloop
  endfacet
  facet normal -8.105766e-001 -9.201068e-005  5.856326e-001
    outer loop
      vertex -4.585355e+001 -1.258712e+002  2.236057e+001
      vertex -4.595023e+001 -1.403214e+002  2.222449e+001
      vertex -4.584792e+001 -1.402191e+002  2.236611e+001
    endloop
  endfacet
  facet normal -4.472228e-001  1.697853e-004  8.944226e-001
    outer loop
      vertex -4.585355e+001 -1.258712e+002  2.236057e+001
      vertex -4.584792e+001 -1.402191e+002  2.236611e+001
      vertex -4.557838e+001 -1.399495e+002  2.250084e+001
    endloop
  endfacet
  facet normal -8.680078e-002  8.228554e-003  9.961917e-001
    outer loop
      vertex -4.585355e+001 -1.258712e+002  2.236057e+001
      vertex -4.557838e+001 -1.399495e+002  2.250084e+001
      vertex -4.550000e+001 -1.398712e+002  2.250702e+001
    endloop
  endfacet
  facet normal -3.826822e-001  0.000000e+000  9.238800e-001
    outer loop
      vertex -4.585355e+001 -1.258712e+002  2.236057e+001
      vertex -4.550000e+001 -1.398712e+002  2.250702e+001
      vertex -4.550000e+001 -1.258712e+002  2.250702e+001
    endloop
  endfacet
  facet normal  0.000000e+000 -9.747944e-001  2.231052e-001
    outer loop
      vertex -4.600000e+001 -1.403712e+002  2.200702e+001
      vertex -4.500000e+001 -1.403712e+002  2.200702e+001
      vertex -4.595023e+001 -1.403214e+002  2.222449e+001
    endloop
  endfacet
  facet normal  0.000000e+000 -9.747943e-001  2.231052e-001
    outer loop
      vertex -4.595023e+001 -1.403214e+002  2.222449e+001
      vertex -4.500000e+001 -1.403712e+002  2.200702e+001
      vertex -4.504977e+001 -1.403214e+002  2.222449e+001
    endloop
  endfacet
  facet normal  0.000000e+000 -8.106392e-001  5.855460e-001
    outer loop
      vertex -4.595023e+001 -1.403214e+002  2.222449e+001
      vertex -4.504977e+001 -1.403214e+002  2.222449e+001
      vertex -4.584792e+001 -1.402191e+002  2.236611e+001
    endloop
  endfacet
  facet normal  0.000000e+000 -8.106392e-001  5.855459e-001
    outer loop
      vertex -4.584792e+001 -1.402191e+002  2.236611e+001
      vertex -4.504977e+001 -1.403214e+002  2.222449e+001
      vertex -4.515208e+001 -1.402191e+002  2.236611e+001
    endloop
  endfacet
  facet normal  0.000000e+000 -4.470870e-001  8.944905e-001
    outer loop
      vertex -4.584792e+001 -1.402191e+002  2.236611e+001
      vertex -4.515208e+001 -1.402191e+002  2.236611e+001
      vertex -4.557838e+001 -1.399495e+002  2.250084e+001
    endloop
  endfacet
  facet normal  0.000000e+000 -4.470870e-001  8.944905e-001
    outer loop
      vertex -4.557838e+001 -1.399495e+002  2.250084e+001
      vertex -4.515208e+001 -1.402191e+002  2.236611e+001
      vertex -4.542162e+001 -1.399495e+002  2.250084e+001
    endloop
  endfacet
  facet normal  0.000000e+000 -7.862002e-002  9.969047e-001
    outer loop
      vertex -4.557838e+001 -1.399495e+002  2.250084e+001
      vertex -4.542162e+001 -1.399495e+002  2.250084e+001
      vertex -4.550000e+001 -1.398712e+002  2.250702e+001
    endloop
  endfacet
  facet normal  0.000000e+000 -1.000000e+000  -0.000000e+000
    outer loop
      vertex -4.500000e+001 -1.403712e+002  1.750702e+001
      vertex -4.500000e+001 -1.403712e+002  2.200702e+001
      vertex -4.600000e+001 -1.403712e+002  1.750702e+001
    endloop
  endfacet
  facet normal  0.000000e+000 -1.000000e+000  0.000000e+000
    outer loop
      vertex -4.600000e+001 -1.403712e+002  1.750702e+001
      vertex -4.500000e+001 -1.403712e+002  2.200702e+001
      vertex -4.600000e+001 -1.403712e+002  2.200702e+001
    endloop
  endfacet
  facet normal  0.000000e+000  0.000000e+000 -1.000000e+000
    outer loop
      vertex -4.500000e+001 -1.403712e+002  1.750702e+001
      vertex -4.600000e+001 -1.403712e+002  1.750702e+001
      vertex -4.500000e+001 -1.366272e+002  1.750702e+001
    endloop
  endfacet
  facet normal  -0.000000e+000  0.000000e+000 -1.000000e+000
    outer loop
      vertex -4.500000e+001 -1.366272e+002  1.750702e+001
      vertex -4.600000e+001 -1.403712e+002  1.750702e+001
      vertex -4.600000e+001 -1.366272e+002  1.750702e+001
    endloop
  endfacet
  facet normal  0.000000e+000  1.000000e+000  0.000000e+000
    outer loop
      vertex -4.600000e+001 -1.366272e+002  1.844116e+001
      vertex -4.500000e+001 -1.366272e+002  1.844116e+001
      vertex -4.600000e+001 -1.366272e+002  1.750702e+001
    endloop
  endfacet
  facet normal  0.000000e+000  1.000000e+000  0.000000e+000
    outer loop
      vertex -4.600000e+001 -1.366272e+002  1.750702e+001
      vertex -4.500000e+001 -1.366272e+002  1.844116e+001
      vertex -4.500000e+001 -1.366272e+002  1.750702e+001
    endloop
  endfacet
  facet normal  0.000000e+000 -3.826828e-001 -9.238797e-001
    outer loop
      vertex -4.500000e+001 -1.345613e+002  2.050702e+001
      vertex -4.600000e+001 -1.331006e+002  1.990194e+001
      vertex -4.500000e+001 -1.331006e+002  1.990194e+001
    endloop
  endfacet
  facet normal  -0.000000e+000 -9.238806e-001 -3.826808e-001
    outer loop
      vertex -4.500000e+001 -1.331006e+002  1.990194e+001
      vertex -4.600000e+001 -1.331006e+002  1.990194e+001
      vertex -4.600000e+001 -1.324955e+002  1.844116e+001
    endloop
  endfacet
  facet normal  0.000000e+000 -9.238806e-001 -3.826808e-001
    outer loop
      vertex -4.500000e+001 -1.331006e+002  1.990194e+001
      vertex -4.600000e+001 -1.324955e+002  1.844116e+001
      vertex -4.500000e+001 -1.324955e+002  1.844116e+001
    endloop
  endfacet
  facet normal  -0.000000e+000 -3.826828e-001 -9.238797e-001
    outer loop
      vertex -4.600000e+001 -1.331006e+002  1.990194e+001
      vertex -4.500000e+001 -1.345613e+002  2.050702e+001
      vertex -4.600000e+001 -1.345613e+002  2.050702e+001
    endloop
  endfacet
  facet normal  0.000000e+000  3.826828e-001 -9.238797e-001
    outer loop
      vertex -4.600000e+001 -1.345613e+002  2.050702e+001
      vertex -4.500000e+001 -1.345613e+002  2.050702e+001
      vertex -4.500000e+001 -1.360221e+002  1.990194e+001
    endloop
  endfacet
  facet normal  0.000000e+000  3.826828e-001 -9.238797e-001
    outer loop
      vertex -4.600000e+001 -1.345613e+002  2.050702e+001
      vertex -4.500000e+001 -1.360221e+002  1.990194e+001
      vertex -4.600000e+001 -1.360221e+002  1.990194e+001
    endloop
  endfacet
  facet normal  0.000000e+000  9.238806e-001 -3.826808e-001
    outer loop
      vertex -4.600000e+001 -1.360221e+002  1.990194e+001
      vertex -4.500000e+001 -1.360221e+002  1.990194e+001
      vertex -4.500000e+001 -1.366272e+002  1.844116e+001
    endloop
  endfacet
  facet normal  0.000000e+000  9.238806e-001 -3.826808e-001
    outer loop
      vertex -4.600000e+001 -1.360221e+002  1.990194e+001
      vertex -4.500000e+001 -1.366272e+002  1.844116e+001
      vertex -4.600000e+001 -1.366272e+002  1.844116e+001
    endloop
  endfacet
  facet normal  0.000000e+000 -1.000000e+000  0.000000e+000
    outer loop
      vertex -4.600000e+001 -1.324955e+002  1.750702e+001
      vertex -4.500000e+001 -1.324955e+002  1.750702e+001
      vertex -4.600000e+001 -1.324955e+002  1.844116e+001
    endloop
  endfacet
  facet normal  0.000000e+000 -1.000000e+000  0.000000e+000
    outer loop
      vertex -4.600000e+001 -1.324955e+002  1.844116e+001
      vertex -4.500000e+001 -1.324955e+002  1.750702e+001
      vertex -4.500000e+001 -1.324955e+002  1.844116e+001
    endloop
  endfacet
  facet normal  0.000000e+000  0.000000e+000 -1.000000e+000
    outer loop
      vertex -4.500000e+001 -1.324955e+002  1.750702e+001
      vertex -4.600000e+001 -1.324955e+002  1.750702e+001
      vertex -4.500000e+001 -1.258712e+002  1.750702e+001
    endloop
  endfacet
  facet normal  -0.000000e+000  0.000000e+000 -1.000000e+000
    outer loop
      vertex -4.500000e+001 -1.258712e+002  1.750702e+001
      vertex -4.600000e+001 -1.324955e+002  1.750702e+001
      vertex -4.600000e+001 -1.258712e+002  1.750702e+001
    endloop
  endfacet
  facet normal  2.774932e-001  7.280887e-001  6.268050e-001
    outer loop
      vertex -4.550000e+001 -1.254411e+002  2.226215e+001
      vertex -4.550000e+001 -1.255549e+002  2.239432e+001
      vertex -4.525000e+001 -1.256212e+002  2.236057e+001
    endloop
  endfacet
  facet normal  8.628570e-001  3.574058e-001  3.574058e-001
    outer loop
      vertex -4.500000e+001 -1.258712e+002  2.200702e+001
      vertex -4.514645e+001 -1.255176e+002  2.200702e+001
      vertex -4.514645e+001 -1.258712e+002  2.236057e+001
    endloop
  endfacet
  facet normal  8.628554e-001  3.574077e-001  3.574077e-001
    outer loop
      vertex -4.514645e+001 -1.258712e+002  2.236057e+001
      vertex -4.514645e+001 -1.255176e+002  2.200702e+001
      vertex -4.525000e+001 -1.256212e+002  2.236057e+001
    endloop
  endfacet
  facet normal  3.779633e-001  1.565581e-001  9.124874e-001
    outer loop
      vertex -4.514645e+001 -1.258712e+002  2.236057e+001
      vertex -4.525000e+001 -1.256212e+002  2.236057e+001
      vertex -4.550000e+001 -1.258712e+002  2.250702e+001
    endloop
  endfacet
  facet normal  2.112079e-001  3.281340e-001  9.207166e-001
    outer loop
      vertex -4.550000e+001 -1.258712e+002  2.250702e+001
      vertex -4.525000e+001 -1.256212e+002  2.236057e+001
      vertex -4.550000e+001 -1.255549e+002  2.239432e+001
    endloop
  endfacet
  facet normal  3.779259e-001  9.123973e-001  1.571729e-001
    outer loop
      vertex -4.550000e+001 -1.253712e+002  2.200702e+001
      vertex -4.550000e+001 -1.254000e+002  2.217434e+001
      vertex -4.514645e+001 -1.255176e+002  2.200702e+001
    endloop
  endfacet
  facet normal  4.487278e-001  8.091584e-001  3.793495e-001
    outer loop
      vertex -4.514645e+001 -1.255176e+002  2.200702e+001
      vertex -4.550000e+001 -1.254000e+002  2.217434e+001
      vertex -4.550000e+001 -1.254411e+002  2.226215e+001
    endloop
  endfacet
  facet normal  4.430038e-001  8.170338e-001  3.690574e-001
    outer loop
      vertex -4.514645e+001 -1.255176e+002  2.200702e+001
      vertex -4.550000e+001 -1.254411e+002  2.226215e+001
      vertex -4.525000e+001 -1.256212e+002  2.236057e+001
    endloop
  endfacet
  facet normal -2.774932e-001  7.280887e-001  6.268050e-001
    outer loop
      vertex -4.575000e+001 -1.256212e+002  2.236057e+001
      vertex -4.550000e+001 -1.255549e+002  2.239432e+001
      vertex -4.550000e+001 -1.254411e+002  2.226215e+001
    endloop
  endfacet
  facet normal -3.634858e-001  3.127447e-001  8.775356e-001
    outer loop
      vertex -4.550000e+001 -1.258712e+002  2.250702e+001
      vertex -4.550000e+001 -1.255549e+002  2.239432e+001
      vertex -4.585355e+001 -1.258712e+002  2.236057e+001
    endloop
  endfacet
  facet normal -1.496156e-001  6.197305e-002  9.868001e-001
    outer loop
      vertex -4.585355e+001 -1.258712e+002  2.236057e+001
      vertex -4.550000e+001 -1.255549e+002  2.239432e+001
      vertex -4.575000e+001 -1.256212e+002  2.236057e+001
    endloop
  endfacet
  facet normal -8.628561e-001  3.574080e-001  3.574054e-001
    outer loop
      vertex -4.585355e+001 -1.258712e+002  2.236057e+001
      vertex -4.575000e+001 -1.256212e+002  2.236057e+001
      vertex -4.600000e+001 -1.258712e+002  2.200702e+001
    endloop
  endfacet
  facet normal -8.628565e-001  3.574056e-001  3.574074e-001
    outer loop
      vertex -4.600000e+001 -1.258712e+002  2.200702e+001
      vertex -4.575000e+001 -1.256212e+002  2.236057e+001
      vertex -4.585355e+001 -1.255176e+002  2.200702e+001
    endloop
  endfacet
  facet normal -1.000000e+000  0.000000e+000  0.000000e+000
    outer loop
      vertex -4.550000e+001 -1.254000e+002  2.217434e+001
      vertex -4.550000e+001 -1.253712e+002  2.200702e+001
      vertex -4.550000e+001 -1.254411e+002  2.226215e+001
    endloop
  endfacet
  facet normal -3.709532e-001  8.955636e-001  2.456816e-001
    outer loop
      vertex -4.550000e+001 -1.254411e+002  2.226215e+001
      vertex -4.550000e+001 -1.253712e+002  2.200702e+001
      vertex -4.585355e+001 -1.255176e+002  2.200702e+001
    endloop
  endfacet
  facet normal -4.430037e-001  8.170338e-001  3.690574e-001
    outer loop
      vertex -4.550000e+001 -1.254411e+002  2.226215e+001
      vertex -4.585355e+001 -1.255176e+002  2.200702e+001
      vertex -4.575000e+001 -1.256212e+002  2.236057e+001
    endloop
  endfacet
  facet normal  9.238800e-001  3.826822e-001  0.000000e+000
    outer loop
      vertex -4.514645e+001 -1.255176e+002  2.200702e+001
      vertex -4.500000e+001 -1.258712e+002  2.200702e+001
      vertex -4.500000e+001 -1.258712e+002  1.750702e+001
    endloop
  endfacet
  facet normal  9.754114e-001  2.199169e-001  1.446509e-002
    outer loop
      vertex -4.514645e+001 -1.255176e+002  2.200702e+001
      vertex -4.500000e+001 -1.258712e+002  1.750702e+001
      vertex -4.504977e+001 -1.256537e+002  1.755679e+001
    endloop
  endfacet
  facet normal  8.105003e-001  5.857382e-001 -3.033968e-004
    outer loop
      vertex -4.514645e+001 -1.255176e+002  2.200702e+001
      vertex -4.504977e+001 -1.256537e+002  1.755679e+001
      vertex -4.515208e+001 -1.255121e+002  1.765909e+001
    endloop
  endfacet
  facet normal  4.475397e-001  8.942639e-001  5.596704e-004
    outer loop
      vertex -4.514645e+001 -1.255176e+002  2.200702e+001
      vertex -4.515208e+001 -1.255121e+002  1.765909e+001
      vertex -4.542162e+001 -1.253773e+002  1.792864e+001
    endloop
  endfacet
  facet normal  1.054526e-001  9.940558e-001  2.707314e-002
    outer loop
      vertex -4.514645e+001 -1.255176e+002  2.200702e+001
      vertex -4.542162e+001 -1.253773e+002  1.792864e+001
      vertex -4.550000e+001 -1.253712e+002  1.800702e+001
    endloop
  endfacet
  facet normal  3.826822e-001  9.238800e-001  -0.000000e+000
    outer loop
      vertex -4.514645e+001 -1.255176e+002  2.200702e+001
      vertex -4.550000e+001 -1.253712e+002  1.800702e+001
      vertex -4.550000e+001 -1.253712e+002  2.200702e+001
    endloop
  endfacet
  facet normal -9.747985e-001  2.230871e-001  0.000000e+000
    outer loop
      vertex -4.600000e+001 -1.258712e+002  1.750702e+001
      vertex -4.600000e+001 -1.258712e+002  2.200702e+001
      vertex -4.595023e+001 -1.256537e+002  1.755679e+001
    endloop
  endfacet
  facet normal -9.238477e-001  3.826689e-001  8.368340e-003
    outer loop
      vertex -4.595023e+001 -1.256537e+002  1.755679e+001
      vertex -4.600000e+001 -1.258712e+002  2.200702e+001
      vertex -4.585355e+001 -1.255176e+002  2.200702e+001
    endloop
  endfacet
  facet normal -8.105003e-001  5.857381e-001 -3.033970e-004
    outer loop
      vertex -4.595023e+001 -1.256537e+002  1.755679e+001
      vertex -4.585355e+001 -1.255176e+002  2.200702e+001
      vertex -4.584792e+001 -1.255121e+002  1.765909e+001
    endloop
  endfacet
  facet normal -4.475397e-001  8.942639e-001  5.596704e-004
    outer loop
      vertex -4.584792e+001 -1.255121e+002  1.765909e+001
      vertex -4.585355e+001 -1.255176e+002  2.200702e+001
      vertex -4.557838e+001 -1.253773e+002  1.792864e+001
    endloop
  endfacet
  facet normal -3.826754e-001  9.238636e-001  5.954219e-003
    outer loop
      vertex -4.557838e+001 -1.253773e+002  1.792864e+001
      vertex -4.585355e+001 -1.255176e+002  2.200702e+001
      vertex -4.550000e+001 -1.253712e+002  2.200702e+001
    endloop
  endfacet
  facet normal -7.860351e-002  9.969060e-001  0.000000e+000
    outer loop
      vertex -4.557838e+001 -1.253773e+002  1.792864e+001
      vertex -4.550000e+001 -1.253712e+002  2.200702e+001
      vertex -4.550000e+001 -1.253712e+002  1.800702e+001
    endloop
  endfacet
  facet normal  0.000000e+000  2.230953e-001 -9.747967e-001
    outer loop
      vertex -4.500000e+001 -1.258712e+002  1.750702e+001
      vertex -4.600000e+001 -1.258712e+002  1.750702e+001
      vertex -4.504977e+001 -1.256537e+002  1.755679e+001
    endloop
  endfacet
  facet normal  0.000000e+000  2.230952e-001 -9.747967e-001
    outer loop
      vertex -4.504977e+001 -1.256537e+002  1.755679e+001
      vertex -4.600000e+001 -1.258712e+002  1.750702e+001
      vertex -4.595023e+001 -1.256537e+002  1.755679e+001
    endloop
  endfacet
  facet normal  0.000000e+000  5.855798e-001 -8.106148e-001
    outer loop
      vertex -4.504977e+001 -1.256537e+002  1.755679e+001
      vertex -4.595023e+001 -1.256537e+002  1.755679e+001
      vertex -4.515208e+001 -1.255121e+002  1.765909e+001
    endloop
  endfacet
  facet normal  0.000000e+000  5.855799e-001 -8.106148e-001
    outer loop
      vertex -4.515208e+001 -1.255121e+002  1.765909e+001
      vertex -4.595023e+001 -1.256537e+002  1.755679e+001
      vertex -4.584792e+001 -1.255121e+002  1.765909e+001
    endloop
  endfacet
  facet normal  0.000000e+000  8.944880e-001 -4.470920e-001
    outer loop
      vertex -4.515208e+001 -1.255121e+002  1.765909e+001
      vertex -4.584792e+001 -1.255121e+002  1.765909e+001
      vertex -4.542162e+001 -1.253773e+002  1.792864e+001
    endloop
  endfacet
  facet normal  0.000000e+000  8.944880e-001 -4.470921e-001
    outer loop
      vertex -4.542162e+001 -1.253773e+002  1.792864e+001
      vertex -4.584792e+001 -1.255121e+002  1.765909e+001
      vertex -4.557838e+001 -1.253773e+002  1.792864e+001
    endloop
  endfacet
  facet normal  0.000000e+000  9.969061e-001 -7.860161e-002
    outer loop
      vertex -4.542162e+001 -1.253773e+002  1.792864e+001
      vertex -4.557838e+001 -1.253773e+002  1.792864e+001
      vertex -4.550000e+001 -1.253712e+002  1.800702e+001
    endloop
  endfacet
endsolid CATIA STL
