solid CATIA STL
  facet normal  0.000000e+000 -1.000000e+000  0.000000e+000
    outer loop
      vertex  6.147719e+001 -1.911904e+001  5.871931e+001
      vertex  1.631401e+001 -1.911904e+001  6.952617e+001
      vertex  6.076212e+001 -1.911904e+001  3.854253e+001
    endloop
  endfacet
  facet normal  0.000000e+000 -1.000000e+000  0.000000e+000
    outer loop
      vertex  6.076212e+001 -1.911904e+001  3.854253e+001
      vertex  1.631401e+001 -1.911904e+001  6.952617e+001
      vertex  7.818578e+000 -1.911904e+001  5.121112e+001
    endloop
  endfacet
  facet normal  0.000000e+000  1.000000e+000  -0.000000e+000
    outer loop
      vertex  6.147719e+001 -1.811904e+001  5.871931e+001
      vertex  6.076212e+001 -1.811904e+001  3.854253e+001
      vertex  1.631401e+001 -1.811904e+001  6.952617e+001
    endloop
  endfacet
  facet normal  0.000000e+000  1.000000e+000  0.000000e+000
    outer loop
      vertex  1.631401e+001 -1.811904e+001  6.952617e+001
      vertex  6.076212e+001 -1.811904e+001  3.854253e+001
      vertex  7.818578e+000 -1.811904e+001  5.121112e+001
    endloop
  endfacet
  facet normal  9.993726e-001  0.000000e+000 -3.541833e-002
    outer loop
      vertex  6.147719e+001 -1.911904e+001  5.871931e+001
      vertex  6.076212e+001 -1.911904e+001  3.854253e+001
      vertex  6.147719e+001 -1.811904e+001  5.871931e+001
    endloop
  endfacet
  facet normal  9.993726e-001  0.000000e+000 -3.541833e-002
    outer loop
      vertex  6.147719e+001 -1.811904e+001  5.871931e+001
      vertex  6.076212e+001 -1.911904e+001  3.854253e+001
      vertex  6.076212e+001 -1.811904e+001  3.854253e+001
    endloop
  endfacet
  facet normal  2.327152e-001  0.000000e+000  9.725450e-001
    outer loop
      vertex  1.631401e+001 -1.911904e+001  6.952617e+001
      vertex  6.147719e+001 -1.911904e+001  5.871931e+001
      vertex  1.631401e+001 -1.811904e+001  6.952617e+001
    endloop
  endfacet
  facet normal  2.327152e-001  0.000000e+000  9.725450e-001
    outer loop
      vertex  1.631401e+001 -1.811904e+001  6.952617e+001
      vertex  6.147719e+001 -1.911904e+001  5.871931e+001
      vertex  6.147719e+001 -1.811904e+001  5.871931e+001
    endloop
  endfacet
  facet normal -9.071599e-001  0.000000e+000  4.207861e-001
    outer loop
      vertex  7.818578e+000 -1.911904e+001  5.121112e+001
      vertex  1.631401e+001 -1.911904e+001  6.952617e+001
      vertex  7.818578e+000 -1.811904e+001  5.121112e+001
    endloop
  endfacet
  facet normal -9.071599e-001  0.000000e+000  4.207861e-001
    outer loop
      vertex  7.818578e+000 -1.811904e+001  5.121112e+001
      vertex  1.631401e+001 -1.911904e+001  6.952617e+001
      vertex  1.631401e+001 -1.811904e+001  6.952617e+001
    endloop
  endfacet
  facet normal -2.327152e-001  0.000000e+000 -9.725448e-001
    outer loop
      vertex  6.076212e+001 -1.911904e+001  3.854253e+001
      vertex  7.818578e+000 -1.911904e+001  5.121112e+001
      vertex  6.076212e+001 -1.811904e+001  3.854253e+001
    endloop
  endfacet
  facet normal -2.327152e-001  0.000000e+000 -9.725448e-001
    outer loop
      vertex  6.076212e+001 -1.811904e+001  3.854253e+001
      vertex  7.818578e+000 -1.911904e+001  5.121112e+001
      vertex  7.818578e+000 -1.811904e+001  5.121112e+001
    endloop
  endfacet
endsolid CATIA STL
