solid CATIA STL
  facet normal  9.038427e-001 -8.544078e-002 -4.192472e-001
    outer loop
      vertex  3.168909e+000 -7.276532e+001  5.232371e+001
      vertex  7.818578e+000 -1.811904e+001  5.121112e+001
      vertex  1.166434e+001 -7.276532e+001  7.063877e+001
    endloop
  endfacet
  facet normal  9.038426e-001 -8.544086e-002 -4.192474e-001
    outer loop
      vertex  1.166434e+001 -7.276532e+001  7.063877e+001
      vertex  7.818578e+000 -1.811904e+001  5.121112e+001
      vertex  1.631401e+001 -1.811904e+001  6.952617e+001
    endloop
  endfacet
  facet normal -9.038427e-001  8.544078e-002  4.192473e-001
    outer loop
      vertex  2.196364e+000 -7.276532e+001  5.255643e+001
      vertex  1.069180e+001 -7.276532e+001  7.087148e+001
      vertex  6.846033e+000 -1.811904e+001  5.144383e+001
    endloop
  endfacet
  facet normal -9.038427e-001  8.544078e-002  4.192473e-001
    outer loop
      vertex  6.846033e+000 -1.811904e+001  5.144383e+001
      vertex  1.069180e+001 -7.276532e+001  7.087148e+001
      vertex  1.534147e+001 -1.811904e+001  6.975889e+001
    endloop
  endfacet
  facet normal  0.000000e+000 -9.999999e-001  0.000000e+000
    outer loop
      vertex  3.168909e+000 -7.276532e+001  5.232371e+001
      vertex  1.166434e+001 -7.276532e+001  7.063877e+001
      vertex  2.196364e+000 -7.276532e+001  5.255643e+001
    endloop
  endfacet
  facet normal  0.000000e+000 -1.000000e+000  0.000000e+000
    outer loop
      vertex  2.196364e+000 -7.276532e+001  5.255643e+001
      vertex  1.166434e+001 -7.276532e+001  7.063877e+001
      vertex  1.069180e+001 -7.276532e+001  7.087148e+001
    endloop
  endfacet
  facet normal  2.327120e-001  4.101170e-007  9.725457e-001
    outer loop
      vertex  1.166434e+001 -7.276532e+001  7.063877e+001
      vertex  1.631401e+001 -1.811904e+001  6.952617e+001
      vertex  1.069180e+001 -7.276532e+001  7.087148e+001
    endloop
  endfacet
  facet normal  2.327190e-001 -3.490348e-007  9.725440e-001
    outer loop
      vertex  1.069180e+001 -7.276532e+001  7.087148e+001
      vertex  1.631401e+001 -1.811904e+001  6.952617e+001
      vertex  1.534147e+001 -1.811904e+001  6.975889e+001
    endloop
  endfacet
  facet normal  0.000000e+000  1.000000e+000  0.000000e+000
    outer loop
      vertex  1.631401e+001 -1.811904e+001  6.952617e+001
      vertex  7.818578e+000 -1.811904e+001  5.121112e+001
      vertex  1.534147e+001 -1.811904e+001  6.975889e+001
    endloop
  endfacet
  facet normal  0.000000e+000  9.999999e-001  0.000000e+000
    outer loop
      vertex  1.534147e+001 -1.811904e+001  6.975889e+001
      vertex  7.818578e+000 -1.811904e+001  5.121112e+001
      vertex  6.846033e+000 -1.811904e+001  5.144383e+001
    endloop
  endfacet
  facet normal -2.327156e-001  3.490353e-008 -9.725448e-001
    outer loop
      vertex  7.818578e+000 -1.811904e+001  5.121112e+001
      vertex  3.168909e+000 -7.276532e+001  5.232371e+001
      vertex  6.846033e+000 -1.811904e+001  5.144383e+001
    endloop
  endfacet
  facet normal -2.327156e-001  3.490353e-008 -9.725448e-001
    outer loop
      vertex  6.846033e+000 -1.811904e+001  5.144383e+001
      vertex  3.168909e+000 -7.276532e+001  5.232371e+001
      vertex  2.196364e+000 -7.276532e+001  5.255643e+001
    endloop
  endfacet
endsolid CATIA STL
