solid CATIA STL
  facet normal  0.000000e+000 -6.427877e-001  7.660444e-001
    outer loop
      vertex -7.898325e+001 -2.900834e+001  4.632256e+001
      vertex -7.998325e+001 -2.900834e+001  4.632256e+001
      vertex -7.898325e+001 -4.545061e+001  3.252586e+001
    endloop
  endfacet
  facet normal  0.000000e+000 -6.427877e-001  7.660444e-001
    outer loop
      vertex -7.898325e+001 -4.545061e+001  3.252586e+001
      vertex -7.998325e+001 -2.900834e+001  4.632256e+001
      vertex -7.998325e+001 -4.545061e+001  3.252586e+001
    endloop
  endfacet
  facet normal  0.000000e+000 -6.427843e-001  7.660473e-001
    outer loop
      vertex -7.898325e+001 -4.545061e+001  3.252586e+001
      vertex -7.998325e+001 -4.545061e+001  3.252586e+001
      vertex -7.907748e+001 -4.567517e+001  3.233743e+001
    endloop
  endfacet
  facet normal  0.000000e+000 -6.427842e-001  7.660472e-001
    outer loop
      vertex -7.907748e+001 -4.567517e+001  3.233743e+001
      vertex -7.998325e+001 -4.545061e+001  3.252586e+001
      vertex -7.988901e+001 -4.567517e+001  3.233743e+001
    endloop
  endfacet
  facet normal  0.000000e+000 -6.427903e-001  7.660423e-001
    outer loop
      vertex -7.907748e+001 -4.567517e+001  3.233743e+001
      vertex -7.988901e+001 -4.567517e+001  3.233743e+001
      vertex -7.925539e+001 -4.579269e+001  3.223882e+001
    endloop
  endfacet
  facet normal  0.000000e+000 -6.427902e-001  7.660423e-001
    outer loop
      vertex -7.925539e+001 -4.579269e+001  3.223882e+001
      vertex -7.988901e+001 -4.567517e+001  3.233743e+001
      vertex -7.971110e+001 -4.579269e+001  3.223882e+001
    endloop
  endfacet
  facet normal  0.000000e+000 -6.427878e-001  7.660442e-001
    outer loop
      vertex -7.925539e+001 -4.579269e+001  3.223882e+001
      vertex -7.971110e+001 -4.579269e+001  3.223882e+001
      vertex -7.948325e+001 -4.583492e+001  3.220338e+001
    endloop
  endfacet
  facet normal  0.000000e+000  8.155465e-001 -5.786915e-001
    outer loop
      vertex -7.998325e+001  1.675847e+002  3.790516e+001
      vertex -7.898325e+001  1.675847e+002  3.790516e+001
      vertex -7.998325e+001  1.582850e+002  2.479924e+001
    endloop
  endfacet
  facet normal  0.000000e+000  8.155465e-001 -5.786915e-001
    outer loop
      vertex -7.998325e+001  1.582850e+002  2.479924e+001
      vertex -7.898325e+001  1.675847e+002  3.790516e+001
      vertex -7.898325e+001  1.582850e+002  2.479924e+001
    endloop
  endfacet
  facet normal  0.000000e+000  8.155423e-001 -5.786974e-001
    outer loop
      vertex -7.998325e+001  1.582850e+002  2.479924e+001
      vertex -7.898325e+001  1.582850e+002  2.479924e+001
      vertex -7.997606e+001  1.582191e+002  2.470630e+001
    endloop
  endfacet
  facet normal  0.000000e+000  8.155423e-001 -5.786974e-001
    outer loop
      vertex -7.997606e+001  1.582191e+002  2.470630e+001
      vertex -7.898325e+001  1.582850e+002  2.479924e+001
      vertex -7.899043e+001  1.582191e+002  2.470630e+001
    endloop
  endfacet
  facet normal  0.000000e+000  8.155507e-001 -5.786857e-001
    outer loop
      vertex -7.997606e+001  1.582191e+002  2.470630e+001
      vertex -7.899043e+001  1.582191e+002  2.470630e+001
      vertex -7.983488e+001  1.580076e+002  2.440816e+001
    endloop
  endfacet
  facet normal  0.000000e+000  8.155507e-001 -5.786857e-001
    outer loop
      vertex -7.983488e+001  1.580076e+002  2.440816e+001
      vertex -7.899043e+001  1.582191e+002  2.470630e+001
      vertex -7.913161e+001  1.580076e+002  2.440816e+001
    endloop
  endfacet
  facet normal  0.000000e+000  8.155366e-001 -5.787055e-001
    outer loop
      vertex -7.983488e+001  1.580076e+002  2.440816e+001
      vertex -7.913161e+001  1.580076e+002  2.440816e+001
      vertex -7.963793e+001  1.579139e+002  2.427613e+001
    endloop
  endfacet
  facet normal  0.000000e+000  8.155366e-001 -5.787055e-001
    outer loop
      vertex -7.963793e+001  1.579139e+002  2.427613e+001
      vertex -7.913161e+001  1.580076e+002  2.440816e+001
      vertex -7.932855e+001  1.579139e+002  2.427613e+001
    endloop
  endfacet
  facet normal  0.000000e+000  8.155598e-001 -5.786728e-001
    outer loop
      vertex -7.963793e+001  1.579139e+002  2.427613e+001
      vertex -7.932855e+001  1.579139e+002  2.427613e+001
      vertex -7.948325e+001  1.578947e+002  2.424914e+001
    endloop
  endfacet
  facet normal -1.000000e+000  0.000000e+000  0.000000e+000
    outer loop
      vertex -7.998325e+001 -3.587292e+001  1.900473e+001
      vertex -7.998325e+001  1.582850e+002  2.479924e+001
      vertex -7.998325e+001  5.132476e+001  1.900473e+001
    endloop
  endfacet
  facet normal -1.000000e+000  0.000000e+000  0.000000e+000
    outer loop
      vertex -7.998325e+001  1.582850e+002  2.479924e+001
      vertex -7.998325e+001  1.096991e+002  1.900473e+001
      vertex -7.998325e+001  5.132476e+001  1.900473e+001
    endloop
  endfacet
  facet normal -1.000000e+000  0.000000e+000  -0.000000e+000
    outer loop
      vertex -7.998325e+001 -4.545061e+001  3.252586e+001
      vertex -7.998325e+001 -2.900834e+001  4.632256e+001
      vertex -7.998325e+001  1.623254e+002  4.632256e+001
    endloop
  endfacet
  facet normal -1.000000e+000  0.000000e+000  -0.000000e+000
    outer loop
      vertex -7.998325e+001 -4.545061e+001  3.252586e+001
      vertex -7.998325e+001  1.623254e+002  4.632256e+001
      vertex -7.998325e+001  1.676358e+002  4.101218e+001
    endloop
  endfacet
  facet normal -1.000000e+000  0.000000e+000  0.000000e+000
    outer loop
      vertex -7.998325e+001 -4.545061e+001  3.252586e+001
      vertex -7.998325e+001  1.676358e+002  4.101218e+001
      vertex -7.998325e+001  1.675847e+002  3.790516e+001
    endloop
  endfacet
  facet normal -1.000000e+000  0.000000e+000  0.000000e+000
    outer loop
      vertex -7.998325e+001 -4.545061e+001  3.252586e+001
      vertex -7.998325e+001  1.675847e+002  3.790516e+001
      vertex -7.998325e+001  1.582850e+002  2.479924e+001
    endloop
  endfacet
  facet normal -1.000000e+000  -0.000000e+000  0.000000e+000
    outer loop
      vertex -7.998325e+001 -4.545061e+001  3.252586e+001
      vertex -7.998325e+001  1.582850e+002  2.479924e+001
      vertex -7.998325e+001 -3.587292e+001  1.900473e+001
    endloop
  endfacet
  facet normal -1.566302e-001  1.169620e-001 -9.807073e-001
    outer loop
      vertex -7.948325e+001  1.097288e+002  1.850473e+001
      vertex -7.963793e+001  1.579139e+002  2.427613e+001
      vertex -7.948325e+001  1.578947e+002  2.424914e+001
    endloop
  endfacet
  facet normal -9.723660e-001  2.764735e-002 -2.318185e-001
    outer loop
      vertex -7.998325e+001  1.096991e+002  1.900473e+001
      vertex -7.998325e+001  1.582850e+002  2.479924e+001
      vertex -7.992874e+001  1.097126e+002  1.877772e+001
    endloop
  endfacet
  facet normal -9.964551e-001  9.247796e-003 -8.361672e-002
    outer loop
      vertex -7.992874e+001  1.097126e+002  1.877772e+001
      vertex -7.998325e+001  1.582850e+002  2.479924e+001
      vertex -7.997606e+001  1.582191e+002  2.470630e+001
    endloop
  endfacet
  facet normal -8.866749e-001  5.524500e-002 -4.590814e-001
    outer loop
      vertex -7.992874e+001  1.097126e+002  1.877772e+001
      vertex -7.997606e+001  1.582191e+002  2.470630e+001
      vertex -7.983488e+001  1.580076e+002  2.440816e+001
    endloop
  endfacet
  facet normal -5.208408e-001  9.987272e-002 -8.477914e-001
    outer loop
      vertex -7.963793e+001  1.579139e+002  2.427613e+001
      vertex -7.948325e+001  1.097288e+002  1.850473e+001
      vertex -7.983488e+001  1.580076e+002  2.440816e+001
    endloop
  endfacet
  facet normal -2.715216e-001  1.148655e-001 -9.555532e-001
    outer loop
      vertex -7.983488e+001  1.580076e+002  2.440816e+001
      vertex -7.948325e+001  1.097288e+002  1.850473e+001
      vertex -7.974458e+001  1.097244e+002  1.857846e+001
    endloop
  endfacet
  facet normal -7.343833e-001  8.000553e-002 -6.740032e-001
    outer loop
      vertex -7.983488e+001  1.580076e+002  2.440816e+001
      vertex -7.974458e+001  1.097244e+002  1.857846e+001
      vertex -7.992874e+001  1.097126e+002  1.877772e+001
    endloop
  endfacet
  facet normal -9.401159e-001  -0.000000e+000 -3.408551e-001
    outer loop
      vertex -7.998325e+001 -3.587292e+001  1.900473e+001
      vertex -7.998325e+001  5.132476e+001  1.900473e+001
      vertex -7.986707e+001 -3.603862e+001  1.868429e+001
    endloop
  endfacet
  facet normal -9.238800e-001  1.750081e-004 -3.826822e-001
    outer loop
      vertex -7.986707e+001 -3.603862e+001  1.868429e+001
      vertex -7.998325e+001  5.132476e+001  1.900473e+001
      vertex -7.983680e+001  5.132476e+001  1.865118e+001
    endloop
  endfacet
  facet normal -5.564577e-001 -1.221695e-004 -8.308760e-001
    outer loop
      vertex -7.986707e+001 -3.603862e+001  1.868429e+001
      vertex -7.983680e+001  5.132476e+001  1.865118e+001
      vertex -7.963339e+001 -3.611954e+001  1.852781e+001
    endloop
  endfacet
  facet normal -1.519128e-001  0.000000e+000 -9.883939e-001
    outer loop
      vertex -7.948325e+001 -3.613148e+001  1.850473e+001
      vertex -7.963339e+001 -3.611954e+001  1.852781e+001
      vertex -7.948325e+001  5.132476e+001  1.850473e+001
    endloop
  endfacet
  facet normal -3.826822e-001  4.132687e-004 -9.238799e-001
    outer loop
      vertex -7.948325e+001  5.132476e+001  1.850473e+001
      vertex -7.963339e+001 -3.611954e+001  1.852781e+001
      vertex -7.983680e+001  5.132476e+001  1.865118e+001
    endloop
  endfacet
  facet normal -9.238800e-001  -0.000000e+000 -3.826822e-001
    outer loop
      vertex -7.998325e+001  5.132476e+001  1.900473e+001
      vertex -7.998325e+001  1.096991e+002  1.900473e+001
      vertex -7.983680e+001  5.132476e+001  1.865118e+001
    endloop
  endfacet
  facet normal -9.723518e-001 -1.025036e-003 -2.335188e-001
    outer loop
      vertex -7.983680e+001  5.132476e+001  1.865118e+001
      vertex -7.998325e+001  1.096991e+002  1.900473e+001
      vertex -7.992874e+001  1.097126e+002  1.877772e+001
    endloop
  endfacet
  facet normal -7.343814e-001  3.146047e-004 -6.787370e-001
    outer loop
      vertex -7.983680e+001  5.132476e+001  1.865118e+001
      vertex -7.992874e+001  1.097126e+002  1.877772e+001
      vertex -7.974458e+001  1.097244e+002  1.857846e+001
    endloop
  endfacet
  facet normal -2.715236e-001 -7.695751e-004 -9.624315e-001
    outer loop
      vertex -7.974458e+001  1.097244e+002  1.857846e+001
      vertex -7.948325e+001  1.097288e+002  1.850473e+001
      vertex -7.983680e+001  5.132476e+001  1.865118e+001
    endloop
  endfacet
  facet normal -3.826822e-001  0.000000e+000 -9.238800e-001
    outer loop
      vertex -7.983680e+001  5.132476e+001  1.865118e+001
      vertex -7.948325e+001  1.097288e+002  1.850473e+001
      vertex -7.948325e+001  5.132476e+001  1.850473e+001
    endloop
  endfacet
  facet normal -9.517137e-001 -2.505071e-001 -1.774467e-001
    outer loop
      vertex -7.998325e+001 -4.545061e+001  3.252586e+001
      vertex -7.998325e+001 -3.587292e+001  1.900473e+001
      vertex -7.988901e+001 -4.567517e+001  3.233743e+001
    endloop
  endfacet
  facet normal -9.402249e-001 -2.775173e-001 -1.973860e-001
    outer loop
      vertex -7.988901e+001 -4.567517e+001  3.233743e+001
      vertex -7.998325e+001 -3.587292e+001  1.900473e+001
      vertex -7.986707e+001 -3.603862e+001  1.868429e+001
    endloop
  endfacet
  facet normal -6.517899e-001 -6.191148e-001 -4.380259e-001
    outer loop
      vertex -7.988901e+001 -4.567517e+001  3.233743e+001
      vertex -7.986707e+001 -3.603862e+001  1.868429e+001
      vertex -7.971110e+001 -4.579269e+001  3.223882e+001
    endloop
  endfacet
  facet normal -5.566678e-001 -6.773161e-001 -4.810031e-001
    outer loop
      vertex -7.971110e+001 -4.579269e+001  3.223882e+001
      vertex -7.986707e+001 -3.603862e+001  1.868429e+001
      vertex -7.963339e+001 -3.611954e+001  1.852781e+001
    endloop
  endfacet
  facet normal -2.343751e-001 -7.937282e-001 -5.613055e-001
    outer loop
      vertex -7.971110e+001 -4.579269e+001  3.223882e+001
      vertex -7.963339e+001 -3.611954e+001  1.852781e+001
      vertex -7.948325e+001 -4.583492e+001  3.220338e+001
    endloop
  endfacet
  facet normal -1.519039e-001 -8.065484e-001 -5.713186e-001
    outer loop
      vertex -7.948325e+001 -4.583492e+001  3.220338e+001
      vertex -7.963339e+001 -3.611954e+001  1.852781e+001
      vertex -7.948325e+001 -3.613148e+001  1.850473e+001
    endloop
  endfacet
  facet normal  1.000000e+000  0.000000e+000  0.000000e+000
    outer loop
      vertex -7.898325e+001  5.132476e+001  1.900473e+001
      vertex -7.898325e+001  1.582850e+002  2.479924e+001
      vertex -7.898325e+001 -3.587292e+001  1.900473e+001
    endloop
  endfacet
  facet normal  1.000000e+000  0.000000e+000  -0.000000e+000
    outer loop
      vertex -7.898325e+001  5.132476e+001  1.900473e+001
      vertex -7.898325e+001  1.096991e+002  1.900473e+001
      vertex -7.898325e+001  1.582850e+002  2.479924e+001
    endloop
  endfacet
  facet normal  1.000000e+000  0.000000e+000  -0.000000e+000
    outer loop
      vertex -7.898325e+001 -4.545061e+001  3.252586e+001
      vertex -7.898325e+001 -3.587292e+001  1.900473e+001
      vertex -7.898325e+001  1.582850e+002  2.479924e+001
    endloop
  endfacet
  facet normal  1.000000e+000  0.000000e+000  -0.000000e+000
    outer loop
      vertex -7.898325e+001 -4.545061e+001  3.252586e+001
      vertex -7.898325e+001  1.582850e+002  2.479924e+001
      vertex -7.898325e+001  1.675847e+002  3.790516e+001
    endloop
  endfacet
  facet normal  1.000000e+000  0.000000e+000  -0.000000e+000
    outer loop
      vertex -7.898325e+001 -4.545061e+001  3.252586e+001
      vertex -7.898325e+001  1.675847e+002  3.790516e+001
      vertex -7.898325e+001  1.676358e+002  4.101218e+001
    endloop
  endfacet
  facet normal  1.000000e+000  0.000000e+000  0.000000e+000
    outer loop
      vertex -7.898325e+001 -4.545061e+001  3.252586e+001
      vertex -7.898325e+001  1.676358e+002  4.101218e+001
      vertex -7.898325e+001  1.623254e+002  4.632256e+001
    endloop
  endfacet
  facet normal  1.000000e+000  0.000000e+000  0.000000e+000
    outer loop
      vertex -7.898325e+001 -4.545061e+001  3.252586e+001
      vertex -7.898325e+001  1.623254e+002  4.632256e+001
      vertex -7.898325e+001 -2.900834e+001  4.632256e+001
    endloop
  endfacet
  facet normal  1.901839e-001  1.162622e-001 -9.748400e-001
    outer loop
      vertex -7.948325e+001  1.097288e+002  1.850473e+001
      vertex -7.948325e+001  1.578947e+002  2.424914e+001
      vertex -7.929653e+001  1.097266e+002  1.854090e+001
    endloop
  endfacet
  facet normal  1.566386e-001  1.168293e-001 -9.807219e-001
    outer loop
      vertex -7.929653e+001  1.097266e+002  1.854090e+001
      vertex -7.948325e+001  1.578947e+002  2.424914e+001
      vertex -7.932855e+001  1.579139e+002  2.427613e+001
    endloop
  endfacet
  facet normal  5.427585e-001  9.961829e-002 -8.339600e-001
    outer loop
      vertex -7.929653e+001  1.097266e+002  1.854090e+001
      vertex -7.932855e+001  1.579139e+002  2.427613e+001
      vertex -7.913706e+001  1.097205e+002  1.864396e+001
    endloop
  endfacet
  facet normal  5.203344e-001  1.011641e-001 -8.479492e-001
    outer loop
      vertex -7.913706e+001  1.097205e+002  1.864396e+001
      vertex -7.932855e+001  1.579139e+002  2.427613e+001
      vertex -7.913161e+001  1.580076e+002  2.440816e+001
    endloop
  endfacet
  facet normal  9.114236e-001  4.867080e-002 -4.085805e-001
    outer loop
      vertex -7.913706e+001  1.097205e+002  1.864396e+001
      vertex -7.913161e+001  1.580076e+002  2.440816e+001
      vertex -7.898369e+001  1.097003e+002  1.898368e+001
    endloop
  endfacet
  facet normal  8.870439e-001  5.420082e-002 -4.584924e-001
    outer loop
      vertex -7.898369e+001  1.097003e+002  1.898368e+001
      vertex -7.913161e+001  1.580076e+002  2.440816e+001
      vertex -7.899043e+001  1.582191e+002  2.470630e+001
    endloop
  endfacet
  facet normal  9.997789e-001  2.599935e-003 -2.086508e-002
    outer loop
      vertex -7.898369e+001  1.097003e+002  1.898368e+001
      vertex -7.899043e+001  1.582191e+002  2.470630e+001
      vertex -7.898325e+001  1.096991e+002  1.900473e+001
    endloop
  endfacet
  facet normal  9.964005e-001  1.003886e-002 -8.417423e-002
    outer loop
      vertex -7.898325e+001  1.096991e+002  1.900473e+001
      vertex -7.899043e+001  1.582191e+002  2.470630e+001
      vertex -7.898325e+001  1.582850e+002  2.479924e+001
    endloop
  endfacet
  facet normal  9.238800e-001  0.000000e+000 -3.826822e-001
    outer loop
      vertex -7.912969e+001  5.132476e+001  1.865118e+001
      vertex -7.898325e+001  5.132476e+001  1.900473e+001
      vertex -7.898325e+001 -3.587292e+001  1.900473e+001
    endloop
  endfacet
  facet normal  9.805643e-001  8.513289e-004 -1.961966e-001
    outer loop
      vertex -7.912969e+001  5.132476e+001  1.865118e+001
      vertex -7.898325e+001 -3.587292e+001  1.900473e+001
      vertex -7.902158e+001 -3.597221e+001  1.881273e+001
    endloop
  endfacet
  facet normal  8.284409e-001 -1.048088e-005 -5.600765e-001
    outer loop
      vertex -7.912969e+001  5.132476e+001  1.865118e+001
      vertex -7.902158e+001 -3.597221e+001  1.881273e+001
      vertex -7.913305e+001 -3.605747e+001  1.864785e+001
    endloop
  endfacet
  facet normal  5.523070e-001  1.055315e-005 -8.336408e-001
    outer loop
      vertex -7.912969e+001  5.132476e+001  1.865118e+001
      vertex -7.913305e+001 -3.605747e+001  1.864785e+001
      vertex -7.929114e+001 -3.611163e+001  1.854311e+001
    endloop
  endfacet
  facet normal  1.958162e-001  8.504767e-004 -9.806402e-001
    outer loop
      vertex -7.912969e+001  5.132476e+001  1.865118e+001
      vertex -7.929114e+001 -3.611163e+001  1.854311e+001
      vertex -7.948325e+001 -3.613148e+001  1.850473e+001
    endloop
  endfacet
  facet normal  3.826822e-001  0.000000e+000 -9.238800e-001
    outer loop
      vertex -7.912969e+001  5.132476e+001  1.865118e+001
      vertex -7.948325e+001 -3.613148e+001  1.850473e+001
      vertex -7.948325e+001  5.132476e+001  1.850473e+001
    endloop
  endfacet
  facet normal  3.826822e-001  0.000000e+000 -9.238800e-001
    outer loop
      vertex -7.948325e+001  5.132476e+001  1.850473e+001
      vertex -7.948325e+001  1.097288e+002  1.850473e+001
      vertex -7.912969e+001  5.132476e+001  1.865118e+001
    endloop
  endfacet
  facet normal  1.901732e-001 -1.310477e-003 -9.817497e-001
    outer loop
      vertex -7.912969e+001  5.132476e+001  1.865118e+001
      vertex -7.948325e+001  1.097288e+002  1.850473e+001
      vertex -7.929653e+001  1.097266e+002  1.854090e+001
    endloop
  endfacet
  facet normal  5.427595e-001 -3.536010e-005 -8.398881e-001
    outer loop
      vertex -7.912969e+001  5.132476e+001  1.865118e+001
      vertex -7.929653e+001  1.097266e+002  1.854090e+001
      vertex -7.913706e+001  1.097205e+002  1.864396e+001
    endloop
  endfacet
  facet normal  9.997790e-001  0.000000e+000 -2.101937e-002
    outer loop
      vertex -7.898325e+001  1.096991e+002  1.900473e+001
      vertex -7.898325e+001  5.132476e+001  1.900473e+001
      vertex -7.898369e+001  1.097003e+002  1.898368e+001
    endloop
  endfacet
  facet normal  9.238801e-001 -1.309746e-004 -3.826823e-001
    outer loop
      vertex -7.898369e+001  1.097003e+002  1.898368e+001
      vertex -7.898325e+001  5.132476e+001  1.900473e+001
      vertex -7.912969e+001  5.132476e+001  1.865118e+001
    endloop
  endfacet
  facet normal  9.114239e-001  6.414649e-005 -4.114687e-001
    outer loop
      vertex -7.898369e+001  1.097003e+002  1.898368e+001
      vertex -7.912969e+001  5.132476e+001  1.865118e+001
      vertex -7.913706e+001  1.097205e+002  1.864396e+001
    endloop
  endfacet
  facet normal  2.343813e-001 -7.932876e-001 -5.619254e-001
    outer loop
      vertex -7.948325e+001 -4.583492e+001  3.220338e+001
      vertex -7.948325e+001 -3.613148e+001  1.850473e+001
      vertex -7.925539e+001 -4.579269e+001  3.223882e+001
    endloop
  endfacet
  facet normal  1.958382e-001 -8.005351e-001 -5.663841e-001
    outer loop
      vertex -7.925539e+001 -4.579269e+001  3.223882e+001
      vertex -7.948325e+001 -3.613148e+001  1.850473e+001
      vertex -7.929114e+001 -3.611163e+001  1.854311e+001
    endloop
  endfacet
  facet normal  6.518502e-001 -6.184549e-001 -4.388678e-001
    outer loop
      vertex -7.925539e+001 -4.579269e+001  3.223882e+001
      vertex -7.929114e+001 -3.611163e+001  1.854311e+001
      vertex -7.907748e+001 -4.567517e+001  3.233743e+001
    endloop
  endfacet
  facet normal  5.519752e-001 -6.812494e-001 -4.808561e-001
    outer loop
      vertex -7.907748e+001 -4.567517e+001  3.233743e+001
      vertex -7.929114e+001 -3.611163e+001  1.854311e+001
      vertex -7.913305e+001 -3.605747e+001  1.864785e+001
    endloop
  endfacet
  facet normal  8.285815e-001 -4.565239e-001 -3.240966e-001
    outer loop
      vertex -7.907748e+001 -4.567517e+001  3.233743e+001
      vertex -7.913305e+001 -3.605747e+001  1.864785e+001
      vertex -7.902158e+001 -3.597221e+001  1.881273e+001
    endloop
  endfacet
  facet normal  9.806490e-001 -1.597550e-001 -1.131625e-001
    outer loop
      vertex -7.898325e+001 -3.587292e+001  1.900473e+001
      vertex -7.898325e+001 -4.545061e+001  3.252586e+001
      vertex -7.902158e+001 -3.597221e+001  1.881273e+001
    endloop
  endfacet
  facet normal  9.516807e-001 -2.513675e-001 -1.764033e-001
    outer loop
      vertex -7.902158e+001 -3.597221e+001  1.881273e+001
      vertex -7.898325e+001 -4.545061e+001  3.252586e+001
      vertex -7.907748e+001 -4.567517e+001  3.233743e+001
    endloop
  endfacet
  facet normal  -0.000000e+000  0.000000e+000  1.000000e+000
    outer loop
      vertex -7.898325e+001  1.623254e+002  4.632256e+001
      vertex -7.998325e+001  1.623254e+002  4.632256e+001
      vertex -7.898325e+001 -2.900834e+001  4.632256e+001
    endloop
  endfacet
  facet normal  0.000000e+000  0.000000e+000  1.000000e+000
    outer loop
      vertex -7.898325e+001 -2.900834e+001  4.632256e+001
      vertex -7.998325e+001  1.623254e+002  4.632256e+001
      vertex -7.998325e+001 -2.900834e+001  4.632256e+001
    endloop
  endfacet
  facet normal  -0.000000e+000  7.071068e-001  7.071068e-001
    outer loop
      vertex -7.898325e+001  1.676358e+002  4.101218e+001
      vertex -7.998325e+001  1.676358e+002  4.101218e+001
      vertex -7.898325e+001  1.623254e+002  4.632256e+001
    endloop
  endfacet
  facet normal  0.000000e+000  7.071068e-001  7.071068e-001
    outer loop
      vertex -7.898325e+001  1.623254e+002  4.632256e+001
      vertex -7.998325e+001  1.676358e+002  4.101218e+001
      vertex -7.998325e+001  1.623254e+002  4.632256e+001
    endloop
  endfacet
  facet normal  0.000000e+000  9.998649e-001 -1.643510e-002
    outer loop
      vertex -7.898325e+001  1.675847e+002  3.790516e+001
      vertex -7.998325e+001  1.675847e+002  3.790516e+001
      vertex -7.898325e+001  1.676358e+002  4.101218e+001
    endloop
  endfacet
  facet normal  0.000000e+000  9.998649e-001 -1.643510e-002
    outer loop
      vertex -7.898325e+001  1.676358e+002  4.101218e+001
      vertex -7.998325e+001  1.675847e+002  3.790516e+001
      vertex -7.998325e+001  1.676358e+002  4.101218e+001
    endloop
  endfacet
endsolid CATIA STL
